<svg xmlns="http://www.w3.org/2000/svg" xmlns:xlink="http://www.w3.org/1999/xlink" viewBox="0 0 1928.99 1250.78"><defs><style>.cls-1{fill:none;}.cls-2{fill:#4f84a8;}.cls-3{fill:#4c5f8e;}.cls-4{fill:#383654;}.cls-5{fill:#42517c;}.cls-6{fill:#454a58;}.cls-7{fill:#343843;}.cls-8{fill:#15171e;}.cls-9{fill:#242730;}.cls-10{fill:#565d6c;}.cls-11{clip-path:url(#clip-path);}.cls-12{fill:url(#linear-gradient);}.cls-13{fill:url(#linear-gradient-2);}.cls-14{fill:url(#linear-gradient-3);}</style><clipPath id="clip-path" transform="translate(5.92 -34.54)"><rect class="cls-1" width="1923.07" height="884.65"/></clipPath><linearGradient id="linear-gradient" x1="671.29" y1="513.17" x2="671.29" y2="879.03" gradientUnits="userSpaceOnUse"><stop offset="0" stop-color="#46cdd0"/><stop offset="1" stop-color="#3db5c1"/></linearGradient><linearGradient id="linear-gradient-2" x1="1516.51" y1="456.57" x2="1516.51" y2="795.81" xlink:href="#linear-gradient"/><linearGradient id="linear-gradient-3" x1="950.62" y1="562.76" x2="950.62" y2="753.09" gradientUnits="userSpaceOnUse"><stop offset="0" stop-color="#42c0c6"/><stop offset="1" stop-color="#349ab2"/></linearGradient></defs><g id="Layer_2" data-name="Layer 2"><g id="OBJECT"><rect class="cls-1" x="1148.81" y="225.32" width="268.09" height="222.24"/><path class="cls-2" d="M1130.25,341.53l0-.55a6.38,6.38,0,0,1,2-1.54,1.61,1.61,0,0,0,1-1.62,34.23,34.23,0,0,1,.91-5.95c.24-1.57.7-3.16-.45-4.59-.48-.59-.71-1,.37-1,.41,0,.43-.26.32-.54a5.24,5.24,0,0,1,.42-4,81.71,81.71,0,0,1,4.78-10.53,2.07,2.07,0,0,0,.23-1.79,28.79,28.79,0,0,0,1.75-2.78c.8-1.68,2.23-3,2.57-4.95l0,0a1.37,1.37,0,0,0,1.1-.64c.63-1.49,2.27-1.92,3.16-3.12.09.31.15.94.59.55,1.21-1.07,2.89-1.54,3.87-2.83,1.58-2.09,3.6-3.79,5.14-5.9.27-.37.54-.48,1-.05a1.51,1.51,0,0,0,2.4-.39c.16-.27.36-.58.09-.86s-.48-.05-.73,0-.73.61-1,.08c-.2-.38.15-.76.44-1s.78-.73,1.3-.52c.73.3,1.19-.07,1.68-.47.73-.6,1.43-1.22,2.16-1.79a4.55,4.55,0,0,1,3.27-.55c.53,0,.89.25,1.32-.23s.6-.33.78.27a5.43,5.43,0,0,1,0,3.79c-1.21.08-1.18,1.47-2,1.92-.22.12-.45.38-.21.65s.51.13.72,0a4,4,0,0,0,1.53-2.54,5.42,5.42,0,0,0,2-2.24c.66-1.1,1.38-2.15,2-3.24.27-.43.56-.65.93-.18.6.76,1.14.73,1.71,0a.4.4,0,0,1,.6-.1.42.42,0,0,1,.06.61c-.57.71-1,1.64-2.18,1.45a1.89,1.89,0,0,0-2,1.2c-.71,1.6-1.62,3.08-2.42,4.62-.16.31-.42.68-.11,1s.65,0,.94-.2.75-.38,1.12-.1.29.8.19,1.23a13.65,13.65,0,0,1-1.75,3.75,2.29,2.29,0,0,0-.39,2c.22-.11.38-.15.43-.24,1.59-2.63,3-5.32,3.24-8.47,0-.26-.09-.6.17-.74,1-.57,1.41-2,3-1.9,1.32.06,1.65.12,1.37,1.48-.33,1.55-.33,1.55,1.27,1.5,2.4-.09,3.37,1.34,2.38,3.45-.61,1.27-1.42,2.5-1,4.05.15.48-.27.6-.64.65-.63.09-1.51-.22-1.64.72-.11.7-.8,1.17-.71,1.83.37,2.66-1.38,4.71-2,7.1a2.74,2.74,0,0,0,0,2.26h0c-.33.16-.7.33-.49.79a.8.8,0,0,0,.92.39c1.23-.19,2.51.1,3.71-.38.43-.17,1-.24,1.09.36s-.49.64-.92.69c-1.33.17-2.66.33-4,.45a1.8,1.8,0,0,0-1.88,1.85,16.88,16.88,0,0,1-.8,4.33,1.54,1.54,0,0,0,.59,2,2.52,2.52,0,0,1,1.09,2.3c0,.79.16,1.06.9.68s.85.15.88.64a2.18,2.18,0,0,1-.71,1.54c-.27.31-.65.72-.34,1.06a24.48,24.48,0,0,1,1.49,2.42c.58-.75-.65-2,.44-2.13.88-.11.64,1.29.94,2a1.32,1.32,0,0,1-.93,1.7c-1.36.46-1.44.55-.58,1.76a13.21,13.21,0,0,0,1.67,1.91c.72.69,1.39.5,1.75-.42a2,2,0,0,0,.15-1.45c-1-2.61.07-5.22,0-7.82-.12-3.42,1.22-6.66,1.23-10.06,0-1,.12-1.82,1.45-1.88-2.06-1.82-1.76-4,.6-5.35.51-.29.52-.76.64-1.24.6-2.38,1-4.8,1.57-7.19.39-1.79,1.39-2.14,2.86-2.14,1,0,1.21-.6,1.55-1.44,1.1-2.77,1.16-5.87,2.73-8.48a10.08,10.08,0,0,0,1.07-2.73,23.82,23.82,0,0,1,2.31-5.25c.17-.31.44-.62.86-.48s.35.55.27.9a22.54,22.54,0,0,1-1.08,4,18.53,18.53,0,0,0-1.31,3.44c-.32,1.75-1.28,3.31-1.35,5.11,0,.42-.43.86-.15,1.28.42.62.8-.48,1.28-.08a1.28,1.28,0,0,1-.13.36c-.27.31-.57.57-.83.88-1.8,2.07-3.76,4-4.62,6.76l-.54.92-.51.8a20.81,20.81,0,0,0-1.36,8.87,17.82,17.82,0,0,0,4.6,11.48l.49.56.35.74.57.84.69.08a10.35,10.35,0,0,0,3.18,2.94,9.74,9.74,0,0,1,2.22,1.15,4.85,4.85,0,0,0,2.4,1,14.31,14.31,0,0,1,4.89,1.89c-2,.5-2.72.39-5-.59-.61-.26-1.2-.61-1.86-.06s-.52,1.37-.37,2.18.69,1,1.38,1.19a10.13,10.13,0,0,0,3.06.07c2.12-.16,4.11,1,6.29.45,1-.25,2.33,1.39,1.89,2.36-.58,1.24.18,1.35.95,1.63-.37.58-1,.82-1.06,1.47l-2.39,0-1.08,0-1.31.06c-6.81-.18-13.6.25-20.4.43-.28,0-.63,0-1,.64h7.12a1.77,1.77,0,0,0,2,.88,4.66,4.66,0,0,1,2.1.08c.39.13.86.59,1.2.15s-.32-.74-.43-1.15l1.07-.08c.45.54,1.14,1,1.3,1.63.24,1,1.37,1.37,1.4,2.14,0,1-1.41.77-1.93,1.57a3.65,3.65,0,0,1-3.72,1.9,4.24,4.24,0,0,0-2.49.1l-.49,0a2.72,2.72,0,0,0-1.82-.18c-.39.07-.8.2-1.06-.27-.16-.31-.28-.72-.74-.59s-.61.63-.61,1.08c0,1,0,2,.08,3.06.08,2.61.24,5.23.2,7.84,0,1.23-.65,2.49.51,3.53l0,1c.15,1.71.32,3.42.44,5.14.15,2.25-.8,3.38-2.63,3.19-.59-2.74-.57-5.58-1.37-8.28a8,8,0,0,0,.12-1.6c-.58-4.25-.51-8.55-.9-12.82-.08-.95,0-2.14-1.48-2-1,.1-2.18-.85-2.82,0-1.19,1.51-2.68,1.13-4.14,1.17s-3.12,0-4.68.12c-.37,0-1.18,0-.74.82,1.09,2.06.15,3.82-.79,5.59-.12.24-.21.52-.54.5s-.49-.34-.53-.67c-.13-1-.62-.72-1.17-.33s-.69,1,0,1.49a.66.66,0,0,1,.15.95.68.68,0,0,1-.93.3c-.91-.57-1.82-.19-2.73-.06-.43.06-1,0-1,.61s.42.75.8,1a1.5,1.5,0,0,0,1,.17c.65-.1,1.34,0,1.24.77s-.83.39-1.33.31c-1.15-.18-1.94.64-1.29,1.48.82,1.08.06,2.05.22,3a.53.53,0,0,1-.35.65c-.34.08-.43-.22-.55-.46s-.32-1-.75-.53a3,3,0,0,0-1.07,2.33c.17,1.66.74,3.23.91,4.87.14,1.35.76,1.67,2,1.62,3.84-.17,7.68-.33,11.51-.27,1.32,0,2.66.12,4,.19.52,0,1,.22.56.8-.6.77-.35,1.5-.19,2.29a5.32,5.32,0,0,1,.28,2.23c-.31,1.19-1.09,2.31.37,3.27.07,0,.06.25.07.38.27,2.44.54,4.89.8,7.33,0,.35.49.83-.15,1-.48.13-1.19,0-1.28-.47-.19-.89-.92-1.4-1.2-2.21-1.36-4-2.14-8.09-3.17-12.14-.3-1.19-.72-1.81-2-1.79-3,.05-6,.37-9,.2-1.49-.09-3,.15-4.53.16-2.13,0-2.44.5-1.91,2.54.36,1.38.78,2.74,1.23,4.1a50,50,0,0,0,2.18,6c.21.46.37.92,1,.9,1.88-.06,3.72.36,5.6.29a43.53,43.53,0,0,1,6.56,0c.37,0,1-.13,1,.38s-.58.42-1,.49-.54,0-.81,0a43.29,43.29,0,0,1-5.58-.16c-2.71,0-5.43-.15-8.15-.11-3.25.06-6.51-.41-9.75.15l-1-.22c-.93-.24-2-.07-2.67-1a12.76,12.76,0,0,1-1.79-3.41c-.71-2.24-1.49-4.45-2.29-6.66-1.32-3.59-.73-2.93-4.34-2.88a8.22,8.22,0,0,1-3.36-.55,3.61,3.61,0,0,1,1.18-.35.76.76,0,0,0,.68-1.06c-.7-3-1.43-6-2.06-9.05a56.77,56.77,0,0,1-1.23-8.7c0-.71-.11-1.42-.22-2.12a1.69,1.69,0,0,0-2.26-1.6,6.83,6.83,0,0,1-3,.07l-.08-.77a.89.89,0,0,0-.2-1.09l.07-1.59a2.68,2.68,0,0,0,.7-1.5.15.15,0,0,1,.11-.08,21.24,21.24,0,0,1,2.93-1.27,126.2,126.2,0,0,1,19-2.25c2-.12,4-.1,6-.39s3.83.24,5.83-.1c4-.69,8.17-.52,12.27-.65a43.15,43.15,0,0,0,7.19-.35,5.37,5.37,0,0,0,2.29-.32,1.86,1.86,0,0,0-2-.3c-.91-.62-1.83,0-2.73,0-6.47.22-12.94.54-19.41.76-7.45.26-14.88.8-22.3,1.57a58.31,58.31,0,0,0-7.78,1.35c-1.17.28-1.69-.13-1.67-1.33A16.77,16.77,0,0,0,1130.25,341.53Zm38.8-54.43a1.61,1.61,0,0,0,1.12-1c.1-.29.24-.63-.14-.8s-.61.11-.7.41a12.84,12.84,0,0,0-.28,1.4c-.54.21-1.15.36-1.16,1.1,0,.26.19.48.44.37C1169,288.3,1169,287.68,1169.05,287.1Zm-20.62,83.45a2,2,0,0,1,.63,1.43c.11,1.43.85,2,2.28,2,2.05-.05,4.1,0,6.15.08.67,0,.85-.2.7-.88-.63-2.91-1.22-5.84-1.83-8.76-.23-1.05-.48-2.1-.77-3.4a2.62,2.62,0,0,0-.35,2.27c.48,2.58,1,5.16,1.5,7.74.09.47.37,1-.15,1.48-.14-.16-.27-.25-.3-.36-1.09-4.67-2.16-9.34-3.24-14-.06-.24.07-.61-.31-.63a.58.58,0,0,0-.6.6,2.71,2.71,0,0,0,.12.79c.25,1.22,1,2.37.38,3.72-.17.37.33,1.09-.43,1.16s-.83-.56-1-1.07.07-1.24-.57-1.86c-.43.93.22,1.88-.3,2.66-.47-.07-.51-1.12-1.13-.57a1.23,1.23,0,0,0-.36,1.77,3.3,3.3,0,0,1,.62,1.88c0,.28.1.59-.4.67-.92.14-.92.21-.3,1,.2.25.7.43.35.85a1,1,0,0,1-1,.17,5.78,5.78,0,0,1-.79-.46c-1.18-.63-.52-1.86-.9-2.76s-.36-1.64.65-2.13c.24-.12.66-.53.22-.67a3.67,3.67,0,0,0-1.83,0c-.49.11-.42.63-.35,1,.27,1.67.49,3.35.87,5,.28,1.26.77,2.46,1.17,3.69.14.45.38.89.91.79s.3-.71.38-1.11C1148.55,372,1147.92,371.36,1148.43,370.55Zm-10.62-16.08a52.55,52.55,0,0,0,1,8.76c.54,3.26,1.5,6.42,2.29,9.62.19.76.53,1.26,1.46,1.24,3.27-.08,3.48-.41,2.55-3.5a80.3,80.3,0,0,1-2.34-11c-.39-2.57-.39-5.16-.68-7.73-.06-.54-.09-1-.81-1.18-2.08-.42-3.48.66-3.44,2.7C1137.82,353.76,1137.81,354.12,1137.81,354.47Zm16.45,33.72.66,0c2.62.11,3-.59,1.94-3a37.76,37.76,0,0,1-2.17-5.16,5.49,5.49,0,0,0-1.59-2.74c-.4-.35-.61-.65-.26-1.24a.64.64,0,0,0-.68-1c-1.87.23-3.65-.63-5.53-.38-1.39.18-1.7.39-1.25,1.75.86,2.62,2,5.17,2.82,7.78C1149.23,387.44,1151,388.82,1154.26,388.19Zm2.29-13.15c-.57.13-1.46-.25-1.92.32s.5,1.05.52,1.67c0,.05,0,.09,0,.14.31,3.57,2.28,6.6,3.29,9.95.37,1.2,3,1.63,4,.79.33-.3.24-.61.12-1-1.13-3.37-2.28-6.73-3.35-10.12C1158.6,375,1158.66,374.94,1156.55,375Zm-19.84-39c.17.7-.23,1.44.58,1.77a2.18,2.18,0,0,0,2.88-1.71c.15-1.23.12-2.5.31-3.73.51-3.25,1.1-6.49,1.64-9.74.09-.52.58-1.26-.2-1.52s-.74.61-1,1-.42,1-1,1.26a2.5,2.5,0,0,0-1.47,2.09C1137.87,329.06,1137.29,332.62,1136.71,336.06Zm56.85-5.84a13.18,13.18,0,0,0,0,3.2c.09.77.52,1.22,1.23,1.05a8.28,8.28,0,0,1,2.9.12c1.26.15,1.8-.4,1.77-1.69,0-.94-.1-1.88,0-2.81a1.39,1.39,0,0,0-.92-1.56,8.13,8.13,0,0,1-3.36-2.34c-.19-.26-.37-.7-.81-.54s-.49.59-.59,1A18,18,0,0,0,1193.56,330.22Zm-45.31,35.1c-.14.12-.28.19-.3.29s.1.19.17.29c.09-.07.24-.12.28-.22S1148.32,365.47,1148.25,365.32ZM1185,307.7l.1-.05-.11-.13s-.06.07-.06.1S1185,307.67,1185,307.7Z" transform="translate(5.92 -34.54)"/><path class="cls-3" d="M1152.71,389.21c3.24-.56,6.5-.09,9.75-.15,2.72,0,5.44.1,8.15.11a43.29,43.29,0,0,0,5.58.16c.27,0,.55,0,.81,0s1,0,1-.49-.62-.34-1-.38a43.53,43.53,0,0,0-6.56,0c-1.88.07-3.72-.35-5.6-.29-.63,0-.79-.44-1-.9a50,50,0,0,1-2.18-6c-.45-1.36-.87-2.72-1.23-4.1-.53-2-.22-2.52,1.91-2.54,1.52,0,3-.25,4.53-.16,3,.17,6-.15,9-.2,1.29,0,1.71.6,2,1.79,1,4.05,1.81,8.17,3.17,12.14.28.81,1,1.32,1.2,2.21.09.43.8.6,1.28.47.64-.18.18-.66.15-1-.26-2.44-.53-4.89-.8-7.33,0-.13,0-.33-.07-.38-1.46-1-.68-2.08-.37-3.27a5.32,5.32,0,0,0-.28-2.23c-.16-.79-.41-1.52.19-2.29.45-.58,0-.77-.56-.8-1.33-.07-2.67-.17-4-.19-3.83-.06-7.67.1-11.51.27-1.27.05-1.89-.27-2-1.62-.17-1.64-.74-3.21-.91-4.87a3,3,0,0,1,1.07-2.33c.43-.49.59.2.75.53s.21.54.55.46a.53.53,0,0,0,.35-.65c-.16-1,.6-2-.22-3-.65-.84.14-1.66,1.29-1.48.5.08,1.23.43,1.33-.31s-.59-.87-1.24-.77a1.5,1.5,0,0,1-1-.17c-.38-.24-.83-.49-.8-1s.58-.55,1-.61c.91-.13,1.82-.51,2.73.06a.68.68,0,0,0,.93-.3.66.66,0,0,0-.15-.95c-.65-.52-.65-1,0-1.49s1-.71,1.17.33c0,.33.14.64.53.67s.42-.26.54-.5c.94-1.77,1.88-3.53.79-5.59-.44-.84.37-.8.74-.82,1.56-.09,3.12-.06,4.68-.12s3,.34,4.14-1.17c.64-.82,1.85.13,2.82,0,1.53-.15,1.4,1,1.48,2,.39,4.27.32,8.57.9,12.82a8,8,0,0,1-.12,1.6c-2-.32-2-.32-1.82-2a3.53,3.53,0,0,1-1.56.82c-.25,0-.58.06-.59.41s.25.47.48.59.57.25.85.38.78.2.67.67-.54.46-.88.37c-1-.28-1.06.27-1,1a24.61,24.61,0,0,0,.43,4.37c.6,2.93.85,3.07,3.85,2.88.87-.05,1.08-.42,1-1.16,1.83.19,2.78-.94,2.63-3.19-.12-1.72-.29-3.43-.44-5.14.49.22,1.09.45,1.12,1a12.39,12.39,0,0,1,.3,2.75,32.82,32.82,0,0,0-.25,4.1c-.06,1.06.44,1.47,1.51,1.55,1.7.11,3.38-.19,5.07-.14.77,0,1-.48,1-1.15,0-1,0-2.06-.17-3.06-.17-1.18,0-2.46-.81-3.47a4.44,4.44,0,0,1-1.08-3.44c.09-.74.24-1.47.31-2.22.08-.95-.13-1.79-1.34-1.6s-2.38.24-3.57.35c-.93.09-1.76.39-1.66,1.83,0,.72.58,1.8-.41,2.46-1.16-1-.53-2.3-.51-3.53,0-2.61-.12-5.23-.2-7.84,0-1-.09-2-.08-3.06,0-.45.09-.93.61-1.08s.58.28.74.59c.26.47.67.34,1.06.27a2.72,2.72,0,0,1,1.82.18c0,.15.06.42.12.43.28,0,.3-.22.37-.41a4.24,4.24,0,0,1,2.49-.1,3.65,3.65,0,0,0,3.72-1.9c.52-.8,2-.58,1.93-1.57,0-.77-1.16-1.18-1.4-2.14-.16-.61-.85-1.09-1.3-1.63,2.65-.41,5.33,0,8-.2l1.73-.13,1,.11q7.15,0,14.32,0a50.07,50.07,0,0,1,6.12.2c-.35.45-.85.41-1.35.43-.34,0-.64.13-.5.58s.72.67.1,1-.79-.19-1-.57c-.5-.75-.89-.65-1.16.17-.07.21-.17.41-.26.62-.74,1.78-1.95,3.53-.33,5.47a.6.6,0,0,1,.11.49,3.38,3.38,0,0,0,.26,2.95,1.58,1.58,0,0,1-.43,1.91c-.43.25-1.57.57-1.76-.26-.38-1.69-1.39-3.07-1.9-4.65-.28-.86-.23-1.47-1.34-1a1.45,1.45,0,0,1-.79-.07c-1.41-.38-2.85,0-4.27-.16-.36,0-.8.05-.93.4-.41,1.18-.93,1.13-1.57.09-.41.85,0,1.75-.61,2.42a1.14,1.14,0,0,1-.54-1.3,1,1,0,0,0-1-1.23c-.87,0-2-.57-2.53.59-.47.95.49,2,0,2.95a2.57,2.57,0,0,0,.53.31c.49.2,1.51-.12,1.38.62s-1,0-1.6.2c-.08,0-.18,0-.27,0a2.06,2.06,0,0,0-2.43,2.25,3.2,3.2,0,0,1-.5,1.78c-.16.21-.37.42-.17.71,1,1.54-.52,3.13.21,4.71-.7-.54-1.34-1-2-1.43-.94-.65-1.43-.35-1.53.68-.08.8-.53,1.12-1.12,1.61a5,5,0,0,0-2,3.32,27.13,27.13,0,0,0,.52,5.05,1.47,1.47,0,0,0,1.38,1.39,27.65,27.65,0,0,0,7,0,7,7,0,0,1,3.6.34c-.17.24-.33.35-.49.35-2.58.08-5.16.07-7.74.32a9.31,9.31,0,0,0-3.12.61c-.71.34-.06,1.28-.45,1.85a.6.6,0,0,1-.11.06c-.22,0-.31-.15-.37-.32-.81-2.21-.81-2.21-3.16-2.18l-1.47,0c-1.56,0-3.13,0-4.69,0-.71,0-1.43.08-.76,1.17a2.52,2.52,0,0,1,.16,2.32,1.46,1.46,0,0,0,0,1.29c.7,1.37.53,1.73-1,2.24-.32-.54.48-.83.29-1.41-1,0-1.51.34-1.55,1.45,0,1.56,0,3.11,0,4.66s.37,2.21,1.94,2.23c.89,0,1.79-.07,2.68,0,1.84.1,3.7-.28,5.52.34a30.94,30.94,0,0,1-4.18.39c-2.31.05-4.61.21-6.93.09-1.41-.08-2,.79-1.63,2.07.81,2.64,1.67,5.27,2.55,7.89.6,1.82,1.44,3.55,1.87,5.43.15.69.14,1.43-.63,1.72a4.15,4.15,0,0,1-2.49,0s-.14-.17-.11-.22c.74-1.8-.72-3-1.25-4.43-.32-.86-.57-1.84-1.5-2.3a1.31,1.31,0,0,1-.74-1.77c.11-.36.36-.81-.23-1a1.07,1.07,0,0,0-1,.08c-.46.37,0,.7.12,1.05.45,1.25,1.21,2.41,1.24,3.79,0,.87-.3,1.22-1.12.68a3.87,3.87,0,0,1-.95-.73,3.74,3.74,0,0,0-2.7-1.25c-1.06-.16-1.34.28-1.43,1.2a3.92,3.92,0,0,0,3.22,4.25c.54.09,1.14,0,1.61.5a23.31,23.31,0,0,1-5.41,0c-1-.15-1.34.21-1.17,1.28.21,1.33,1.1,2.09,1.88,3.06,1.56,1.94,3.21,3.81,4.78,5.76.37.46.72.88,1.43.77,1.44-.21,2.81.45,4.24.44.37,0,.86.28.69.63-.45,1,.13,1.71.41,2.53a.88.88,0,0,1-.27,1c-.42.34-.65-.05-.87-.31s-.71-.62-1.15-.28c-.67.52-1.25.25-2,.08-1.08-.26-2.25-1.33-3.35-.15-.62.66-1,.62-1.67.06a3.06,3.06,0,0,0-3.28-.73c-.94.29-2.31.82-3-.68,0-.11-.32-.16-.48-.16a3.9,3.9,0,0,1-3.05-1.65c-.64-.84-.91-.43-1.06.33a11.36,11.36,0,0,1-3-1.87,3.81,3.81,0,0,1,2.58-.44c3.31.16,6.59.86,9.93.74.37,0,.81.39,1-.17s-.13-.77-.38-1.09q-3.09-3.93-6.19-7.85c-1.14-1.44-4.42-2-6-1.12-.41.23-.75.59-.13.85,1.08.47,1.15,1.25.88,2.2a1.28,1.28,0,0,0,.57,1.46c-1.38.16-2.35,0-2.86-1.22-.2-.48-.77-.95-1.15-.71-.8.5-2.11-.38-2.54,1-.09.26-.4.09-.55-.09-.87-1.06-2.14-1.67-3.06-2.74-.69-.81-1.55-1.94-3-1.61-1.09-.75-2.84-.69-3.09-2.49,0-.07-.22-.13-.35-.17a5.07,5.07,0,0,1-2.08-1.79c-1.6-1.94-3.27-3.83-4.91-5.74l-.3-.5c.52-.5.25-.83-.25-1.1.07-.69-.76-1.63-.15-2,1.27-.69.12-.75-.16-.84a3.86,3.86,0,0,1-2.82-3.63,1.57,1.57,0,0,0-.64-1.13,7,7,0,0,1-1.91-2.85l.43-.27-.15-.15-.27.43a9.63,9.63,0,0,1-1.37-2.57,44.63,44.63,0,0,0-2.69-5.73.31.31,0,0,1-.06-.16,4.57,4.57,0,0,0-.1-1.58c-.76-1.72-1-3.61-1.62-5.35-.52-1.37-.35-2.94-1.22-4.2l-.1-.83a4.09,4.09,0,0,0-.51-2.92l-.08-.8a.69.69,0,0,0-.15-.82l-.1-1.34a1.28,1.28,0,0,0-.12-1.33l-.15-3.49.29-.54a6.83,6.83,0,0,0,3-.07,1.69,1.69,0,0,1,2.26,1.6c.11.7.18,1.41.22,2.12A56.77,56.77,0,0,0,1137,364c.63,3,1.36,6,2.06,9.05a.76.76,0,0,1-.68,1.06,3.61,3.61,0,0,0-1.18.35,8.22,8.22,0,0,0,3.36.55c3.61,0,3-.71,4.34,2.88.8,2.21,1.58,4.42,2.29,6.66A12.76,12.76,0,0,0,1149,388c.63.94,1.74.77,2.66,1-.05.22-.1.43-.16.64-.11.4-.26.85.28,1s.77-.28.87-.75C1152.68,389.65,1152.69,389.43,1152.71,389.21Zm16.75,9.8c1.44.65,1,2,1.25,3.06a.37.37,0,0,1-.31.5c-.25,0-.41-.16-.53-.35-.47-.7-.92-1.42-1.41-2.11-.32-.44-.53-1.18-1.27-1a2.22,2.22,0,0,0-1.54,1.37c-.19.51,0,1.35-.76,1.4s-.78-.77-1.18-1.17a2.14,2.14,0,0,1-.43-.67c-.52-1.12-1.38-1.2-2.5-.91.69,1.53,1.89,2.64,2.37,4.21.17.58.57,1.53,1.6,1.59,3,.15,5.91.35,8.87.52.43,0,1,.18,1.19-.33s-.36-.77-.68-1a10.05,10.05,0,0,1-3-4.44C1170.78,398.85,1170.25,398.79,1169.46,399ZM1204,350.38c0-.22.06-.44.06-.66,0-.66-.1-1.43-.88-1.41s-.41.83-.53,1.3a3.51,3.51,0,0,0,0,1.07c0,.54-.1,1-.65,1.18-1.52.37-1.27,1.42-.9,2.41a13.54,13.54,0,0,1,1.2,4.36,1.22,1.22,0,0,0,1.11,1.17c.52.12,1,.26,1.54.41.27.08.53.16.74-.1a.59.59,0,0,0,0-.75c-.69-.75-.63-1.75-.91-2.63C1204.16,354.67,1205.15,352.39,1204,350.38ZM1196.8,357c.31-.55-.12-1.2.28-1.76,1-1.43.64-3,.17-4.49a1.2,1.2,0,0,0-2-.54c-.67.58-.94,3-.28,3.62a3.58,3.58,0,0,1,1,2.09C1196.15,356.35,1196.14,356.86,1196.8,357Zm-29.94,40.63c-.12-.33-.29-.66-.7-.66s-.45.25-.37.54a.68.68,0,0,0,.75.59C1166.8,398.11,1166.89,397.92,1166.86,397.65ZM1188,375a.45.45,0,0,0-.52-.24c-.27,0-.61.07-.56.42s.37.34.65.3A.46.46,0,0,0,1188,375Zm1.57,1.92c0-.22-.12-.42-.37-.45s-.3.14-.26.34.14.43.38.46S1189.57,377.05,1189.57,376.87ZM1201.1,358c-.09.18-.2.29-.19.39s.15.15.24.23c.06-.1.18-.2.18-.3S1201.21,358.09,1201.1,358Zm-36.95,8.48s0-.08,0-.11l-.1-.05,0,.18Z" transform="translate(5.92 -34.54)"/><path class="cls-4" d="M1144.45,395.34c1.64,1.91,3.31,3.8,4.91,5.74a5.07,5.07,0,0,0,2.08,1.79c.13,0,.34.1.35.17.25,1.8,2,1.74,3.09,2.49a1.57,1.57,0,0,0,.45,1c1.15,1.13,2.68,2,3,3.75a.58.58,0,0,0,.39.34c2,.38,3.3,1.69,4.6,3.19.73.83,2.42.8,2.32,2.49,0,0,.08,0,.12.06a11.36,11.36,0,0,0,3,1.87,38.15,38.15,0,0,0,10.12,6.12,1.43,1.43,0,0,0,.91.07,3.62,3.62,0,0,1,3.82.89,1.07,1.07,0,0,0,1.81-.18,1.11,1.11,0,0,1,1.32-.39c2.7.69,5.51.36,8.23.87.73.14,1.53-.12,2.18.44a1.76,1.76,0,0,0,2.44,0c.71-.55,1.4-1.09,2.41-.73a.61.61,0,0,0,.82-.5c.05-1.11.81-1.2,1.62-1.37a2.06,2.06,0,0,0,1.17-.6.93.93,0,0,1,1.44-.3c.84.46,1.38-.69,1.25-.8-.88-.74.19-1.17.15-1.71a1.85,1.85,0,0,1,1.76-2.24c-1.24-.47-2.26-.46-2.74,1.09-.88-1.41-1-1.6-2.41-1.4a46.52,46.52,0,0,1-6,.08c-1.9,0-2.55-1.14-1.7-2.94,1,1.26,1.58,1.23,2.22-.25s1-2.78,1.52-4.14c.22-.53.4-.94,0-1.48a1.08,1.08,0,0,1,.4-1.61,1,1,0,0,1,1.59.37c.4.79.8.55,1.38.26a7.29,7.29,0,0,1,4.65-.81,8.88,8.88,0,0,0,3.93-.5c.28-.09.7-.13.58-.57a.66.66,0,0,0-.76-.44c-1.55.5-1.43-.6-1.56-1.53s-.35-1.84-.51-2.76c-.19-1.1.05-2,1.3-2.23.9-.17,1-.72.87-1.48a1.69,1.69,0,0,0-1.76-1.5c-.41,0-1,.27-1-.49s.59-.73,1.14-.55c.34.11.69.33,1,0s.68-.54,1.13-.16c.3.25.57.14.79-.17.42-.6.71-.23,1,.12s.49,1,1,.59-.13-.79-.29-1.18a7.5,7.5,0,0,1-.32-4.56,13,13,0,0,1,1.21,3.93,2.27,2.27,0,0,0,.85-2.57c-.34-1,0-1.37,1.13-1.54,1.34-.21,2.65.53,4-.07.4-.17,1.18.43,1.37-.31s-.66-.69-1.07-.95a1.4,1.4,0,0,0-1.63-.12c-1,.64-2,.3-3,.17-.33,0-.79-.2-.72-.47.3-1.14-.51-2.29.06-3.39.22-.41.42-.73-.17-.92s-.73.22-.77.64a5.92,5.92,0,0,0,0,1.33c.06.52,0,.9-.65.92-.45,0-1-.38-1.3.26s.68.69.76,1.34c-1.13.11-2.22.23-3.31.32-.26,0-.57,0-.71-.25s.08-.42.25-.57c1-.95.88-1.91.08-2.94a1.9,1.9,0,0,1,.11-2.48c.5-.64,1.12-.64,1.37.25.2.72.21,1.49.34,2.24s1.17,1.3,1.38.74a10.25,10.25,0,0,0,.31-2.9s-.07-.05-.11-.08c-.36-.25-.91-.47-.39-1s.84-.19,1.17.18c.76.84,1,.24,1.24-.43a3.35,3.35,0,0,0,.1-.79c.07-.87,1.33-2.11,2.22-1.94s1.33,1.07,1.43,2c.12,1.15.21,2.3.32,3.45.1,1,.62,1.39,1.75,1.25-.17-.27-.25-.41-.35-.54-.33-.4-.59-.86-.22-1.33a1.64,1.64,0,0,1,1.47-.5c.66,0,.65.67.68,1.13,0,.62,0,1.25-.06,1.87-.05,2.1.7,3,2.46,3a4.59,4.59,0,0,1,2,.1,4.92,4.92,0,0,0,3.4.12,4.43,4.43,0,0,1,2.11,0,6.09,6.09,0,0,0,3.75-.06c-.22-.44-.57-.41-.86-.47a28.17,28.17,0,0,0-4.68-.22c-1.81-.05-2.11-.45-2.26-2.21-.19-2.33,1.13-4.6.22-6.94a.64.64,0,0,1,.07-.52c.65-.91,1.08-1.78,0-2.69-.22-.18-.09-.61.06-.89a7.83,7.83,0,0,0,.42-5.64c-.27-1.17.2-1.4,1-1.69s1.65-.09,2.55-.85a12.74,12.74,0,0,1-3.29-.28l-.2-1.32c.64-.93-.31-1.77-.14-2.71.56-3,.15-6,.12-9,0-1.14-.74-2.07-.1-3.47.52-1.13.84-1.58,2-1.46.75.08,1.49.2,2.23.33.92.15,2,.81,2.61.6,1.2-.41,2.36-1,3.57-1.47a5.72,5.72,0,0,1,2.2-.73c.3,0,.69.07.8-.31s-.2-.58-.46-.74c-.59-.35-.73-.74-.22-1.28.35-.36,0-.87.23-1.28.42-.23,1,.55,1.3-.12s-.4-.82-.64-1.21c0-.08-.09-.15-.14-.23,3.87-.72,7.78.4,11.66-.18a1.25,1.25,0,0,0,1.45.13,1.82,1.82,0,0,1,2.07.23c-.24.24-.7.37-.49.84.72,1.59.52,2.89-1.38,3.75a9.77,9.77,0,0,0,3.35.43c.37,0,1-.22,1,.31s-.53.52-.88.67a5.82,5.82,0,0,1-2.88.49c-1.6-.17-3,.77-4.59.71-.33,0-.54.28-.65.61-.28.86-.62.58-.93,0s-.66-1.23-1.61-1.31c.17.64.57,1,.67,1.56.35,1.85.37,1.86-1.43,2-.26,0-.59,0-.67.33s.27.54.57.58c1.17.16,1.31.8,1,1.81s.63,2-.6,2.63c-.05,0,0,.25,0,.38.22,1.39-.43,3,.87,4.14.11.1,0,.42,0,.63.09,2.07-.84,4.14,0,6.21a.35.35,0,0,1-.15.46c-1.14.78-1,2-.66,3s1.43.6,2.24.6c.44,0,.92-.18,1.24.25a.51.51,0,0,1,0,.48c-.37.48-.87.28-1.36.24-.92-.07-2-.17-2.62.54s-.81.28-1-.18c-.33-.85-.56-1.72-.83-2.59-.32,2.82-2.38,2.33-4.17,2.33a3.11,3.11,0,0,0-1.45.17,1.65,1.65,0,0,0-.84.63.63.63,0,0,0,0,.75.39.39,0,0,0,.59.06c.44-.35.82-.41,1,.2a.75.75,0,0,1-.49,1.08c-.74.23-.82.72-.72,1.36a2.26,2.26,0,0,1-.39,1.65c-.3.47-.47.92.34,1a.88.88,0,0,1,.82,1c0,.6-.47.81-1,.87a2,2,0,0,0-1.52,1.18c-.61.56-1.79.73-1.65,1.82.07.53,2.11.35,3-.23.47.19.53.48.14.79a2.47,2.47,0,0,0-.79,2.05,10.25,10.25,0,0,1-.51,3.16,1.63,1.63,0,0,0,.07,1.43,1.84,1.84,0,0,1-.11,2c-.57,1.08-.25,1.7.94,2.11.24.09.55.08.61.51-.84.53-1.9,1.19-1.87,2.19a8.27,8.27,0,0,1-1,3.27c-.21.56-.38,1.39-1.08,1.4-.87,0-.54-1-.88-1.44,0-.07-.14-.09-.32-.21-.25.42-.46,1-1.15.83-1.21-.27-1.7.26-1.5,1.45s-1,1.51-1.35,2.35c-.22.49-.75-.18-1.16-.25-1-.17-2.07.29-2.09,1-.08,2.16-1.34,3.12-3.07,3.83a.76.76,0,0,0-.27.29,1.72,1.72,0,0,1-2.25.59,16.06,16.06,0,0,0-2.43-.71c-1.35-.21-1.9.49-1.49,1.8a1.91,1.91,0,0,1,0,1.43c-.53,1.16.12,1.45,1.09,1.47,1.29,0,2.59,0,3.88.07.69,0,1.35.22,1.53,1,.25,1.19-1.13,3-2.33,2.91s-1.66.52-2.32,1.23a10.58,10.58,0,0,1-4.92,3.39c-.81.21-1,.62-.73,1.37a9.24,9.24,0,0,1,.29.89.79.79,0,0,1-.34,1,.83.83,0,0,1-1.18-.24c-.46-.61-.91-1.22-1.31-1.86s-.63-.91-1.22-.92a35.26,35.26,0,0,0-5.34-.05c-.87.14-1.21.53-.56,1.2,1.54,1.6,2.5,4.06,5.36,3.8a1,1,0,0,1,.52.12c.19.1.44.22.49.39s-.18.47-.42.57c-1.09.44-2.17.82-3.34.15-.55-.31-1.64-.79-1.76-.19-.35,1.69-1.61,1.21-2.58,1.46l-.84-.05-1.33-.2-.54-.05a58.38,58.38,0,0,0-6.39-1.31l-1.08-.16-.83-.36-1-.19-.53-.36a62.7,62.7,0,0,1-12-4.55,94.36,94.36,0,0,1-16.75-10,92.65,92.65,0,0,1-18.61-19A3.78,3.78,0,0,1,1144.45,395.34Zm71,3.4c.44-.18,1.47.05,1.6-.61.27-1.4-1.46-1.06-2-1.88a.55.55,0,0,0-1,0,2,2,0,0,0,0,1.91C1214.33,398.66,1214.79,398.8,1215.49,398.74Zm31.74-29.45a1,1,0,0,0-.78-1.06c-.27-.06-.63,0-.59.32a1.45,1.45,0,0,0,.88,1.23C1247.06,369.91,1247.18,369.59,1247.23,369.29Zm6.11-22.44a.85.85,0,0,0-1-.71c-.24,0-.46.14-.37.42s.24.9.8.93C1253.19,347.5,1253.34,347.22,1253.34,346.85Zm-3.62,23a.68.68,0,0,0-.74-.59c-.38,0-.48.35-.43.68a.53.53,0,0,0,.62.52A.55.55,0,0,0,1249.72,369.84Zm-13.92,27.93c-.71-.53-1.22-.53-1.72-.16a.38.38,0,0,0,0,.35C1234.58,398.39,1235.07,398.09,1235.8,397.77Zm2.28-31.2c-.18-.43-.57-.36-.91-.35s-.74,0-.67.46.52.41.87.37S1238,367,1238.08,366.57Zm7.28,5.65c-.19-.68-.61-.94-1.19-.81-.32.06-.33.39-.23.64C1244.3,373,1244.9,371.89,1245.36,372.22ZM1231,398c.54.36.92.43,1.38.07A1,1,0,0,0,1231,398Zm9.85-16a.36.36,0,0,0-.46-.31.57.57,0,0,0-.36.29c-.06.26.15.37.38.39A.39.39,0,0,0,1240.81,382Zm6.32-10.26c.07-.05.17-.08.19-.14s-.06-.13-.1-.2-.17.08-.19.14S1247.1,371.63,1247.13,371.7Zm-24.53,19.84,0,.11.18,0s0-.1,0-.12S1222.64,391.54,1222.6,391.54Zm27.24-36.39-.11-.07-.06.18s.09,0,.12,0S1249.82,355.18,1249.84,355.15Zm-1.08,12.94-.13-.15-.08.08.13.15Zm0-1.61.08,0-.07-.05Z" transform="translate(5.92 -34.54)"/><path class="cls-4" d="M1205.25,433.17c1-.25,2.23.23,2.58-1.46.12-.6,1.21-.12,1.76.19,1.17.67,2.25.29,3.34-.15.24-.1.53-.26.42-.57s-.3-.29-.49-.39a1,1,0,0,0-.52-.12c-2.86.26-3.82-2.2-5.36-3.8-.65-.67-.31-1.06.56-1.2a35.26,35.26,0,0,1,5.34.05c.59,0,.93.43,1.22.92s.85,1.25,1.31,1.86a.83.83,0,0,0,1.18.24.79.79,0,0,0,.34-1,9.24,9.24,0,0,0-.29-.89c-.29-.75-.08-1.16.73-1.37a10.58,10.58,0,0,0,4.92-3.39c.66-.71,1.16-1.36,2.32-1.23s2.58-1.72,2.33-2.91c-.18-.82-.84-1-1.53-1-1.29-.05-2.59,0-3.88-.07-1,0-1.62-.31-1.09-1.47a1.91,1.91,0,0,0,0-1.43c-.41-1.31.14-2,1.49-1.8a16.06,16.06,0,0,1,2.43.71,1.72,1.72,0,0,0,2.25-.59.76.76,0,0,1,.27-.29c1.73-.71,3-1.67,3.07-3.83,0-.72,1.12-1.18,2.09-1,.41.07.94.74,1.16.25.37-.84,1.53-1.21,1.35-2.35s.29-1.72,1.5-1.45c.69.16.9-.41,1.15-.83.18.12.27.14.32.21.34.47,0,1.46.88,1.44.7,0,.87-.84,1.08-1.4a8.27,8.27,0,0,0,1-3.27c0-1,1-1.66,1.87-2.19-.06-.43-.37-.42-.61-.51-1.19-.41-1.51-1-.94-2.11a1.84,1.84,0,0,0,.11-2,1.63,1.63,0,0,1-.07-1.43,10.25,10.25,0,0,0,.51-3.16,2.47,2.47,0,0,1,.79-2.05c.39-.31.33-.6-.14-.79a6,6,0,0,1-1.37-1.59,2,2,0,0,1,1.52-1.18c.54-.06,1-.27,1-.87a.88.88,0,0,0-.82-1c-.81-.13-.64-.58-.34-1a2.26,2.26,0,0,0,.39-1.65c-.1-.64,0-1.13.72-1.36a.75.75,0,0,0,.49-1.08c-.21-.61-.59-.55-1-.2a.39.39,0,0,1-.59-.06.63.63,0,0,1,0-.75,1.65,1.65,0,0,1,.84-.63,3.11,3.11,0,0,1,1.45-.17c1.79,0,3.85.49,4.17-2.33.27.87.5,1.74.83,2.59.17.46.33.92,1,.18s1.7-.61,2.62-.54c.49,0,1,.24,1.36-.24a.51.51,0,0,0,0-.48c-.32-.43-.8-.25-1.24-.25-.81,0-1.88.45-2.24-.6s-.48-2.18.66-3a.35.35,0,0,0,.15-.46c-.81-2.07.12-4.14,0-6.21,0-.21.09-.53,0-.63-1.3-1.17-.65-2.75-.87-4.14,0-.13-.07-.36,0-.38,1.23-.66.35-1.77.6-2.63s.17-1.65-1-1.81c-.3,0-.68-.15-.57-.58s.41-.3.67-.33c1.8-.17,1.78-.18,1.43-2-.1-.54-.5-.92-.67-1.56,1,.08,1.27.7,1.61,1.31s.65.84.93,0c.11-.33.32-.62.65-.61,1.58.06,3-.88,4.59-.71a5.82,5.82,0,0,0,2.88-.49c.35-.15,1-.21.88-.67s-.65-.28-1-.31a9.77,9.77,0,0,1-3.35-.43c1.9-.86,2.1-2.16,1.38-3.75-.21-.47.25-.6.49-.84a4.94,4.94,0,0,1,2.35-.2,33.18,33.18,0,0,0,4.46.09c2.19-.13,4.15,1.22,6.4,1.3,1,0,1.36,1.13.76,2.27s-1.18,2.17,0,3.27l-.2.61-1.14-.06c-.13-.51.21-1.37-.59-1.39-.6,0-.51.81-.65,1.29a.34.34,0,0,0,0,.14,7.55,7.55,0,0,0-2.92.17c-.54.15-.81.48-.57,1,.9,1.82.36,3.81.78,5.68,0,.08,0,.23,0,.24-1.46.63-.69,1.68-.5,2.62a.86.86,0,0,1,0,.53c-1.43,2.56-.75,5.52-1.55,8.21a7,7,0,0,0-.12,2.37,1.94,1.94,0,0,1-.84,2,5.26,5.26,0,0,0-2.27,4.15,3,3,0,0,1-1.69,2.54c-1.07.53-1.27,1.7-1.49,2.72a16.24,16.24,0,0,1-2,5.23s-.06.07-.07.11c-.25,2.54-2.48,3.36-4.09,4.72,0,.21.18.27.35.33.42.15.71.41.59.9s-.44.51-.84.46-.57-.11-.69.22.18.46.36.66a2,2,0,0,1,.44.64.74.74,0,0,1-.27.84c-.35.27-.56,0-.71-.28s-.19-.45-.48-.31-.25.35-.23.58a12.74,12.74,0,0,1,.14,1.73c-.06,1-.35,1.84-1.54,2-.49.07-.84.24-.51.91a1.47,1.47,0,0,1-1,2.21c-1,.23-1.45.6-1.51,1.67a2.27,2.27,0,0,1-2.34,1.91c-.48,0-.78,0-1,.46a3.86,3.86,0,0,1-1.85,2.05c-1.93.84-2.36,2.75-3.42,4.2-.06.07-.15.18-.13.22.6,1.28-.83,2.32-.41,3.56a.7.7,0,0,1,.08.26c-.09.56,0,1.3-.33,1.62s-.82-.49-1.56-.48c.63,2.62-1.09,3.81-3,4.85a4.57,4.57,0,0,0-1.22,1.22,2.36,2.36,0,0,1-2.19,1,1.36,1.36,0,0,0-1.64,1.21c-.41,1.82-1.9,2.6-3.32,3.44-.19.11-.49.25-.63.17-1.39-.72-2.31.32-3.33.89-.63.35-1.13.56-1.54-.24-.1-.19-.26-.41-.52-.33s-.26.43-.23.68a1.44,1.44,0,0,1-1.23,1.75c-2.53.74-5,1.61-7.71,1.49C1208.86,433.94,1207,434.05,1205.25,433.17Zm52-60.53c-.36.09-.8.2-.5.67s.54.07.74-.18a10.45,10.45,0,0,0,3.29.39c.31,0,.67-.12.6-.54s-.4-.36-.65-.31a3.3,3.3,0,0,1-2.3-.36A.94.94,0,0,0,1257.24,372.64Zm-3.93,15.42a.37.37,0,0,0-.33-.39c-1.5-.08-3-.16-4.5-.22-.27,0-.56.16-.51.49s.39.47.7.49c1.11.08,2.19-.31,3.31-.14C1252.43,388.36,1253,388.54,1253.31,388.06Zm3.18-23.63c.73-.05,1.08-.06,1.43-.11s.72,0,.74-.4-.4-.4-.69-.43c-.66-.07-1.33-.12-2-.14-.33,0-.65.12-.66.51s.3.52.62.56A2.3,2.3,0,0,0,1256.49,364.43Zm-8.45,21h.49c.52,0,1-.16,1.07-.79,0-.31-.26-.6-.49-.41-.67.52-1.63-.17-2.17.6,0,0,.16.33.29.38A5.13,5.13,0,0,0,1248,385.45Zm4.56-24.26c.34,0,.86,0,.91-.36s-.51-.5-.88-.53-.82-.1-.84.38S1252.26,361.11,1252.6,361.19ZM1246.89,393c.68.31,1.17.5,1.66.11.06,0,0-.3,0-.34C1248,392.42,1247.53,392.62,1246.89,393Zm-10,12.48a.55.55,0,0,0-.58-.45c-.25,0-.43.15-.34.42a.58.58,0,0,0,.62.38A.29.29,0,0,0,1236.87,405.46Z" transform="translate(5.92 -34.54)"/><path class="cls-5" d="M1206.87,261l.51-.12c.33.73.86,1.3,1.63.75s1.84-.84,2.68-1.4l.79-.14.55-.11,1.87-.15.53-.05.77-.1a.58.58,0,0,0,.85,0,64.75,64.75,0,0,1,9.34-.28,2.68,2.68,0,0,0,1.21.52c.73.19,2-.58,2.06.74s-1.12,1.06-2,1a.68.68,0,0,0-.75.45c-.12.42.28.5.57.58a2.12,2.12,0,0,1,1.28.9,1.12,1.12,0,0,0,1.51.5,1.49,1.49,0,0,1,2.17.85,2.11,2.11,0,0,0,2.19,1.24c2.34-.18,4.61.56,6.94.43a2.32,2.32,0,0,1,1.88.88c.27.31.5.89,0,1-.75.17-1.31.95-2.23.63a1,1,0,0,0-1.3.39c-.26.58-.67.48-1.11.48-.62,0-1.25,0-1.88,0-1.06,0-1.42.55-1.19,1.57.32,1.4.17,2.92,1.08,4.18a1.15,1.15,0,0,1,.24,1c-.58,1.68,0,3.37.34,4.93a59.57,59.57,0,0,1,1.08,8.4c.07,1.42,0,2.85.06,4.28,0,.72.16,1.64,1.23,1.15a7.91,7.91,0,0,1,3.16-.27c.31,0,.69,0,.78.37s-.26.54-.55.63c-1.18.37-1.35,1.24-1.28,2.33.2,2.85.63,5.67.71,8.53,0,1.23.09,2.51,1.2,3.42a1.49,1.49,0,0,1,.39,1.11c-.09,1.15.13,1.77,1.34,1,.2.26.17.47,0,.56-1.43,1-1.33,2.27-.9,3.68a3.81,3.81,0,0,1,.09,1.07c0,1.44,0,3,.12,4.32.24,1.93.39,3.89.64,5.82.15,1.16.73,2.46-.49,3.48-.2.18-.12.52,0,.76.78,1.24,1.32,2.71,3.23,2.68,1,0,2-.11,1.3,1.69-.68,1.62-.38,1.73-2,1.33-.45-.11-1.06-.32-1.31.27s.16,1,.71,1.21a.89.89,0,0,1,.59,1.18l-9.82-.14-14.88-.2a5.8,5.8,0,0,1,.48-2.87c.66-1.75.27-2.48-1.6-2.75a23.31,23.31,0,0,0-3.34-.2,4.49,4.49,0,0,1-2.31-.53c-.36-.2-1-.26-.85-.85s.62-.45,1-.52c1.58-.26,3.17-.4,4.75-.73,2-.39,3.65-1.4,5.54-1.94a3.38,3.38,0,0,0,2.53-1.92,35.29,35.29,0,0,1,5.32-4.19l.65.07c-.14.79.38,1.65-.14,2.42-.67-.12-.28-1.31-1.2-1s-3,2.86-2.65,3.61c.65,1.3-.43,1.73-.83,2.49-.11.21-.42.31-.61.48-.72.67.14,1.31.06,2-.06.49.43.62.86.6,1.16-.07,2.34.25,3.47-.08.94-.27,2.21.62,2.68-.14s0-1.89-.08-2.87c-.18-2.61-.37-5.23-.55-7.84a7.14,7.14,0,0,0,.56-2.07c.43-.73.86-1.45,1.27-2.18a17.83,17.83,0,0,0,2.33-5.05c.09-.45.25-.89-.36-1.09,1.23-5.12,1.21-10.08-1.39-14.89a22.37,22.37,0,0,0-13.64-11.16,1.15,1.15,0,0,0-.83-.48l-.51,0a1.91,1.91,0,0,0-1.64-.49l-1.29-.29a5.94,5.94,0,0,1-2.41-.6c1.05-.26,1.8-.43,2-1.44.35-1.86-.19-3.76.32-5.61a1,1,0,0,0-.48-1c-1.06-.6-.7-1.14,0-1.71.89-.72,1.2-1.54.38-2.52a2.17,2.17,0,0,1-.36-1.52c0-1.3-1.09-2.25-1.28-3.52,0-.07-.33-.2-.45-.15-.74.29-.83-.19-.92-.72a.67.67,0,0,0-.62-.62c-1.47-.06-2.89-.83-4.35-.52-3.6.76-7.27.51-10.89,1-1.67.22-3.36.24-5,.38-2.07.18-4.12.65-6.18,1a60.56,60.56,0,0,0-9.4,2.31,39.27,39.27,0,0,0-3.78,1.6,23,23,0,0,0-7.06,4.47,13.24,13.24,0,0,1-4.26,3.15c-.78.31-2,.62-2.08,1.47-.07,1.79-1,1.18-1.84.89l-.15-.17a58.32,58.32,0,0,1,9.48-7.15,101.07,101.07,0,0,1,28.25-12.23c1-.28,2.1-.37,3.15-.55a2.86,2.86,0,0,0,2.42-.69l.78-.12C1206.21,261.6,1206.56,261.41,1206.87,261ZM1242,325.45c-.23.6-.38,1.08.09,1.5a.35.35,0,0,0,.34-.07C1242.74,326.34,1242.56,325.91,1242,325.45Zm.27,9.94c.2,0,.36-.06.38-.26a.49.49,0,0,0-.41-.58.31.31,0,0,0-.38.27A.47.47,0,0,0,1242.31,335.39Zm-21.45-66.22c-.12-.11-.21-.25-.3-.25a.35.35,0,0,0-.28.19.23.23,0,0,0,.28.32C1220.66,269.42,1220.74,269.28,1220.86,269.17Zm20.57-1-.07.06.09,0Z" transform="translate(5.92 -34.54)"/><path class="cls-4" d="M1247.54,340.66a.89.89,0,0,0-.59-1.18c-.55-.21-1-.57-.71-1.21s.86-.38,1.31-.27c1.61.4,1.31.29,2-1.33.75-1.8-.34-1.71-1.3-1.69-1.91,0-2.45-1.44-3.23-2.68-.15-.24-.23-.58,0-.76,1.22-1,.64-2.32.49-3.48-.25-1.93-.4-3.89-.64-5.82-.16-1.34-.09-2.88-.12-4.32a3.81,3.81,0,0,0-.09-1.07c-.43-1.41-.53-2.72.9-3.68.15-.09.18-.3,0-.56-1.21.78-1.43.16-1.34-1a1.49,1.49,0,0,0-.39-1.11c-1.11-.91-1.16-2.19-1.2-3.42-.08-2.86-.51-5.68-.71-8.53-.07-1.09.1-2,1.28-2.33.29-.09.65-.23.55-.63s-.47-.38-.78-.37a7.91,7.91,0,0,0-3.16.27c-1.07.49-1.2-.43-1.23-1.15-.06-1.43,0-2.86-.06-4.28a59.57,59.57,0,0,0-1.08-8.4c-.29-1.56-.92-3.25-.34-4.93a1.15,1.15,0,0,0-.24-1c-.91-1.26-.76-2.78-1.08-4.18-.23-1,.13-1.56,1.19-1.57.63,0,1.26,0,1.88,0,.44,0,.85.1,1.11-.48a1,1,0,0,1,1.3-.39c.92.32,1.48-.46,2.23-.63.5-.12.27-.7,0-1a2.32,2.32,0,0,0-1.88-.88c-2.33.13-4.6-.61-6.94-.43a2.11,2.11,0,0,1-2.19-1.24,1.49,1.49,0,0,0-2.17-.85,1.12,1.12,0,0,1-1.51-.5,2.12,2.12,0,0,0-1.28-.9c-.29-.08-.69-.16-.57-.58a.68.68,0,0,1,.75-.45c.9,0,2.08.26,2-1s-1.33-.55-2.06-.74a2.68,2.68,0,0,1-1.21-.52,65.64,65.64,0,0,1,11.72.84c1.72.21,3.43.5,5.15.76l.56.18.51,0c.11.5.24,1-.5,1.13-.41.07-1-.29-1.17.3s.54.75.84,1.12a1.77,1.77,0,0,0,1.48.78,2.3,2.3,0,0,1,1.78,1,5.87,5.87,0,0,0,2.54,1.88c.73.23,1.83-.09,1.77,1.27,0,.2.25.18.44.13,1.08-.31,1.29.67,1.49,1.25.27.81-.58.94-1.15,1.17a2.5,2.5,0,0,1-2.31-.19,1.82,1.82,0,0,0-1.7-.45c.82,1.14,1.63,2.14,2.28,3.23.38.62.52,1.22,1.45.74.55-.28.71.27.7.66,0,1.6,1.73,2.89.77,4.64-.08.17.11.51.22.75a19.32,19.32,0,0,1,1.5,6.34c-.4.12-.64-.24-1-.32a.49.49,0,0,0-.59.16.48.48,0,0,0,0,.62c.82.62.81,1.91,1.89,2.32.35.13.69.44.61.81-.43,2,.52,3.75.84,5.62.07.42,0,.78-.51.9-1.35.29-2.67.94-4.08.22-.21-.1-.53-.15-.86.37,1.23,0,2,1,3.07,1.12.45.06,1.11.25.88.75-.5,1.07.14,2,.12,3,0,1.33.61,2.65.26,4s1.92,2,1.1,3.53c0,0,.16.19.26.28s.83.32.58.74-.71,0-1.08-.09a4.59,4.59,0,0,0-3.56.4l4.44.89,0,.23-3.83.34c.83.74,2,1.06,1.25,2.44-.34.39-.2.63.25.73a2.31,2.31,0,0,0,1.39-.21,4.66,4.66,0,0,1,1.65,4.29c-.2.11-.39,0-.59-.11s-.48-.55-.79-.15c-.18.22,0,.52.1.75s.27.35.41.53c-.14,1.2-1.16,1.45-2.16,1.79a2.69,2.69,0,0,0,3.49-1.46,3.9,3.9,0,0,1,1.56-.06c1.37.42,1.51.29,1.35-1.23a2.77,2.77,0,0,1,1.9.46c.4,1.23-.47,1.59-1.46,1.88a1.2,1.2,0,0,0,1.07.38c.27,0,.6,0,.62.37s-.36.46-.67.45c-.57,0-1.15-.09-1.72-.14a1.12,1.12,0,0,0-1.27-1.18c-.63.05-.38.64-.17,1-.76.23-1.66,0-2.52.85,1.35-.05,1.81.32,1.55,1.56a10.48,10.48,0,0,0,.13,3c.07.68.25,1.44,1,1.55,1.17.15,2.41.47,3.44-.47.62-.57.76-.13.82.38.15,1.25-.82,1.31-1.59,1.21a26.74,26.74,0,0,0-4.38-.22,2.19,2.19,0,0,0-2.2,1.2.92.92,0,0,1-.51.58c-.61.21-1.36.62-1.25,1.19s1.06.7,1.7.81a8.54,8.54,0,0,0,1.34,0c1.42,0,2.85,0,4.28,0,.55,0,1,0,.49.93s.05,2.05-.73,2.92c0,0,0,.09.06.11,1,.74.13,1.27-.21,1.86h-4.29a5,5,0,0,0-1.83-.25C1252.41,340.7,1250,340.67,1247.54,340.66Zm.9-30.51c-.76-.62-1.74-1-2-2-.37.25-.2.56-.3.79-.61,1.47-.61,1.48,1.08,1.45A1.83,1.83,0,0,0,1248.44,310.15Zm-1.28,4.39c.06.57-.36,1.36.34,1.56s.75-.57.72-1.05c0-.63.12-1.64-.58-1.75S1247.36,314.13,1247.16,314.54Zm2.19,13.37c0-.34,0-.77-.36-.76-.8,0-.72.87-1,1.34-.14.2.06.44.33.4A1.16,1.16,0,0,0,1249.35,327.91Zm-.82,2.84c.23,0,.54,0,.51-.32-.06-.54-.54-.49-.92-.53-.22,0-.55.09-.51.31C1247.68,330.72,1248.17,330.66,1248.53,330.75Zm6.24.93,0-.22c-.07,0-.18,0-.2.05s0,.15,0,.23Z" transform="translate(5.92 -34.54)"/><path class="cls-4" d="M1257,321.08c-.14-.18-.29-.35-.41-.53s-.28-.53-.1-.75c.31-.4.54,0,.79.15s.39.22.59.11a4.66,4.66,0,0,0-1.65-4.29,2.28,2.28,0,0,0-1.64-.52c.77-1.38-.42-1.7-1.25-2.44l3.83-.34,0-.23-4.44-.89a4.59,4.59,0,0,1,3.56-.4c.37.06.8.54,1.08.09s-.34-.52-.58-.74-.28-.24-.26-.28c.82-1.54-1.49-2.07-1.1-3.53s-.29-2.65-.26-4c0-1-.62-1.94-.12-3,.23-.5-.43-.69-.88-.75-1.12-.15-1.84-1.13-3.07-1.12.33-.52.65-.47.86-.37,1.41.72,2.73.07,4.08-.22.56-.12.58-.48.51-.9-.32-1.87-1.27-3.63-.84-5.62.08-.37-.26-.68-.61-.81-1.08-.41-1.07-1.7-1.89-2.32a.48.48,0,0,1,0-.62.49.49,0,0,1,.59-.16c.34.08.58.44,1,.32a19.32,19.32,0,0,0-1.5-6.34c-.11-.24-.3-.58-.22-.75,1-1.75-.81-3-.77-4.64,0-.39-.15-.94-.7-.66-.93.48-1.07-.12-1.45-.74-.65-1.09-1.46-2.09-2.28-3.23a1.82,1.82,0,0,1,1.7.45,2.5,2.5,0,0,0,2.31.19c.57-.23,1.42-.36,1.15-1.17-.2-.58-.41-1.56-1.49-1.25-.19,0-.45.07-.44-.13.06-1.36-1-1-1.77-1.27a5.87,5.87,0,0,1-2.54-1.88,2.3,2.3,0,0,0-1.78-1,1.77,1.77,0,0,1-1.48-.78c-.3-.37-1-.59-.84-1.12s.76-.23,1.17-.3c.74-.13.61-.63.5-1.13a29.79,29.79,0,0,1,11,4.4,24.33,24.33,0,0,1,4.23,3.3c1,1.07,2.28,2.05,3.43,3.08a5.88,5.88,0,0,0,1.7.71c-1.27,1.15-.42,1.67.44,2.56,1,1,2.25,2,2.73,3.49a3.11,3.11,0,0,0,1.58,2.06.9.9,0,0,1,.46,1.42,14.5,14.5,0,0,0-.93,2.06,2.66,2.66,0,0,0,.54,2.73c1,1.1,1,1.35-.34,2-.38.18-.72.36-.8.82s.14,1.4-.93,1.47a3.75,3.75,0,0,1-1.92-.32c1.17,1.61,0,3.74,1.41,5.25.15.16.34.5.28.57-1.17,1.38.8,2.89-.19,4.27-.06.08,0,.34,0,.37,1.51.83,1,2.53,1.59,3.72.33.61.39,1-.79,1.18,1.67.65,2.65,1.37,2.29,3-.14.58.38.57.76.7,1.21.42,1.41,1.06.69,2.09a4.66,4.66,0,0,1-.71,1,1.76,1.76,0,0,0-.5,2.63,1.23,1.23,0,0,1-.12,1.4,1.88,1.88,0,0,0,.4,2.91c.47.37.65.66-.07.91s-1.34,1.28-2.39,1.36a.46.46,0,0,0-.23.83c.72.64.75,1.7,1.56,2.27.5.35.65.7.12,1.3s-.4,3.49.25,4.14c.22.65.78.75,1.36.81,0,1,.09,2,.14,2.94a2.29,2.29,0,0,0-.37-.12c-.33-.07-.69-.2-.94.16,0,.06,0,.27.1.33a.7.7,0,0,0,.95-.05c.1-.09.19-.19.28-.28.28.2.53.54.94.25,1.2-.83,2.35-.08,3.62,0-.47.73-1.22.15-1.71.67.56.48.93,1,.44,1.79a.63.63,0,0,0,.23.84c.88.57.57,1.39.51,2.17a.57.57,0,0,1-.72.58c-2.18-.32-4.29.55-6.49.31-2.38-.26-4.8-.17-7.21-.23.34-.59,1.26-1.12.21-1.86,0,0-.07-.1-.06-.11.78-.87.32-2.11.73-2.92s.06-.91-.49-.93c-1.43-.06-2.86,0-4.28,0a8.54,8.54,0,0,1-1.34,0c-.64-.11-1.56-.14-1.7-.81s.64-1,1.25-1.19a.92.92,0,0,0,.51-.58,2.19,2.19,0,0,1,2.2-1.2,26.74,26.74,0,0,1,4.38.22c.77.1,1.74,0,1.59-1.21-.06-.51-.2-.95-.82-.38-1,.94-2.27.62-3.44.47-.79-.11-1-.87-1-1.55a10.48,10.48,0,0,1-.13-3c.26-1.24-.2-1.61-1.55-1.56.86-.82,1.76-.62,2.52-.85l1.44.14c.57.05,1.15.11,1.72.14.31,0,.69,0,.67-.45s-.35-.35-.62-.37a1.2,1.2,0,0,1-1.07-.38c1-.29,1.86-.65,1.46-1.88.47-.42.39-.77-.16-1a4,4,0,0,0-1.84-.25c-.27,0-.59.06-.53.43s.39.31.63.37c.16,1.52,0,1.65-1.35,1.23a3.9,3.9,0,0,0-1.56.06Zm4.21-4.51c.84,0,1.38-.43,1.38-1.1,0-1.45-.66-2.71-1.43-2.74a.51.51,0,0,0-.57.26c-.13.3.1.48.3.67.7.67.89,1.32-.07,1.94-.24.16-.66.26-.44.68S1260.88,316.54,1261.18,316.57Zm5.63-.3a2.38,2.38,0,0,0-1.52-.13c-.36.09-.75.28-.59.71s.56.24.88.07S1266.27,316.55,1266.81,316.27ZM1258.27,306c0-.32-.23-.37-.46-.32s-.82.11-1,.52.14.4.37.37C1257.62,306.48,1258.06,306.41,1258.27,306Zm-1.1,1.71a1.56,1.56,0,0,0,1.11,1.16c.06,0,.25-.19.23-.24a1.83,1.83,0,0,0-1-1C1257.46,307.55,1257.36,307.62,1257.17,307.66Zm-1.59-19.3,0-.12-.17.09s.06.07.09.07S1255.55,288.37,1255.58,288.36Z" transform="translate(5.92 -34.54)"/><path class="cls-6" d="M1184.05,341.63a43.15,43.15,0,0,1-7.19.35c-4.1.13-8.24,0-12.27.65-2,.34-3.88-.17-5.83.1s-4,.27-6,.39a126.2,126.2,0,0,0-19,2.25,21.24,21.24,0,0,0-2.93,1.27,6.84,6.84,0,0,1-.6-5.11,16.77,16.77,0,0,1,.2,1.86c0,1.2.5,1.61,1.67,1.33a58.31,58.31,0,0,1,7.78-1.35c7.42-.77,14.85-1.31,22.3-1.57,6.47-.22,12.94-.54,19.41-.76.9,0,1.82-.65,2.73,0Z" transform="translate(5.92 -34.54)"/><path class="cls-6" d="M1139.81,309.34a2.07,2.07,0,0,1-.23,1.79,81.71,81.71,0,0,0-4.78,10.53,5.24,5.24,0,0,0-.42,4c.11.28.09.54-.32.54-1.08,0-.85.46-.37,1,1.15,1.43.69,3,.45,4.59a34.23,34.23,0,0,0-.91,5.95,1.61,1.61,0,0,1-1,1.62,6.38,6.38,0,0,0-2,1.54,63.27,63.27,0,0,1,2.33-14.06,80.32,80.32,0,0,1,6.9-17.62Z" transform="translate(5.92 -34.54)"/><path class="cls-7" d="M1148.41,297.81c-.89,1.2-2.53,1.63-3.16,3.12a1.37,1.37,0,0,1-1.1.64,43.43,43.43,0,0,1,5.64-7.89,78.17,78.17,0,0,1,11.9-11.81l.15.17a3.94,3.94,0,0,1-2,2.51c-3,2.13-5.26,4.94-7.63,7.68-1,1.1-2,2-2.16,3.61,0,.22-.32.41-.49.62a1.42,1.42,0,0,0-1.13,1.37Z" transform="translate(5.92 -34.54)"/><path class="cls-7" d="M1138.22,383.32a7,7,0,0,0,1.91,2.85,1.57,1.57,0,0,1,.64,1.13,3.86,3.86,0,0,0,2.82,3.63c.28.09,1.43.15.16.84-.61.34.22,1.28.15,2l-.1.07-.56-.23h0c-.16-.2-.33-.39-.49-.58a75.39,75.39,0,0,1-7-13.17,20.65,20.65,0,0,1-1.62-4.79,44.63,44.63,0,0,1,2.69,5.73,9.63,9.63,0,0,0,1.37,2.57Z" transform="translate(5.92 -34.54)"/><path class="cls-8" d="M1247.54,340.66c2.44,0,4.87,0,7.31,0a5,5,0,0,1,1.83.25c0,.2,0,.41-.07.61-3.88.58-7.79-.54-11.66.18-.42-.36-.91-.21-1.39-.22a32.26,32.26,0,0,1-5.89-.29l0-.71Z" transform="translate(5.92 -34.54)"/><path class="cls-7" d="M1131.17,363.74c.87,1.26.7,2.83,1.22,4.2.67,1.74.86,3.63,1.62,5.35a4.57,4.57,0,0,1,.1,1.58A42.45,42.45,0,0,1,1131.17,363.74Z" transform="translate(5.92 -34.54)"/><path class="cls-7" d="M1139.81,309.34l-.31,0a39.28,39.28,0,0,1,4.63-7.69c-.34,1.92-1.77,3.27-2.57,4.95A28.79,28.79,0,0,1,1139.81,309.34Z" transform="translate(5.92 -34.54)"/><path class="cls-8" d="M1278.1,331.8a22.45,22.45,0,0,1-4.18,0c-.26,0-.55-.16-.53-.49s.4-.49.69-.46c1.35.16,2.7.36,4.05.54Z" transform="translate(5.92 -34.54)"/><path class="cls-9" d="M1211.69,260.19c-.84.56-1.84.79-2.68,1.4s-1.3,0-1.63-.75A11.5,11.5,0,0,1,1211.69,260.19Z" transform="translate(5.92 -34.54)"/><path class="cls-8" d="M1196.15,431.56a58.38,58.38,0,0,1,6.39,1.31A11,11,0,0,1,1196.15,431.56Z" transform="translate(5.92 -34.54)"/><path class="cls-9" d="M1273.87,349.26l.2-.61,1,0,1,.08c.34.09.94-.12.85.5-.06.45-.58.32-.91.29C1275.27,349.44,1274.57,349.34,1273.87,349.26Z" transform="translate(5.92 -34.54)"/><path class="cls-8" d="M1273.38,301.87c-.91.74-1.72.24-2.55-.09C1271.72,301.2,1272.54,301.62,1273.38,301.87Z" transform="translate(5.92 -34.54)"/><path class="cls-8" d="M1251.17,404.33c-.07.49-.47.47-.79.52s-.84.09-.93-.43.25-.55.58-.55S1250.91,403.88,1251.17,404.33Z" transform="translate(5.92 -34.54)"/><path class="cls-8" d="M1266.65,391.39c.31.06.79,0,.78.35s-.55.5-.93.52-.75,0-.75-.37C1265.75,391.3,1266.31,391.47,1266.65,391.39Z" transform="translate(5.92 -34.54)"/><path class="cls-9" d="M1271.47,349.24a.34.34,0,0,1,0-.14c.14-.48,0-1.31.65-1.29.8,0,.46.88.59,1.39Z" transform="translate(5.92 -34.54)"/><path class="cls-8" d="M1267.06,373.68c-.31-.07-.84.07-.78-.45s.54-.38.87-.37.85-.1.79.41S1267.41,373.63,1267.06,373.68Z" transform="translate(5.92 -34.54)"/><path class="cls-8" d="M1272.12,297.53a2.8,2.8,0,0,1-2.35-.35A2.19,2.19,0,0,1,1272.12,297.53Z" transform="translate(5.92 -34.54)"/><path class="cls-9" d="M1274.19,326.1c-.06.37-.36.34-.61.34s-.7,0-.74-.36.34-.36.6-.35S1274.07,325.71,1274.19,326.1Z" transform="translate(5.92 -34.54)"/><path class="cls-8" d="M1277.56,317.47c-.07.33-.31.41-.6.37a.4.4,0,0,1-.38-.45.45.45,0,0,1,.59-.38A.44.44,0,0,1,1277.56,317.47Z" transform="translate(5.92 -34.54)"/><path class="cls-7" d="M1130.56,360a4.09,4.09,0,0,1,.51,2.92A6.09,6.09,0,0,1,1130.56,360Z" transform="translate(5.92 -34.54)"/><path class="cls-8" d="M1277.68,321.2c.55-.37.92-.36,1.27-.12a.38.38,0,0,1,0,.33C1278.53,321.72,1278.17,321.52,1277.68,321.2Z" transform="translate(5.92 -34.54)"/><path class="cls-9" d="M1205,261.25a2.86,2.86,0,0,1-2.42.69A3.75,3.75,0,0,1,1205,261.25Z" transform="translate(5.92 -34.54)"/><path class="cls-9" d="M1271.2,331.62c-.58-.06-1.14-.16-1.36-.81C1270.39,330.91,1271.33,330.37,1271.2,331.62Z" transform="translate(5.92 -34.54)"/><path class="cls-8" d="M1276,348.7l-1-.08c0-.29,0-.65.41-.65S1275.92,348.41,1276,348.7Z" transform="translate(5.92 -34.54)"/><path class="cls-8" d="M1271.06,351.89c-.11.1-.2.24-.28.24s-.27-.18-.21-.35.19-.19.26-.17S1271,351.77,1271.06,351.89Z" transform="translate(5.92 -34.54)"/><path class="cls-7" d="M1143.9,393.74c.5.27.77.6.25,1.1l-.37-.45c0-.19,0-.38,0-.58Z" transform="translate(5.92 -34.54)"/><path class="cls-6" d="M1130.74,346.72a2.68,2.68,0,0,1-.7,1.5A1.19,1.19,0,0,1,1130.74,346.72Z" transform="translate(5.92 -34.54)"/><path class="cls-9" d="M1206.87,261c-.31.45-.66.64-1.1.17A1.74,1.74,0,0,1,1206.87,261Z" transform="translate(5.92 -34.54)"/><path class="cls-7" d="M1130.25,351.67l-.29.54a2.13,2.13,0,0,1,0-1.32h.24Z" transform="translate(5.92 -34.54)"/><path class="cls-7" d="M1130.11,355.7a1.28,1.28,0,0,1,.12,1.33A2.16,2.16,0,0,1,1130.11,355.7Z" transform="translate(5.92 -34.54)"/><path class="cls-8" d="M1203.08,432.92l1.33.2A1,1,0,0,1,1203.08,432.92Z" transform="translate(5.92 -34.54)"/><path class="cls-6" d="M1130.17,350.9h-.24l0-1.08A.89.89,0,0,1,1130.17,350.9Z" transform="translate(5.92 -34.54)"/><polygon class="cls-8" points="1273.03 259.37 1273.12 259.38 1273.06 259.45 1273.03 259.37"/><path class="cls-9" d="M1217.05,259.64a.58.58,0,0,1-.85,0Z" transform="translate(5.92 -34.54)"/><path class="cls-7" d="M1130.33,358.37a.69.69,0,0,1,.15.82Z" transform="translate(5.92 -34.54)"/><polygon class="cls-8" points="1275.52 317.27 1275.48 317.35 1275.43 317.28 1275.52 317.27"/><path class="cls-8" d="M1194.24,431l.83.36A1.05,1.05,0,0,1,1194.24,431Z" transform="translate(5.92 -34.54)"/><path class="cls-9" d="M1143.8,393.81c0,.2,0,.39,0,.58l-.54-.81Z" transform="translate(5.92 -34.54)"/><path class="cls-8" d="M1243.82,261.14l-.56-.18Z" transform="translate(5.92 -34.54)"/><path class="cls-9" d="M1213,259.94l-.55.11Z" transform="translate(5.92 -34.54)"/><path class="cls-9" d="M1142.76,393c.16.19.33.38.49.58C1143.09,393.37,1142.92,393.18,1142.76,393Z" transform="translate(5.92 -34.54)"/><path class="cls-9" d="M1215.43,259.74l-.53.05Z" transform="translate(5.92 -34.54)"/><path class="cls-8" d="M1192.67,430.49l.53.36Z" transform="translate(5.92 -34.54)"/><path class="cls-3" d="M1149.53,296.46c.17-.21.47-.4.49-.62.14-1.57,1.21-2.51,2.16-3.61,2.37-2.74,4.65-5.55,7.63-7.68a3.94,3.94,0,0,0,2-2.51c.88.29,1.77.9,1.84-.89,0-.85,1.3-1.16,2.08-1.47a13.24,13.24,0,0,0,4.26-3.15,23,23,0,0,1,7.06-4.47,39.27,39.27,0,0,1,3.78-1.6,60.56,60.56,0,0,1,9.4-2.31c2.06-.31,4.11-.78,6.18-1,1.67-.14,3.36-.16,5-.38,3.62-.49,7.29-.24,10.89-1,1.46-.31,2.88.46,4.35.52a.67.67,0,0,1,.62.62c.09.53.18,1,.92.72.12-.05.44.08.45.15.19,1.27,1.29,2.22,1.28,3.52a2.17,2.17,0,0,0,.36,1.52c.82,1,.51,1.8-.38,2.52-.71.57-1.07,1.11,0,1.71a1,1,0,0,1,.48,1c-.51,1.85,0,3.75-.32,5.61-.19,1-.94,1.18-2,1.44a5.94,5.94,0,0,0,2.41.6,6.07,6.07,0,0,1-.39,2.89.51.51,0,0,0,.12.72,1.49,1.49,0,0,0,1.29.07c.17,0,.39-.14.26-.35s-.7-.6,0-.92c.46-.22.81.13,1.22.27,1.22.42,1.84,1.58,3,2.14,5.59,2.75,9.88,6.67,11,13.16a21.18,21.18,0,0,1,.27,6.65c-.45,3.36-2.15,6.12-4,8.77a18.34,18.34,0,0,1-4.71,4.71c-1.61,1.06-2.89,1.82-1.83,3.93l0,.28a45.81,45.81,0,0,1-7.59,2.48c-.32.07-.87.14-.77.56s.64.26,1,.17a26.85,26.85,0,0,0,3-.74,19.77,19.77,0,0,0,4.69-1.8A7.09,7.09,0,0,1,1229,328a3.34,3.34,0,0,1-2.52,1.92c-1.89.54-3.59,1.55-5.54,1.94-1.58.33-3.17.47-4.75.73-.39.07-.91,0-1,.52s.49.65.85.85a4.49,4.49,0,0,0,2.31.53,23.31,23.31,0,0,1,3.34.2c1.87.27,2.26,1,1.6,2.75a5.8,5.8,0,0,0-.48,2.87,90.55,90.55,0,0,1-9.32.07c.06-.65.69-.89,1.06-1.47-.77-.28-1.53-.39-.95-1.63.44-1-.93-2.61-1.89-2.36-2.18.56-4.17-.61-6.29-.45a10.13,10.13,0,0,1-3.06-.07c-.69-.15-1.23-.34-1.38-1.19s-.4-1.55.37-2.18,1.25-.2,1.86.06c2.29,1,3,1.09,5,.59a14.31,14.31,0,0,0-4.89-1.89,4.85,4.85,0,0,1-2.4-1,9.74,9.74,0,0,0-2.22-1.15,10.35,10.35,0,0,1-3.18-2.94l.64-.19c.41-.13,1.18.18,1.11-.57-.06-.56-.09-1.3-.82-1.57a4.29,4.29,0,0,1-.64-.17c-.5-.32-1.11-.88-.83-1.35s.38-1.54,1.45-1c.36.17.58-.13.76-.39,1.44-2.17,3.57-2.75,6-2.66a5.07,5.07,0,0,0,1.44-.21,5.19,5.19,0,0,1,2-.07c.36,0,.76.13.66.64-.34,1.76.84.79,1.17.54a8.29,8.29,0,0,1,3.3-1.39,1.45,1.45,0,0,0,1-.65c.2-.33.2-.61-.26-.67-2-.27-2.86-1.93-3.52-3.46-.79-1.81-.27-5.07,1.84-5.62a5.6,5.6,0,0,1-.79,2.26,2.76,2.76,0,0,0,0,3c.5.93,2.52,2.31,3.32,2a3,3,0,0,0,2-2.76,1.19,1.19,0,0,0-.13-1.22c0-.87-1.18-1.65-.18-2.63.12-.11-.13-.62-.44-.73s-.46.28-.61.52c-.55.87-1.18,1.15-1.78.08-.34-.6-.82-.6-1.36-.54.19-.59.53-1.27-.41-1.51a5.31,5.31,0,0,1-2.25-1.35c-.62-.55-1.42-.95-1.81.34a.41.41,0,0,1-.51.32c-.87-.34-2-.21-2.41-1.4a3.53,3.53,0,0,0-2-2c-.33-.15-.72-.32-1,0s.09.63.27.87c.72.93,1.08,1.68-.45,2.22-.8.28-1.43.88-.56,1.82.19.2.15.48-.13.52-2,.24-1.22,2-1.71,3-.37.81,1.24,1.46.24,2.4-.76.71-1.76.1-2.54.56a1,1,0,0,1-.37.16c-.89.06-2.21.49-2.58.08a3.57,3.57,0,0,1-.55-2.92c.35-1.66.72-3.31,1.21-4.93.87-2.8.91-2.78-1.87-3.58a.67.67,0,0,1-.12-.06c.86-2.72,2.82-4.69,4.62-6.76.26-.31.56-.57.83-.88a1.28,1.28,0,0,0,.13-.36c-.48-.4-.86.7-1.28.08-.28-.42.14-.86.15-1.28.07-1.8,1-3.36,1.35-5.11a18.53,18.53,0,0,1,1.31-3.44,22.54,22.54,0,0,0,1.08-4c.08-.35.2-.75-.27-.9s-.69.17-.86.48a23.82,23.82,0,0,0-2.31,5.25,10.08,10.08,0,0,1-1.07,2.73c-1.57,2.61-1.63,5.71-2.73,8.48-.34.84-.54,1.45-1.55,1.44-1.47,0-2.47.35-2.86,2.14-.53,2.39-1,4.81-1.57,7.19-.12.48-.13.95-.64,1.24-2.36,1.32-2.66,3.53-.6,5.35-1.33.06-1.44.89-1.45,1.88,0,3.4-1.35,6.64-1.23,10.06.09,2.6-1,5.21,0,7.82a2,2,0,0,1-.15,1.45c-.36.92-1,1.11-1.75.42a13.21,13.21,0,0,1-1.67-1.91c-.86-1.21-.78-1.3.58-1.76a1.32,1.32,0,0,0,.93-1.7c-.3-.68-.06-2.08-.94-2-1.09.15.14,1.38-.44,2.13a24.48,24.48,0,0,0-1.49-2.42c-.31-.34.07-.75.34-1.06a2.18,2.18,0,0,0,.71-1.54c0-.49-.11-1-.88-.64s-.9.11-.9-.68a2.52,2.52,0,0,0-1.09-2.3,1.54,1.54,0,0,1-.59-2,16.88,16.88,0,0,0,.8-4.33,1.8,1.8,0,0,1,1.88-1.85c1.33-.12,2.66-.28,4-.45.43-.05,1-.05.92-.69s-.66-.53-1.09-.36c-1.2.48-2.48.19-3.71.38a.8.8,0,0,1-.92-.39c-.21-.46.16-.63.49-.79l.15.16-.16-.15a2.74,2.74,0,0,1,0-2.26c.57-2.39,2.32-4.44,2-7.1-.09-.66.6-1.13.71-1.83.13-.94,1-.63,1.64-.72.37-.05.79-.17.64-.65-.46-1.55.35-2.78,1-4.05,1-2.11,0-3.54-2.38-3.45-1.6,0-1.6,0-1.27-1.5.28-1.36,0-1.42-1.37-1.48-1.6-.07-2,1.33-3,1.9-.26.14-.15.48-.17.74-.22,3.15-1.65,5.84-3.24,8.47,0,.09-.21.13-.43.24a2.29,2.29,0,0,1,.39-2,13.65,13.65,0,0,0,1.75-3.75c.1-.43.26-.9-.19-1.23s-.75-.11-1.12.1-.6.54-.94.2,0-.68.11-1c.8-1.54,1.71-3,2.42-4.62a1.89,1.89,0,0,1,2-1.2c1.21.19,1.61-.74,2.18-1.45a.42.42,0,0,0-.06-.61.4.4,0,0,0-.6.1c-.57.75-1.11.78-1.71,0-.37-.47-.66-.25-.93.18-.67,1.09-1.39,2.14-2,3.24a5.42,5.42,0,0,1-2,2.24h0a5.43,5.43,0,0,0,0-3.79c-.18-.6-.4-.69-.78-.27s-.79.27-1.32.23a4.55,4.55,0,0,0-3.27.55c-.73.57-1.43,1.19-2.16,1.79-.49.4-1,.77-1.68.47-.52-.21-.94.17-1.3.52s-.64.66-.44,1c.28.53.67,0,1-.08s.51-.28.73,0,.07.59-.09.86a1.51,1.51,0,0,1-2.4.39c-.43-.43-.7-.32-1,.05-1.54,2.11-3.56,3.81-5.14,5.9-1,1.29-2.66,1.76-3.87,2.83-.44.39-.5-.24-.59-.55v0A2.12,2.12,0,0,0,1149.53,296.46Zm61.77-15.38c.28,1.26-.34,2.11-.29,3.05,0,.53-.12,1.17.68,1.19s.9-.47.91-1.08c0-2.75,1-5.33,1.53-8,.46-2.17,1.07-4.31,1.59-6.48.1-.42.2-.92-.33-1.17-.37-.17-1-.23-1.13.05-.59,1.13-1.7,1-2.65,1.26a1.75,1.75,0,0,0-1.14,1c-1.49,2.93-2,6.15-3,9.24-.43,1.36-.83,2.73-1.19,4.1-.18.69-.38,1.47.52,1.85,1.17.49,3.09-.62,3.42-1.88A7.62,7.62,0,0,1,1211.3,281.08Zm-14.21-7.85c-.8,1.26-.79,1.86.54,1.74.28,0,1-.09.47.61-.24.3-.57.54-.06.82a.67.67,0,0,0,.91-.32c.56-.92,1.08-1.85,1.6-2.78a.59.59,0,0,0,0-.74,1.22,1.22,0,0,1-.11-1.79c.38-.57.19-.88-.47-1a4.79,4.79,0,0,0-5.12,2.07c-.31.49-.65.95-1,1.42-.21.29-.52.57-.21.93s.65.25,1,.12C1195.31,274,1196,273.7,1197.09,273.23Zm-4.82-1.49c-2.2-.43-3.11,1.2-4.13,2.57-.29.38-.59,1,0,1.45s1,0,1.39-.39c1-.88,1.77-2,3.08-2.47.34-.12.71-.3.62-.74S1192.63,271.69,1192.27,271.74ZM1203,317.9a1.69,1.69,0,0,1-.71,2.28c-.93.75-1.7,1.73-3,1.95-.23,0-.45.13-.37.43a.54.54,0,0,0,.48.41,1.75,1.75,0,0,0,1.12-.38,18.16,18.16,0,0,0,3.24-2.56c.56-.54,1.72-1,1.5-1.68S1203.8,318.27,1203,317.9Zm12.28,2.8c-.13-.78-.27-1.6-1.34-1.63a1.21,1.21,0,0,0-1.35,1.31c-.06,1.09.59,1.51,1.55,1.56C1214.89,322,1215.15,321.42,1215.24,320.7Zm-37.48-35.25c.75-.05,1.46-.24,2.06.34.26.24.64.45.94.08s0-.93-.13-1.38-.42-.73-.79-.46C1179.17,284.52,1178.24,284.57,1177.76,285.45Zm45.22,4.47a2.43,2.43,0,0,0,.54.22c.07,0,.16-.12.25-.18a1.42,1.42,0,0,0-.41-.24C1223.29,289.7,1223.18,289.81,1223,289.92Zm-12.89,42.21a2,2,0,0,0-.52-.24c-.15,0-.22.12-.15.25a.5.5,0,0,0,.29.2C1209.79,332.35,1209.89,332.25,1210.09,332.13Z" transform="translate(5.92 -34.54)"/><path class="cls-4" d="M1210.87,305.86c-2.11.55-2.63,3.81-1.84,5.62.66,1.53,1.47,3.19,3.52,3.46.46.06.46.34.26.67a1.45,1.45,0,0,1-1,.65,8.29,8.29,0,0,0-3.3,1.39c-.33.25-1.51,1.22-1.17-.54.1-.51-.3-.59-.66-.64a5.19,5.19,0,0,0-2,.07,5.07,5.07,0,0,1-1.44.21c-2.46-.09-4.59.49-6,2.66-.18.26-.4.56-.76.39-1.07-.51-1.21.61-1.45,1s.33,1,.83,1.35a4.29,4.29,0,0,0,.64.17c.73.27.76,1,.82,1.57.07.75-.7.44-1.11.57l-.64.19-.69-.08c.21-.37.76-.43.87-1l-1.44.15c-.11-.25-.23-.5-.35-.74.24-.08.61-.11.61-.37s-.37-.19-.59-.21a2.9,2.9,0,0,0-.51,0,17.82,17.82,0,0,1-4.6-11.48,20.81,20.81,0,0,1,1.36-8.87c.43-.1,1-.1.51-.8l.54-.92a.67.67,0,0,0,.12.06c2.78.8,2.74.78,1.87,3.58-.49,1.62-.86,3.27-1.21,4.93a3.57,3.57,0,0,0,.55,2.92c.37.41,1.69,0,2.58-.08a1,1,0,0,0,.37-.16c.78-.46,1.78.15,2.54-.56,1-.94-.61-1.59-.24-2.4.49-1.05-.24-2.79,1.71-3,.28,0,.32-.32.13-.52-.87-.94-.24-1.54.56-1.82,1.53-.54,1.17-1.29.45-2.22-.18-.24-.69-.48-.27-.87s.68-.11,1,0a3.53,3.53,0,0,1,2,2c.41,1.19,1.54,1.06,2.41,1.4a.41.41,0,0,0,.51-.32c.39-1.29,1.19-.89,1.81-.34a5.31,5.31,0,0,0,2.25,1.35c.94.24.6.92.41,1.51Zm-8.56-1.46c0-.24-.13-.3-.31-.32s-.47,0-.59.19,0,.34.21.38A.59.59,0,0,0,1202.31,304.4Z" transform="translate(5.92 -34.54)"/><path class="cls-5" d="M1148.43,370.55c-.51.81.12,1.43,0,2.07-.08.4.29,1-.38,1.11s-.77-.34-.91-.79c-.4-1.23-.89-2.43-1.17-3.69-.38-1.65-.6-3.33-.87-5-.07-.4-.14-.92.35-1a3.67,3.67,0,0,1,1.83,0c.44.14,0,.55-.22.67-1,.49-1,1.26-.65,2.13s-.28,2.13.9,2.76a5.78,5.78,0,0,0,.79.46,1,1,0,0,0,1-.17c.35-.42-.15-.6-.35-.85-.62-.75-.62-.82.3-1,.5-.08.41-.39.4-.67a3.3,3.3,0,0,0-.62-1.88,1.23,1.23,0,0,1,.36-1.77c.62-.55.66.5,1.13.57.52-.78-.13-1.73.3-2.66.64.62.36,1.31.57,1.86s.36,1.14,1,1.07.26-.79.43-1.16c.62-1.35-.13-2.5-.38-3.72a2.71,2.71,0,0,1-.12-.79.58.58,0,0,1,.6-.6c.38,0,.25.39.31.63,1.08,4.68,2.15,9.35,3.24,14,0,.11.16.2.3.36.52-.48.24-1,.15-1.48-.48-2.58-1-5.16-1.5-7.74a2.62,2.62,0,0,1,.35-2.27c.29,1.3.54,2.35.77,3.4.61,2.92,1.2,5.85,1.83,8.76.15.68,0,.89-.7.88-2,0-4.1-.13-6.15-.08-1.43,0-2.17-.54-2.28-2A2,2,0,0,0,1148.43,370.55Z" transform="translate(5.92 -34.54)"/><path class="cls-5" d="M1137.81,354.47c0-.35,0-.71,0-1.07,0-2,1.36-3.12,3.44-2.7.72.14.75.64.81,1.18.29,2.57.29,5.16.68,7.73a80.3,80.3,0,0,0,2.34,11c.93,3.09.72,3.42-2.55,3.5-.93,0-1.27-.48-1.46-1.24-.79-3.2-1.75-6.36-2.29-9.62A52.55,52.55,0,0,1,1137.81,354.47Z" transform="translate(5.92 -34.54)"/><path class="cls-5" d="M1154.26,388.19c-3.27.63-5-.75-6.06-3.9-.86-2.61-2-5.16-2.82-7.78-.45-1.36-.14-1.57,1.25-1.75,1.88-.25,3.66.61,5.53.38a.64.64,0,0,1,.68,1c-.35.59-.14.89.26,1.24a5.49,5.49,0,0,1,1.59,2.74,37.76,37.76,0,0,0,2.17,5.16c1.11,2.39.68,3.09-1.94,3Z" transform="translate(5.92 -34.54)"/><path class="cls-5" d="M1191.07,363.25c1-.66.45-1.74.41-2.46-.1-1.44.73-1.74,1.66-1.83,1.19-.11,2.38-.17,3.57-.35s1.42.65,1.34,1.6c-.07.75-.22,1.48-.31,2.22a4.44,4.44,0,0,0,1.08,3.44c.77,1,.64,2.29.81,3.47.15,1,.12,2,.17,3.06,0,.67-.18,1.18-1,1.15-1.69-.05-3.37.25-5.07.14-1.07-.08-1.57-.49-1.51-1.55a32.82,32.82,0,0,1,.25-4.1,12.39,12.39,0,0,0-.3-2.75c0-.59-.63-.82-1.12-1Z" transform="translate(5.92 -34.54)"/><path class="cls-5" d="M1156.55,375c2.11-.1,2-.08,2.64,1.78,1.07,3.39,2.22,6.75,3.35,10.12.12.36.21.67-.12,1-1,.84-3.59.41-4-.79-1-3.35-3-6.38-3.29-9.95,0-.05,0-.09,0-.14,0-.62-1-1.1-.52-1.67S1156,375.17,1156.55,375Z" transform="translate(5.92 -34.54)"/><path class="cls-5" d="M1136.71,336.06c.58-3.44,1.16-7,1.8-10.54a2.5,2.5,0,0,1,1.47-2.09c.53-.22.69-.79,1-1.26s.32-1.26,1-1,.29,1,.2,1.52c-.54,3.25-1.13,6.49-1.64,9.74-.19,1.23-.16,2.5-.31,3.73a2.18,2.18,0,0,1-2.88,1.71C1136.48,337.5,1136.88,336.76,1136.71,336.06Z" transform="translate(5.92 -34.54)"/><path class="cls-7" d="M1188.91,372.58c.1.74-.11,1.11-1,1.16-3,.19-3.25.05-3.85-2.88a24.61,24.61,0,0,1-.43-4.37c0-.71.08-1.26,1-1,.34.09.78.07.88-.37s-.36-.53-.67-.67-.58-.23-.85-.38-.49-.28-.48-.59.34-.38.59-.41a3.53,3.53,0,0,0,1.56-.82c-.2,1.71-.2,1.71,1.82,2C1188.34,367,1188.32,369.84,1188.91,372.58Z" transform="translate(5.92 -34.54)"/><path class="cls-6" d="M1193.56,330.22a18,18,0,0,1,.19-3.59c.1-.39.16-.83.59-1s.62.28.81.54a8.13,8.13,0,0,0,3.36,2.34,1.39,1.39,0,0,1,.92,1.56c-.06.93,0,1.87,0,2.81,0,1.29-.51,1.84-1.77,1.69a8.28,8.28,0,0,0-2.9-.12c-.71.17-1.14-.28-1.23-1.05A13.18,13.18,0,0,1,1193.56,330.22Zm2.86,2.59-.12-.25a1.13,1.13,0,0,0-.24.25s.06.14.1.21Z" transform="translate(5.92 -34.54)"/><path class="cls-9" d="M1213.52,340.39a90.55,90.55,0,0,0,9.32-.07l14.88.2c0,.24,0,.47,0,.71-1.43.16-2.89-.11-4.3.29a1.41,1.41,0,0,0-1.42,0l-.37,0a50.07,50.07,0,0,0-6.12-.2q-7.17,0-14.32,0v-.81Z" transform="translate(5.92 -34.54)"/><path class="cls-7" d="M1208.43,341.26c-2.66.21-5.34-.21-8,.2l-1.07.08-4.9,0h-7.12c.36-.68.71-.63,1-.64,6.8-.18,13.59-.61,20.4-.43Z" transform="translate(5.92 -34.54)"/><path class="cls-6" d="M1194.47,341.58l4.9,0c.11.41.77.71.43,1.15s-.81,0-1.2-.15a4.66,4.66,0,0,0-2.1-.08A1.77,1.77,0,0,1,1194.47,341.58Z" transform="translate(5.92 -34.54)"/><path class="cls-6" d="M1170.66,287.91a4,4,0,0,1-1.53,2.54c-.21.16-.51.27-.72,0s0-.53.21-.65c.86-.45.83-1.84,2-1.92Z" transform="translate(5.92 -34.54)"/><path class="cls-7" d="M1152.71,389.21c0,.22,0,.44-.07.66-.1.47-.3.9-.87.75s-.39-.6-.28-1c.06-.21.11-.42.16-.64Z" transform="translate(5.92 -34.54)"/><path class="cls-6" d="M1169.05,287.11a12.84,12.84,0,0,1,.28-1.4c.09-.3.35-.56.7-.41s.24.51.14.8a1.61,1.61,0,0,1-1.12,1Z" transform="translate(5.92 -34.54)"/><path class="cls-6" d="M1169.05,287.1c-.08.58-.09,1.2-.72,1.48-.25.11-.44-.11-.44-.37,0-.74.62-.89,1.16-1.1Z" transform="translate(5.92 -34.54)"/><path class="cls-7" d="M1184.05,341.63l.29-.62a1.86,1.86,0,0,1,2,.3A5.37,5.37,0,0,1,1184.05,341.63Z" transform="translate(5.92 -34.54)"/><path class="cls-9" d="M1208.43,341.26l.31-.75,1.31-.06.11.68Z" transform="translate(5.92 -34.54)"/><path class="cls-6" d="M1194.3,323.76l1.44-.15c-.11.56-.66.62-.87,1Z" transform="translate(5.92 -34.54)"/><path class="cls-6" d="M1148.25,365.32c.07.15.18.28.15.36s-.19.15-.28.22c-.07-.1-.19-.21-.17-.29S1148.11,365.44,1148.25,365.32Z" transform="translate(5.92 -34.54)"/><path class="cls-7" d="M1210.16,341.13l-.11-.68,1.08,0v.81Z" transform="translate(5.92 -34.54)"/><path class="cls-6" d="M1193.46,322.46a2.9,2.9,0,0,1,.51,0c.22,0,.59-.16.59.21s-.37.29-.61.37Z" transform="translate(5.92 -34.54)"/><path class="cls-6" d="M1190.73,301.31c.51.7-.08.7-.51.8Z" transform="translate(5.92 -34.54)"/><path class="cls-7" d="M1195,348.8c-.07.19-.09.45-.37.41-.06,0-.08-.28-.12-.43Z" transform="translate(5.92 -34.54)"/><path class="cls-6" d="M1185,307.7s-.07-.06-.07-.08,0-.07.06-.1l.11.13Z" transform="translate(5.92 -34.54)"/><path class="cls-5" d="M1231.58,341.46l.37,0c.46.5.93.61,1.42,0,1.41-.4,2.87-.13,4.3-.29a32.26,32.26,0,0,0,5.89.29c.48,0,1-.14,1.39.22,0,.08.1.15.14.23.24.39.91.61.64,1.21s-.88-.11-1.3.12c-.19.41.12.92-.23,1.28-.51.54-.37.93.22,1.28.26.16.56.37.46.74s-.5.32-.8.31a5.72,5.72,0,0,0-2.2.73c-1.21.46-2.37,1.06-3.57,1.47-.6.21-1.69-.45-2.61-.6-.74-.13-1.48-.25-2.23-.33-1.14-.12-1.46.33-2,1.46-.64,1.4.09,2.33.1,3.47,0,3,.44,6-.12,9-.17.94.78,1.78.15,2.71-.4.1-.83.21-.74.74s.53.52.93.58a12.74,12.74,0,0,0,3.29.28c-.9.76-1.8.59-2.55.85s-1.3.52-1,1.69a7.83,7.83,0,0,1-.42,5.64c-.15.28-.28.71-.06.89,1.13.91.7,1.78,0,2.69a.64.64,0,0,0-.07.52c.91,2.34-.41,4.61-.22,6.94.15,1.76.45,2.16,2.26,2.21a28.17,28.17,0,0,1,4.68.22c.29.06.64,0,.86.47a6.09,6.09,0,0,1-3.75.06,4.43,4.43,0,0,0-2.11,0,4.92,4.92,0,0,1-3.4-.12,4.59,4.59,0,0,0-2-.1c-1.76,0-2.51-.92-2.46-3,0-.62.1-1.25.06-1.87,0-.46,0-1.09-.68-1.13a1.64,1.64,0,0,0-1.47.5c-.37.47-.11.93.22,1.33.1.13.18.27.35.54-1.13.14-1.65-.27-1.75-1.25-.11-1.15-.2-2.3-.32-3.45-.1-.94-.43-1.83-1.43-2s-2.15,1.07-2.22,1.94a3.35,3.35,0,0,1-.1.79c-.22.67-.48,1.27-1.24.43-.33-.37-.79-.58-1.17-.18s0,.75.39,1c0,0,.11,0,.11.08a10.25,10.25,0,0,1-.31,2.9c-.21.56-1.24.08-1.38-.74s-.14-1.52-.34-2.24c-.25-.89-.87-.89-1.37-.25a1.9,1.9,0,0,0-.11,2.48c.8,1,1,2-.08,2.94-.17.15-.36.33-.25.57s.45.28.71.25c1.09-.09,2.18-.21,3.31-.32-.08-.65-1.1-.62-.76-1.34s.85-.24,1.3-.26c.62,0,.71-.4.65-.92a5.92,5.92,0,0,1,0-1.33c0-.42.21-.83.77-.64s.39.51.17.92c-.57,1.1.24,2.25-.06,3.39-.07.27.39.43.72.47,1,.13,2,.47,3-.17a1.4,1.4,0,0,1,1.63.12c.41.26,1.25.24,1.07.95s-1,.14-1.37.31c-1.33.6-2.64-.14-4,.07-1.1.17-1.47.53-1.13,1.54a2.27,2.27,0,0,1-.85,2.57,13,13,0,0,0-1.21-3.93,7.5,7.5,0,0,0,.32,4.56c.16.39.71.85.29,1.18s-.71-.29-1-.59-.62-.72-1-.12c-.22.31-.49.42-.79.17-.45-.38-.79-.29-1.13.16s-.63.15-1,0c-.55-.18-1.07-.06-1.14.55s.54.49,1,.49a1.69,1.69,0,0,1,1.76,1.5c.17.76,0,1.31-.87,1.48-1.25.24-1.49,1.13-1.3,2.23.16.92.38,1.83.51,2.76s0,2,1.56,1.53a.66.66,0,0,1,.76.44c.12.44-.3.48-.58.57a8.88,8.88,0,0,1-3.93.5,7.29,7.29,0,0,0-4.65.81c-.58.29-1,.53-1.38-.26a1,1,0,0,0-1.59-.37,1.08,1.08,0,0,0-.4,1.61c.37.54.19.95,0,1.48-.56,1.36-.94,2.79-1.52,4.14s-1.24,1.51-2.22.25c-.85,1.8-.2,3,1.7,2.94a46.52,46.52,0,0,0,6-.08c1.36-.2,1.53,0,2.41,1.4.48-1.55,1.5-1.56,2.74-1.09a1.85,1.85,0,0,0-1.76,2.24c0,.54-1,1-.15,1.71.13.11-.41,1.26-1.25.8a.93.93,0,0,0-1.44.3,2.06,2.06,0,0,1-1.17.6c-.81.17-1.57.26-1.62,1.37a.61.61,0,0,1-.82.5c-1-.36-1.7.18-2.41.73a1.76,1.76,0,0,1-2.44,0c-.65-.56-1.45-.3-2.18-.44-2.72-.51-5.53-.18-8.23-.87a1.11,1.11,0,0,0-1.32.39,1.07,1.07,0,0,1-1.81.18,3.62,3.62,0,0,0-3.82-.89,1.43,1.43,0,0,1-.91-.07,38.15,38.15,0,0,1-10.12-6.12c.15-.76.42-1.17,1.06-.33a3.9,3.9,0,0,0,3.05,1.65c.16,0,.43.05.48.16.72,1.5,2.09,1,3,.68a3.06,3.06,0,0,1,3.28.73c.62.56,1,.6,1.67-.06,1.1-1.18,2.27-.11,3.35.15.72.17,1.3.44,2-.08.44-.34.83-.12,1.15.28s.45.65.87.31a.88.88,0,0,0,.27-1c-.28-.82-.86-1.54-.41-2.53.17-.35-.32-.63-.69-.63-1.43,0-2.8-.65-4.24-.44-.71.11-1.06-.31-1.43-.77-1.57-1.95-3.22-3.82-4.78-5.76-.78-1-1.67-1.73-1.88-3.06-.17-1.07.14-1.43,1.17-1.28a23.31,23.31,0,0,0,5.41,0c-.47-.5-1.07-.41-1.61-.5a3.92,3.92,0,0,1-3.22-4.25c.09-.92.37-1.36,1.43-1.2a3.74,3.74,0,0,1,2.7,1.25,3.87,3.87,0,0,0,.95.73c.82.54,1.14.19,1.12-.68,0-1.38-.79-2.54-1.24-3.79-.13-.35-.58-.68-.12-1.05a1.07,1.07,0,0,1,1-.08c.59.19.34.64.23,1a1.31,1.31,0,0,0,.74,1.77c.93.46,1.18,1.44,1.5,2.3.53,1.44,2,2.63,1.25,4.43,0,.05.06.21.11.22a4.15,4.15,0,0,0,2.49,0c.77-.29.78-1,.63-1.72-.43-1.88-1.27-3.61-1.87-5.43-.88-2.62-1.74-5.25-2.55-7.89-.39-1.28.22-2.15,1.63-2.07,2.32.12,4.62,0,6.93-.09a30.94,30.94,0,0,0,4.18-.39c-1.82-.62-3.68-.24-5.52-.34-.89-.05-1.79,0-2.68,0-1.57,0-2-.69-1.94-2.23s-.06-3.1,0-4.66c0-1.11.56-1.47,1.55-1.45.19.58-.61.87-.29,1.41,1.55-.51,1.72-.87,1-2.24a1.46,1.46,0,0,1,0-1.29,2.52,2.52,0,0,0-.16-2.32c-.67-1.09,0-1.15.76-1.17,1.56-.05,3.13,0,4.69,0l1.47,0c2.35,0,2.35,0,3.16,2.18.06.17.15.33.37.32a.6.6,0,0,0,.11-.06c.39-.57-.26-1.51.45-1.85a9.31,9.31,0,0,1,3.12-.61c2.58-.25,5.16-.24,7.74-.32.16,0,.32-.11.49-.35a7,7,0,0,0-3.6-.34,27.65,27.65,0,0,1-7,0,1.47,1.47,0,0,1-1.38-1.39,27.13,27.13,0,0,1-.52-5.05,5,5,0,0,1,2-3.32c.59-.49,1-.81,1.12-1.61.1-1,.59-1.33,1.53-.68.65.44,1.29.89,2,1.43-.73-1.58.83-3.17-.21-4.71-.2-.29,0-.5.17-.71a3.2,3.2,0,0,0,.5-1.78,2.06,2.06,0,0,1,2.43-2.25c.09,0,.19,0,.27,0,.55-.18,1.46.57,1.6-.2s-.89-.42-1.38-.62a2.57,2.57,0,0,1-.53-.31c.52-1-.44-2,0-2.95.58-1.16,1.66-.57,2.53-.59a1,1,0,0,1,1,1.23,1.14,1.14,0,0,0,.54,1.3c.58-.67.2-1.57.61-2.42.64,1,1.16,1.09,1.57-.09.13-.35.57-.44.93-.4,1.42.16,2.86-.22,4.27.16a1.45,1.45,0,0,0,.79.07c1.11-.44,1.06.17,1.34,1,.51,1.58,1.52,3,1.9,4.65.19.83,1.33.51,1.76.26a1.58,1.58,0,0,0,.43-1.91,3.38,3.38,0,0,1-.26-2.95.6.6,0,0,0-.11-.49c-1.62-1.94-.41-3.69.33-5.47.09-.21.19-.41.26-.62.27-.82.66-.92,1.16-.17.26.38.55.83,1,.57s0-.65-.1-1,.16-.57.5-.58C1230.73,341.87,1231.23,341.91,1231.58,341.46Zm-11.09,28.15c-.11-.68-.19-1.49-.39-2.26s-.77-.79-1.4-.73c-.41,0-.68.21-.67.66,0,.89,0,1.78.09,2.66a1.33,1.33,0,0,0,1.44,1.3C1220.5,371.2,1220.42,370.38,1220.49,369.61Zm-10.79,36.07c.78.06,1.08-.28.92-1.05s-.29-1.57-.44-2.36a1,1,0,0,0-1.26-.85c-.69.15-.89.65-.79,1.32s.9,1.29-.4,1.59c-.31.08,0,.57.23.74A4,4,0,0,0,1209.7,405.68Zm17.18-33.76c-.38,0-.53.25-.45.53.12.43.09,1,.75,1.08.24,0,.64,0,.51-.38S1227.47,372.09,1226.88,371.92Zm-20.18-7.75c-.72-.2-1.33-.9-2.29-.48A1.69,1.69,0,0,0,1206.7,364.17Zm31.59-17.37c0-.24-.17-.43-.44-.39s-.34.26-.31.5.16.43.43.39S1238.29,347,1238.29,346.8Zm-47.8,71c0,.06-.14.12-.14.17a.27.27,0,0,0,.13.18c.14,0,.25-.05.21-.21S1190.57,417.87,1190.49,417.82Zm-7.55,3.94c0-.06-.09-.15-.15-.16s-.12.07-.18.11.09.15.15.16S1182.88,421.8,1182.94,421.76Z" transform="translate(5.92 -34.54)"/><path class="cls-7" d="M1165.78,416.31s-.12,0-.12-.06c.1-1.69-1.59-1.66-2.32-2.49-1.3-1.5-2.58-2.81-4.6-3.19a.58.58,0,0,1-.39-.34c-.34-1.79-1.87-2.62-3-3.75a1.57,1.57,0,0,1-.45-1c1.45-.33,2.31.8,3,1.61.92,1.07,2.19,1.68,3.06,2.74.15.18.46.35.55.09.43-1.39,1.74-.51,2.54-1,.38-.24,1,.23,1.15.71.51,1.24,1.48,1.38,2.86,1.22a1.28,1.28,0,0,1-.57-1.46c.27-.95.2-1.73-.88-2.2-.62-.26-.28-.62.13-.85,1.62-.92,4.9-.32,6,1.12q3.1,3.92,6.19,7.85c.25.32.55.66.38,1.09s-.67.16-1,.17c-3.34.12-6.62-.58-9.93-.74A3.81,3.81,0,0,0,1165.78,416.31Z" transform="translate(5.92 -34.54)"/><path class="cls-7" d="M1169.46,399c.79-.22,1.32-.16,1.64.68a10.05,10.05,0,0,0,3,4.44c.32.26.87.52.68,1s-.76.35-1.19.33c-3-.17-5.91-.37-8.87-.52-1-.06-1.43-1-1.6-1.59-.48-1.57-1.68-2.68-2.37-4.21,1.12-.29,2-.21,2.5.91a2.14,2.14,0,0,0,.43.67c.4.4.56,1.21,1.18,1.17s.57-.89.76-1.4a2.22,2.22,0,0,1,1.54-1.37c.74-.22,1,.52,1.27,1,.49.69.94,1.41,1.41,2.11.12.19.28.38.53.35a.37.37,0,0,0,.31-.5C1170.44,401,1170.9,399.66,1169.46,399Z" transform="translate(5.92 -34.54)"/><path class="cls-4" d="M1204,350.38c1.13,2,.14,4.29.81,6.35.28.88.22,1.88.91,2.63a.59.59,0,0,1,0,.75c-.21.26-.47.18-.74.1-.51-.15-1-.29-1.54-.41a1.22,1.22,0,0,1-1.11-1.17,13.54,13.54,0,0,0-1.2-4.36c-.37-1-.62-2,.9-2.41.55-.14.69-.64.65-1.18a3.51,3.51,0,0,1,0-1.07c.12-.47-.22-1.29.53-1.3s.87.75.88,1.41C1204.08,349.94,1204,350.16,1204,350.38Z" transform="translate(5.92 -34.54)"/><path class="cls-4" d="M1196.8,357c-.66-.16-.65-.67-.74-1.08a3.58,3.58,0,0,0-1-2.09c-.66-.61-.39-3,.28-3.62a1.2,1.2,0,0,1,2,.54c.47,1.5.87,3.06-.17,4.49C1196.68,355.82,1197.11,356.47,1196.8,357Z" transform="translate(5.92 -34.54)"/><path class="cls-7" d="M1166.86,397.65c0,.27-.06.46-.32.47a.68.68,0,0,1-.75-.59c-.08-.29,0-.55.37-.54S1166.74,397.32,1166.86,397.65Z" transform="translate(5.92 -34.54)"/><path class="cls-7" d="M1188,375a.46.46,0,0,1-.43.48c-.28,0-.61,0-.65-.3s.29-.39.56-.42A.45.45,0,0,1,1188,375Z" transform="translate(5.92 -34.54)"/><path class="cls-7" d="M1189.57,376.87c0,.18,0,.38-.25.35s-.34-.25-.38-.46,0-.36.26-.34S1189.54,376.65,1189.57,376.87Z" transform="translate(5.92 -34.54)"/><path class="cls-7" d="M1201.1,358c.11.14.23.24.23.32s-.12.2-.18.3c-.09-.08-.23-.15-.24-.23S1201,358.13,1201.1,358Z" transform="translate(5.92 -34.54)"/><path class="cls-7" d="M1138.23,383.33l.27-.43.15.15-.43.27Z" transform="translate(5.92 -34.54)"/><path class="cls-10" d="M1164.15,366.43l-.1,0,0-.18.1.05S1164.16,366.39,1164.15,366.43Z" transform="translate(5.92 -34.54)"/><path class="cls-7" d="M1215.49,398.74c-.7.06-1.16-.08-1.37-.6a2,2,0,0,1,0-1.91.55.55,0,0,1,1,0c.53.82,2.26.48,2,1.88C1217,398.79,1215.93,398.56,1215.49,398.74Z" transform="translate(5.92 -34.54)"/><path class="cls-7" d="M1240.61,383.86a6,6,0,0,0,1.37,1.59c-.91.58-3,.76-3,.23C1238.82,384.59,1240,384.42,1240.61,383.86Z" transform="translate(5.92 -34.54)"/><path class="cls-8" d="M1247.23,369.29c0,.3-.17.62-.49.49a1.45,1.45,0,0,1-.88-1.23c0-.32.32-.38.59-.32A1,1,0,0,1,1247.23,369.29Z" transform="translate(5.92 -34.54)"/><path class="cls-7" d="M1253.34,346.85c0,.37-.15.65-.53.64-.56,0-.67-.52-.8-.93s.13-.41.37-.42A.85.85,0,0,1,1253.34,346.85Z" transform="translate(5.92 -34.54)"/><path class="cls-8" d="M1249.72,369.84a.55.55,0,0,1-.55.61.53.53,0,0,1-.62-.52c0-.33,0-.64.43-.68A.68.68,0,0,1,1249.72,369.84Z" transform="translate(5.92 -34.54)"/><path class="cls-7" d="M1235.8,397.77c-.73.32-1.22.62-1.77.19a.38.38,0,0,1,0-.35C1234.58,397.24,1235.09,397.24,1235.8,397.77Z" transform="translate(5.92 -34.54)"/><path class="cls-7" d="M1238.08,366.57c-.06.43-.41.45-.71.48s-.8.08-.87-.37.37-.44.67-.46S1237.9,366.14,1238.08,366.57Z" transform="translate(5.92 -34.54)"/><path class="cls-8" d="M1245.36,372.22c-.46-.33-1.06.74-1.42-.17-.1-.25-.09-.58.23-.64C1244.75,371.28,1245.17,371.54,1245.36,372.22Z" transform="translate(5.92 -34.54)"/><path class="cls-7" d="M1231,398a1,1,0,0,1,1.38.07C1231.88,398.39,1231.5,398.32,1231,398Z" transform="translate(5.92 -34.54)"/><path class="cls-6" d="M1231.81,366.17c-.4-.06-.84-.1-.93-.58s.34-.64.74-.74C1231.68,365.29,1231.74,365.73,1231.81,366.17Z" transform="translate(5.92 -34.54)"/><path class="cls-8" d="M1240.81,382a.39.39,0,0,1-.44.37c-.23,0-.44-.13-.38-.39a.57.57,0,0,1,.36-.29A.36.36,0,0,1,1240.81,382Z" transform="translate(5.92 -34.54)"/><path class="cls-8" d="M1247.13,371.7c0-.07-.11-.15-.1-.2s.13-.1.19-.14.12.15.1.2S1247.2,371.65,1247.13,371.7Z" transform="translate(5.92 -34.54)"/><path class="cls-7" d="M1222.6,391.54s.1,0,.12,0,0,.08,0,.12l-.18,0Z" transform="translate(5.92 -34.54)"/><path class="cls-8" d="M1249.84,355.15s0,.09,0,.1-.08,0-.12,0l.06-.18Z" transform="translate(5.92 -34.54)"/><path class="cls-8" d="M1248.76,368.09l-.08.08-.13-.15.08-.08Z" transform="translate(5.92 -34.54)"/><polygon class="cls-8" points="1254.68 331.94 1254.69 331.85 1254.77 331.9 1254.68 331.94"/><path class="cls-9" d="M1253.31,388.06c-.36.48-.88.3-1.33.23-1.12-.17-2.2.22-3.31.14-.31,0-.66-.11-.7-.49s.24-.49.51-.49c1.5.06,3,.14,4.5.22A.37.37,0,0,1,1253.31,388.06Z" transform="translate(5.92 -34.54)"/><path class="cls-9" d="M1257.24,372.64a.94.94,0,0,1,1.18-.33,3.3,3.3,0,0,0,2.3.36c.25-.05.6,0,.65.31s-.29.51-.6.54a10.36,10.36,0,0,1-3.28-.39C1257.4,373,1257.32,372.81,1257.24,372.64Z" transform="translate(5.92 -34.54)"/><path class="cls-7" d="M1256.49,364.43a2.3,2.3,0,0,1-.55,0c-.32,0-.64-.17-.62-.56s.33-.52.66-.51c.66,0,1.33.07,2,.14.29,0,.71,0,.69.43s-.44.37-.74.4S1257.22,364.38,1256.49,364.43Z" transform="translate(5.92 -34.54)"/><path class="cls-9" d="M1248,385.45a5.13,5.13,0,0,1-.81-.22c-.13-.05-.32-.33-.29-.38.54-.77,1.5-.08,2.17-.6.23-.19.52.1.49.41-.07.63-.55.75-1.07.79Z" transform="translate(5.92 -34.54)"/><path class="cls-9" d="M1252.6,361.19c-.34-.08-.83-.05-.81-.51s.51-.41.84-.38.94,0,.88.53S1252.94,361.16,1252.6,361.19Z" transform="translate(5.92 -34.54)"/><path class="cls-9" d="M1246.89,393c.64-.36,1.12-.56,1.64-.23.06,0,.08.3,0,.34C1248.06,393.48,1247.57,393.29,1246.89,393Z" transform="translate(5.92 -34.54)"/><path class="cls-9" d="M1236.87,405.46a.29.29,0,0,1-.3.35.58.58,0,0,1-.62-.38c-.09-.27.09-.42.34-.42A.55.55,0,0,1,1236.87,405.46Z" transform="translate(5.92 -34.54)"/><path class="cls-7" d="M1257.24,372.64c.08.17.16.33.25.49-.21.25-.51.54-.75.18S1256.88,372.73,1257.24,372.64Z" transform="translate(5.92 -34.54)"/><path class="cls-10" d="M1226.68,327.82c-1.06-2.11.22-2.87,1.83-3.93a18.34,18.34,0,0,0,4.71-4.71c1.88-2.65,3.58-5.41,4-8.77a21.18,21.18,0,0,0-.27-6.65c-1.13-6.49-5.42-10.41-11-13.16-1.13-.56-1.75-1.72-3-2.14-.41-.14-.76-.49-1.22-.27-.67.32-.16.6,0,.92s-.09.31-.26.35a1.49,1.49,0,0,1-1.29-.07.51.51,0,0,1-.12-.72,6.07,6.07,0,0,0,.39-2.89l1.29.29c.23.57.4,1.24,1.13,1.29.45,0,.41-.49.51-.8l.51,0c.07.32-.07.75.37.87.23.06.35-.2.46-.39a22.37,22.37,0,0,1,13.64,11.16c2.6,4.81,2.62,9.77,1.39,14.89A25.45,25.45,0,0,1,1232,324.4,20,20,0,0,1,1226.68,327.82Z" transform="translate(5.92 -34.54)"/><path class="cls-4" d="M1236,323.51c.18,2.61.37,5.23.55,7.84.07,1,.5,2.19.08,2.87s-1.74-.13-2.68.14c-1.13.33-2.31,0-3.47.08-.43,0-.92-.11-.86-.6.08-.68-.78-1.32-.06-2,.19-.17.5-.27.61-.48.4-.76,1.48-1.19.83-2.49-.39-.75,1.73-3.33,2.65-3.61s.53.92,1.2,1c.52-.77,0-1.63.14-2.42Z" transform="translate(5.92 -34.54)"/><path class="cls-4" d="M1226.68,327.82a20,20,0,0,0,5.36-3.42,25.45,25.45,0,0,0,7.79-11.28c.61.2.45.64.36,1.09a17.83,17.83,0,0,1-2.33,5.05c-.41.73-.84,1.45-1.27,2.18a6.2,6.2,0,0,0-2.22,2.38,35.29,35.29,0,0,0-5.32,4.19,7,7,0,0,0-2.1.76l-.3-.67Z" transform="translate(5.92 -34.54)"/><path class="cls-6" d="M1234.37,323.82a6.2,6.2,0,0,1,2.22-2.38,7.14,7.14,0,0,1-.56,2.07l-1,.38Z" transform="translate(5.92 -34.54)"/><path class="cls-6" d="M1223.46,286.56c-.1.31-.06.83-.51.8-.73-.05-.9-.72-1.13-1.29A1.91,1.91,0,0,1,1223.46,286.56Z" transform="translate(5.92 -34.54)"/><path class="cls-6" d="M1242,325.45c.52.46.7.89.43,1.43a.35.35,0,0,1-.34.07C1241.66,326.53,1241.81,326.05,1242,325.45Z" transform="translate(5.92 -34.54)"/><path class="cls-6" d="M1242.3,335.39a.47.47,0,0,1-.4-.57.31.31,0,0,1,.38-.27.49.49,0,0,1,.41.58C1242.67,335.33,1242.51,335.41,1242.3,335.39Z" transform="translate(5.92 -34.54)"/><path class="cls-6" d="M1220.86,269.17c-.12.11-.2.25-.3.26a.23.23,0,0,1-.28-.32.35.35,0,0,1,.28-.19C1220.65,268.92,1220.74,269.06,1220.86,269.17Z" transform="translate(5.92 -34.54)"/><path class="cls-6" d="M1224.8,287.07c-.11.19-.23.45-.46.39-.44-.12-.3-.55-.37-.87A1.15,1.15,0,0,1,1224.8,287.07Z" transform="translate(5.92 -34.54)"/><polygon class="cls-9" points="1247.36 233.63 1247.37 233.72 1247.29 233.68 1247.36 233.63"/><path class="cls-7" d="M1248.44,310.15a1.83,1.83,0,0,1-1.27.27c-1.69,0-1.69,0-1.08-1.45.1-.23-.07-.54.3-.79C1246.7,309.19,1247.68,309.53,1248.44,310.15Z" transform="translate(5.92 -34.54)"/><path class="cls-7" d="M1247.16,314.54c.2-.41-.26-1.35.48-1.24s.54,1.12.58,1.75c0,.48-.15,1.21-.72,1.05S1247.22,315.11,1247.16,314.54Z" transform="translate(5.92 -34.54)"/><path class="cls-7" d="M1257,321.08l1.33.33a2.69,2.69,0,0,1-3.49,1.46C1255.81,322.53,1256.83,322.28,1257,321.08Z" transform="translate(5.92 -34.54)"/><path class="cls-7" d="M1261.21,320.12c-.24-.06-.58,0-.63-.37s.26-.41.53-.43a4,4,0,0,1,1.84.25c.55.24.63.59.16,1A2.77,2.77,0,0,0,1261.21,320.12Z" transform="translate(5.92 -34.54)"/><path class="cls-7" d="M1249.35,327.91a1.16,1.16,0,0,1-1.07,1c-.27,0-.47-.2-.33-.4.32-.47.24-1.32,1-1.34C1249.32,327.14,1249.36,327.57,1249.35,327.91Z" transform="translate(5.92 -34.54)"/><path class="cls-6" d="M1261,323.52l-1.44-.14c-.21-.4-.46-1,.17-1A1.12,1.12,0,0,1,1261,323.52Z" transform="translate(5.92 -34.54)"/><path class="cls-6" d="M1248.53,330.75c-.36-.09-.85,0-.92-.54,0-.22.29-.33.51-.31.38,0,.86,0,.92.53C1249.07,330.72,1248.76,330.72,1248.53,330.75Z" transform="translate(5.92 -34.54)"/><path class="cls-7" d="M1254.55,315.25a2.28,2.28,0,0,1,1.64.52,2.31,2.31,0,0,1-1.39.21C1254.35,315.88,1254.21,315.64,1254.55,315.25Z" transform="translate(5.92 -34.54)"/><path class="cls-8" d="M1254.77,331.68l-.22.06c0-.08-.06-.17,0-.23s.13,0,.2-.05S1254.75,331.61,1254.77,331.68Z" transform="translate(5.92 -34.54)"/><path class="cls-7" d="M1261.18,316.57c-.3,0-.67,0-.83-.29s.2-.52.44-.68c1-.62.77-1.27.07-1.94-.2-.19-.43-.37-.3-.67a.51.51,0,0,1,.57-.26c.77,0,1.43,1.29,1.43,2.74C1262.56,316.14,1262,316.57,1261.18,316.57Z" transform="translate(5.92 -34.54)"/><path class="cls-9" d="M1266.81,316.27c-.54.28-.89.46-1.23.65s-.69.44-.88-.07.23-.62.59-.71A2.38,2.38,0,0,1,1266.81,316.27Z" transform="translate(5.92 -34.54)"/><path class="cls-9" d="M1258.27,306c-.21.46-.65.53-1.08.57-.23,0-.48-.11-.37-.37s.62-.43,1-.52S1258.25,305.63,1258.27,306Z" transform="translate(5.92 -34.54)"/><path class="cls-9" d="M1257.17,307.66c.19,0,.29-.11.35-.08a1.83,1.83,0,0,1,1,1c0,.05-.17.25-.23.24A1.56,1.56,0,0,1,1257.17,307.66Z" transform="translate(5.92 -34.54)"/><path class="cls-9" d="M1271.36,334.6c-.09.09-.18.19-.28.28a.7.7,0,0,1-.95.05c-.07-.06-.14-.27-.1-.33.25-.36.61-.23.94-.16a2.29,2.29,0,0,1,.37.12Z" transform="translate(5.92 -34.54)"/><path class="cls-9" d="M1255.58,288.36s-.07.05-.1,0-.06,0-.09-.07l.17-.09Z" transform="translate(5.92 -34.54)"/><path class="cls-10" d="M1149.53,296.46a2.12,2.12,0,0,1-1.13,1.37A1.42,1.42,0,0,1,1149.53,296.46Z" transform="translate(5.92 -34.54)"/><path class="cls-4" d="M1211.3,281.08a7.62,7.62,0,0,0-1.12,3.18c-.33,1.26-2.25,2.37-3.42,1.88-.9-.38-.7-1.16-.52-1.85.36-1.37.76-2.74,1.19-4.1,1-3.09,1.55-6.31,3-9.24a1.75,1.75,0,0,1,1.14-1c1-.26,2.06-.13,2.65-1.26.15-.28.76-.22,1.13-.05.53.25.43.75.33,1.17-.52,2.17-1.13,4.31-1.59,6.48-.57,2.65-1.51,5.23-1.53,8,0,.61-.24,1.1-.91,1.08s-.65-.66-.68-1.19C1211,283.19,1211.58,282.34,1211.3,281.08Z" transform="translate(5.92 -34.54)"/><path class="cls-4" d="M1197.09,273.23c-1.09.47-1.78.77-2.47,1-.34.13-.73.21-1-.12s0-.64.21-.93c.34-.47.68-.93,1-1.42a4.79,4.79,0,0,1,5.12-2.07c.66.15.85.46.47,1a1.22,1.22,0,0,0,.11,1.79.59.59,0,0,1,0,.74c-.52.93-1,1.86-1.6,2.78a.67.67,0,0,1-.91.32c-.51-.28-.18-.52.06-.82.54-.7-.19-.63-.47-.61C1196.3,275.09,1196.29,274.49,1197.09,273.23Z" transform="translate(5.92 -34.54)"/><path class="cls-7" d="M1210.86,305.87c.54-.06,1-.06,1.36.54.6,1.07,1.23.79,1.78-.08.15-.24.16-.69.61-.52s.56.62.44.73c-1,1,.19,1.76.18,2.63-.57-.06-1.17-.72-1.7,0a1,1,0,0,0,.07,1.14c.54.81,1.16.32,1.76.06a3,3,0,0,1-2,2.76c-.8.31-2.82-1.07-3.32-2a2.76,2.76,0,0,1,0-3,5.6,5.6,0,0,0,.79-2.26Z" transform="translate(5.92 -34.54)"/><path class="cls-4" d="M1192.27,271.74c.36-.05.82-.1.92.42s-.28.62-.62.74c-1.31.47-2.1,1.59-3.08,2.47-.4.35-.84.82-1.39.39s-.25-1.07,0-1.45C1189.16,272.94,1190.07,271.31,1192.27,271.74Z" transform="translate(5.92 -34.54)"/><path class="cls-4" d="M1203,317.9c.84.37,2.07-.22,2.28.45s-.94,1.14-1.5,1.68a18.16,18.16,0,0,1-3.24,2.56,1.75,1.75,0,0,1-1.12.38.54.54,0,0,1-.48-.41c-.08-.3.14-.39.37-.43,1.28-.22,2-1.2,3-1.95A1.69,1.69,0,0,0,1203,317.9Z" transform="translate(5.92 -34.54)"/><path class="cls-7" d="M1226.65,328.1l.3.67a19.77,19.77,0,0,1-4.69,1.8,26.85,26.85,0,0,1-3,.74c-.36.09-.87.39-1-.17s.45-.49.77-.56A45.81,45.81,0,0,0,1226.65,328.1Z" transform="translate(5.92 -34.54)"/><path class="cls-7" d="M1215.24,320.7c-.09.72-.35,1.27-1.14,1.24-1-.05-1.61-.47-1.55-1.56a1.21,1.21,0,0,1,1.35-1.31C1215,319.1,1215.11,319.92,1215.24,320.7Z" transform="translate(5.92 -34.54)"/><path class="cls-10" d="M1177.76,285.45c.48-.88,1.41-.93,2.08-1.42.37-.27.65.1.79.46s.52.91.13,1.38-.68.16-.94-.08C1179.22,285.21,1178.51,285.4,1177.76,285.45Z" transform="translate(5.92 -34.54)"/><path class="cls-9" d="M1215.36,310.39c-.6.26-1.22.75-1.76-.06a1,1,0,0,1-.07-1.14c.53-.74,1.13-.08,1.7,0A1.19,1.19,0,0,1,1215.36,310.39Z" transform="translate(5.92 -34.54)"/><path class="cls-10" d="M1223,289.92c.2-.11.31-.22.38-.2a1.42,1.42,0,0,1,.41.24c-.09.06-.18.19-.25.18A2.43,2.43,0,0,1,1223,289.92Z" transform="translate(5.92 -34.54)"/><path class="cls-10" d="M1210.09,332.13c-.2.12-.3.22-.38.21a.5.5,0,0,1-.29-.2c-.07-.13,0-.27.15-.25A2,2,0,0,1,1210.09,332.13Z" transform="translate(5.92 -34.54)"/><path class="cls-10" d="M1177.35,309.35l.16.15-.15-.16Z" transform="translate(5.92 -34.54)"/><path class="cls-6" d="M1202.31,304.4a.59.59,0,0,1-.69.25c-.18,0-.33-.18-.21-.38s.36-.22.59-.19S1202.34,304.16,1202.31,304.4Z" transform="translate(5.92 -34.54)"/><path class="cls-10" d="M1196.42,332.81l-.26.21c0-.07-.12-.17-.1-.21a1.13,1.13,0,0,1,.24-.25Z" transform="translate(5.92 -34.54)"/><path class="cls-6" d="M1233.37,341.52c-.49.57-1,.46-1.42,0A1.41,1.41,0,0,1,1233.37,341.52Z" transform="translate(5.92 -34.54)"/><path class="cls-9" d="M1220.49,369.61c-.07.77,0,1.59-.93,1.63a1.33,1.33,0,0,1-1.44-1.3c-.08-.88-.07-1.77-.09-2.66,0-.45.26-.63.67-.66.63-.06,1.22.05,1.4.73S1220.38,368.93,1220.49,369.61Z" transform="translate(5.92 -34.54)"/><path class="cls-9" d="M1209.7,405.68a4,4,0,0,1-1.74-.61c-.27-.17-.54-.66-.23-.74,1.3-.3.49-1,.4-1.59s.1-1.17.79-1.32a1,1,0,0,1,1.26.85c.15.79.28,1.58.44,2.36S1210.48,405.74,1209.7,405.68Z" transform="translate(5.92 -34.54)"/><path class="cls-10" d="M1226.88,371.92c.59.17.65.77.81,1.23s-.27.39-.51.38c-.66,0-.63-.65-.75-1.08C1226.35,372.17,1226.5,371.93,1226.88,371.92Z" transform="translate(5.92 -34.54)"/><path class="cls-6" d="M1206.7,364.17a1.69,1.69,0,0,1-2.29-.48C1205.37,363.27,1206,364,1206.7,364.17Z" transform="translate(5.92 -34.54)"/><path class="cls-6" d="M1238.29,346.8c0,.23,0,.46-.32.5s-.39-.15-.43-.39,0-.46.31-.5S1238.24,346.56,1238.29,346.8Z" transform="translate(5.92 -34.54)"/><path class="cls-6" d="M1190.49,417.82c.08.05.18.09.2.14s-.07.23-.21.21a.27.27,0,0,1-.13-.18C1190.35,417.94,1190.44,417.88,1190.49,417.82Z" transform="translate(5.92 -34.54)"/><path class="cls-6" d="M1182.94,421.76c-.06,0-.13.12-.18.11s-.1-.1-.15-.16.13-.12.18-.11S1182.89,421.7,1182.94,421.76Z" transform="translate(5.92 -34.54)"/><g class="cls-11"><path class="cls-12" d="M869.63,561.82c-81.15-66.61-171-124.92-271.11-156.49-10.87-3.43-22.14-6.57-33.49-5.64-9.86.81-19.52,4.68-29.35,3.59-14.3-1.59-25.43-13.13-39-17.77-20.7-7.06-43,2.7-62.52,12.62-148.44,75.53-289.44,174.28-440,242.32v412.79l1259.77,130.12,94.66-303.18c-114.69-57.69-230.19-115.88-331.74-194.42C966,646.52,919.2,602.51,869.63,561.82Z" transform="translate(5.92 -34.54)"/><path class="cls-13" d="M1923.07,555.23,1687,395.07c-5.16-3.5-10.45-7.06-16.47-8.72-7.76-2.13-16-.91-24-.42a131,131,0,0,1-66.2-13.47c-19.1-9.52-36.77-24-58-25.76-14-1.14-27.67,3.46-40.91,8-128.83,44.13-259.52,89.19-371.39,166.85,0,0,24.76,307,21.31,313.4-2.5,4.65,508.1,33.85,791.8,49.7Z" transform="translate(5.92 -34.54)"/><path class="cls-14" d="M1367.27,689.8c-34.84-22.58-69.15-46.33-99.48-74.68-26-24.3-48.9-51.81-75.23-75.76-36.28-33-78.46-58.66-120.36-84.13-6.6-4-13.39-8.1-21-9.51-23.7-4.4-43.25,17.5-65.55,26.65-24.46,10-52.19,4.3-78.55,6.25-33.47,2.48-64.62,17.4-94.48,32.72-65.24,33.47-128.81,70.1-192.34,106.72L484,696.62c-86,49.59-203.74,114.33-310.13,164l1553.54,15.22A2069.59,2069.59,0,0,1,1367.27,689.8Z" transform="translate(5.92 -34.54)"/><rect id="SVGID" class="cls-1" x="29.16" width="1876.17" height="1250.78"/><path class="cls-4" d="M300,264.75c.16-.37.44-.23.72.08a10.05,10.05,0,0,1,1.94,3.37,2.58,2.58,0,0,1-.17,1.66,54.9,54.9,0,0,1-2.77,6.79q-1.2,2.63-2.46,5.22c-.17.35-.14.57.2.74a2.57,2.57,0,0,0,1.72.39,8,8,0,0,1,3.17.32h.05a7.69,7.69,0,0,0,5.31,0,1.77,1.77,0,0,1,1.5.3c.25.15.47.26.72,0a.31.31,0,0,1,.43,0c.46.34,1.14.42,1.3,1.13a.42.42,0,0,0,.33.3c.71.15,1,.67,1.16,1.3a8.13,8.13,0,0,0,2,3.26c.77.8,1.77,1.28,2.5,2.1.28.32.64.58.71,1s.38.28.58.37c1.13.45,1.16.46,1.76-.56q2.54-4.33,5-8.68c.48-.82.94-1.65,1.4-2.49a.92.92,0,0,1,.68-.48,27.68,27.68,0,0,1,3-.38c.62,0,.7.07.51.66-1.11,3.4-2.38,6.74-3.59,10.1-.7,2-1.45,3.9-2.13,5.86a30.68,30.68,0,0,1-2.81,5.16c-1.57,2.71-3.18,5.39-4.77,8.09-.87,1.49-1.75,3-2.6,4.49-.21.35-.4.34-.63.09a25.31,25.31,0,0,1-2.36-3.17c-.15-.25,0-.49.07-.72q2.67-6.37,5.33-12.74c.09-.21.19-.42.26-.64s.51-.65.26-.95a1.91,1.91,0,0,0-1.3-.71c-.43,0-.86,0-1.28-.07a7.12,7.12,0,0,1-2.07-.34,8.3,8.3,0,0,0-2.08-.44,2.37,2.37,0,0,0-2.24.52,1.16,1.16,0,0,1-.75.28,6,6,0,0,1-4.14-1.07,5.37,5.37,0,0,1-2.47-3.79c-.11-1.11-1-1.52-1.83-2.05a9.59,9.59,0,0,1-2.48-2,4.89,4.89,0,0,0-1.76-1.44c-.33-.16-.47-.11-.65.18-2.06,3.4-4.13,6.78-6.21,10.17-.67,1.09-1.35,2.18-2,3.28a.54.54,0,0,1-.56.3,12.39,12.39,0,0,1-2.43-.27c-.75-.16-.81-.26-.64-1a26.62,26.62,0,0,1,1.19-3.6c1.83-4.62,3.72-9.21,5.89-13.68,1.06-2.17,2.35-4.21,3.57-6.29,1.59-2.7,3.17-5.39,4.77-8.09C299.19,266.05,299.55,265.47,300,264.75Z" transform="translate(5.92 -34.54)"/><path class="cls-4" d="M342,315.91c.06-.39.37-.33.72-.09a10.1,10.1,0,0,1,2.68,2.81,2.68,2.68,0,0,1,.23,1.66,55.4,55.4,0,0,1-1.1,7.25c-.36,1.89-.75,3.77-1.15,5.65-.09.38,0,.59.37.68a2.6,2.6,0,0,0,1.76,0,8,8,0,0,1,3.15-.44h.06a7.6,7.6,0,0,0,5.16-1.24,1.75,1.75,0,0,1,1.53-.06c.28.08.52.14.7-.17a.32.32,0,0,1,.41-.13c.53.23,1.21.15,1.53.8a.42.42,0,0,0,.4.21c.72,0,1.09.43,1.43,1a8.17,8.17,0,0,0,2.68,2.71c.93.59,2,.81,2.93,1.45.35.24.76.4.93.84s.44.18.66.21c1.2.18,1.23.18,1.57-.95q1.44-4.82,2.84-9.62c.27-.92.52-1.83.77-2.75a.89.89,0,0,1,.55-.63,28.6,28.6,0,0,1,2.84-1.08c.59-.18.7-.1.65.52-.27,3.56-.72,7.11-1.1,10.66-.22,2.07-.49,4.13-.68,6.19A30.7,30.7,0,0,1,373,347c-.89,3-1.81,6-2.72,9-.49,1.66-1,3.31-1.47,5-.11.39-.3.43-.58.24a23.86,23.86,0,0,1-3-2.53c-.22-.2-.15-.47-.11-.72q1.1-6.81,2.17-13.63c0-.23.09-.46.1-.69s.34-.74,0-1a1.92,1.92,0,0,0-1.44-.38c-.42.07-.83.17-1.25.23a7.08,7.08,0,0,1-2.09.16,8.91,8.91,0,0,0-2.13.06,2.4,2.4,0,0,0-2.05,1,1.22,1.22,0,0,1-.67.45,5.88,5.88,0,0,1-4.27-.07,5.37,5.37,0,0,1-3.3-3.09c-.36-1.05-1.37-1.23-2.26-1.56a9.26,9.26,0,0,1-2.88-1.39,4.85,4.85,0,0,0-2.06-1c-.35-.08-.48,0-.58.33q-1.81,5.67-3.64,11.34c-.39,1.22-.8,2.44-1.18,3.66a.56.56,0,0,1-.47.44,13.25,13.25,0,0,1-2.43.31c-.76,0-.84-.07-.85-.82a26.26,26.26,0,0,1,.31-3.77c.68-4.92,1.44-9.84,2.49-14.69.51-2.36,1.29-4.65,2-6.95q1.35-4.5,2.72-9C341.53,317.36,341.74,316.71,342,315.91Z" transform="translate(5.92 -34.54)"/><path class="cls-4" d="M1527.2,377.63c-.31-.66.22-.87,1-.87a18.45,18.45,0,0,1,6.83,1.52,4.73,4.73,0,0,1,2,2.25,100.92,100.92,0,0,1,5.65,11.94c1.35,3.18,2.65,6.39,3.93,9.61.26.65.59.88,1.24.63a4.6,4.6,0,0,0,2.6-1.8,14.16,14.16,0,0,1,4.28-3.83s0-.05.08-.06a13.81,13.81,0,0,0,6.46-7,3.18,3.18,0,0,1,2.22-1.63c.51-.16.92-.32.89-1a.53.53,0,0,1,.48-.59c1-.2,2-1,3.08-.35a.77.77,0,0,0,.81-.08c1.07-.76,2.07-.46,3.14,0a14.54,14.54,0,0,0,6.72,1.35c2,0,3.85-.8,5.83-.76a3.74,3.74,0,0,1,2.24.32c.53.37.84-.16,1.2-.33,2-.95,2-1,1.39-3q-2.67-8.62-5.4-17.24-.78-2.44-1.6-4.89a1.59,1.59,0,0,1,.18-1.48,53.74,53.74,0,0,1,3.16-4.47c.71-.86,1-.85,1.5.13,3.17,5.6,6.06,11.35,9.05,17,1.74,3.31,3.41,6.66,5.19,9.95s2.38,6.65,3.43,10c1.69,5.38,3.3,10.78,5,16.17.91,3,1.83,6,2.79,8.91.23.71,0,.95-.63.95a43.15,43.15,0,0,1-7.09-.73c-.52-.09-.68-.55-.87-1l-10.44-22.56a11.53,11.53,0,0,0-.54-1.12c-.32-.52-.23-1.46-.94-1.5a3.4,3.4,0,0,0-2.53.87c-.56.52-1.08,1.09-1.65,1.61a12.18,12.18,0,0,1-3,2.32,16.21,16.21,0,0,0-3.12,2.23,4.35,4.35,0,0,0-2,3.61,2.14,2.14,0,0,1-.54,1.35,10.66,10.66,0,0,1-6.45,4.18c-2.87.52-5.57.53-8-1.32-1.6-1.2-3.28-.47-4.94-.05a17,17,0,0,1-5.71.81,8.57,8.57,0,0,0-4.06.6c-.61.23-.71.48-.54,1.07q3,10.3,5.94,20.6c.64,2.22,1.25,4.45,1.92,6.67a1,1,0,0,1-.29,1.12,22.26,22.26,0,0,1-3.31,2.9c-1.12.78-1.33.74-2.09-.37a45.65,45.65,0,0,1-3.33-5.95c-3.91-8.05-7.71-16.15-11-24.46-1.6-4-2.73-8.24-4-12.39q-2.49-8.07-5-16.16C1527.94,380.26,1527.61,379.08,1527.2,377.63Z" transform="translate(5.92 -34.54)"/><path class="cls-4" d="M1631.94,402.08c.09-.53.5-.45,1-.13a13.42,13.42,0,0,1,3.57,3.75,3.48,3.48,0,0,1,.31,2.21,73.24,73.24,0,0,1-1.45,9.67c-.48,2.52-1,5-1.55,7.53-.11.51,0,.79.5.9a3.42,3.42,0,0,0,2.34,0,10.52,10.52,0,0,1,4.21-.59h.08a10.13,10.13,0,0,0,6.87-1.66,2.39,2.39,0,0,1,2-.08c.38.11.7.19.94-.22a.4.4,0,0,1,.54-.17c.71.3,1.62.19,2,1.06a.56.56,0,0,0,.53.28c1,0,1.46.57,1.92,1.33a10.87,10.87,0,0,0,3.57,3.6c1.25.79,2.7,1.09,3.9,1.94.47.32,1,.54,1.24,1.12s.59.24.88.28c1.61.24,1.64.24,2.1-1.27,1.28-4.27,2.53-8.55,3.79-12.83.35-1.22.7-2.44,1-3.67a1.18,1.18,0,0,1,.72-.83,39.43,39.43,0,0,1,3.79-1.45c.79-.23.93-.13.87.7-.36,4.75-1,9.48-1.47,14.22-.29,2.75-.65,5.5-.91,8.25s-1.28,5.07-2,7.58c-1.18,4-2.42,8-3.62,12-.67,2.21-1.34,4.42-2,6.64-.14.52-.4.57-.77.32a32.06,32.06,0,0,1-4.06-3.38c-.28-.27-.19-.62-.14-.95q1.46-9.09,2.89-18.18a7,7,0,0,0,.13-.92c0-.44.46-1,0-1.3a2.52,2.52,0,0,0-1.91-.51c-.56.09-1.11.22-1.68.31a9,9,0,0,1-2.78.2,12.14,12.14,0,0,0-2.83.09,3.21,3.21,0,0,0-2.74,1.38,1.62,1.62,0,0,1-.89.61,7.9,7.9,0,0,1-5.7-.1c-2-.86-3.64-2-4.39-4.12-.49-1.4-1.83-1.64-3-2.07a12.84,12.84,0,0,1-3.85-1.86,6.45,6.45,0,0,0-2.74-1.31c-.47-.11-.64,0-.77.44q-2.42,7.56-4.85,15.12c-.52,1.63-1.07,3.25-1.57,4.89a.74.74,0,0,1-.64.57,16.71,16.71,0,0,1-3.23.42c-1,0-1.13-.09-1.14-1.09a32.51,32.51,0,0,1,.42-5c.91-6.56,1.91-13.11,3.31-19.59.69-3.14,1.72-6.19,2.65-9.27q1.8-6,3.62-12C1631.31,404,1631.6,403.14,1631.94,402.08Z" transform="translate(5.92 -34.54)"/><path class="cls-4" d="M1584.84,422.19c.05-.26.25-.22.49-.06a6.65,6.65,0,0,1,1.8,1.9,1.75,1.75,0,0,1,.16,1.11,38.48,38.48,0,0,1-.74,4.89c-.24,1.27-.5,2.54-.78,3.8,0,.26,0,.4.25.46a1.8,1.8,0,0,0,1.19,0,5.25,5.25,0,0,1,2.12-.3h0a5.16,5.16,0,0,0,3.48-.84,1.18,1.18,0,0,1,1,0c.2.06.36.09.48-.11a.2.2,0,0,1,.27-.09c.36.15.82.1,1,.54a.31.31,0,0,0,.27.14,1.08,1.08,0,0,1,1,.67,5.49,5.49,0,0,0,1.8,1.82c.63.4,1.37.55,2,1,.23.16.51.27.62.56s.3.13.45.15c.81.12.83.12,1.06-.64.64-2.16,1.27-4.33,1.91-6.49.18-.61.35-1.23.52-1.85a.6.6,0,0,1,.37-.42,19.23,19.23,0,0,1,1.91-.73c.4-.12.47-.07.44.35-.18,2.4-.48,4.79-.74,7.18-.15,1.39-.33,2.78-.46,4.18a20.9,20.9,0,0,1-1,3.82c-.6,2-1.22,4-1.83,6.06-.34,1.11-.68,2.23-1,3.35-.08.26-.21.29-.4.16a17.44,17.44,0,0,1-2-1.7c-.14-.14-.09-.32-.07-.49q.73-4.59,1.46-9.18a3.65,3.65,0,0,0,.07-.46c0-.23.23-.51,0-.66a1.28,1.28,0,0,0-1-.26c-.28,0-.56.11-.84.15a4.51,4.51,0,0,1-1.41.11,6.19,6.19,0,0,0-1.43,0,1.6,1.6,0,0,0-1.38.7.85.85,0,0,1-.45.31,4,4,0,0,1-2.88,0,3.6,3.6,0,0,1-2.22-2.08c-.25-.71-.93-.83-1.53-1a6.46,6.46,0,0,1-1.94-.94,3.27,3.27,0,0,0-1.38-.66c-.24-.05-.33,0-.4.22q-1.21,3.82-2.45,7.64c-.26.82-.53,1.64-.79,2.47a.38.38,0,0,1-.32.29,8.18,8.18,0,0,1-1.63.21c-.52,0-.57-.05-.58-.55a16.53,16.53,0,0,1,.21-2.54c.46-3.32,1-6.63,1.68-9.9.34-1.59.87-3.13,1.33-4.68l1.83-6.05Z" transform="translate(5.92 -34.54)"/><path class="cls-4" d="M307.7,380.69a.89.89,0,0,0-1.36.27c-.25.36-.47.3-.77.07-2.82-2.15-5.66-4.29-8.49-6.43-.3-.23-.41-.39-.1-.74a5.8,5.8,0,0,1,3.69-2.18,3.78,3.78,0,0,0,2.91-1.94,10.75,10.75,0,0,1,2.1-2.59c.61-.51.8-1,.3-1.7a.9.9,0,0,1,.12-1.3,8.12,8.12,0,0,0,.56-.75c.55-.76.11-1.34-.42-1.82s-1.32-1-1.93-.35c-.86,1-2.06,1.49-2.88,2.46a1.58,1.58,0,0,1-1.36.6c-2.09-.06-4.18-.05-6.27-.08-.58,0-1.3.13-1.74-.15a6.79,6.79,0,0,0-3.95-1.06c-.26,0-.53-.08-.47-.41.21-1.27.08-2.76,1.65-3.3,1.2-.41,1.65-1.41,2.21-2.37a1.2,1.2,0,0,0-.1-1.45,5.26,5.26,0,0,0-1.26-1.23c-1.32-.9-1.74-.8-2.85.33s-1.59,3.33-3.57,3.89c-1.26,2.16-3.18,2-5.21,1.51-.11,0-.22,0-.32,0a1.91,1.91,0,0,0-2.16.88c-.17.24-.38.9-.8.27-.28-.44-1.39-.67-.51-1.52a6.14,6.14,0,0,0,1.59-2.29,2.1,2.1,0,0,1,1.51-1.19c1.3-.36,1.71-1.62,2.53-2.47.07-.06.06-.28,0-.39-.68-1.27-1.41-2.49-2.94-2.93a.81.81,0,0,0-.79.08,7.39,7.39,0,0,0-2.1,2.44,5.2,5.2,0,0,1-2.12,2.65,6,6,0,0,0-2,1.91c-.34.61-.71.63-1.28.35a4,4,0,0,0-2.54-.77,3.09,3.09,0,0,1-1.83-.24l-11.14-4.48c-.3-.12-.74-.15-.76-.6a1,1,0,0,1,.69-.95c.61-.26,1.19-.54,1-1.34a2.3,2.3,0,0,0-1.56-1.81.79.79,0,0,0-1,.31c-.37.79-1.12,1.13-1.68,1.67a70,70,0,0,0-6.43,6.57c-.47.6-1,1.18-.62,2.06.12.27-.09.45-.28.61-2.82,2.48-5.16,5.42-7.71,8.15-.92,1-1.7,2.16-3.45,1.86-.9-.15-1.71.95-1.28,1.44.67.78.23,1.08-.26,1.57a.86.86,0,0,0-.1,1.24c.42.43.85.14,1.2-.16a12.31,12.31,0,0,0,1.29-1.21c.54-.59,1-.63,1.32.16.14.3.3.7.75.53a.8.8,0,0,0,.51-1,3.09,3.09,0,0,0-.3-1c-.38-.59-.16-.93.26-1.42,2.06-2.38,4.77-4,6.9-6.35,1.16-1.27,2.2-2.76,4.11-3.19.52-.11.86-.24,1.3.09a39.9,39.9,0,0,0,4.73,2.86c2.57,1.4,5.15,2.79,7.71,4.2.51.29,1.13.49,1.45,1.24-1.94.18-3.68,1.08-5.61.76a1,1,0,0,0-.94.34c-1.62,2-3.53,3.75-5.28,5.64-.28.3-.57.63-.15,1,1,.8.34,1.19-.37,1.59s-1.36.95-1.1,1.91a1.84,1.84,0,0,1-.7,1.93q-2.14,2.13-4.27,4.29a7.19,7.19,0,0,0-.79,1c-1.46,2.12-2.57,4.61-5.58,5a1.82,1.82,0,0,0-.4.11c-.53.18-1.08.28-1.05,1.06s.59.78,1.17.8a5.72,5.72,0,0,1-1.06,1.39.92.92,0,0,0,0,1.24c.37.44.69,0,1-.2a5.18,5.18,0,0,0,1.42-1.38c.42-.63.77-.67,1.24,0,.21.29.49.73.9.57s.42-.69.47-1.1a1.33,1.33,0,0,0-.17-1c-.44-.52-.21-.87.16-1.33,2.33-2.86,5.52-4.88,7.66-7.91.42-.59.94-1.12,1.42-1.67a1.23,1.23,0,0,1,1-.52,1.86,1.86,0,0,0,2-1.82,2.2,2.2,0,0,1,.76-1.53c.71-.67,1.41-1.35,2.11-2a1.42,1.42,0,0,1,.88-.52c1.81-.06,3.62-.12,5.43-.14.73,0,.82.38.41.94-1.82,2.51-3.3,5.25-5.27,7.66L247,395.45c-.29.35-.56.8-.94,1-1.29.56-2,1.71-2.84,2.69a7.55,7.55,0,0,0-1.84,5.4c0,.91.42,1.19,1.25,1a5.47,5.47,0,0,0,1-.28,30.21,30.21,0,0,0,7.47-4.74c.71-.62.68-1.55,1.34-2.16q10.43-9.53,20.81-19.08c.19-.18.46-.45.67-.43a4.57,4.57,0,0,0,3.1-1.2,3.13,3.13,0,0,1-.1.43c-.84,1.57-.75,2.58.51,3.35,1.83,1.11,3.3,1.36,4.29,0,.5-.7,1-1.73,2.09-.65a.23.23,0,0,0,.2,0c1.31-.27,2.27.9,3.67.67-.44.86-.87,1.32-1.68,1.37a5.47,5.47,0,0,0-1.32.29.84.84,0,0,0-.67.83c0,.38.11.69.54.76s.34.4.18.68l-.49.8c-.26.43-.52.9,0,1.3s.92,0,1.24-.37c.55-.67,1.07-1.36,1.65-2.09.27.39.46.72.7,1s.66.46.85,0c.28-.65.64-1.44,0-2.05s-.08-.89.23-1.27.68-.6,1.23-.23c1,.66,2.08,1.27,3.15,1.85,2.11,1.15,4.2,2.34,6.22,3.64.29.18.64.33.58.78s-.33.51-.65.59a3.45,3.45,0,0,0-1.53,1.22c-.3.32-.41.7-.08,1,.65.66.32,1.1-.18,1.65a38.26,38.26,0,0,0-4.39,5.17,55.54,55.54,0,0,1-3.2,4.7c-.78,1-1.53,1.94-3,1.84a.93.93,0,0,0-1,1.34c.54.89.07,1.37-.3,2a.7.7,0,0,0,.17,1c.4.29.73.11,1-.2.47-.51.94-1,1.37-1.58s.77-.8,1.17,0c.14.29.34.66.78.56s.46-.55.51-.94a1.18,1.18,0,0,0-.21-1c-.73-.68-.33-1.14.14-1.73,2.59-3.18,5.77-5.85,8-9.32a3.6,3.6,0,0,1,2.3-2,1.4,1.4,0,0,0,.63-.52l6.06-7.6c.24-.31.49-.65.29-1a1.48,1.48,0,0,1,.15-1.55A1.32,1.32,0,0,0,307.7,380.69Zm-13-7.72c-.39,0-.7-.44-1-1l1.88-.06C295.39,372.45,295.12,372.94,294.68,373Z" transform="translate(5.92 -34.54)"/></g></g></g></svg>