<svg xmlns="http://www.w3.org/2000/svg" xmlns:xlink="http://www.w3.org/1999/xlink" viewBox="0 0 1923.07 1080"><defs><style>.cls-1{fill:url(#linear-gradient);}.cls-2{fill:#84d6cc;}.cls-3{fill:#62c3b8;}.cls-4{fill:#ffc500;}.cls-5{fill:#3d3b5c;}</style><linearGradient id="linear-gradient" x1="961.54" y1="1080" x2="961.54" gradientUnits="userSpaceOnUse"><stop offset="0" stop-color="#f2f2f2"/><stop offset="0.11" stop-color="#d5ece9"/><stop offset="0.23" stop-color="#bbe6e0"/><stop offset="0.36" stop-color="#a6e2da"/><stop offset="0.51" stop-color="#98dfd5"/><stop offset="0.7" stop-color="#90ded3"/><stop offset="1" stop-color="#8dddd2"/></linearGradient></defs><g id="Layer_2" data-name="Layer 2"><g id="OBJECT"><rect class="cls-1" width="1923.07" height="1080"/><path class="cls-2" d="M1923.07,0V299.35c-71.79,84.42-156.94,164.89-276.44,196.53-137.79,36.49-287.94-.92-422.35-44.66S951.6,356.1,806.87,364.85c-20.51,1.26-41.25,3.79-59.81,10.85-18.25,6.94-33.56,17.89-50.54,26.63-70.13,36.07-162.66,30.8-241.24,8.44S306.37,351,230.08,324c-72.2-25.51-155-41.3-230.08-23.51V0Z"/><path class="cls-3" d="M1923.07,0V208.33c-38,28.08-79.34,53.67-127.33,68.73-48.3,15.13-101,18.85-152.88,19-136.35.32-272.69-23.42-396.5-69C1131.83,184.79,1017,122.38,892,135.64,775.75,148,672.37,225.32,556.91,209c-78.77-11.11-137-63.09-187.35-112.72C334,61.27,296.23,24.32,249.85,0Z"/><path class="cls-4" d="M1158.78,223.6V201.9c0-.29,0-.58,0-.87,0-.53-.26-.72-.75-.71-.3,0-.58,0-.88,0h-53.55a22.11,22.11,0,0,0-4.52.42c-10.93,2.23-16.23,13.36-16.16,20.57a32.62,32.62,0,0,0,5.31,18,50.36,50.36,0,0,0,7.73,9,25.93,25.93,0,0,1,2.94,3,6.53,6.53,0,0,1,1.17,1.94,1.77,1.77,0,0,1-1,2.46,5.2,5.2,0,0,1-1.84.52,23.44,23.44,0,0,1-3.84.08c-3.14-.25-6.29-.29-9.44-.28-6.93,0-13.88,0-20.82,0-2.51,0-5,0-7.53-.16a15.25,15.25,0,0,1-8.71-3.74c4.3-.39,7.25-2.53,9.72-5.46a30,30,0,0,0,6-12.29,28.78,28.78,0,0,0,.69-13,25.91,25.91,0,0,0-8.83-14.52,23.63,23.63,0,0,0-16.28-6.11c-18.24.15-36.51,0-54.77,0-2.14,0-1.83-.21-1.83,1.88q0,39.47,0,78.93c0,.4,0,.81,0,1.22s.18.65.62.65h27.3c.35,0,.7,0,1,0,.62.05.82-.26.79-.84,0-.4,0-.81,0-1.22,0-7.93,0-15.87,0-23.8,0-.42-.2-.92.28-1.33.4.44.79.86,1.16,1.29,5.14,5.9,10.29,11.78,15.83,17.31a73.69,73.69,0,0,0,6.62,6,11.52,11.52,0,0,0,5.91,2.39,60.36,60.36,0,0,0,7,.22c20.77-.13,41.54-.31,62.3-.38a26.5,26.5,0,0,0,17.13-6.44c8.94-7.29,11.26-22.44,2.81-31.42-.36-.38-.68-.8-1-1.2-4.09-4.71-8-9.62-12.16-14.22-.74-.81-1.58-1.76-1.08-3s1.71-1.28,2.8-1.46a30.56,30.56,0,0,1,5.06-.29h33.25C1159,225.12,1158.78,225.19,1158.78,223.6Zm-121.59,7.85a6.51,6.51,0,0,1-6.43,5.16h-9.1c-3,0-6.07,0-9.11,0-.92,0-1.17-.28-1.16-1.18,0-4.21,0-8.41,0-12.61,0-.79.18-1.14,1.07-1.14,6,0,12-.06,18,.06,3.63.06,6.31,2.78,6.79,6.54A8.73,8.73,0,0,1,1037.19,231.45Z"/><path class="cls-4" d="M893.64,107.13h58.45c1.62,0,1.52-.07,1.52,1.52v21.7c0,1.69.24,1.6-1.58,1.6h-32.9c-.41,0-.82,0-1.23,0s-.71.25-.69.75,0,.93,0,1.4v53.38a8.28,8.28,0,0,0,0,1.22c.14,1-.33,1.16-1.2,1.16q-12.33,0-24.67,0c-1.31,0-1.13-.16-1.13-1.36v-54.6c0-.41,0-.82,0-1.23s-.23-.73-.73-.71c-.29,0-.59,0-.88,0q-17.05,0-34.13,0a20.65,20.65,0,0,0-4,.34c-2.46.47-2.94,1.67-1.44,3.63.39.5.88.93,1.29,1.42,4.06,4.81,8.16,9.6,12.16,14.46a14,14,0,0,1,3.09,11.3c-.33,2.38-.13,4.78-.45,7.16a23,23,0,0,1-18.19,19.34,21.37,21.37,0,0,1-3.84.25H764c-.44,0-.61-.26-.61-.67v-1q0-12.08,0-24.15c0-1.81-.18-1.66,1.53-1.66h55.83c1.4,0,2.8.13,4.19.25a19.71,19.71,0,0,0,4.54-.15,4.24,4.24,0,0,0,1.79-.64,1.67,1.67,0,0,0,.68-2.27,8.74,8.74,0,0,0-2.22-3.11c-1.32-1.32-2.71-2.57-4-3.91-4.29-4.39-7.77-9.31-9.49-15.29A28.89,28.89,0,0,1,815,125.63a21.53,21.53,0,0,1,20.4-18.48c2.86-.06,5.72,0,8.58,0Z"/><path class="cls-4" d="M824.67,244.32a5.47,5.47,0,0,0-.91,2.24c-3.55,11.57-7.07,23.16-10.64,34.74-.63,2-.14,1.77-2.49,1.78H789.28c-1.5,0-1.51,0-1.91-1.38q-11.76-39.88-23.51-79.76c-.14-.49-.46-1-.25-1.51a3.56,3.56,0,0,1,1.55-.12h27c2.12,0,1.65-.19,2.18,1.68,2.27,8,4.49,16,6.73,24,.12.45.28.89.47,1.45a16.19,16.19,0,0,0,1.15-3.74c1.91-7.26,3.78-14.54,5.67-21.81.42-1.63.42-1.64,2-1.64h28.7c1.66,0,1.67,0,2.14,1.57q3.52,11.79,7.07,23.59a4.19,4.19,0,0,0,.85,2c1.26-4.21,2.47-8.26,3.69-12.3,1.38-4.57,2.78-9.14,4.1-13.72a1.36,1.36,0,0,1,1.57-1.19c8.16,0,16.33,0,24.5,0a3.24,3.24,0,0,1,.52.07c.25.68-.15,1.26-.33,1.85q-11.55,39.48-23.14,79c-.12.39-.24.78-.35,1.17a.88.88,0,0,1-1,.74c-.88,0-1.75,0-2.63,0H837c-1.76,0-1.77,0-2.22-1.65l-9.57-35.24C825,245.63,824.87,245.07,824.67,244.32Z"/><path class="cls-4" d="M1158.76,164.29c0-2.19.34-2-1.92-2h-33.06a48,48,0,0,1-5.24-.27,12.18,12.18,0,0,1-4.51-1.28,3,3,0,0,1-1.87-2.09c.29-.35.67-.3,1-.34a12,12,0,0,0,6.11-2.81,20.73,20.73,0,0,0,4.17-4.69,34.49,34.49,0,0,0,5.51-18.16,22,22,0,0,0-4.17-13.64c-5.38-7.64-12.41-12.09-22.19-12-17.85.22-35.69.06-53.54.06a10.1,10.1,0,0,1-1.23,0c-.9-.11-1.13.34-1,1.13a6.46,6.46,0,0,1,0,.88v78.74c0,.41,0,.81,0,1.23s.21.76.72.74h27.3c.35,0,.7,0,1,0,.52,0,.74-.2.71-.72s0-.82,0-1.23q0-12,0-24c0-.41-.19-.89.3-1.28l.62.69c4.37,5.08,8.83,10.1,13.44,15a100,100,0,0,0,9.3,8.75,11,11,0,0,0,5.84,2.54,35.91,35.91,0,0,0,4,.21l47.25,0h.7c.49,0,.77-.18.75-.71s0-.83,0-1.23C1158.77,180,1158.78,172.16,1158.76,164.29Zm-56.62-25.82a6.08,6.08,0,0,1-5.16,4.35,16.58,16.58,0,0,1-2.44.17c-2.62,0-5.24,0-7.86,0H1078c-1.37,0-1.39,0-1.39-1.3q0-6.21,0-12.41c0-1.17,0-1.19,1.29-1.19,5.76,0,11.53.05,17.29,0,3.95-.06,6.67,2.78,7.26,6.42A8,8,0,0,1,1102.14,138.47Z"/><path class="cls-4" d="M968.91,281.68l-19.56-69.83c-.92-3.31-1.86-6.61-2.76-9.92-.21-.79-.55-1.25-1.44-1.11a4.3,4.3,0,0,1-.88,0H904.54a9.2,9.2,0,0,1-1,0,.88.88,0,0,0-1.06.87,4.94,4.94,0,0,1-.25.83q-11.68,39.54-23.35,79.1a3.14,3.14,0,0,0-.35,1.81,2.06,2.06,0,0,0,.38.07c8.52,0,17,0,25.55,0,.9,0,1.2-.39,1.47-1.12,1.15-3.12,2.39-6.2,3.52-9.32a1.45,1.45,0,0,1,1.61-1.17q13.2,0,26.43,0a1.35,1.35,0,0,1,1.5,1.05c1.09,3.08,2.23,6.13,3.37,9.19.49,1.34.5,1.34,2,1.34H967.9a2.55,2.55,0,0,0,1.42-.17C969.18,282.8,969.06,282.23,968.91,281.68ZM916,252l9.14-29.6h.37c2.85,9.83,5.71,19.65,8.6,29.6Z"/><path class="cls-4" d="M1033.83,180.46q-10-35.84-20-71.67c-.45-1.66-.46-1.66-2.21-1.66H971.32c-1.55,0-1.55,0-2,1.49q-11.79,39.87-23.56,79.75a1.82,1.82,0,0,0-.15,1.36,2.68,2.68,0,0,0,.49.11c8.45,0,16.91,0,25.37,0,.91,0,1.19-.42,1.46-1.15,1.14-3.12,2.36-6.21,3.51-9.32a1.51,1.51,0,0,1,1.63-1.16q13.14.06,26.25,0a1.58,1.58,0,0,1,1.74,1.28c1,2.91,2.1,5.8,3.17,8.7.61,1.63.61,1.64,2.3,1.64h23.1a2.91,2.91,0,0,0,1.74-.25C1035.52,186.5,1034.68,183.49,1033.83,180.46ZM983,158.32c3.09-10,6.14-19.88,9.2-29.77h.27c2.86,9.87,5.73,19.73,8.65,29.78Z"/><rect class="cls-5" x="1.26" y="697.54" width="1921.81" height="382.15"/></g></g></svg>