<svg xmlns="http://www.w3.org/2000/svg" xmlns:xlink="http://www.w3.org/1999/xlink" viewBox="0 0 2129.45 1694.24"><defs><style>.cls-1{fill:none;}.cls-2{clip-path:url(#clip-path);}.cls-3{fill:#383654;}.cls-4{fill:url(#linear-gradient);}.cls-5{fill:#3d3b5c;}</style><clipPath id="clip-path" transform="translate(0 -89.58)"><rect class="cls-1" width="1922.86" height="1025.28"/></clipPath><linearGradient id="linear-gradient" x1="961.43" y1="1299.29" x2="961.43" y2="895.8" gradientUnits="userSpaceOnUse"><stop offset="0" stop-color="#48476e"/><stop offset="1" stop-color="#383654"/></linearGradient></defs><g id="Layer_2" data-name="Layer 2"><g id="OBJECT"><g class="cls-2"><path class="cls-3" d="M2129.45,784.09c-30.84-3.26-58.48-20.73-79.09-42.76s-35.09-48.5-49.05-74.81a334.63,334.63,0,0,0,56,31.17A111.74,111.74,0,0,0,2038.45,662l56.07,18.07A320.08,320.08,0,0,1,2026.26,629a156,156,0,0,0,99.26,21c-24.81-8-47.34-22.48-67.18-38.7-7.61-6.21-15.15-12.13-22.69-18a541,541,0,0,1-40.4-42.4c19.13,1.72,38.82-.52,58-3.25-15.88-3.81-31.85-7.64-46.86-13.88a149.27,149.27,0,0,1-55.5-40.18c-9.3-13.29-14.58-21.76-14.58-21.76,40.23,23.59,77.64,22.06,128.28,11.68-38.14-5.83-73.89-24.86-99-52.71a96.24,96.24,0,0,0,59,5.91A335.7,335.7,0,0,1,1962.17,398c26.62,13.77,59.38,16.39,88.06,7-40.29-14.93-69.61-45.34-93.53-80.35a98.88,98.88,0,0,0,48.52,2.57,143,143,0,0,1-79.63-54.57q-3.61-6.66-7.11-13.27c11.4,19.87,38.59,30.12,61.25,23.08l-25.16-18a42.36,42.36,0,0,0,31.39,6.33,149.27,149.27,0,0,1-46.65-47.1A178.24,178.24,0,0,0,2036,225.3c-69.49-15.94-127.69-70.09-145.88-135.72-18.19,65.63-76.39,119.78-145.88,135.72a178.24,178.24,0,0,0,96.69-1.54,149.27,149.27,0,0,1-46.65,47.1,42.36,42.36,0,0,0,31.39-6.33l-25.16,18c22.66,7,49.85-3.21,61.25-23.08q-3.51,6.6-7.11,13.27A143,143,0,0,1,1775,327.31a98.87,98.87,0,0,0,48.52-2.57c-23.92,35-53.24,65.42-93.52,80.35a116.46,116.46,0,0,0,88-7,336,336,0,0,1-62.35,38.62,96.21,96.21,0,0,0,59-5.91c-25.14,27.85-60.89,46.88-99,52.71,50.64,10.38,88,11.91,128.28-11.68,0,0-5.28,8.47-14.58,21.76a149.19,149.19,0,0,1-55.5,40.18c-15,6.24-31,10.07-46.86,13.88,19.14,2.73,38.83,5,58,3.25a541,541,0,0,1-40.4,42.4c-7.54,5.89-15.08,11.81-22.69,18-19.84,16.22-42.37,30.75-67.18,38.7A156,156,0,0,0,1754,629a320.08,320.08,0,0,1-68.26,51.14L1741.79,662a111.74,111.74,0,0,0-18.85,35.66,334.63,334.63,0,0,0,56-31.17c-14,26.31-28.45,52.78-49,74.81s-48.25,39.5-79.09,42.76a193.14,193.14,0,0,0,119.7-16.84,81.49,81.49,0,0,1-38.3,38c7.52-2.44,27-6.46,34.53-8.91-2.07,12.23,1.23,21.86-18.17,38.28,6.73-3.88,23-8,42.42-12a211.46,211.46,0,0,1-15.2,27.36c15.8,3.3,33.41-6.5,38.09-21.2q-1.08,15.47-2.18,30.94L1828.37,839A26.15,26.15,0,0,0,1831,853.4q5.32-8.62,10.64-17.26a182.9,182.9,0,0,0,15.18,37c-.65-17-.87-35.49,9.72-49.24,2.91,15.34,13.39,29.24,27.76,36.8q-2.76-14.94-5.5-29.86a84.85,84.85,0,0,0,14.6,21.29c1-6.75,1.58-13.55,1.87-20.35,6.71,11.53,18.1,20.1,30.51,26s25.92,9.35,39.32,12.78a143.58,143.58,0,0,1-30.19-31.21A55.9,55.9,0,0,0,1972.29,858a16.83,16.83,0,0,0-7.11-15A125.57,125.57,0,0,0,1996,857.64q-8.87-8.21-17.07-17c12.75,7,16.26,7.37,30.07,12.27,8.75,3.11,29.43,11.11,36.49,5.31a135.5,135.5,0,0,1-30.63-29.62c7.53,2,13.45,4.08,16.88,6q-3.11-18.35-6.2-36.69l22.56,7.32a81.49,81.49,0,0,1-38.3-38A193.14,193.14,0,0,0,2129.45,784.09Z" transform="translate(0 -89.58)"/><path class="cls-3" d="M350.14,977.12,390.43,988c-36.25-30.21-67.83-63.11-94.07-98a139.88,139.88,0,0,0,14,5.19,220.44,220.44,0,0,0,29.51,7.2c-13.71-3.43-24.8-12.87-34.35-22.82-.61-.63-1.21-1.27-1.81-1.91l7.06,3.64a72.3,72.3,0,0,1-8.16-16.21L348.83,881a302.16,302.16,0,0,1-49.58-52.44c2.35.4,4.71.77,7.05,1.14l32.39,5.08a148.67,148.67,0,0,1-52.26-25.41A231.61,231.61,0,0,1,267.3,770l22.53,12.31a21.72,21.72,0,0,0,.18-12,116.55,116.55,0,0,0,35.19,10.2c-7.89-1.7-14.76-6.13-21.43-10.48q-2.73-1.77-5.46-3.58a267.25,267.25,0,0,0,55.88,2.79c-31.61-19.7-57.3-43.94-75.23-70.68,14,4.41,28.8,7.89,43.29,5.48a88.58,88.58,0,0,1-50.2-33l6,1.76q.36-5.07.71-10.12l2,1.36a67.56,67.56,0,0,0,8.24,5,59.35,59.35,0,0,0,10.77,3.72A182.86,182.86,0,0,0,330,677.94c-9.64-3.62-19.17-7.83-27.23-14a57.86,57.86,0,0,1-5.41-4.72,96.17,96.17,0,0,0,48.25.46c-38.88-16.63-69.52-42.37-85.74-72l20.51,5.73-3.66-15.57A94.4,94.4,0,0,0,305,587.53c-9.91-3.55-16.74-12.15-22.08-20.83-1-1.64-2-3.29-2.9-5l33,6.13c-42.06-27.13-83.68-60.76-83.24-100.64h0c.44,39.88-41.19,73.51-83.25,100.64l35.3-6.56-5.91,13.5,8.31-3.06q-2.55,10.82-5.09,21.64l9.9-2.76a70.3,70.3,0,0,1-5.2,6.25c-8.52,9-20.13,15.82-32.83,17.17,4.83,4.07,11.78,4.74,18.23,5.12,2,.12,4.1.23,6.15.18-16.32,16.13-37.3,30-61.47,40.33,18.71,4.85,40.55,3.46,57.67-3.68l-8.84,15.52,17.94-10.9.84,12.12,9.29-2.74a135.56,135.56,0,0,1-22.3,20.68,122,122,0,0,1-51.35,22.06,83,83,0,0,0,45.76-2.34,79.15,79.15,0,0,0,13.81-6.33c-17.68,24.55-42,46.8-71.38,65.13a267.72,267.72,0,0,0,46.54-1.51,147.35,147.35,0,0,1-33.79,17.91c7.81.18,15.68.36,23.38-.92s15.31-4.11,21-9.24a57.6,57.6,0,0,0,6.22-7q1.52-1.9,3-3.83l.19,0a22.27,22.27,0,0,0-2.15,17.71L192.26,770l-.31.81c-2,3.65-4.13,7.27-6.32,10.84-7.11,11.59-15.2,22.8-25.61,31.88s-23.3,16-37.31,17.76c11.57-.34,23.23-.7,34.52-3.15,1.38-.3,2.76-.64,4.13-1A301,301,0,0,1,110.72,881L157,865.13a72.3,72.3,0,0,1-8.16,16.21L159,876.11a5.92,5.92,0,0,1-1.59,7.09l16.47-7.84q-6.66,9.52-13.85,18.85c-2.78,1.78-5.66,3.44-8.55,5a362.69,362.69,0,0,1-35.15,17c-9,3.79-18.44,7.27-28.28,7.21a228.9,228.9,0,0,0,37.3,4.2q3.33.1,6.68.07A617,617,0,0,1,69.13,988l40.29-10.88a29.87,29.87,0,0,1-.38,17.73l27.61-16a28.3,28.3,0,0,0,2.58,13.32,125.4,125.4,0,0,1,29.49-12.08c25.41-5.17,41.59,4.57,61.06-16.45,19.47,21,35.65,11.28,61.06,16.45a125.4,125.4,0,0,1,29.49,12.08,28.3,28.3,0,0,0,2.58-13.32l27.61,16A29.87,29.87,0,0,1,350.14,977.12Z" transform="translate(0 -89.58)"/><path class="cls-4" d="M1727.55,756.6q-22.38-.29-44.8-.49a84,84,0,0,1,4.11-17.73,109.57,109.57,0,0,0-19.5,5.06l5.49-9.81A126.47,126.47,0,0,0,1653,744.77a65.84,65.84,0,0,0,6.59-15.64l-19.82,6.4q7.9-13.21,17-25.72a138.74,138.74,0,0,1-16.43,13.72c-4.1,2.92-8.39,5.64-12,9a43.2,43.2,0,0,0-9.61,13.22,82,82,0,0,0-2.46-13.19,6.67,6.67,0,0,0-1.69-3.24,7.83,7.83,0,0,0-4.13-1.46c-12.44-1.9-27.05-3.17-35.81,5.42-5,4.94-7.21,12.49-13.42,16-2.16,1.23-4.68,1.88-6.61,3.4a15.67,15.67,0,0,0-3.82,5.16,56.24,56.24,0,0,0-45-12.85,18,18,0,0,1,10.15,3.28,185.94,185.94,0,0,1-32.09.89l16.56,5.16-22.78,1.77c-7.44.57-15.19,1.24-21.56,4.94a62.91,62.91,0,0,1,16.37,4.73c-2.13.28-4.27.54-6.39.84-33.52,4.75-66.85,11.5-100.16,18.22.6-1.35,1.21-2.7,1.83-4q9.18-19.61,18.34-39.21a92.94,92.94,0,0,0-18.52,19.85,148.31,148.31,0,0,1,9.54-28.68,35.88,35.88,0,0,0-14.13,13c-3.51,5.34-5.93,11.26-8.19,17.17-.63,1.65-1.25,3.32-1.84,5a229.28,229.28,0,0,1,6.22-35.14c-6,2.28-10.27,7.43-12.76,13.06s-3.35,11.75-4.2,17.79q-.71,5-1.4,9.92a125.13,125.13,0,0,1-.69-24c-4,6.56-5.68,14.19-6,21.76,0,.18,0,.36,0,.53q-3.37-35.93-4.78-72c-5.86,16.78-4.1,34.35-1.59,52.1a122.51,122.51,0,0,0-16.77-35.64c3,5.35,4.47,11.34,5.84,17.26q4.1,17.65,7.52,35.45c.64,3.32,1.27,6.67,1.72,10-7.13-21.55-20.94-41.34-36.06-59.09a147.24,147.24,0,0,1,26.34,53.16,164,164,0,0,0-16.39-26.53c-2.69-3.56-5.85-7.22-10.31-8.35,2.84,8.05,7.12,15.56,10.52,23.42a115.21,115.21,0,0,1,5.94,17.53c-12.31-16.2-29.82-29.54-47.56-40.73A439.54,439.54,0,0,1,1299,789.61c1.61,2.38,3.2,4.81,4.72,7.27-40.63,7.18-81.37,12.42-122.51,12.07,1.18-3,2.38-6,3.53-9.05a66.41,66.41,0,0,1-15.34,3.48l4.65-7.83a62.9,62.9,0,0,1-21.72,5.34l4.53-6.31a118,118,0,0,0-21.6,6.84,67.42,67.42,0,0,1,15.54-18.62c-9.74,2.35-19.44,5.27-28.06,10.17a57.44,57.44,0,0,0-7.15,4.83c-.08-.63-.16-1.25-.29-1.86a21.76,21.76,0,0,0-11-14.36,23.88,23.88,0,0,0-18.63-1.5c-3.18,1.09-6.37,2.88-9.69,2.3-1.7-.3-3.25-1.21-5-1.4-2.35-.25-4.61.88-6.56,2.15a47.54,47.54,0,0,0-10.77,9.86c-27.59-5.31-55.17-10.82-83-14.6-65.08-8.83-135.58-7-191,26.55-22.77,13.79-42,32.38-64.86,46a197.4,197.4,0,0,1-45.72,19.69c1.68-5.57,3.43-11.13,5.35-16.63a182.89,182.89,0,0,1-16.9,8.36c.88-2.87,1.77-5.74,2.65-8.62a202.76,202.76,0,0,1-27.09,14.6l10.26-12.26a131.79,131.79,0,0,0-26.85,9.77,111.83,111.83,0,0,0,7.94-16A83.1,83.1,0,0,0,585,875.29l-5.61-5.73c-2-2-4-4-6.61-5.11-1.46-.59-3-.86-4.49-1.51-4.64-2.08-7.13-7.83-12.21-8.58-6.62-1-11.48,7.32-18.18,7-1.46-.07-2.87-.56-4.33-.56-4.07,0-7,3.59-9.23,6.81L513.6,883c-15.08-.07-30.15,0-45.13.51,3.51-2.15,7.09-4.19,10.77-6.06a36.29,36.29,0,0,0-19.65,1.27,63,63,0,0,1,11.76-4.5,44,44,0,0,0-19.48,3.15,46.89,46.89,0,0,1,7.7-8.42,74.5,74.5,0,0,0-15,3.79A35.73,35.73,0,0,1,462.94,861c-9.57,1.18-18,6.82-24.28,13.8a70.17,70.17,0,0,0-6.37,8.44,65.3,65.3,0,0,0-34.69-17.53l17.61,11.55a41.69,41.69,0,0,0-21.44-.6,45.84,45.84,0,0,1,10.12,2.08l-17.75,2.57,11.43,1.11-19.51,5.23c4.69-.48,9.36.93,13.78,2.51,1.42.52,2.83,1.06,4.24,1.61-7.06,1.56-14,3.39-20.94,5.54-41.27,12.87-78.48,36.92-121,45.31-26.3,5.2-53.45,4.15-80.29,3.08L0,938.79V1046H1922.86v-287Z" transform="translate(0 -89.58)"/><path class="cls-3" d="M.35,948c-.79-14.77-1-30.62,7.56-43,1.35-2,3-3.88,5.32-4.7,3.67-1.33,7.94.61,10.35,3.56s3.37,6.71,4.27,10.34c-.38-5.46-.52-11.61,3.44-15.59,3-3,7.84-4,12.06-2.92a18.09,18.09,0,0,1,10.17,7.34,93.27,93.27,0,0,1,1-20.44c.51-3.12,2.36-7,5.63-6.54a6.36,6.36,0,0,1,3.11,1.83A85.77,85.77,0,0,1,74.7,890.35c-1.82-.6-.36-3.63,1.55-3.43s3.09,2.06,3.84,3.74c2.56,5.73,3.68,12.58.5,18,1.72-5.32,9.67-6.66,14.76-3.89s7.94,8.08,10.5,13.09c.13-5.79,7.35-9.77,13.27-8.39s10.12,6.61,11.93,12.15c.6-2.15,3.3-3.29,5.6-2.91a10.68,10.68,0,0,1,5.79,3.53,24.94,24.94,0,0,1,5.5,25Z" transform="translate(0 -89.58)"/></g><rect class="cls-5" x="2.65" y="929.95" width="1919.65" height="764.29"/></g></g></svg>