<svg xmlns="http://www.w3.org/2000/svg" viewBox="0 0 1998.15 1993.14"><defs><style>.cls-1{fill:#fcfcfc;opacity:0.12;}</style></defs><g id="Layer_2" data-name="Layer 2"><g id="OBJECT"><path class="cls-1" d="M1995.61,920.6a1009.92,1009.92,0,0,0-19.53-134.23,991.29,991.29,0,0,0-225.75-446.51A1000.91,1000.91,0,0,0,1023.14,0L972,0A992.71,992.71,0,0,0,370.57,221.48,1001.48,1001.48,0,0,0,167,444.6,990.88,990.88,0,0,0,0,971l0,52.13a1047,1047,0,0,0,9,110.45,995,995,0,0,0,961,859.55h52.13q28.47-.83,56.87-3a975.35,975.35,0,0,0,119-16.55A1001,1001,0,0,0,1670.39,1736a989.87,989.87,0,0,0,319.42-606.87,1008.11,1008.11,0,0,0,8.31-106l0-52.13C1997.33,954.2,1996.92,937.36,1995.61,920.6ZM1045.15,110c0-2.35.59-3.45,3.12-3a39.36,39.36,0,0,0,4.49.25A888,888,0,0,1,1445,223.61a908.48,908.48,0,0,1,312.89,297.61c1.88,2.92,1.81,4-1.32,5.84q-42.66,24.42-85.12,49.18c-2.44,1.42-3.81,2.25-5.65-1.12-25.66-47.19-59.91-87.47-99.76-123.18-3.52-3.15-6.72-6.41-8.27-11-1.23-3.64-2.74-2.92-5.09-.7-23.62,22.28-47.38,44.42-71,66.74-2.62,2.48-4,3.11-7,.21-68.11-67.28-147.42-117.07-236.78-151.09-14-5.32-28.07-10.28-42.38-14.56-4-1.19-4.23-2.75-3.34-6.23,7.4-29.14,14.56-58.34,22-87.47,1-3.88.81-5.49-3.66-5-6.23.67-11.61-2.54-17.25-4.36-32.89-10.66-66.7-16.75-101-20.36-14.57-1.53-29.17-2.8-43.77-4.07-2.48-.21-3.44-1-3.44-3.63Q1045.24,160.19,1045.15,110ZM245,521.22a902.73,902.73,0,0,1,234.54-251A885.44,885.44,0,0,1,843,115,938.71,938.71,0,0,1,952.47,102c4.58-.28,5.54,1,5.47,5.35-.26,16.83-.11,33.66-.11,50.49,0,16.67-.18,33.34.1,50,.08,4.66-1.08,6.06-5.93,6.43-38.35,2.93-76.54,7.15-113.91,16.75-12.21,3.13-24.23,7-36.43,10.22-4,1.05-4.16,2.91-3.24,6.34C805.83,275.37,813,303.2,820.48,331c.93,3.43.45,4.49-3,5.43a646.7,646.7,0,0,0-172.11,73.94,640.05,640.05,0,0,0-116.79,91.73c-3,3-4.43,2.78-7.28-.12-20.23-20.53-40.69-40.82-61-61.3-2.62-2.65-4.08-3.45-5.54.81-1.31,3.83-3.92,6.8-7,9.54-40.08,36.13-73.18,78.23-103.89,122.31-3.13,4.5-5.12,4.45-9.54,2-29-16.23-58.23-32.14-87.42-48.08C244.14,525.66,242.67,525,245,521.22Zm-38.39,894.44a890.29,890.29,0,0,1-84.09-226.89,862.46,862.46,0,0,1-17.63-117.85q-2.93-36.64-3-73.36a886.92,886.92,0,0,1,42.38-272,897,897,0,0,1,47.95-119.16c1.58-3.25,2.84-3.34,5.78-1.65Q245.37,632,292.85,659c1.82,1,3.9,1.51,2.18,4.65-18.57,33.75-29.14,70.49-39.75,107.21-2.12,7.34-4,14.77-6.46,22-1.29,3.76-.07,4.77,3.25,5.86,26.5,8.68,52.94,17.57,79.42,26.31,2.78.92,3.73,1.85,2.86,5.17-17.94,69.39-20.42,140.08-17.4,211.2,1.79,42.14,7,83.84,17.21,124.83,1.09,4.36.14,5.8-4.13,7-26.12,7.06-52.15,14.5-78.26,21.6-3.46.94-3.85,2.12-3,5.43,13.81,54.31,32.94,106.57,59.6,156,2.25,4.15,1.78,5.72-2.43,8.09q-46.76,26.25-93.14,53.18C209.55,1419.3,208.44,1419,206.65,1415.66Zm746.66,475.43a914.72,914.72,0,0,1-118.87-14.3,897.32,897.32,0,0,1-187.09-56.4A886.57,886.57,0,0,1,437,1694.45a864.76,864.76,0,0,1-169.77-182.64c-2.46-3.56-4.56-7.41-7.35-10.68s-1.26-4.47,1.55-6.14q27.47-16.32,54.82-32.81c11.7-7,23.45-13.94,35.05-21.12,2.72-1.69,3.91-1.33,5.66,1.28,20.13,30,41.33,59.25,66.25,85.58,8.14,8.59,16.73,16.7,25.29,24.87,2.61,2.48,4.1,2.66,6.73,0,15.41-15.68,31-31.17,46.54-46.73,5.3-5.3,10.73-10.47,15.84-16,2.08-2.24,3.21-1.77,5.09.09,40.11,39.71,85,73,134.2,100.63A678.58,678.58,0,0,0,815.32,1655c11.08,3,11.09,2.84,8,13.6q-12.47,43.57-24.89,87.17c-.36,1.26-.54,2.58-.79,3.82,27.06,5,54,10,81,14.78,24.76,4.39,49.72,7.38,74.76,9.57,3.31.29,4.52,1,4.51,4.59q-.21,49.24,0,98.48C957.93,1890.7,956.66,1891.27,953.31,1891.09Zm-64.65-310.94c-3.19,0-3.9-.72-3.37-3.86q9.83-58.8,19.45-117.62,9.72-59.31,19.36-118.63c2.82-17.23,5.61-34.47,8.61-51.66.62-3.55.47-5.07-3.81-5.85-56.16-10.24-102.39-38.79-142.5-78.26-3.24-3.19-4.81-2.67-7.84-.13q-112.71,94.09-225.5,188.1c-3,2.47-4.12,2.84-6.32-.93q-55.9-96-112.19-191.67c-2-3.46-.76-4.23,2.22-5.33q71.24-26.46,142.41-53.06,67.27-25.08,134.59-50c4.5-1.66,5.58-3.06,4-8-11.45-35.64-14.68-72.25-11.94-109.48a436,436,0,0,1,8.1-55.74c.7-3.41-.49-4.66-3.43-5.73q-94.59-34.53-189.13-69.2c-31.66-11.6-63.29-23.29-95-34.82-2.91-1.06-3.41-1.75-1.75-4.65Q481.18,704.9,537.45,606c1.82-3.21,3-2.67,5.33-.68q71.57,60,143.22,119.93,45.76,38.29,91.74,76.72a256.17,256.17,0,0,1,25.91-27.08c30.41-26.88,65.62-45.13,103.94-57.75,7.4-2.44,14.92-4.55,22.46-6.54,2.68-.71,3.35-1.86,2.92-4.48q-7.23-44.07-14.31-88.15Q909.84,563.34,901,508.68c-5.14-31.85-10.23-63.7-15.53-95.52-.62-3.7-.64-5.14,3.9-5.14q112.25.23,224.47.12c1.32,0,2.64.12,4.27.19-3.17,16.53-6.27,32.83-9.42,49.13q-12.8,66.06-25.62,132.13c-7.49,38.67-14.91,77.35-22.52,116-.63,3.18-.36,4.17,3.12,4.79,58.88,10.42,107.53,39.3,147.88,82.78,3.33,3.59,4.91,3.29,8.36.33q115.92-99.63,232.07-199c.5-.43,1-.84,1.78-1.47,7.72,13.15,15.38,26.18,23,39.23q45.51,77.75,91.1,155.43c2.3,3.91,1.85,5-2.36,6.7q-141,56.18-281.88,112.58c-3.86,1.54-4.88,2.71-3.38,7,11.64,33.36,14.4,67.87,12.21,102.9a403.12,403.12,0,0,1-8.31,58.25c-.71,3.31.43,4.6,3.55,5.66q99.45,34.07,198.85,68.33,45.26,15.57,90.51,31.13c.94.32,1.82.82,3,1.37l-30,54.71q-39.78,72.62-79.48,145.28c-1.76,3.23-2.71,3.87-5.92,1.34q-119.54-94-239.16-187.94c-4.12-3.25-5.85-3.28-9.45.9-38.84,45.07-87.13,74.46-145.67,86.3-5.07,1-5.61,2.5-4.71,7.39,11.64,63.43,23,126.92,34.37,190.39,5.77,32.06,11.54,64.11,17.5,96.14.67,3.56-.26,4.05-3.48,4.05Q1001.4,1580,888.66,1580.15Zm850-84.35A889.26,889.26,0,0,1,1316.77,1832a921,921,0,0,1-188.49,50.12c-25.66,4-51.46,6.75-77.33,8.93-4.31.36-6-.31-5.9-5.28.37-16,.14-32,.13-48,0-15.66.16-31.33-.1-47-.08-4.81.78-6.61,6.27-7.09a941.21,941.21,0,0,0,138.78-22.1c7.26-1.74,14.43-3.87,21.73-5.44,3.23-.69,3.46-2,2.77-4.82-7.46-30.84-14.69-61.75-22.26-92.56-1.1-4.49-.46-6.06,4.24-7.33,78.56-21.35,149.06-58.79,213.9-107.48a849.32,849.32,0,0,0,69.54-58.47c2.37-2.22,3.58-2.17,5.91,0,23.6,22.31,47.42,44.38,70.91,66.8,3.54,3.38,5,2.51,7.88-.46a782.84,782.84,0,0,0,57.66-67.57c9.42-12.28,18.86-24.55,28.12-37,1.9-2.54,3.16-3.23,6.24-1.49q40.2,22.65,80.65,44.86C1740.32,1492.31,1740.25,1493.35,1738.61,1495.8ZM1882.19,1124A913.28,913.28,0,0,1,1806,1380.63c-4.85,10.39-10.07,20.61-15,31-1.2,2.53-2.27,2.92-4.83,1.49q-40.7-22.78-81.57-45.25c-3.12-1.71-2.16-3.23-1.14-5.48,18.56-41,36.07-82.49,49.7-125.47,3.77-11.87,6.81-24,10.63-35.82,1.39-4.3.22-5.57-3.8-6.69-31-8.68-62-17.57-93-26.38-2.43-.69-4.35-.8-3.33-4.71,15.37-59,19.17-119.1,18.47-179.73-.44-37.69-3.3-75.14-10.16-112.24-2.21-11.93-4.75-23.8-8.06-35.47-1-3.56-.56-4.91,3.31-6.16,30.93-10.07,61.72-20.58,92.65-30.64,4.44-1.45,4.87-3.13,3.72-7.25-12.64-45.58-29-89.74-50.4-131.95-1.41-2.8-1.3-4.07,1.74-5.64q42.69-22.19,85.18-44.79c3.33-1.78,4.26-1,5.64,2.11,26.72,59.39,47.94,120.64,62.52,184.16a902.5,902.5,0,0,1,18.79,114.6c2.51,25.72,4,51.47,4.18,77.31A895.87,895.87,0,0,1,1882.19,1124Z"/></g></g></svg>