<svg xmlns="http://www.w3.org/2000/svg" viewBox="0 0 738.48 753.39"><defs><style>.cls-1{fill:#fdffff;opacity:0.12;}</style></defs><g id="Layer_2" data-name="Layer 2"><g id="OBJECT"><path class="cls-1" d="M333,169.37a82,82,0,0,0-1.2-17.55c-4.39-27.15-15-51.74-30.79-74.16-.86-1.22-.33-1.75.36-2.54q23.11-26.19,46.2-52.39C354,15.44,360.43,8.18,366.79.85c1-1.13,1.41-1.13,2.39,0q32.42,36.9,64.92,73.7c.86,1,.79,1.54.13,2.57-14.93,23.25-25.47,48.27-30.31,75.56a111.66,111.66,0,0,0-1.82,17.09c.78,0,.91-.69,1.2-1.1,16.89-23.88,38.48-42.48,63.8-56.9,1.24-.71,1.69-.1,2.35.64l36.17,40.65,5.58,6.29a116.9,116.9,0,0,0-24.71,13.16c-26.64,18.44-45.36,42.84-55.68,73.66a257.52,257.52,0,0,0-12.42,57.26,200.64,200.64,0,0,0,1.23,51.35c3.55,22.07,10.68,42.85,25.1,60.23,16.37,19.73,37.67,29.34,63.54,27.48,15.34-1.09,29.21-6.85,42.48-14.37,21.85-12.41,38.66-30,52.54-50.63,16.64-24.8,28.39-51.66,34.25-81a207.33,207.33,0,0,0,3.41-56.8c-2.79-36.53-14.35-70.35-31.58-102.42-13.47-25.06-30-48.05-48.33-69.71-1.21-1.42-2.73-2.55-3.78-4.11-.26-.37-.6-.81-.35-1.23s.82-.3,1.23-.2a12.14,12.14,0,0,1,4.26,1.7c24.72,18,48.85,36.66,70.77,58.05q65.13,63.53,89.47,151.14a437.23,437.23,0,0,1,12.8,65.52c1.32,11.05,2.33,22.13,2.91,33.24.43,8.36-.25,16.72-.76,25.06-.73,12.13-2,24.22-3.67,36.26a435.65,435.65,0,0,1-9,46.28c-10.06,39.84-25.52,77.42-47.54,112.17C644.09,643.91,600,684.68,544.73,713.15a356.23,356.23,0,0,1-94.24,32.51,403.7,403.7,0,0,1-91.1,7.54c-59.92-1.8-116.18-17.12-168.55-46.4A364.91,364.91,0,0,1,100,635.06,376.34,376.34,0,0,1,1.09,407.51a355.41,355.41,0,0,1,.16-57.63Q11,239.5,79.15,152.11c27.37-35,60.06-64.29,97.06-88.82a4.65,4.65,0,0,1,1.15-.68c.66-.21,1.5-.52,2,.12s-.1,1.3-.57,1.83c-16.9,19-30.79,40.14-43.11,62.32a330.12,330.12,0,0,0-31.16,76.17,237.25,237.25,0,0,0-8.33,64.21c.61,42.32,13.82,80.38,38.89,114.38,7.53,10.21,15.46,20.16,25.05,28.48,16.36,14.2,34.7,24.94,56,29.81,26.79,6.12,49.94-.87,70-19.46,9.48-8.8,15.53-19.69,20.51-31.33,10.55-24.73,14.6-50.59,13.12-77.37-1.72-31.14-11.13-60.06-24.53-88-11.08-23.1-28.37-40-49.76-53.33a149.72,149.72,0,0,0-19.95-10.37c-1.28-.55-1.31-.89-.39-1.9q20.84-22.9,41.58-45.9c1-1.11,1.73-.9,2.78-.36a158.94,158.94,0,0,1,33.66,23.29,180.53,180.53,0,0,1,29.07,33.12C332.46,168.66,332.73,169,333,169.37Z"/></g></g></svg>