<svg xmlns="http://www.w3.org/2000/svg" xmlns:xlink="http://www.w3.org/1999/xlink" viewBox="0 0 2032.74 735.19"><defs><style>.cls-1{fill:none;}.cls-2{clip-path:url(#clip-path);}.cls-3{fill:#42517c;}.cls-4{fill:url(#linear-gradient);}.cls-5{fill:#3c4c75;}.cls-6{fill:url(#linear-gradient-2);}</style><clipPath id="clip-path" transform="translate(6.71 -412.36)"><rect class="cls-1" width="1916.71" height="1080"/></clipPath><linearGradient id="linear-gradient" x1="1171.87" y1="1030.36" x2="1171.87" y2="806.27" gradientUnits="userSpaceOnUse"><stop offset="0" stop-color="#4c668c"/><stop offset="1" stop-color="#42517c"/></linearGradient><linearGradient id="linear-gradient-2" x1="582.43" y1="1084.28" x2="616.33" y2="905.86" gradientUnits="userSpaceOnUse"><stop offset="0" stop-color="#435980"/><stop offset="1" stop-color="#3c4c75"/></linearGradient></defs><g id="Layer_2" data-name="Layer 2"><g id="OBJECT"><g class="cls-2"><path class="cls-3" d="M1589.89,731.73c-9.91-1-18.8-6.5-25.43-13.42s-11.28-15.21-15.77-23.47a108.27,108.27,0,0,0,18,9.78,34.86,34.86,0,0,0-6.07-11.19l18,5.68a102.57,102.57,0,0,1-21.94-16.05,51.14,51.14,0,0,0,31.91,6.59c-8-2.49-15.22-7-21.6-12.14-2.45-2-4.87-3.8-7.29-5.65a168.62,168.62,0,0,1-13-13.3c6.14.54,12.48-.17,18.63-1a101.7,101.7,0,0,1-15.07-4.36,47.86,47.86,0,0,1-17.84-12.6c-3-4.17-4.69-6.83-4.69-6.83,12.94,7.4,25,6.92,41.25,3.66a54.65,54.65,0,0,1-31.84-16.53,31.66,31.66,0,0,0,19,1.85,108.12,108.12,0,0,1-20.05-12.11,38.29,38.29,0,0,0,28.31,2.21c-13-4.68-22.38-14.22-30.07-25.21a32.57,32.57,0,0,0,15.6.81,46,46,0,0,1-25.6-17.12q-1.17-2.09-2.29-4.16c3.67,6.23,12.41,9.44,19.69,7.24l-8.09-5.66a13.9,13.9,0,0,0,10.1,2,47.38,47.38,0,0,1-15-14.78,58.59,58.59,0,0,0,31.09.49c-22.34-5-41.06-22-46.91-42.58-5.85,20.59-24.56,37.58-46.9,42.58a58.59,58.59,0,0,0,31.09-.49,47.38,47.38,0,0,1-15,14.78,13.87,13.87,0,0,0,10.09-2l-8.09,5.66c7.29,2.2,16-1,19.7-7.24l-2.29,4.16a46,46,0,0,1-25.6,17.12,32.58,32.58,0,0,0,15.6-.81c-7.7,11-17.12,20.53-30.07,25.21a38.29,38.29,0,0,0,28.31-2.21,108.45,108.45,0,0,1-20,12.11,31.67,31.67,0,0,0,19-1.85,54.68,54.68,0,0,1-31.84,16.53c16.28,3.26,28.31,3.74,41.24-3.66,0,0-1.69,2.66-4.68,6.83a48,48,0,0,1-17.85,12.6,101.57,101.57,0,0,1-15.06,4.36c6.15.85,12.48,1.56,18.63,1a172.22,172.22,0,0,1-13,13.3c-2.42,1.85-4.85,3.7-7.29,5.65-6.38,5.09-13.63,9.65-21.6,12.14a51.15,51.15,0,0,0,31.91-6.59,102.63,102.63,0,0,1-22,16.05l18-5.68a34.83,34.83,0,0,0-6.06,11.19,107.78,107.78,0,0,0,18-9.78c-4.49,8.26-9.14,16.56-15.77,23.47s-15.51,12.4-25.43,13.42a63.56,63.56,0,0,0,38.49-5.28,25.92,25.92,0,0,1-12.31,11.92c2.41-.77,8.68-2,11.1-2.8-.67,3.84.39,6.86-5.85,12,2.17-1.22,7.41-2.5,13.64-3.76a65.17,65.17,0,0,1-4.88,8.59c5.08,1,10.74-2,12.24-6.66l-.7,9.71,5.37-6.52a8,8,0,0,0,.84,4.53c1.15-1.8,2.29-3.61,3.43-5.41a56.54,56.54,0,0,0,4.88,11.59c-.21-5.34-.28-11.13,3.12-15.45a16.93,16.93,0,0,0,8.93,11.55l-1.77-9.37a26.53,26.53,0,0,0,4.69,6.68,62.27,62.27,0,0,0,.6-6.38c2.16,3.62,5.82,6.3,9.82,8.15a69.92,69.92,0,0,0,12.64,4,45.51,45.51,0,0,1-9.71-9.79,18,18,0,0,0,8.8,5.88,5.25,5.25,0,0,0-2.28-4.71,40.3,40.3,0,0,0,9.89,4.58c-1.9-1.71-3.73-3.5-5.49-5.34,4.1,2.2,5.23,2.31,9.67,3.85,2.81,1,9.46,3.48,11.73,1.67a43.38,43.38,0,0,1-9.85-9.3,26.2,26.2,0,0,1,5.43,1.9q-1-5.76-2-11.51l7.25,2.3a25.92,25.92,0,0,1-12.31-11.92A63.52,63.52,0,0,0,1589.89,731.73Z" transform="translate(6.71 -412.36)"/><path class="cls-3" d="M1897.45,630.24c-9.91-1-18.8-6.5-25.42-13.41s-11.29-15.22-15.78-23.47a109.76,109.76,0,0,0,18,9.78,34.75,34.75,0,0,0-6.07-11.19l18,5.67a102.57,102.57,0,0,1-21.94-16,51.14,51.14,0,0,0,31.91,6.59c-8-2.49-15.22-7-21.6-12.13-2.45-1.95-4.87-3.81-7.29-5.66a168.66,168.66,0,0,1-13-13.3c6.15.54,12.48-.16,18.63-1a101.19,101.19,0,0,1-15.06-4.35A48,48,0,0,1,1840,539.09c-3-4.17-4.69-6.83-4.69-6.83,12.94,7.4,25,6.92,41.25,3.67a54.72,54.72,0,0,1-31.84-16.54,31.67,31.67,0,0,0,19,1.86,109,109,0,0,1-20-12.12,38.29,38.29,0,0,0,28.31,2.21c-13-4.68-22.38-14.22-30.07-25.21a32.45,32.45,0,0,0,15.6.81,46,46,0,0,1-25.6-17.12q-1.17-2.08-2.29-4.16c3.67,6.23,12.41,9.45,19.69,7.24l-8.08-5.65a13.9,13.9,0,0,0,10.09,2,47.35,47.35,0,0,1-15-14.77,58.69,58.69,0,0,0,31.09.48c-22.34-5-41.06-22-46.91-42.58-5.84,20.59-24.56,37.58-46.9,42.58a58.69,58.69,0,0,0,31.09-.48,47.35,47.35,0,0,1-15,14.77,13.91,13.91,0,0,0,10.09-2l-8.09,5.65c7.29,2.21,16-1,19.7-7.24l-2.29,4.16a46,46,0,0,1-25.6,17.12,32.45,32.45,0,0,0,15.6-.81c-7.69,11-17.12,20.53-30.07,25.21a38.29,38.29,0,0,0,28.31-2.21,109,109,0,0,1-20,12.12,31.67,31.67,0,0,0,19-1.86,54.75,54.75,0,0,1-31.84,16.54c16.28,3.25,28.31,3.73,41.24-3.67,0,0-1.69,2.66-4.68,6.83a48,48,0,0,1-17.85,12.61,101.54,101.54,0,0,1-15.06,4.35c6.15.86,12.48,1.56,18.63,1a170.44,170.44,0,0,1-13,13.3c-2.42,1.85-4.85,3.71-7.29,5.66-6.38,5.08-13.63,9.64-21.6,12.13a51.15,51.15,0,0,0,31.91-6.59,102.63,102.63,0,0,1-22,16l18-5.67a34.73,34.73,0,0,0-6.06,11.19,109.25,109.25,0,0,0,18-9.78c-4.48,8.25-9.14,16.56-15.77,23.47s-15.51,12.39-25.43,13.41A63.49,63.49,0,0,0,1782,625a25.92,25.92,0,0,1-12.31,11.92c2.41-.77,8.68-2,11.1-2.79-.67,3.83.39,6.85-5.84,12,2.16-1.21,7.4-2.49,13.63-3.75a65.7,65.7,0,0,1-4.88,8.58c5.08,1,10.74-2,12.25-6.65l-.7,9.7,5.36-6.52a8.06,8.06,0,0,0,.84,4.54l3.43-5.42a56.54,56.54,0,0,0,4.88,11.59c-.21-5.34-.28-11.13,3.12-15.44a16.94,16.94,0,0,0,8.93,11.54l-1.77-9.36a26.66,26.66,0,0,0,4.69,6.67,62,62,0,0,0,.6-6.38c2.16,3.62,5.83,6.31,9.82,8.16a71.53,71.53,0,0,0,12.64,4,45.74,45.74,0,0,1-9.71-9.79,18.07,18.07,0,0,0,8.8,5.87,5.23,5.23,0,0,0-2.28-4.7,41.05,41.05,0,0,0,9.89,4.58q-2.85-2.58-5.49-5.35c4.1,2.21,5.23,2.32,9.67,3.85,2.81,1,9.46,3.49,11.73,1.67a43.33,43.33,0,0,1-9.85-9.29,25.71,25.71,0,0,1,5.43,1.89q-1-5.75-2-11.51l7.25,2.3A25.92,25.92,0,0,1,1859,625,63.44,63.44,0,0,0,1897.45,630.24Z" transform="translate(6.71 -412.36)"/><path class="cls-3" d="M1457.89,785.87l15.75,4.15a228.2,228.2,0,0,1-36.78-37.38,51.45,51.45,0,0,0,5.46,2,87.25,87.25,0,0,0,11.54,2.75c-5.36-1.31-9.7-4.91-13.44-8.7l-.7-.73,2.76,1.39a27.16,27.16,0,0,1-3.19-6.19l18.09,6.05a116.6,116.6,0,0,1-19.39-20l2.76.44,12.66,1.93a58.53,58.53,0,0,1-20.43-9.69,87,87,0,0,1-7.48-15l8.81,4.69a8.17,8.17,0,0,0,.07-4.57,46.23,46.23,0,0,0,13.76,3.89c-3.09-.65-5.78-2.34-8.38-4l-2.14-1.36a106.94,106.94,0,0,0,21.85,1.06c-12.36-7.51-22.4-16.76-29.41-27,5.47,1.68,11.26,3,16.92,2.09a34.75,34.75,0,0,1-19.63-12.6l2.34.67c.09-1.29.18-2.58.28-3.86l.79.52a27.35,27.35,0,0,0,3.23,1.9,23.4,23.4,0,0,0,4.21,1.41,71.56,71.56,0,0,0,11.82,2,41.31,41.31,0,0,1-10.64-5.34,21.44,21.44,0,0,1-2.12-1.8,38.39,38.39,0,0,0,18.87.17c-15.2-6.34-27.18-16.16-33.53-27.47l8,2.19q-.7-3-1.43-5.94a37.69,37.69,0,0,0,11,3.7c-3.87-1.35-6.54-4.64-8.63-8q-.58-.93-1.14-1.89l12.9,2.34c-16.44-10.35-32.72-23.18-32.54-38.4h0c.18,15.22-16.1,28-32.54,38.4l13.8-2.5-2.32,5.14,3.26-1.16q-1,4.13-2,8.26l3.86-1.06a27,27,0,0,1-2,2.39,21.32,21.32,0,0,1-12.83,6.55c1.89,1.55,4.6,1.81,7.12,1.95.8.05,1.61.09,2.41.07a77.77,77.77,0,0,1-24,15.38,37.69,37.69,0,0,0,22.55-1.4l-3.45,5.92,7-4.16.33,4.63,3.63-1a51.62,51.62,0,0,1-8.72,7.89A48.32,48.32,0,0,1,1366.8,685a33.17,33.17,0,0,0,17.89-.89,31.56,31.56,0,0,0,5.4-2.42,97.29,97.29,0,0,1-27.91,24.85,107.2,107.2,0,0,0,18.19-.57,58.22,58.22,0,0,1-13.21,6.83,50.7,50.7,0,0,0,9.14-.35,16.25,16.25,0,0,0,8.2-3.53,22.79,22.79,0,0,0,2.43-2.68l1.18-1.46h.07a8.32,8.32,0,0,0-.84,6.75l8.81-4.69-.12.31q-1.18,2.08-2.47,4.13a51.78,51.78,0,0,1-10,12.16,28.2,28.2,0,0,1-14.59,6.78,75.14,75.14,0,0,0,13.5-1.2c.54-.12,1.08-.25,1.61-.39a116,116,0,0,1-19.8,20.57l18.09-6.05a27.16,27.16,0,0,1-3.19,6.19l4-2a2.21,2.21,0,0,1-.62,2.7l6.44-3c-1.74,2.43-3.55,4.82-5.42,7.2-1.09.67-2.21,1.31-3.34,1.92a143.94,143.94,0,0,1-13.75,6.5c-3.51,1.45-7.21,2.78-11,2.76A92.52,92.52,0,0,0,1370,767c.87,0,1.74,0,2.61,0A238.24,238.24,0,0,1,1348,790l15.75-4.15a11.15,11.15,0,0,1-.15,6.76l10.8-6.11a10.61,10.61,0,0,0,1,5.09A49.69,49.69,0,0,1,1387,787c9.94-2,16.26,1.74,23.88-6.28,7.61,8,13.93,4.31,23.87,6.28a49.69,49.69,0,0,1,11.53,4.61,10.61,10.61,0,0,0,1-5.09l10.8,6.11A11.15,11.15,0,0,1,1457.89,785.87Z" transform="translate(6.71 -412.36)"/><path class="cls-3" d="M1105.45,853.22a117.71,117.71,0,0,1-5.53-35.82,139.42,139.42,0,0,1,4.54-34.71c5.84-22.46,16.52-42.77,28.93-61.24,6.15-9.27,13.08-18.15,19.42-26.5s12-16.62,15.84-25.44c7.86-17.85,9.52-38.59,10.91-59.43l12,.18c.36,10.49.69,21.14.11,32a128.34,128.34,0,0,1-5.64,32.86c-3.54,11-9.23,21.16-14.91,30.47s-11.27,18-16.09,27.1c-9.72,18-17.08,36.77-19.94,55.53s-1.17,37.63,5.92,53.66Z" transform="translate(6.71 -412.36)"/><path class="cls-3" d="M1174.76,663.64a68.11,68.11,0,0,1,12-6,31.16,31.16,0,0,1,7.73-1.79,24.2,24.2,0,0,1,8.65.75,50.48,50.48,0,0,1,6.08,2.41c.71.3,1.28.52,1.71.65a4.22,4.22,0,0,0,1.22.19c1.93,0,6.48-1.6,9.95-2.65,7.23-2.34,13.93-5.18,18.53-10.13a87.5,87.5,0,0,0,6.6-8.79,32.66,32.66,0,0,1,8.51-8.79l2.44,2.83c-5.38,4.6-7.12,11.82-11.85,18.67a36.64,36.64,0,0,1-9.22,8.86,78.31,78.31,0,0,1-10.93,6.1l-5.49,2.5a28.89,28.89,0,0,1-7,2.31,17.36,17.36,0,0,1-4.73.11,24.54,24.54,0,0,1-4-.82,41.45,41.45,0,0,0-5.13-1.37,12,12,0,0,0-6.87,1.68,53.35,53.35,0,0,0-8.21,5.68Z" transform="translate(6.71 -412.36)"/><path class="cls-3" d="M1184.21,642.71l-17.51,4.44-4.37,1.1-2.19.56a11.26,11.26,0,0,1-3.57.48,7.42,7.42,0,0,1-4.09-1.57c-.84-.65-1.24-1.06-1.83-1.57l-3.29-3q-6.52-6-12.66-12.25l-3-3.16a5.65,5.65,0,0,0-2.88-1.94,44.81,44.81,0,0,1-8.44-3.72l1.18-2a42.55,42.55,0,0,0,8.28,2.66,10.17,10.17,0,0,1,2.57.9,12.38,12.38,0,0,1,2.12,1.53l3.35,2.79q6.74,5.55,13.79,10.7l3.55,2.55c.56.39,1.27.92,1.63,1.12s.34.06,0,0a29.65,29.65,0,0,1,2.94-1.12l4.22-1.55,16.87-6.2Z" transform="translate(6.71 -412.36)"/><path class="cls-3" d="M1223.65,658.39a6.84,6.84,0,0,1,3.86-1.62,8.86,8.86,0,0,1,3.31.35,9.79,9.79,0,0,1,2.59,1.19,20.74,20.74,0,0,1,1.72,1.24,8.35,8.35,0,0,0,2.07,1.37,4.61,4.61,0,0,0,2.13.17,47.36,47.36,0,0,0,6.69-1.82,26.3,26.3,0,0,1,8.34-1.11,21.33,21.33,0,0,1,4.18.64,15.66,15.66,0,0,0,3.14.54,11.35,11.35,0,0,0,5.85-1.54c3.74-2,6.4-5.85,8.66-9.85l3,1.36c-2,4.23-4.54,8.82-9.28,11.9a16.3,16.3,0,0,1-8.21,2.67,21.47,21.47,0,0,1-4.25-.4,15.31,15.31,0,0,0-3.22-.31,20.68,20.68,0,0,0-6.33,1.31,49.67,49.67,0,0,1-7.51,2.51,11.81,11.81,0,0,1-5.26-.16,14,14,0,0,1-4.3-2.2c-.51-.34-.94-.62-1.3-.81a2.51,2.51,0,0,0-.77-.28c-.23,0-.41,0-.39,0a.87.87,0,0,0,.52-.2Z" transform="translate(6.71 -412.36)"/><path class="cls-3" d="M1237.46,651.75c0,.3.3.47.18.24a2.46,2.46,0,0,0-.91-.73c-.86-.51-2.9-.82-5.1-2a7.77,7.77,0,0,1-2.86-2.66,8.85,8.85,0,0,1-1.16-3.13,27.36,27.36,0,0,1-.22-5.36,12.38,12.38,0,0,1,.45-2.86c.3-1,.7-1.74.89-2.31a2.2,2.2,0,0,0,0-1.5,9.1,9.1,0,0,0-.94-1.92,20.88,20.88,0,0,0-6.78-6.77l.73-1.19a23.7,23.7,0,0,1,8.53,6.43,11.79,11.79,0,0,1,1.6,2.35,5.31,5.31,0,0,1,.46,3.31c-.18,1-.46,1.8-.52,2.39a8.4,8.4,0,0,0,0,2,23.94,23.94,0,0,0,.83,4.36,4.17,4.17,0,0,0,.77,1.39,2.42,2.42,0,0,0,1,.6c.93.37,2.49.4,4.88,1.12a9.79,9.79,0,0,1,3.46,2,6.13,6.13,0,0,1,2.13,4.64Z" transform="translate(6.71 -412.36)"/><path class="cls-3" d="M1148.22,641.07a56.81,56.81,0,0,1-9.13,3.7,20.88,20.88,0,0,1-10.66.39c-3.67-.95-6.11-3.09-8.62-4.42s-5.5-2.11-7.85-.67l-.8-.89a7.41,7.41,0,0,1,4.83-1.69,13.92,13.92,0,0,1,5,.9c3.09,1.13,5.76,2.64,8.28,2.81a15.28,15.28,0,0,0,7.67-1.56,50.75,50.75,0,0,0,7.32-4.46Z" transform="translate(6.71 -412.36)"/><path class="cls-3" d="M1185.75,596.18a5.36,5.36,0,0,1,1.2-2,13.21,13.21,0,0,0-.2-16.18,38,38,0,0,1-2.78-3.33c-1.5-2.34-1.59-5.21-2.48-7.81-1.74-5-6.58-8.84-12-10.47s-11.37-1.32-16.9,0c-1.28-2.56-4.64-3.49-7.61-4.13-5.75-1.25-11.61-2.5-17.49-2s-11.89,3-14.91,7.66c-2,3.07-2.49,6.74-3.58,10.17s-3.07,7-6.64,8.36c-2.79,1.06-6,.58-8.93,1.07-5.89,1-10.54,6.36-10.3,11.91-4.45-.69-8.86,2.05-11.26,5.59-4.81,7.1-3.08,16.47.69,24.09,2.4,4.85,5.83,9.61,11,11.9,8.82,3.87,19-.51,28.19-3.57a3.13,3.13,0,0,1,1.83-.2c1.06.33,1.31,1.57,1.84,2.48,1.6,2.79,6,2.59,9.15,1.33a22.38,22.38,0,0,0,11.16-9.72c1.49,4.1,7.86,4.2,12.15,2.48,4.81-1.94,9.45-6.26,8.3-11,2.21,5.13,10.73,6.55,14.74,2.47,1.39,2.43,5,3.15,7.81,2.12a12.3,12.3,0,0,0,6.1-5.78,24.55,24.55,0,0,0,2.79-7.71c-.55-1.85-1.09-3.69-1.64-5.53A4.36,4.36,0,0,1,1185.75,596.18Z" transform="translate(6.71 -412.36)"/><path class="cls-3" d="M1326.61,624.41c-2.1-5-6.94-9.31-12.74-9.86a12.31,12.31,0,0,0-5.93,1,24.3,24.3,0,0,0,2.76-12.45,28.13,28.13,0,0,0-10.7-19.9c-3.17-2.57-7.11-4.62-11.33-4.59s-8.58,2.7-9.22,6.56c1-8.4,1.17-17.16-3.87-24.71a18.36,18.36,0,0,0-5-5c-10.27-6.87-21.44-1.24-29.24,5.58,0-3.68,0-7.47-1.62-10.86s-5.06-6.28-9-6.14a12.41,12.41,0,0,0-5.54,1.79,27.94,27.94,0,0,0-10.83,10.57,17.53,17.53,0,0,0-3.6-9.74,5.26,5.26,0,0,0-2.35-2c-2-.67-4.05.6-5.59,1.93a34.71,34.71,0,0,0-8.11,10.19v-.1c-.37-4.7-6.27-7.08-10.53-4.49a115,115,0,0,1-12.49,6.57c-.87-1-5.07,3.32-5.94,2.28-3.3,3.26-3.35,1.25-5.15,5.4s-1.71,9.31,1.51,12.65c2.43,2.51,6.16,3.57,9.76,4.08,1.57.22,3.76-.5,4-1.59.52,3.37-1.37,7.23.83,9.95a6,6,0,0,0,4.13,2c-.41.62-.81,1.25-1.18,1.89-2.37,4.08-3.88,8.89-2.57,13.36s6.21,8.24,11.12,7.33c.52,2.92-.39,5.87-.7,8.81s.16,6.29,2.68,8.1a12,12,0,0,0,4.43,1.65,15.34,15.34,0,0,0,6.23.49,5.53,5.53,0,0,0,3.66-2.38c-.32,2.47,1.74,5.18,4.47,5.81,3.3.76,6.82-.88,9-3.31s3.24-5.51,4.18-8.53c-.49,1.52,1.23,3,2.94,3.1a8.72,8.72,0,0,0,4.72-1.65q6.47-3.87,12.55-8.26c-.39,2.73-.72,5.7.83,8s5.84,3.15,7.36.8a37.4,37.4,0,0,0-1.65,13.73,4.57,4.57,0,0,0,.61,2.32c1,1.42,3.31,1.58,4.89.74a8.62,8.62,0,0,0,3.35-3.91c.38,3.07.92,6.43,3.41,8.48s7.53,1.32,7.9-1.75a33.53,33.53,0,0,0,9.43,19.69,9.76,9.76,0,0,0,5,3.13,7.67,7.67,0,0,0,6.94-2.9,18.52,18.52,0,0,0,3.12-6.79c1.8,4.83,8.46,6.92,13.75,5.49,6.53-1.77,11.11-7.51,14.26-12.78a48.3,48.3,0,0,0,4.78-10.7C1328.24,637.42,1329.15,630.47,1326.61,624.41Z" transform="translate(6.71 -412.36)"/><path class="cls-3" d="M1620.62,789.17C1620,761.06,1625,733.87,1632,708s16.23-50.62,24.93-75.13,16.85-48.82,22.11-73.69,7.55-50.26,4-75.41l8.84-1.44c6.25,25.88,6.45,52.84,3.49,79.09s-8.95,52.12-15.3,77.46-12.91,50.24-17.16,75-6.11,49.39-3.26,73Z" transform="translate(6.71 -412.36)"/><path class="cls-3" d="M1686.76,534.71a6.79,6.79,0,0,0-3.16-2.25,7,7,0,0,0-2-.42,10.43,10.43,0,0,0-2.44.18,19.39,19.39,0,0,1-8.2-.06,21.94,21.94,0,0,1-7.14-3.23c-4.1-2.75-7-6.27-9.82-9.18s-5.78-5.47-9.38-6.54-8-1-12.55-1.1a37.11,37.11,0,0,1-7-.79,32.4,32.4,0,0,1-6.51-2.36,75,75,0,0,1-11.39-6.7,21.72,21.72,0,0,1-5-4.4c-1.33-1.8-1.85-4.39-.46-6.35l.72.42a4.56,4.56,0,0,0,.85,5.2,20.78,20.78,0,0,0,4.94,3.72,73.23,73.23,0,0,0,11.51,5.68,27,27,0,0,0,12.25,2c4.29-.14,8.92-.75,13.87.32s9.07,4.21,12.32,7.1,6.15,5.84,9.46,7.67a14.17,14.17,0,0,0,4.87,1.83,11,11,0,0,0,5-.43,19.67,19.67,0,0,1,4.13-.57,16.17,16.17,0,0,1,4.51.56,15.75,15.75,0,0,1,7.65,4.59Z" transform="translate(6.71 -412.36)"/><path class="cls-3" d="M1647.4,512.63c-2.36,2-4.86,2.37-6.29,3.23a3.24,3.24,0,0,0-1.45,1.38,14.72,14.72,0,0,1-1.79,3.1,7.09,7.09,0,0,1-4,2.18,13.79,13.79,0,0,1-4,.12,59.35,59.35,0,0,1-6.81-1.38c-8.66-2.16-17.07-5.13-25.51-4l-.48-2.8a41.82,41.82,0,0,1,13.87.48c4.48.81,8.79,2,13.06,2.92a53,53,0,0,0,6.26,1.11c2,.18,3.71-.19,4.32-1a14.82,14.82,0,0,0,1.2-2.41,7.41,7.41,0,0,1,3-3.09c2.36-1.3,4.46-1.83,5.34-2.77Z" transform="translate(6.71 -412.36)"/><path class="cls-3" d="M1684.82,559.85a5.9,5.9,0,0,1,1.6-3.92,7.54,7.54,0,0,1,2.87-1.9,9.9,9.9,0,0,1,5.53-.43c2.86.73,4.07,1.2,4.21,1.08.29.06,1.25-.46,2-1.6a18.48,18.48,0,0,0,2.11-4.25c1.27-3.25,2.19-6.89,3.57-10.61a31.37,31.37,0,0,1,6.25-10.56c2.65-3,4.33-5.26,4.88-8.74.71-3.38.6-7.35,2.35-11.33a12.1,12.1,0,0,1,4.27-5,48.89,48.89,0,0,1,5.36-2.92,16.68,16.68,0,0,0,4.42-3.14,15.81,15.81,0,0,0,1.7-2.05c.24-.37.49-.74.7-1.13l.31-.59.14-.3c0-.1.06-.21.53-.16l1.21.4c.38.26.31.37.26.48l-.14.35-.3.69c-.21.46-.45.9-.69,1.34a18,18,0,0,1-1.77,2.5,19.11,19.11,0,0,1-4.79,4c-3.57,2.06-6.63,3.81-7.58,6.88s-.8,6.7-1.24,10.65a17.91,17.91,0,0,1-1.69,6.11,35.51,35.51,0,0,1-3.34,5.13c-4.65,5.54-5,12.38-7.29,20.14a24.44,24.44,0,0,1-2.57,6,11.09,11.09,0,0,1-7,5.23,11.42,11.42,0,0,1-4.87-.12c-1.25-.28-2.13-.54-2.68-.6-.3,0-.33.06-.37.08a.93.93,0,0,0,.45-.29,2.09,2.09,0,0,0,.56-1.36Z" transform="translate(6.71 -412.36)"/><path class="cls-3" d="M1710.16,534.24l5.34-1.53a43.18,43.18,0,0,0,4.31-1.08c1.76-.54,2.57-3.68,4.49-7a8.25,8.25,0,0,1,5.12-3.61,47.75,47.75,0,0,0,4.89-1.07,17.56,17.56,0,0,0,7.76-5.09l1.48,1a19.52,19.52,0,0,1-8.08,6.67,44.46,44.46,0,0,1-5,1.67,4.15,4.15,0,0,0-2.57,2.3c-.57,1.17-.92,2.66-1.53,4.33a9.44,9.44,0,0,1-3.86,5c-2.08,1.24-4,1.46-5.35,2.09l-4.32,1.75Z" transform="translate(6.71 -412.36)"/><path class="cls-3" d="M1630.73,475.61a50.81,50.81,0,0,1,2,9.09c.27,2.28.28,4.87-1.45,6.51-2,1.91-5.5,1.6-8.09.41s-4.78-3.06-7.46-4.07a23.9,23.9,0,0,1,6,12.19,22.4,22.4,0,0,1-8.34-2.26,15.3,15.3,0,0,1,1,6.55c-.13,1.72-.67,3.59-2.2,4.57s-4.2.36-4.42-1.36a48,48,0,0,1,5.29,11.06,6.32,6.32,0,0,1,.32,4.12c-.64,1.73-2.66,2.78-4.62,2.9a13.51,13.51,0,0,1-5.72-1.2,50,50,0,0,1-9.36-4.85c-.79,2.4.18,5.37-1.58,7.27-1.58,1.71-4.44,1.56-6.8,1.1a28.81,28.81,0,0,1-11.48-4.52c-3.31-2.38-5.81-5.92-6.14-9.79a6.08,6.08,0,0,1,1.86-5.32c-5.25-4.4-5.17-12.23-2.54-18.32a8.2,8.2,0,0,1,2.58-3.62,3.94,3.94,0,0,1,4.39-.25,29.77,29.77,0,0,1,1-12.58,8.12,8.12,0,0,1,2.27-4c3-2.52,7.67-1.09,11.33.46l9,3.8a55.23,55.23,0,0,1,.5-13,3.22,3.22,0,0,1,1-2.26,3.39,3.39,0,0,1,2.16-.43,13.92,13.92,0,0,1,11.52,7.05c-1-1.76.55-4,2.53-4.7s4.2-.35,6.28.08c3.28.67,6.73,1.58,9,3.89s2.65,6.45-.06,8.3a2.3,2.3,0,0,1,2.13-1.33,5.34,5.34,0,0,1-2.4,7.44" transform="translate(6.71 -412.36)"/><path class="cls-3" d="M1618.05,479.41c4,7.23,8.7,14.48,16,19a14.2,14.2,0,0,0,7.13,2.46c2.57.05,5.29-1.16,6.29-3.36s.26-4.82,1.84-6.6a11.37,11.37,0,0,0,1.72,6.62c.71,1.15,1.91,2.31,3.33,2.1a4,4,0,0,0,2.27-1.56,53.7,53.7,0,0,0,7.74-11.5c.74,2.48,3.64,4,6.42,4.14s5.48-.76,8.09-1.66c-.32,2.69-.63,5.48.23,8.07s3.22,5,6.15,5.09a10.21,10.21,0,0,0,5-1.45c2.67-1.36,5.44-3.3,5.81-6.09-.3,2.49,2.47,4.59,5.18,4.68s5.21-1.29,7.36-2.81c3.14-2.21,6.1-5.15,6.53-8.79a15.4,15.4,0,0,0,2.47,6,6.13,6.13,0,0,0,6.05,2.37c2.3-.6,3.64-2.79,4.55-4.83a42.23,42.23,0,0,0,3.35-11.88c.27,1.12,1.76,1.7,3,1.42a5.3,5.3,0,0,0,2.87-2.09c4.17-5.39,3.14-13.19-.93-18.64s-10.6-8.89-17.27-11.3c-.94-.34-2.6.39-1.78.93.51-3.3-3-5.83-6.26-7.29a62,62,0,0,0-17.44-5c-3.7-.48-7.82-.54-10.78,1.58s-4,5.91-4.73,9.36c-.78-3.29,0-6.72-.34-10.07s-2.43-7.06-6-7.47a10.28,10.28,0,0,0-5.39,1.29c-6.53,3-12.9,7.57-14.89,14.08,0-7.57-7.12-14.52-15.28-15s-16.16,5.53-17.28,13c-1.33-2.4-2.72-4.88-5-6.54s-5.77-2.24-8.09-.61a9.13,9.13,0,0,0-2.29,2.7,103.2,103.2,0,0,0-6.74,12.5c-.08-1.73-2.62-2.56-4.29-1.8s-2.55,2.47-3.21,4.08a37.11,37.11,0,0,0-2.23,8.11c-.49,3.17-.43,6.72,1.84,9.14,3.41,3.64,9.65,2.75,14.69,1.56-1.48,2.34-3,4.76-3.32,7.46s.82,5.74,3.47,6.9a10.91,10.91,0,0,0,5.28.47,17,17,0,0,0,6-1.33,5.69,5.69,0,0,0,3.47-4.49" transform="translate(6.71 -412.36)"/><path class="cls-4" d="M2008,611.18c-47.67-3.57-95-13-142.79-11.62-39,1.11-77.06,9.37-114.63,18.87a16,16,0,0,0-2-6.56,9.23,9.23,0,0,0-7.87-4.62c-2.75.09-5.85,1.58-8,0a3.55,3.55,0,0,0-1.12-.73,1.94,1.94,0,0,0-1.36.26c-4.5,2.32-3,9.38-7.08,12.3-1.43,1-3.35,1.37-4.7,2.47-1.71,1.39-2.09,3.55-2,5.73q-9.7,2.55-19.41,5.18a49.73,49.73,0,0,1,4.45-7.17,9.66,9.66,0,0,0-4.47,3.28c1.06-2.17,2.2-4.32,3.47-6.39a14,14,0,0,0-9.69,6.59,61.71,61.71,0,0,1,6.26-12.77c-2.92.62-5.22,2.69-7.16,4.82a47.45,47.45,0,0,0-8.29,12.67c-.55,1.22-1,2.47-1.56,3.7q-13.5,3.85-26.8,8.12l3.69-2.4a4.66,4.66,0,0,0,.48-2.86,3,3,0,0,0-2.07-2.54c-1.19-.28-2.61.81-2.19,1.87-.25-1.21-.49-2.42-.74-3.63a1.11,1.11,0,0,0-.32-.69c-.38-.31-1-.09-1.41.19a7,7,0,0,0-3.17,5.15,3.91,3.91,0,0,0-4.74-1.83,2.54,2.54,0,0,0-1.25.92,3.38,3.38,0,0,0-.38,1.83c0,1.76-.05,3.51-.07,5.26l-2.23-2.23a1.47,1.47,0,0,0-.81-.51c-.63-.09-1.07.54-1.32,1.09a22.55,22.55,0,0,0-1.77,6.62c-26.14,9.4-51.16,20.7-73.74,35.57-15.19,10-29.1,21.49-44.92,30.72-42.65,24.88-95.33,31.37-146.54,36.26l-1-1.29c-1.1-1.37-2.19-2.75-3.29-4.13-2.53-3.19-5.13-6.44-8.65-8.68a19.8,19.8,0,0,0-4.87-2.25,4.44,4.44,0,0,0-2.36-.22c-2,.52-2.27,3-3.34,4.72s-3.42,2.71-5.25,4a13.54,13.54,0,0,0-1.3,1l-.06,0c-1.67-.59-3.51-.75-5.07-1.55-1.1-.57-2-1.42-3.07-2-4.4-2.52-10.17-.37-14.33,2.48s-8.08,6.5-13.19,7.21a9.15,9.15,0,0,0-3.15.69,3.77,3.77,0,0,0-1,.8c.11-.26.2-.54.32-.8,2.14-4.62,5.81-8.53,8-13.14-4.37,1.11-7.77,4.42-9.82,8.16s-2.92,7.93-3.78,12.05v0l-1.09.11a62.05,62.05,0,0,1,8.61-29.83c-7.47,8.43-10.42,19.27-12.33,30.17l-.55.06a59.71,59.71,0,0,0-10.32-38.42c0,3.95.85,7.85,1.52,11.75a121,121,0,0,1,1.52,27.35h-.12a43.2,43.2,0,0,0-17.44-33.07,59.61,59.61,0,0,1,7.48,9.66c4.16,7.25,4.82,15.6,4.46,23.92h-.14a26.48,26.48,0,0,0-2.77-11.87,29.55,29.55,0,0,0-15.21-13.82c5.14,5,9.79,10.8,10.88,17.6a38.08,38.08,0,0,1,.19,7.7c0,.35,0,.7,0,1l-39.48,3.69a27.09,27.09,0,0,0-4-3.87c-5.61-4.37-14.31-6.12-20.28-2.19-.42-3.76-4.71-6.32-8.78-6.47s-8,1.49-11.66,3.09c3.49-4.3.18-11.07-5.18-13.11s-11.58-.49-16.68,2.08c-1.36-2.61-3.83-5.7-6.8-4.79a6.23,6.23,0,0,0-2.8,2.22A74.59,74.59,0,0,0,1142,763.4c-2.19-2.84-5.5-6-9.06-4.89a7.37,7.37,0,0,0-3.39,2.73,23.74,23.74,0,0,0-5,12.94,12.87,12.87,0,0,0-4-8.19c-3.33-3-9-3.85-12.71-1.32a30.09,30.09,0,0,0-3.25-7.32,21,21,0,0,0-10.76,5.22c.38-3.25-3.11-6.12-6.64-6.14s-6.71,2.19-8.61,4.94a6.53,6.53,0,0,0-4-5.49c-2.34-.83-5.49.52-5.72,2.83a34.66,34.66,0,0,0-3.14-6.49c-1.87-3-6.55-3-8.66-.17a31,31,0,0,0-1.92,3l0-.1c-1.26-4.25-7.73-4.58-9.61-.53a50.38,50.38,0,0,0-3.21,9.09c0-.78-1.22-1.11-1.94-.71a3.27,3.27,0,0,0-1.33,1.91c-1.11,3-2.09,6-2.91,9-2.19-.25-3.61-2.47-5.78-2.81-3.07-.47-5.07,2.88-5.88,5.66a68.2,68.2,0,0,0-2.24,10.73c-15.06,1.8-30.06,3.84-45,6.24-.25-1.84-.48-3.68-.78-5.49-1-6.25-3.61-13-9.72-15.85a8.76,8.76,0,0,0-5.55-.78c-4.12,1-5.82,5.39-8.53,8.43a15.26,15.26,0,0,1-10.94,4.89c-4,.07-9-1-11.26,2a7.86,7.86,0,0,0-1.2,3.59q-1,6.45-2.06,12.92c-26.88,6.26-53.11,14.23-78.27,24.83-34.61,14.58-66.37,33.76-98,52.85L317.71,1142.67H2026V612.2C2020,611.94,2014,611.62,2008,611.18Z" transform="translate(6.71 -412.36)"/><path class="cls-5" d="M510,824.75c-12.24-1.26-23.21-8-31.38-16.55s-13.92-18.78-19.46-29a133.64,133.64,0,0,0,22.21,12.06,42.74,42.74,0,0,0-7.48-13.8l22.25,7a126.88,126.88,0,0,1-27.08-19.8,63.18,63.18,0,0,0,39.38,8.13c-9.85-3.08-18.79-8.7-26.66-15-3-2.41-6-4.7-9-7a210.53,210.53,0,0,1-16-16.41c7.58.66,15.39-.2,23-1.26a125,125,0,0,1-18.59-5.37,59.12,59.12,0,0,1-22-15.56c-3.69-5.14-5.78-8.42-5.78-8.42,15.95,9.13,30.8,8.54,50.89,4.52A67.58,67.58,0,0,1,445,688a39.16,39.16,0,0,0,23.41,2.29,133.74,133.74,0,0,1-24.74-15A47.17,47.17,0,0,0,478.58,678c-16-5.78-27.61-17.55-37.1-31.1a40.22,40.22,0,0,0,19.25,1,56.75,56.75,0,0,1-31.59-21.13q-1.44-2.58-2.83-5.14c4.53,7.69,15.32,11.66,24.31,8.94l-10-7a17.2,17.2,0,0,0,12.46,2.45,58.4,58.4,0,0,1-18.51-18.23,72.49,72.49,0,0,0,38.36.6c-27.57-6.17-50.66-27.14-57.88-52.54-7.21,25.4-30.3,46.37-57.87,52.54a72.49,72.49,0,0,0,38.36-.6A58.4,58.4,0,0,1,377,626.07a17.2,17.2,0,0,0,12.46-2.45l-10,7c9,2.72,19.78-1.25,24.3-8.94q-1.38,2.57-2.82,5.14a56.79,56.79,0,0,1-31.59,21.13,40.22,40.22,0,0,0,19.25-1c-9.49,13.55-21.12,25.32-37.11,31.1a47.19,47.19,0,0,0,34.94-2.73,134.07,134.07,0,0,1-24.74,15A39.16,39.16,0,0,0,385.15,688a67.58,67.58,0,0,1-39.29,20.4c20.09,4,34.93,4.61,50.89-4.52,0,0-2.09,3.28-5.78,8.42a59.12,59.12,0,0,1-22,15.56,125,125,0,0,1-18.59,5.37c7.59,1.06,15.41,1.92,23,1.26a210.53,210.53,0,0,1-16,16.41c-3,2.28-6,4.57-9,7-7.87,6.28-16.81,11.9-26.65,15a63.18,63.18,0,0,0,39.38-8.13A126.88,126.88,0,0,1,334,784.5l22.25-7a42.74,42.74,0,0,0-7.48,13.8A133.64,133.64,0,0,0,371,779.24c-5.54,10.18-11.29,20.43-19.46,29s-19.14,15.29-31.38,16.55a78.29,78.29,0,0,0,47.49-6.52,31.88,31.88,0,0,1-15.19,14.71c3-.94,10.71-2.5,13.7-3.45-.82,4.74.48,8.46-7.21,14.82,2.67-1.5,9.14-3.08,16.83-4.64a82.23,82.23,0,0,1-6,10.59c6.27,1.28,13.25-2.51,15.11-8.2L384,854l6.62-8a9.83,9.83,0,0,0,1,5.6l4.22-6.68a70.27,70.27,0,0,0,6,14.31c-.26-6.59-.34-13.74,3.86-19.07a20.88,20.88,0,0,0,11,14.25q-1.1-5.77-2.18-11.56a32.74,32.74,0,0,0,5.79,8.24,76.92,76.92,0,0,0,.74-7.88c2.67,4.47,7.19,7.79,12.11,10.07s10.28,3.62,15.6,5a56.68,56.68,0,0,1-12-12.08,22.23,22.23,0,0,0,10.87,7.24,6.49,6.49,0,0,0-2.83-5.8,50.45,50.45,0,0,0,12.21,5.65q-3.53-3.18-6.77-6.59c5.06,2.72,6.45,2.85,11.93,4.75,3.47,1.2,11.67,4.3,14.48,2A53.28,53.28,0,0,1,464.53,842a32.19,32.19,0,0,1,6.7,2.34l-2.46-14.2,9,2.83a32,32,0,0,1-15.2-14.71A78.33,78.33,0,0,0,510,824.75Z" transform="translate(6.71 -412.36)"/><path class="cls-5" d="M822.85,912.52c-10.58-1.09-20.06-6.94-27.12-14.31s-12-16.23-16.83-25a115.56,115.56,0,0,0,19.21,10.43,37.17,37.17,0,0,0-6.47-11.93l19.23,6a109.28,109.28,0,0,1-23.41-17.11,54.56,54.56,0,0,0,34,7c-8.51-2.66-16.24-7.52-23-12.95-2.61-2.08-5.19-4.06-7.78-6a182.23,182.23,0,0,1-13.85-14.18c6.56.57,13.31-.18,19.87-1.09a108.77,108.77,0,0,1-16.07-4.64,51.26,51.26,0,0,1-19-13.45c-3.19-4.44-5-7.28-5-7.28,13.8,7.89,26.63,7.38,44,3.91a58.39,58.39,0,0,1-34-17.64,33.79,33.79,0,0,0,20.24,2,115.69,115.69,0,0,1-21.39-12.92,40.87,40.87,0,0,0,30.2,2.36c-13.81-5-23.87-15.17-32.07-26.89a34.69,34.69,0,0,0,16.63.86,49.07,49.07,0,0,1-27.3-18.26c-.82-1.48-1.64-3-2.44-4.44,3.91,6.65,13.24,10.08,21,7.73l-8.62-6a14.84,14.84,0,0,0,10.76,2.12,50.57,50.57,0,0,1-16-15.76,62.58,62.58,0,0,0,33.15.51c-23.83-5.33-43.79-23.45-50-45.41-6.24,22-26.2,40.08-50,45.41a62.62,62.62,0,0,0,33.16-.51,50.61,50.61,0,0,1-16,15.76,14.87,14.87,0,0,0,10.77-2.12l-8.63,6c7.77,2.35,17.09-1.08,21-7.73q-1.2,2.22-2.44,4.44a49,49,0,0,1-27.3,18.26,34.73,34.73,0,0,0,16.64-.86c-8.21,11.72-18.26,21.89-32.08,26.89a40.86,40.86,0,0,0,30.2-2.36,115.61,115.61,0,0,1-21.38,12.92,33.76,33.76,0,0,0,20.23-2,58.39,58.39,0,0,1-34,17.64c17.37,3.47,30.2,4,44-3.91,0,0-1.81,2.84-5,7.28a51.26,51.26,0,0,1-19,13.45,108.42,108.42,0,0,1-16.07,4.64c6.56.91,13.32,1.66,19.87,1.09a180.44,180.44,0,0,1-13.85,14.18c-2.58,2-5.17,4-7.78,6-6.8,5.43-14.53,10.29-23,12.95a54.55,54.55,0,0,0,34-7,109.22,109.22,0,0,1-23.4,17.11l19.22-6a37,37,0,0,0-6.46,11.93,115.47,115.47,0,0,0,19.2-10.43c-4.79,8.8-9.76,17.66-16.82,25s-16.55,13.22-27.12,14.31a67.74,67.74,0,0,0,41-5.64,27.66,27.66,0,0,1-13.14,12.72c2.58-.82,9.26-2.17,11.84-3-.71,4.09.42,7.31-6.23,12.8,2.31-1.29,7.9-2.66,14.55-4a69.77,69.77,0,0,1-5.22,9.15c5.42,1.11,11.46-2.17,13.07-7.09l-.75,10.35,5.72-7a8.58,8.58,0,0,0,.9,4.84c1.22-1.93,2.44-3.85,3.65-5.78a60.34,60.34,0,0,0,5.21,12.37c-.23-5.7-.3-11.88,3.33-16.48a18.05,18.05,0,0,0,9.52,12.32l-1.89-10a28.86,28.86,0,0,0,5,7.12,67.6,67.6,0,0,0,.64-6.81c2.3,3.86,6.21,6.73,10.47,8.7a75.3,75.3,0,0,0,13.48,4.28A48.64,48.64,0,0,1,759.56,931a19.25,19.25,0,0,0,9.4,6.27,5.63,5.63,0,0,0-2.44-5,43.33,43.33,0,0,0,10.55,4.89c-2-1.83-4-3.74-5.86-5.7,4.38,2.35,5.58,2.47,10.31,4.1,3,1,10.1,3.72,12.52,1.78a46.11,46.11,0,0,1-10.51-9.91,27.83,27.83,0,0,1,5.79,2q-1.07-6.13-2.12-12.27l7.73,2.45a27.64,27.64,0,0,1-13.13-12.72A67.72,67.72,0,0,0,822.85,912.52Z" transform="translate(6.71 -412.36)"/><path class="cls-5" d="M556.69,838.55l15.63,4.12a225.67,225.67,0,0,1-36.48-37.07,53.64,53.64,0,0,0,5.41,2,85.9,85.9,0,0,0,11.45,2.73c-5.32-1.3-9.62-4.87-13.33-8.63l-.7-.73,2.74,1.38a26.71,26.71,0,0,1-3.16-6.14l17.94,6A115.76,115.76,0,0,1,537,782.33l2.73.43,12.56,1.92A58.26,58.26,0,0,1,532,775.07a87,87,0,0,1-7.42-14.91l8.74,4.66a8.15,8.15,0,0,0,.07-4.54A45.81,45.81,0,0,0,547,764.14c-3.06-.64-5.72-2.32-8.31-4l-2.12-1.36a106,106,0,0,0,21.68,1C546,752.42,536,743.25,529.09,733.13c5.43,1.67,11.17,3,16.79,2.08a34.47,34.47,0,0,1-19.47-12.5l2.32.66.27-3.82.79.51A25.61,25.61,0,0,0,533,722a23.07,23.07,0,0,0,4.18,1.4,71.22,71.22,0,0,0,11.72,2,41.17,41.17,0,0,1-10.56-5.3,22.08,22.08,0,0,1-2.09-1.78,38.1,38.1,0,0,0,18.71.17c-15.08-6.29-27-16-33.25-27.25l7.95,2.17c-.47-2-.94-3.93-1.42-5.89a37.09,37.09,0,0,0,11,3.67c-3.84-1.34-6.49-4.59-8.56-7.88-.39-.62-.76-1.24-1.12-1.88l12.79,2.32c-16.31-10.26-32.45-23-32.28-38.08h0c.17,15.09-16,27.82-32.28,38.08l13.68-2.48c-.76,1.71-1.53,3.41-2.29,5.11l3.22-1.16q-1,4.1-2,8.19l3.84-1a26.5,26.5,0,0,1-2,2.36,21.06,21.06,0,0,1-12.73,6.5c1.87,1.54,4.57,1.79,7.07,1.94.79,0,1.59.08,2.38.06a76.87,76.87,0,0,1-23.83,15.26A37.47,37.47,0,0,0,487.45,717q-1.71,2.94-3.43,5.87l7-4.12.33,4.58,3.6-1a51.57,51.57,0,0,1-8.65,7.82,47.87,47.87,0,0,1-19.91,8.35,32.91,32.91,0,0,0,17.74-.88,31.09,31.09,0,0,0,5.36-2.4,96.38,96.38,0,0,1-27.68,24.64,106.59,106.59,0,0,0,18.05-.56,57.93,57.93,0,0,1-13.11,6.77,49,49,0,0,0,9.07-.35,16.05,16.05,0,0,0,8.13-3.49,22.43,22.43,0,0,0,2.41-2.66l1.17-1.45.07,0a8.3,8.3,0,0,0-.83,6.71l8.74-4.66-.12.31q-1.19,2.07-2.45,4.1A51.85,51.85,0,0,1,483,776.63a28,28,0,0,1-14.47,6.72,74.72,74.72,0,0,0,13.38-1.19c.54-.12,1.07-.24,1.61-.38a115.82,115.82,0,0,1-19.64,20.39l17.94-6a27.15,27.15,0,0,1-3.17,6.14l3.94-2a2.21,2.21,0,0,1-.62,2.68l6.39-3c-1.72,2.4-3.52,4.77-5.37,7.13-1.08.67-2.2,1.3-3.32,1.9A141.57,141.57,0,0,1,466,815.54c-3.49,1.43-7.15,2.75-11,2.73a91.12,91.12,0,0,0,14.47,1.58c.86,0,1.72,0,2.59,0a238.6,238.6,0,0,1-24.38,22.79l15.62-4.12a11,11,0,0,1-.15,6.71l10.71-6.06a10.64,10.64,0,0,0,1,5,49.35,49.35,0,0,1,11.44-4.57c9.85-1.95,16.13,1.73,23.68-6.22,7.55,7.95,13.82,4.27,23.68,6.22a49.45,49.45,0,0,1,11.43,4.57,10.4,10.4,0,0,0,1-5l10.71,6.06A11.14,11.14,0,0,1,556.69,838.55Z" transform="translate(6.71 -412.36)"/><path class="cls-5" d="M878.1,903.68l16,4.21A230.85,230.85,0,0,1,856.77,870a52.81,52.81,0,0,0,5.53,2A89.83,89.83,0,0,0,874,874.77c-5.44-1.33-9.84-5-13.63-8.83l-.72-.74,2.8,1.41a27.92,27.92,0,0,1-3.23-6.28l18.35,6.14a118.85,118.85,0,0,1-19.67-20.3l2.8.44,12.85,2a59.53,59.53,0,0,1-20.73-9.83,88.22,88.22,0,0,1-7.6-15.26l8.94,4.77a8.15,8.15,0,0,0,.07-4.64,47,47,0,0,0,14,3.95c-3.13-.66-5.86-2.38-8.51-4.06l-2.16-1.39a107.87,107.87,0,0,0,22.17,1.08c-12.54-7.62-22.73-17-29.85-27.36,5.55,1.71,11.43,3.06,17.18,2.13a35.19,35.19,0,0,1-19.92-12.79l2.37.68c.09-1.3.19-2.61.28-3.91l.81.52a26.73,26.73,0,0,0,3.27,1.93,24.1,24.1,0,0,0,4.27,1.44,74.85,74.85,0,0,0,12,2,42.07,42.07,0,0,1-10.8-5.42,23.58,23.58,0,0,1-2.15-1.83,39,39,0,0,0,19.14.18c-15.42-6.44-27.57-16.4-34-27.88l8.14,2.22q-.74-3-1.45-6a38,38,0,0,0,11.21,3.76c-3.93-1.38-6.65-4.71-8.76-8.07-.4-.63-.78-1.27-1.15-1.92l13.08,2.38c-16.68-10.5-33.2-23.52-33-39h0c.17,15.44-16.34,28.46-33,39l14-2.54L809,747.94l3.3-1.18c-.67,2.79-1.35,5.58-2,8.38l3.92-1.07a26.09,26.09,0,0,1-2.06,2.42,21.53,21.53,0,0,1-13,6.64c1.92,1.58,4.67,1.84,7.23,2,.81,0,1.63.08,2.44.07a78.89,78.89,0,0,1-24.39,15.61,38.3,38.3,0,0,0,22.88-1.43q-1.74,3-3.5,6l7.11-4.22c.11,1.57.23,3.13.34,4.69l3.68-1.06a52.79,52.79,0,0,1-8.85,8,49,49,0,0,1-20.37,8.54,33.67,33.67,0,0,0,18.16-.91,31.7,31.7,0,0,0,5.48-2.45A98.74,98.74,0,0,1,781,823.19a108.31,108.31,0,0,0,18.46-.58A58.55,58.55,0,0,1,786,829.54a51.3,51.3,0,0,0,9.28-.35,16.42,16.42,0,0,0,8.32-3.58,22.71,22.71,0,0,0,2.47-2.72l1.19-1.48.08,0a8.42,8.42,0,0,0-.86,6.86l8.94-4.77-.12.32c-.81,1.41-1.64,2.81-2.51,4.19a52.67,52.67,0,0,1-10.16,12.35,28.64,28.64,0,0,1-14.8,6.87A76.26,76.26,0,0,0,801.56,846l1.65-.39a118.33,118.33,0,0,1-20.09,20.87l18.35-6.14a27.56,27.56,0,0,1-3.24,6.28l4-2a2.23,2.23,0,0,1-.63,2.74l6.54-3q-2.64,3.69-5.5,7.3c-1.1.69-2.24,1.33-3.39,1.95a145.57,145.57,0,0,1-13.94,6.6c-3.57,1.46-7.32,2.81-11.22,2.79a93,93,0,0,0,14.8,1.63c.88,0,1.76,0,2.64,0a239.91,239.91,0,0,1-24.94,23.31l16-4.21a11.35,11.35,0,0,1-.15,6.87l10.95-6.2a10.8,10.8,0,0,0,1,5.16,50.1,50.1,0,0,1,11.7-4.68c10.09-2,16.5,1.77,24.23-6.37,7.72,8.14,14.14,4.37,24.22,6.37a49.92,49.92,0,0,1,11.7,4.68,10.69,10.69,0,0,0,1-5.16l11,6.2A11.35,11.35,0,0,1,878.1,903.68Z" transform="translate(6.71 -412.36)"/><path class="cls-5" d="M191.61,937.07c.76-34.87-5.37-68.59-14.1-100.62s-20.13-62.78-30.92-93.17-20.89-60.55-27.42-91.4-9.35-62.32-5-93.51l-11-1.8c-7.74,32.11-8,65.54-4.31,98.1s11.09,64.63,19,96.05,16,62.32,21.28,93.06,7.59,61.26,4.05,90.52Z" transform="translate(6.71 -412.36)"/><path class="cls-5" d="M109.59,621.49a8.41,8.41,0,0,1,3.91-2.79,9.08,9.08,0,0,1,2.5-.53,13.2,13.2,0,0,1,3,.23,24.06,24.06,0,0,0,10.17-.07,26.76,26.76,0,0,0,8.84-4c5.09-3.41,8.69-7.77,12.18-11.38s7.18-6.79,11.64-8.12,9.95-1.19,15.56-1.36a46.78,46.78,0,0,0,8.63-1,39.83,39.83,0,0,0,8.07-2.93,92.77,92.77,0,0,0,14.12-8.31c2.15-1.59,4.48-3.15,6.15-5.45s2.29-5.44.58-7.88l-.9.52c1.22,2,.5,4.67-1,6.45s-3.87,3.21-6.12,4.62a92,92,0,0,1-14.29,7A33.47,33.47,0,0,1,177.42,589c-5.31-.17-11-.92-17.2.4s-11.24,5.22-15.28,8.81-7.63,7.24-11.72,9.51a17.79,17.79,0,0,1-6,2.27c-2.12.32-3.37.13-6.14-.53a23.3,23.3,0,0,0-5.12-.71,20.18,20.18,0,0,0-5.6.69,19.59,19.59,0,0,0-9.48,5.69Z" transform="translate(6.71 -412.36)"/><path class="cls-5" d="M158.41,594.1c2.92,2.51,6,2.95,7.79,4a4,4,0,0,1,1.8,1.7,18.18,18.18,0,0,0,2.22,3.85,8.87,8.87,0,0,0,5,2.7,16.84,16.84,0,0,0,4.93.15,74.18,74.18,0,0,0,8.45-1.71c10.74-2.68,21.16-6.36,31.63-5l.59-3.47a52.06,52.06,0,0,0-17.19.59c-5.56,1-10.9,2.47-16.2,3.63a68.1,68.1,0,0,1-7.77,1.37c-2.44.22-4.6-.23-5.35-1.27a19,19,0,0,1-1.49-3,9.17,9.17,0,0,0-3.74-3.84c-2.92-1.61-5.53-2.26-6.61-3.43Z" transform="translate(6.71 -412.36)"/><path class="cls-5" d="M112,652.66a7.29,7.29,0,0,0-2-4.85,9.27,9.27,0,0,0-3.56-2.36,12.23,12.23,0,0,0-6.85-.53c-3.55.9-5,1.49-5.23,1.34-.36.07-1.55-.57-2.54-2A22.49,22.49,0,0,1,89.21,639c-1.58-4-2.72-8.54-4.42-13.16A38.78,38.78,0,0,0,77,612.75c-3.29-3.69-5.37-6.52-6-10.84-.88-4.2-.74-9.12-2.91-14.06a15.15,15.15,0,0,0-5.3-6.23A63.6,63.6,0,0,0,56.12,578a20.45,20.45,0,0,1-5.47-3.89,18.83,18.83,0,0,1-2.11-2.54c-.31-.46-.61-.92-.87-1.4l-.39-.73-.17-.37c0-.13-.07-.26-.66-.21l-1.49.5c-.48.32-.39.46-.33.6l.17.44.37.85c.26.57.56,1.12.86,1.66a21.28,21.28,0,0,0,2.2,3.1,23.79,23.79,0,0,0,5.93,4.93c4.43,2.57,8.22,4.73,9.41,8.54,1.36,3.77,1,8.31,1.53,13.21a22.13,22.13,0,0,0,2.1,7.57,44,44,0,0,0,4.15,6.36c5.75,6.88,6.25,15.36,9,25A30.5,30.5,0,0,0,83.56,649a13.86,13.86,0,0,0,8.73,6.49,14.37,14.37,0,0,0,6-.15c1.54-.35,2.64-.67,3.32-.74.37-.06.4.07.46.09a1.12,1.12,0,0,1-.56-.36,2.62,2.62,0,0,1-.7-1.69Z" transform="translate(6.71 -412.36)"/><path class="cls-5" d="M80.57,620.91,73.94,619c-2.28-.65-4.26-.8-5.34-1.34C66.42,617,65.41,613.11,63,609a10.27,10.27,0,0,0-6.36-4.48,56.76,56.76,0,0,1-6.06-1.33A21.74,21.74,0,0,1,41,596.92l-1.83,1.2a24.08,24.08,0,0,0,10,8.27,57.21,57.21,0,0,0,6.14,2.08,5.14,5.14,0,0,1,3.18,2.85c.71,1.46,1.15,3.3,1.91,5.37a11.65,11.65,0,0,0,4.78,6.23c2.58,1.55,5,1.82,6.64,2.61l5.35,2.16Z" transform="translate(6.71 -412.36)"/><path class="cls-5" d="M260.1,573.35c-.88-2.45-2.63-4.83-5.27-5.65,4-7.94-.5-17.53-7.16-23.75a12,12,0,0,0-5.2-3.21c-2-.49-4.52.1-5.54,1.81a41.62,41.62,0,0,0-8.34-15,11.9,11.9,0,0,0-5-3.83c-5.05-1.67-10.05,2.35-13.68,6l-8.87,9A76.79,76.79,0,0,0,193.12,523a4.7,4.7,0,0,0-2.57-2.28,4.61,4.61,0,0,0-2.9.52,17.14,17.14,0,0,0-10.21,14.22c.18-2.63-2.9-4.64-5.74-4.56s-5.37,1.59-7.68,3.11c-3.67,2.41-7.4,5.2-8.89,9.13-1.26,3.3-.12,7.53,2.86,9.38a3.18,3.18,0,0,0-1.5.18c-.45,3.22,1.94,6.46,5.18,7.58a66.57,66.57,0,0,0,2.25,9.19c.94,2.94,2.39,6.13,5.43,7.31,3.56,1.38,7.66-.68,10.19-3.39s4.15-6.07,6.88-8.6a30.63,30.63,0,0,0-.48,17.86,28.15,28.15,0,0,0,9-6.79,20.73,20.73,0,0,0,2.5,8.51c1.13,2.06,2.84,4.09,5.28,4.56a4.4,4.4,0,0,0,4.46-2,61.58,61.58,0,0,0-.09,14.36c.22,1.86.57,3.83,1.92,5.23,1.76,1.81,4.82,2.13,7.31,1.34a16.94,16.94,0,0,0,6.36-4.24,61.7,61.7,0,0,0,8.79-10.48c2.32,2.58,2.79,6.69,6,8.19,2.89,1.34,6.33-.22,9-1.92,4.61-3,8.85-6.56,11.58-11.09S261.87,578.27,260.1,573.35Z" transform="translate(6.71 -412.36)"/><path class="cls-5" d="M171.09,528.53A48,48,0,0,0,165,519.8c-1.45-1.66-3.22-3.33-5.5-3.63s-4.93,1.61-4.29,3.67A137.15,137.15,0,0,0,142,507.59a12,12,0,0,0-3.83-2.35c-3.42-1.08-7.26.87-9.26,3.65s-2.59,6.21-3.13,9.52c-4.5-8.41-16.47-12.6-25.85-9s-14.76,14.31-11.62,23.23c-5.1-6.94-14.51-10-23.48-11.16-2.31-.3-4.78-.49-6.88.44-4.07,1.79-5,6.91-3.95,11s3.39,7.83,3.87,12c-2.36-3.79-5.07-7.87-9.53-9.3s-9.2.14-13.35,2.06a72.93,72.93,0,0,0-18.43,12.15c-3,2.7-5.79,6.58-4.56,10.09a2.68,2.68,0,0,0-2.2.32C3,565.4-3.22,571.83-5.71,579.72S-6.1,597.16,1.09,602a7,7,0,0,0,4.26,1.42c1.54-.12,3.05-1.34,2.89-2.76a55.52,55.52,0,0,0,9,12.76c1.94,2.08,4.44,4.17,7.4,4a7.21,7.21,0,0,0,6.12-5c.88-2.55.62-5.31.35-8,2.05,4.12,6.77,6.51,11.41,8,3.18,1,6.7,1.7,9.85.62s5.52-4.56,4.1-7.38c1.63,3.15,5.71,4.43,9.42,5.06a13.07,13.07,0,0,0,6.52-.12c3.39-1.22,5.16-4.86,5.08-8.22s-1.63-6.53-3.14-9.59c3.45.11,7,.2,10.22-1s6-4,5.8-7.21a71.3,71.3,0,0,0,14,10.72,5.25,5.25,0,0,0,3.34,1c1.75-.27,2.68-2.06,3-3.67a14.14,14.14,0,0,0-.78-8.42c2.6,1.52,2.92,5,4.95,7.1s5.82,2.66,8.83,1.67a16.7,16.7,0,0,0,7.34-5.49c6.64-8,9.09-18.21,10.74-28.16l.67,3.76c.92,2.23,3.43,3.64,6,4a21.61,21.61,0,0,0,7.66-.63c2.16-.47,4.41-1,6-2.47,2.62-2.33,2.69-6.34,1.16-9.39s-4.35-5.35-7.07-7.57c6.44-.42,14.14-1.65,16.62-7.17C174.44,536.29,173,532.08,171.09,528.53Z" transform="translate(6.71 -412.36)"/><path class="cls-5" d="M222.63,524.34c.46-1.71-.55-3.45-1.71-4.87A28,28,0,0,0,202,509.7c3.51-.18,5.43-4.2,4.27-7.15S202,497.62,199,496a86.31,86.31,0,0,0-11-4.82c-3.85-1.36-8.62-2.34-11.82,0-.14-5-4.05-9.68-9.34-11.26s-11.62.08-15.09,4c1-1-.4-2.54-1.73-3.26a65.66,65.66,0,0,0-24.56-7.35c-3.36-.33-6.91-.37-9.92,1s-5.24,4.49-4.27,7.36a22.83,22.83,0,0,0-5-6.27,9.39,9.39,0,0,0-8-2,11.67,11.67,0,0,0-5.06,3.41A60.12,60.12,0,0,0,81.1,494.31c-2.11-2.64-5.36-5.63-8.77-4.49a6.65,6.65,0,0,0-2.64,1.83,14.62,14.62,0,0,0-4,7.84,6,6,0,0,0-6.25,2.92c-1.2,2-1.33,4.35-1.43,6.61q-.27,6.11-.55,12.2c-3-3.42-9.44-3.14-13-.19s-4.69,7.66-4.26,12,2.15,8.45,3.39,12.65l146,3.07c10.1-1,21.28,2.79,30-1.89a4.85,4.85,0,0,0,2.27-2.05c.58-1.29,0-2.74-.67-4a44.57,44.57,0,0,0-7.72-10.62C216.49,528,221.72,527.69,222.63,524.34Z" transform="translate(6.71 -412.36)"/><path class="cls-6" d="M1074.93,924.69c-15.82-10.27-31.81-20.62-49.71-27.34-17.58-6.61-36.38-9.48-55.33-11.27a23.22,23.22,0,0,0-14-10.1,8.23,8.23,0,0,0-3.08-.28c-1.72.24-3.18,1.36-4.89,1.62-2.16.34-4.27-.73-6.43-1,.16-.6.3-1.21.48-1.81a2.44,2.44,0,0,0,0-2.08,2.82,2.82,0,0,0-1.5-.92l-5.67-2c-3.21-1.13-6.51-2.27-9.94-2.3s-7.1,1.31-8.77,4.09a4.23,4.23,0,0,1-1.22,1.58,3,3,0,0,1-1.37.35c-2.59.2-5.45-.56-7.66.71a7.33,7.33,0,0,0-2.8,3.68,28,28,0,0,0-1.19,3.44l-165-11.76c-31.38-2.24-63.37-4.61-92.46-15.73-3-1.13-5.85-2.37-8.74-3.66a16,16,0,0,1,5.76-4.48l.36-.68a6.65,6.65,0,0,0-6.67-.63c-1,.48-2,1.23-3.07.83l5.68-3.46c.2-.12.42-.27.43-.49s-.43-.51-.79-.57l-5.9-1a20.71,20.71,0,0,1,8.94-4.6c-5-.31-10.26-.55-14.53,1.82a13.88,13.88,0,0,0-1.64,1.11l.5-1.38a22.1,22.1,0,0,0,1.74-7.65,21.82,21.82,0,0,0-1.66-6.91,5.08,5.08,0,0,0-1-1.86,5.91,5.91,0,0,0-1.91-1.18l-8.7-3.93a7,7,0,0,0-3.34-.87c-3.32.27-4.68,4.86-8,5.17a24.83,24.83,0,0,1-3-.27,6,6,0,0,0-5.65,4.49,8,8,0,0,0-.25,2.34c-37.69-24.54-73.61-52-118.17-50.17-19.14.81-37.41,7.26-56.2,10.77-25.95,4.85-52.69,4.05-79.15,3.22-11.95-.37-24.11-.82-36.19-1.76l-.56-1.85a15.89,15.89,0,0,0-1.59-3.92c-2.12-3.35-6.41-4.86-10.37-6.13a2.33,2.33,0,0,0-1.35-.15,3.46,3.46,0,0,0-1,.67,5.44,5.44,0,0,1-3.75.71,46.55,46.55,0,0,0-3.94-9.4,8.63,8.63,0,0,0-2.16-2.79c-1.93-1.46-4.68-1.38-7.17-1.24-2.15.13-4.62.42-5.8,2.1-.74,1.07-.89,2.62-2.12,3.18s-2.46-.15-3.69-.44c-3.95-.93-7.61,2.17-10,5.23-1,1.26-1.88,2.58-2.73,3.92a129.55,129.55,0,0,1-29.91-13.94c-21.07-13.52-37.83-34.13-62.5-40.6-13.09-3.43-26.44-2.39-39.89,0v0c-2.08-5.92-4.28-12-8.54-16.79a40.52,40.52,0,0,0-8.52-7,86.36,86.36,0,0,0-22.25-10.17c3.9,3.51,9.34,5.24,13.28,8.71a28.47,28.47,0,0,1,4.13,4.72,67.45,67.45,0,0,1,9.29,17.35,18,18,0,0,0-2.83-3.66c-4.7-4.84-10.69-8.41-16.61-11.93-3.07-1.82-6.43-3.72-10.07-3.48a42.59,42.59,0,0,1,23,19.53A18.7,18.7,0,0,0,92,717c-6.69-5-14.45-9.38-23-9.86,2.11,3.41,6.69,4.7,9.76,7.42S83,721.05,85,724.43a29.12,29.12,0,0,0,2.83,4.08c-5.25,1-10.51,2-15.75,2.55-23.59,2.72-48.08-.75-72-2.42v418.91H1220.41V1051.7C1186.73,997.83,1130,960.41,1074.93,924.69Z" transform="translate(6.71 -412.36)"/></g></g></g></svg>