<svg xmlns="http://www.w3.org/2000/svg" xmlns:xlink="http://www.w3.org/1999/xlink" viewBox="0 0 1920.86 1010.05"><defs><style>.cls-1{fill:url(#linear-gradient);}.cls-2,.cls-33{fill:url(#linear-gradient-2);}.cls-2{clip-path:url(#clip-path);}.cls-3,.cls-42{fill:url(#linear-gradient-3);}.cls-3{clip-path:url(#clip-path-2);}.cls-4,.cls-41{fill:url(#linear-gradient-32);}.cls-4{clip-path:url(#clip-path-31);}.cls-43,.cls-5{fill:url(#linear-gradient-4);}.cls-5{clip-path:url(#clip-path-3);}.cls-44,.cls-6{fill:url(#linear-gradient-5);}.cls-6{clip-path:url(#clip-path-4);}.cls-45,.cls-7{fill:url(#linear-gradient-6);}.cls-7{clip-path:url(#clip-path-5);}.cls-46,.cls-8{fill:url(#linear-gradient-7);}.cls-8{clip-path:url(#clip-path-6);}.cls-47,.cls-9{fill:url(#linear-gradient-8);}.cls-9{clip-path:url(#clip-path-7);}.cls-10,.cls-48{fill:url(#linear-gradient-9);}.cls-10{clip-path:url(#clip-path-8);}.cls-11,.cls-49{fill:url(#linear-gradient-10);}.cls-11{clip-path:url(#clip-path-9);}.cls-12,.cls-50{fill:url(#linear-gradient-11);}.cls-12{clip-path:url(#clip-path-10);}.cls-13,.cls-51{fill:url(#linear-gradient-12);}.cls-13{clip-path:url(#clip-path-11);}.cls-14,.cls-34{fill:url(#linear-gradient-13);}.cls-14{clip-path:url(#clip-path-12);}.cls-15,.cls-52{fill:url(#linear-gradient-14);}.cls-15{clip-path:url(#clip-path-13);}.cls-16,.cls-53{fill:url(#linear-gradient-15);}.cls-16{clip-path:url(#clip-path-14);}.cls-17,.cls-54{fill:url(#linear-gradient-16);}.cls-17{clip-path:url(#clip-path-15);}.cls-18,.cls-55{fill:url(#linear-gradient-17);}.cls-18{clip-path:url(#clip-path-16);}.cls-19,.cls-56{fill:url(#linear-gradient-18);}.cls-19{clip-path:url(#clip-path-17);}.cls-20,.cls-57{fill:url(#linear-gradient-19);}.cls-20{clip-path:url(#clip-path-18);}.cls-21,.cls-58{fill:url(#linear-gradient-20);}.cls-21{clip-path:url(#clip-path-19);}.cls-22,.cls-59{fill:url(#linear-gradient-21);}.cls-22{clip-path:url(#clip-path-20);}.cls-23,.cls-60{fill:url(#linear-gradient-22);}.cls-23{clip-path:url(#clip-path-21);}.cls-24,.cls-61{fill:url(#linear-gradient-23);}.cls-24{clip-path:url(#clip-path-22);}.cls-25,.cls-35{fill:url(#linear-gradient-24);}.cls-25{clip-path:url(#clip-path-23);}.cls-26,.cls-62{fill:url(#linear-gradient-25);}.cls-26{clip-path:url(#clip-path-24);}.cls-27,.cls-63{fill:url(#linear-gradient-26);}.cls-27{clip-path:url(#clip-path-25);}.cls-28,.cls-36{fill:url(#linear-gradient-27);}.cls-28{clip-path:url(#clip-path-26);}.cls-29,.cls-37{fill:url(#linear-gradient-28);}.cls-29{clip-path:url(#clip-path-27);}.cls-30,.cls-38{fill:url(#linear-gradient-29);}.cls-30{clip-path:url(#clip-path-28);}.cls-31,.cls-39{fill:url(#linear-gradient-30);}.cls-31{clip-path:url(#clip-path-29);}.cls-32,.cls-40{fill:url(#linear-gradient-31);}.cls-32{clip-path:url(#clip-path-30);}.cls-64{clip-path:url(#clip-path-32);}.cls-65{fill:url(#linear-gradient-65);}.cls-66{fill:#383654;}</style><linearGradient id="linear-gradient" x1="609.06" y1="252.04" x2="699.12" y2="252.04" gradientUnits="userSpaceOnUse"><stop offset="0" stop-color="#3e84a8"/><stop offset="1" stop-color="#347099"/></linearGradient><linearGradient id="linear-gradient-2" x1="210.52" y1="337.77" x2="304.27" y2="337.77" xlink:href="#linear-gradient"/><clipPath id="clip-path"><path class="cls-1" d="M699.12,301.07a25.83,25.83,0,0,1-14.88-6.92c-3.88-3.57-6.6-7.86-9.23-12.12a67.18,67.18,0,0,0,10.53,5.05A17.46,17.46,0,0,0,682,281.3l10.55,2.93A60.3,60.3,0,0,1,679.7,276a33.27,33.27,0,0,0,18.68,3.4,41.31,41.31,0,0,1-12.64-6.27c-1.43-1-2.85-2-4.27-2.91a96.72,96.72,0,0,1-7.6-6.87,55.33,55.33,0,0,0,10.9-.53,64.2,64.2,0,0,1-8.81-2.24A28.42,28.42,0,0,1,665.51,254c-1.75-2.15-2.74-3.53-2.74-3.53,7.57,3.82,14.61,3.58,24.14,1.9a33.69,33.69,0,0,1-18.64-8.54,21,21,0,0,0,11.11,1,65.47,65.47,0,0,1-11.74-6.26,25.18,25.18,0,0,0,16.57,1.15c-7.58-2.42-13.09-7.35-17.6-13a21.47,21.47,0,0,0,9.13.42,27.31,27.31,0,0,1-15-8.84c-.45-.72-.9-1.43-1.34-2.15,2.15,3.22,7.27,4.88,11.53,3.74l-4.74-2.92a9,9,0,0,0,5.91,1,26.43,26.43,0,0,1-8.78-7.63,38.88,38.88,0,0,0,18.2.25c-13.08-2.58-24-11.35-27.45-22-3.42,10.63-14.37,19.4-27.45,22a38.84,38.84,0,0,0,18.19-.25,26.29,26.29,0,0,1-8.77,7.63,9,9,0,0,0,5.9-1q-2.36,1.47-4.73,2.92c4.26,1.14,9.38-.52,11.52-3.74-.44.72-.88,1.43-1.34,2.15a27.27,27.27,0,0,1-15,8.84,21.46,21.46,0,0,0,9.13-.42c-4.5,5.67-10,10.6-17.59,13a25.15,25.15,0,0,0,16.56-1.15,65.38,65.38,0,0,1-11.73,6.26,20.91,20.91,0,0,0,11.1-1,33.66,33.66,0,0,1-18.63,8.54c9.53,1.68,16.57,1.92,24.13-1.9,0,0-1,1.38-2.74,3.53a28.38,28.38,0,0,1-10.44,6.51,64.34,64.34,0,0,1-8.82,2.24,55.44,55.44,0,0,0,10.91.53,96.72,96.72,0,0,1-7.6,6.87c-1.42.95-2.84,1.91-4.27,2.91a41.31,41.31,0,0,1-12.64,6.27,33.25,33.25,0,0,0,18.67-3.4,60.23,60.23,0,0,1-12.84,8.28l10.55-2.93a17.65,17.65,0,0,0-3.55,5.78A66.87,66.87,0,0,0,633.17,282c-2.63,4.26-5.35,8.55-9.23,12.12a25.89,25.89,0,0,1-14.88,6.92,41.62,41.62,0,0,0,22.52-2.73,14.47,14.47,0,0,1-7.21,6.16c1.42-.4,5.09-1.05,6.5-1.45-.39,2,.23,3.54-3.42,6.2a39.86,39.86,0,0,1,8-1.94,31.8,31.8,0,0,1-2.86,4.43c3,.54,6.29-1.05,7.17-3.43-.14,1.67-.27,3.34-.41,5l3.14-3.37a3.72,3.72,0,0,0,.49,2.34l2-2.79a27.52,27.52,0,0,0,2.85,6c-.12-2.75-.16-5.74,1.83-8a9,9,0,0,0,5.22,6c-.34-1.61-.69-3.22-1-4.84a13.84,13.84,0,0,0,2.75,3.45,30.33,30.33,0,0,0,.35-3.29,12.62,12.62,0,0,0,5.74,4.21,46.49,46.49,0,0,0,7.4,2.07A25.19,25.19,0,0,1,664.4,310a10.64,10.64,0,0,0,5.15,3,2.6,2.6,0,0,0-1.34-2.42A25.68,25.68,0,0,0,674,313q-1.66-1.34-3.21-2.76a30.33,30.33,0,0,0,5.66,2c1.64.5,5.53,1.8,6.86.86a24.13,24.13,0,0,1-5.76-4.8,16.19,16.19,0,0,1,3.17,1q-.57-3-1.16-5.94l4.24,1.19a14.48,14.48,0,0,1-7.2-6.16A41.61,41.61,0,0,0,699.12,301.07Z"/></clipPath><linearGradient id="linear-gradient-3" x1="428.49" y1="311.09" x2="448.8" y2="311.09" xlink:href="#linear-gradient"/><clipPath id="clip-path-2"><path class="cls-4" d="M465.68,312.15l6.23,3,1.55.75.78.37a4.84,4.84,0,0,0,1.32.47,3.45,3.45,0,0,0,1.74-.19c.39-.15.6-.26.88-.38l1.59-.72c2.11-1,4.19-2,6.22-3.08l1.52-.81a2.55,2.55,0,0,1,1.32-.42,20.32,20.32,0,0,0,3.66-.54l-.23-.78a20.21,20.21,0,0,1-3.48.2,4.76,4.76,0,0,0-1.08.09,5,5,0,0,0-1,.34l-1.6.66c-2.13.87-4.3,1.69-6.48,2.45l-1.65.57c-.26.08-.59.2-.75.24s-.13,0,0,0-.58-.36-1-.63l-1.44-.88L468,309.32Z"/></clipPath><linearGradient id="linear-gradient-4" x1="441.33" y1="306.32" x2="453.77" y2="306.32" xlink:href="#linear-gradient"/><clipPath id="clip-path-3"><path class="cls-3" d="M448.8,314.13a2.47,2.47,0,0,0-1.3-.87,3.9,3.9,0,0,0-1.31-.17,4.94,4.94,0,0,0-1.13.19c-.31.09-.57.19-.8.27a3.9,3.9,0,0,1-.94.29,2.12,2.12,0,0,1-.84-.12,19.09,19.09,0,0,1-2.36-1.18,11,11,0,0,0-3.08-1.08,9.2,9.2,0,0,0-1.68-.14,7.69,7.69,0,0,1-1.26-.08,4.48,4.48,0,0,1-2.07-1,7.69,7.69,0,0,1-2.23-4.06l-1.31.2a8.61,8.61,0,0,0,2.24,4.81,6.17,6.17,0,0,0,2.85,1.6,9.13,9.13,0,0,0,1.68.22,8.7,8.7,0,0,1,1.27.17,8.41,8.41,0,0,1,2.28,1,18.74,18.74,0,0,0,2.6,1.48,5.26,5.26,0,0,0,2,.4,6.61,6.61,0,0,0,1.89-.39c.24-.07.43-.13.59-.16a1.39,1.39,0,0,1,.33,0,.27.27,0,0,1,.15,0,.27.27,0,0,1-.18-.11Z"/></clipPath><linearGradient id="linear-gradient-5" x1="479.67" y1="315.33" x2="494.11" y2="315.33" xlink:href="#linear-gradient"/><clipPath id="clip-path-4"><path class="cls-5" d="M444.24,310.71c-.05.1-.17.14-.1.07a1.21,1.21,0,0,1,.43-.17c.39-.1,1.21,0,2.18-.25a3.11,3.11,0,0,0,2.19-1.62,8.52,8.52,0,0,0,.69-1.79,3.62,3.62,0,0,0,.14-1c0-.36-.07-.65-.08-.86a.68.68,0,0,1,.15-.51,3.39,3.39,0,0,1,.57-.57,9.22,9.22,0,0,1,3.36-1.72l-.15-.46a10.7,10.7,0,0,0-4,1.45,4.72,4.72,0,0,0-.87.67,1.79,1.79,0,0,0-.55,1.08c0,.36,0,.65-.07.85a2.81,2.81,0,0,1-.23.67,9,9,0,0,1-.8,1.41,1.6,1.6,0,0,1-.45.4,1,1,0,0,1-.45.12c-.4,0-1-.07-2,0a4.54,4.54,0,0,0-1.54.37,2.38,2.38,0,0,0-1.34,1.4Z"/></clipPath><linearGradient id="linear-gradient-6" x1="458.24" y1="298.04" x2="513.81" y2="298.04" xlink:href="#linear-gradient"/><clipPath id="clip-path-5"><path class="cls-6" d="M479.67,314.64a21.85,21.85,0,0,0,3.1,2,8.86,8.86,0,0,0,4,1,16.31,16.31,0,0,0,3.8-.77,3.54,3.54,0,0,1,3.09.44l.41-.23a2.84,2.84,0,0,0-1.67-1,6.3,6.3,0,0,0-2-.12,16.52,16.52,0,0,1-3.49.25,6.23,6.23,0,0,1-2.77-1.18,18.11,18.11,0,0,1-2.31-2.12Z"/></clipPath><linearGradient id="linear-gradient-7" x1="403.75" y1="290.01" x2="474.19" y2="290.01" xlink:href="#linear-gradient"/><clipPath id="clip-path-6"><path class="cls-7" d="M511.6,295.11a7.94,7.94,0,0,0-4.25-3.09c-1.85-.47-4.2.1-4.94,1.56a7.58,7.58,0,0,0,1.1-3.25,3.67,3.67,0,0,0-1.38-3.09,7.5,7.5,0,0,0-4.38-1.18,22.22,22.22,0,0,0-7.84,1.2,6.64,6.64,0,0,0-.29-2.62,3,3,0,0,0-2.11-1.85,5.46,5.46,0,0,0-3.95,1.11c-1.56,1-3.06,2-4.5,3.09a9.5,9.5,0,0,0-1.33-3.15,4.52,4.52,0,0,0-3.22-1.86,7.1,7.1,0,0,0-4.49,1.74c-1.08.77-2.22,1.7-2.25,2.87-.22-1.42-.75-3.14-2.45-3.48a3.35,3.35,0,0,0-2.73.79,6.87,6.87,0,0,0-1.53,2.12,2.87,2.87,0,0,0-.5,1.53,1.31,1.31,0,0,0,.11.42,2.43,2.43,0,0,0-.77.65,7.13,7.13,0,0,0-1.55,2.38,2.24,2.24,0,0,0,.77,2.51c.95.68,2.6.74,3.06,1.7a.91.91,0,0,0-.73.91l-.42-.77c.23,1.4-.34,2.88.27,4.2a4.89,4.89,0,0,0,4,2.28,12.56,12.56,0,0,0,5-.71,4,4,0,0,0,2.8,3.19,5.59,5.59,0,0,0,4.76-.57c-.24,1.14-.29,2.61,1,3.13a3.48,3.48,0,0,0,1.37.2,18.79,18.79,0,0,0,6.73-1.2,2.63,2.63,0,0,0,.13,2.89,2.41,2.41,0,0,0,3.16.31,3,3,0,0,0,.2,3.25,3.82,3.82,0,0,0,3.53,1.34c1.35-.21,2.46-1.3,2.33-2.42.41,1.23,1.12,2.69,2.67,2.86a4.13,4.13,0,0,0,2.09-.46,11.27,11.27,0,0,0,6.81-8.55,3.09,3.09,0,0,0,.09.53,2.4,2.4,0,0,0,2.1,1.46,3.2,3.2,0,0,0,2.68-1.72C514.65,302.16,513.89,298.16,511.6,295.11Z"/></clipPath><linearGradient id="linear-gradient-8" x1="1365.92" y1="364.39" x2="1405.07" y2="364.39" xlink:href="#linear-gradient"/><clipPath id="clip-path-7"><path class="cls-8" d="M417.62,291.22a25.76,25.76,0,0,0-3.52,11,5.73,5.73,0,0,0,.57,3.55c.93,1.52,2.92,2.36,4.78,3.11a8.1,8.1,0,0,0,4.36.82c1.48-.29,2.59-1.89,1.59-2.82a9.1,9.1,0,0,0-.7,3.39,1.38,1.38,0,0,0,.32,1.05c.52.51,1.53.35,2.3.11a26,26,0,0,0,7.06-3.43c.28,1.25,2.21,1.88,3.69,1.49a5.56,5.56,0,0,0,3.22-2.61,26.52,26.52,0,0,1,2.09-3.4c-.29.65.32,1.45,1.16,1.53s1.65-.6,1.54-1.28a8.87,8.87,0,0,0,1.64,3.52,4.48,4.48,0,0,0,4,1.49c2.31-.43,3.12-2.79,3.06-4.73.22,1.35,2,2.2,3.65,2.33,3.38.26,6.79-1.85,7.38-4.59,0,1.11,1.71,1.79,3,1.5a5.31,5.31,0,0,0,3-2.15c2.86-3.71,3.49-8.9.13-12.32a5.62,5.62,0,0,0-3.39-1.76c-1.36-.12-2.89.58-3.11,1.69a10.37,10.37,0,0,0,2.5-7,7.81,7.81,0,0,0-4.15-6.27,8.94,8.94,0,0,0-8.48.05c.7-2.43-2.18-4.81-5.21-5.05a13,13,0,0,0-8.28,2.7,7.15,7.15,0,0,0-2-3.51,5.1,5.1,0,0,0-4.32-1.19,6.74,6.74,0,0,0-2.49,1.3,45.33,45.33,0,0,0-6.59,5.88c-1.64-2-5.33-2.41-7.89-1.22a7.46,7.46,0,0,0-4.26,6,7.42,7.42,0,0,0-7.05-.94,5,5,0,0,0-3.38,5.14c.32,2.06,2.36,3.87,4.84,4.29.33-.63-.78-1.24-1.56-1a2.5,2.5,0,0,0-1.43,1.62,4.92,4.92,0,0,0-.23,3.61,3.47,3.47,0,0,0,3.32,2.06c-.3,1.2-.54,2.61.46,3.52,1.17,1.05,3.24.79,4.93.44.22,1.45-1.43,3.11-.28,4.23a3.48,3.48,0,0,0,2.09.67,30.9,30.9,0,0,0,7.32-.24"/></clipPath><linearGradient id="linear-gradient-9" x1="1367.66" y1="309.11" x2="1415.09" y2="309.11" xlink:href="#linear-gradient"/><clipPath id="clip-path-8"><path class="cls-9" d="M1405.05,433.51c.31-12.67-2.21-24.92-5.81-36.56s-8.29-22.81-12.74-33.85-8.6-22-11.29-33.21-3.85-22.64-2-34l-4.51-.65c-3.19,11.66-3.3,23.81-1.78,35.64s4.57,23.49,7.81,34.9,6.6,22.64,8.76,33.82,3.13,22.25,1.67,32.88Z"/></clipPath><linearGradient id="linear-gradient-10" x1="1391.37" y1="310.5" x2="1417.07" y2="310.5" xlink:href="#linear-gradient"/><clipPath id="clip-path-9"><path class="cls-10" d="M1371.26,318.85a3.5,3.5,0,0,1,1.61-1,4.64,4.64,0,0,1,1-.19,6.69,6.69,0,0,1,1.24.08,11.14,11.14,0,0,0,4.19,0,11.61,11.61,0,0,0,3.64-1.46,29.29,29.29,0,0,0,5-4.13,11.6,11.6,0,0,1,4.79-2.95,29.79,29.79,0,0,1,6.41-.5,21.68,21.68,0,0,0,3.56-.35,17.68,17.68,0,0,0,3.32-1.07,39,39,0,0,0,5.82-3,10.5,10.5,0,0,0,2.53-2,2.23,2.23,0,0,0,.24-2.86l-.37.19a1.87,1.87,0,0,1-.43,2.34,10.41,10.41,0,0,1-2.53,1.68,39.58,39.58,0,0,1-5.88,2.56,15.36,15.36,0,0,1-6.26.89,30.83,30.83,0,0,0-7.08.14,15,15,0,0,0-6.29,3.2,29.23,29.23,0,0,1-4.83,3.46,7.79,7.79,0,0,1-2.5.82,6.3,6.3,0,0,1-2.52-.19,10.83,10.83,0,0,0-2.11-.26,9.85,9.85,0,0,0-2.31.25,8.29,8.29,0,0,0-3.9,2.07Z"/></clipPath><linearGradient id="linear-gradient-11" x1="1344.49" y1="315.51" x2="1372.25" y2="315.51" xlink:href="#linear-gradient"/><clipPath id="clip-path-10"><path class="cls-11" d="M1391.37,308.9a14.86,14.86,0,0,0,3.21,1.46,1.49,1.49,0,0,1,.74.62,6.57,6.57,0,0,0,.92,1.39,3.75,3.75,0,0,0,2,1,7.77,7.77,0,0,0,2,.06c1.29-.14,2.33-.39,3.48-.62,4.42-1,8.72-2.31,13-1.82l.24-1.27a24.27,24.27,0,0,0-7.08.22c-2.29.37-4.49.9-6.67,1.32-1.07.2-2.23.42-3.2.5a2.87,2.87,0,0,1-2.21-.47,6.42,6.42,0,0,1-.61-1.08,3.55,3.55,0,0,0-1.54-1.4,17,17,0,0,1-2.72-1.24Z"/></clipPath><linearGradient id="linear-gradient-12" x1="1342.25" y1="315.51" x2="1359.31" y2="315.51" xlink:href="#linear-gradient"/><clipPath id="clip-path-11"><path class="cls-12" d="M1372.25,330.17a2.51,2.51,0,0,0-.81-1.76,4.09,4.09,0,0,0-1.47-.86,5.71,5.71,0,0,0-2.82-.19,19.2,19.2,0,0,1-2.16.49,1.76,1.76,0,0,1-1-.73,7.93,7.93,0,0,1-1.08-1.91c-.65-1.47-1.12-3.1-1.82-4.78a13.88,13.88,0,0,0-3.2-4.76c-1.35-1.34-2.21-2.37-2.49-3.94s-.31-3.31-1.2-5.1a5.72,5.72,0,0,0-2.18-2.27,26.1,26.1,0,0,0-2.74-1.32,8.35,8.35,0,0,1-2.25-1.41,6.91,6.91,0,0,1-.87-.93,5.74,5.74,0,0,1-.36-.5l-.16-.27-.07-.13c0-.05,0-.1-.27-.08l-.62.18c-.19.12-.16.17-.13.22l.07.16.15.31a6,6,0,0,0,.36.6,7.31,7.31,0,0,0,.9,1.13,9.49,9.49,0,0,0,2.44,1.79c1.83.93,3.39,1.72,3.88,3.1s.41,3,.63,4.8a7.31,7.31,0,0,0,.86,2.75,15.84,15.84,0,0,0,1.71,2.32c2.37,2.49,2.58,5.57,3.72,9.07a10.72,10.72,0,0,0,1.31,2.7,5.67,5.67,0,0,0,3.6,2.36,6.73,6.73,0,0,0,2.49-.06c.63-.12,1.08-.24,1.36-.27s.17,0,.19,0a.49.49,0,0,1-.23-.13.88.88,0,0,1-.28-.62Z"/></clipPath><linearGradient id="linear-gradient-13" x1="1209.55" y1="341.08" x2="1308.9" y2="341.08" xlink:href="#linear-gradient"/><clipPath id="clip-path-12"><path class="cls-2" d="M304.27,388.8a26.86,26.86,0,0,1-15.49-7.21c-4-3.71-6.87-8.17-9.61-12.61a70.15,70.15,0,0,0,11,5.26,18.31,18.31,0,0,0-3.69-6l11,3a62.62,62.62,0,0,1-13.37-8.62,34.6,34.6,0,0,0,19.44,3.54,43.2,43.2,0,0,1-13.16-6.52c-1.49-1.05-3-2.05-4.44-3a97.19,97.19,0,0,1-7.91-7.15,57.63,57.63,0,0,0,11.35-.54,69.72,69.72,0,0,1-9.18-2.34,29.5,29.5,0,0,1-10.87-6.78c-1.82-2.24-2.85-3.66-2.85-3.66,7.87,4,15.2,3.71,25.12,2a35.06,35.06,0,0,1-19.4-8.88,21.82,21.82,0,0,0,11.56,1,67.81,67.81,0,0,1-12.21-6.52,26.08,26.08,0,0,0,17.24,1.19c-7.89-2.51-13.63-7.64-18.31-13.54a22.38,22.38,0,0,0,9.5.43,28.47,28.47,0,0,1-15.6-9.2c-.47-.74-.93-1.49-1.39-2.23,2.23,3.35,7.56,5.07,12,3.89l-4.93-3a9.47,9.47,0,0,0,6.15,1.07,27.64,27.64,0,0,1-9.14-7.94,40.42,40.42,0,0,0,18.94.26c-13.61-2.69-25-11.82-28.57-22.88-3.56,11.06-15,20.19-28.57,22.88a40.38,40.38,0,0,0,18.93-.26,27.5,27.5,0,0,1-9.13,7.94,9.48,9.48,0,0,0,6.15-1.07l-4.93,3c4.43,1.18,9.76-.54,12-3.89-.45.74-.92,1.49-1.39,2.23a28.48,28.48,0,0,1-15.59,9.2,22.38,22.38,0,0,0,9.5-.43c-4.69,5.9-10.43,11-18.32,13.54a26.11,26.11,0,0,0,17.25-1.19,67.9,67.9,0,0,1-12.22,6.52,21.8,21.8,0,0,0,11.56-1,35,35,0,0,1-19.39,8.88c9.91,1.75,17.24,2,25.12-2,0,0-1,1.42-2.86,3.66a29.42,29.42,0,0,1-10.87,6.78,69.57,69.57,0,0,1-9.17,2.34,57.59,57.59,0,0,0,11.35.54,98.89,98.89,0,0,1-7.91,7.15c-1.48,1-3,2-4.45,3a43.15,43.15,0,0,1-13.15,6.52,34.57,34.57,0,0,0,19.43-3.54,62.8,62.8,0,0,1-13.36,8.62l11-3a18.14,18.14,0,0,0-3.69,6,70,70,0,0,0,11-5.26c-2.73,4.44-5.57,8.9-9.61,12.61a26.8,26.8,0,0,1-15.49,7.21A43.35,43.35,0,0,0,234,386a15.1,15.1,0,0,1-7.5,6.41c1.47-.41,5.29-1.09,6.76-1.5-.4,2.06.24,3.68-3.56,6.45a41.94,41.94,0,0,1,8.31-2,34.46,34.46,0,0,1-3,4.61c3.1.56,6.55-1.09,7.46-3.57l-.42,5.21c1.09-1.17,2.18-2.33,3.26-3.5a3.88,3.88,0,0,0,.52,2.43l2.08-2.91a28.25,28.25,0,0,0,3,6.23c-.13-2.86-.17-6,1.9-8.3a9.35,9.35,0,0,0,5.44,6.21l-1.08-5a14.31,14.31,0,0,0,2.86,3.59,28.08,28.08,0,0,0,.36-3.43,13.15,13.15,0,0,0,6,4.39,47.85,47.85,0,0,0,7.7,2.15,26.53,26.53,0,0,1-5.91-5.26,11,11,0,0,0,5.36,3.15,2.7,2.7,0,0,0-1.39-2.52,27.08,27.08,0,0,0,6,2.46c-1.15-.92-2.27-1.88-3.34-2.87a32.57,32.57,0,0,0,5.89,2.07c1.71.52,5.76,1.87,7.15.89a25,25,0,0,1-6-5,17.1,17.1,0,0,1,3.3,1c-.4-2.06-.81-4.13-1.21-6.19l4.42,1.24a15.06,15.06,0,0,1-7.5-6.41A43.31,43.31,0,0,0,304.27,388.8Z"/></clipPath><linearGradient id="linear-gradient-14" x1="1389.81" y1="298.14" x2="1433.61" y2="298.14" xlink:href="#linear-gradient"/><clipPath id="clip-path-13"><path class="cls-13" d="M1359.31,318.64l-2.73-.69c-.94-.24-1.75-.29-2.2-.49-.9-.24-1.31-1.66-2.29-3.14a4.21,4.21,0,0,0-2.62-1.62c-1-.2-1.72-.25-2.49-.49a9.06,9.06,0,0,1-4-2.29l-.76.44a9.87,9.87,0,0,0,4.13,3,26.36,26.36,0,0,0,2.53.76,2,2,0,0,1,1.31,1c.29.53.47,1.2.79,2a4.28,4.28,0,0,0,2,2.27,19,19,0,0,0,2.73.94l2.2.79Z"/></clipPath><linearGradient id="linear-gradient-15" x1="1323.36" y1="296.94" x2="1397.59" y2="296.94" xlink:href="#linear-gradient"/><clipPath id="clip-path-14"><path class="cls-15" d="M1433.26,301.36a3.4,3.4,0,0,0-2.17-2.06c1.64-2.88-.21-6.37-2.95-8.63a5.12,5.12,0,0,0-2.14-1.16,2.3,2.3,0,0,0-2.29.65,14.76,14.76,0,0,0-3.43-5.44,5,5,0,0,0-2.07-1.39c-2.08-.61-4.14.86-5.64,2.19l-3.65,3.27a27.07,27.07,0,0,0-3.25-5.71,1.88,1.88,0,0,0-1.06-.83,2.13,2.13,0,0,0-1.19.19,6.32,6.32,0,0,0-4.21,5.16c.07-1-1.2-1.68-2.36-1.65a6.63,6.63,0,0,0-3.17,1.13c-1.51.87-3,1.88-3.66,3.31a2.72,2.72,0,0,0,1.18,3.41,1.45,1.45,0,0,0-.62.07,2.73,2.73,0,0,0,2.13,2.75,21.79,21.79,0,0,0,.93,3.34,3.94,3.94,0,0,0,2.24,2.66,4.41,4.41,0,0,0,4.19-1.23c1-1,1.72-2.21,2.84-3.13a9.83,9.83,0,0,0-.2,6.49,11.43,11.43,0,0,0,3.7-2.47,6.93,6.93,0,0,0,1,3.1,3.29,3.29,0,0,0,2.17,1.65,1.9,1.9,0,0,0,1.83-.73,20.27,20.27,0,0,0,0,5.22,2.94,2.94,0,0,0,.79,1.9,3.33,3.33,0,0,0,3,.48,7.08,7.08,0,0,0,2.62-1.53,23.61,23.61,0,0,0,3.62-3.81c1,.94,1.15,2.43,2.49,3,1.19.49,2.6-.07,3.69-.69a14.12,14.12,0,0,0,4.77-4A5.8,5.8,0,0,0,1433.26,301.36Z"/></clipPath><linearGradient id="linear-gradient-16" x1="1342.65" y1="278.77" x2="1417.87" y2="278.77" xlink:href="#linear-gradient"/><clipPath id="clip-path-15"><path class="cls-16" d="M1396.6,285.07a17.78,17.78,0,0,0-2.5-3.17,4,4,0,0,0-2.27-1.32c-.94-.11-2,.59-1.76,1.33a54.11,54.11,0,0,0-5.45-4.45,5.23,5.23,0,0,0-1.58-.85,3.87,3.87,0,0,0-3.81,1.33,7.31,7.31,0,0,0-1.29,3.45c-1.85-3.05-6.78-4.57-10.65-3.28s-6.08,5.19-4.78,8.44c-2.1-2.52-6-3.63-9.67-4.06a6,6,0,0,0-2.84.16,3.17,3.17,0,0,0-1.63,4c.43,1.48,1.4,2.84,1.6,4.35-1-1.37-2.09-2.85-3.93-3.38a8.74,8.74,0,0,0-5.49.75,30.59,30.59,0,0,0-7.59,4.42c-1.23,1-2.39,2.39-1.88,3.67a1.22,1.22,0,0,0-.91.11c-2.81,1.91-5.37,4.25-6.4,7.11a6.69,6.69,0,0,0,2.8,8.09,3.11,3.11,0,0,0,1.76.52c.63,0,1.25-.49,1.19-1a20.43,20.43,0,0,0,3.69,4.63,4.36,4.36,0,0,0,3,1.47,2.91,2.91,0,0,0,2.52-1.81,6.05,6.05,0,0,0,.15-2.9c.84,1.49,2.78,2.36,4.69,2.89a7.42,7.42,0,0,0,4.06.23c1.3-.39,2.27-1.66,1.69-2.68.67,1.14,2.35,1.61,3.88,1.84a6.1,6.1,0,0,0,2.69-.05,3,3,0,0,0,2.09-3,7.87,7.87,0,0,0-1.29-3.48,12.57,12.57,0,0,0,4.21-.36c1.32-.43,2.46-1.45,2.39-2.61a29.16,29.16,0,0,0,5.75,3.89,2.4,2.4,0,0,0,1.37.37,1.62,1.62,0,0,0,1.25-1.34,4.58,4.58,0,0,0-.32-3.06c1.07.56,1.21,1.81,2,2.58a4,4,0,0,0,3.64.61,6.89,6.89,0,0,0,3-2c2.73-2.89,3.75-6.61,4.43-10.23l.27,1.37a3.13,3.13,0,0,0,2.46,1.46,9.91,9.91,0,0,0,3.16-.23,5.76,5.76,0,0,0,2.48-.89,2.6,2.6,0,0,0,.47-3.41,9.49,9.49,0,0,0-2.91-2.75c2.65-.16,5.83-.6,6.85-2.61C1398,287.89,1397.38,286.36,1396.6,285.07Z"/></clipPath><linearGradient id="linear-gradient-17" x1="858.5" y1="267.73" x2="887.83" y2="267.73" xlink:href="#linear-gradient"/><clipPath id="clip-path-16"><path class="cls-17" d="M1417.82,283.55a2,2,0,0,0-.7-1.77,12.08,12.08,0,0,0-7.8-3.55,1.92,1.92,0,0,0,1.76-2.6,5.76,5.76,0,0,0-3-2.37,38.22,38.22,0,0,0-4.55-1.75c-1.58-.49-3.55-.85-4.87,0-.05-1.8-1.66-3.52-3.85-4.09a6.84,6.84,0,0,0-6.21,1.44c.43-.37-.16-.92-.71-1.18a29.75,29.75,0,0,0-10.12-2.67,9,9,0,0,0-4.08.36c-1.24.49-2.16,1.63-1.76,2.67a8.79,8.79,0,0,0-2-2.28,4.26,4.26,0,0,0-3.28-.73,4.84,4.84,0,0,0-2.09,1.24,22.1,22.1,0,0,0-5,6.37c-.87-1-2.21-2.05-3.61-1.63a2.62,2.62,0,0,0-1.09.66,5.15,5.15,0,0,0-1.64,2.85,2.61,2.61,0,0,0-2.57,1.06,4.53,4.53,0,0,0-.59,2.4c-.07,1.48-.15,3-.22,4.44-1.24-1.25-3.89-1.14-5.37-.07a4.57,4.57,0,0,0-1.75,4.35,22.9,22.9,0,0,0,1.39,4.6l60.15,1.12c4.16-.36,8.76,1,12.34-.69a2,2,0,0,0,.93-.75,1.54,1.54,0,0,0-.27-1.45,16.51,16.51,0,0,0-3.18-3.86C1415.29,284.88,1417.45,284.77,1417.82,283.55Z"/></clipPath><linearGradient id="linear-gradient-18" x1="850.99" y1="226.32" x2="886.53" y2="226.32" xlink:href="#linear-gradient"/><clipPath id="clip-path-17"><path class="cls-18" d="M858.52,319.53c-.24-9.5,1.65-18.68,4.35-27.4s6.21-17.09,9.54-25.36a179.77,179.77,0,0,0,8.46-24.88c2-8.38,2.89-17,1.53-25.46l3.39-.49c2.39,8.74,2.47,17.84,1.33,26.7a178.91,178.91,0,0,1-5.85,26.16c-2.43,8.54-4.94,17-6.57,25.33s-2.34,16.68-1.25,24.64Z"/></clipPath><linearGradient id="linear-gradient-19" x1="849.5" y1="227.35" x2="868.76" y2="227.35" xlink:href="#linear-gradient"/><clipPath id="clip-path-18"><path class="cls-19" d="M883.83,233.61a2.68,2.68,0,0,0-1.21-.76,2.9,2.9,0,0,0-.77-.14,4.22,4.22,0,0,0-.94.06,8.25,8.25,0,0,1-3.13,0,8.76,8.76,0,0,1-2.73-1.09,22.6,22.6,0,0,1-3.76-3.1,8.66,8.66,0,0,0-3.6-2.21,22.39,22.39,0,0,0-4.8-.37,16.21,16.21,0,0,1-2.66-.27,13.43,13.43,0,0,1-2.49-.79,30,30,0,0,1-4.36-2.27,8.24,8.24,0,0,1-1.9-1.48,1.68,1.68,0,0,1-.17-2.15l.27.15a1.4,1.4,0,0,0,.33,1.75,7.5,7.5,0,0,0,1.89,1.26,30.34,30.34,0,0,0,4.4,1.92,11.59,11.59,0,0,0,4.69.66,23.29,23.29,0,0,1,5.31.11,11.16,11.16,0,0,1,4.72,2.4,21.4,21.4,0,0,0,3.62,2.59,6.08,6.08,0,0,0,1.86.62,5,5,0,0,0,1.9-.15,7.5,7.5,0,0,1,1.58-.19,6.53,6.53,0,0,1,1.72.19,6.19,6.19,0,0,1,2.93,1.54Z"/></clipPath><linearGradient id="linear-gradient-20" x1="883.09" y1="231.11" x2="903.89" y2="231.11" xlink:href="#linear-gradient"/><clipPath id="clip-path-19"><path class="cls-20" d="M868.76,226.15a10.7,10.7,0,0,1-2.4,1.1,1.19,1.19,0,0,0-.56.46,5.17,5.17,0,0,1-.68,1,2.83,2.83,0,0,1-1.54.73,5.22,5.22,0,0,1-1.52,0,23.92,23.92,0,0,1-2.61-.46c-3.31-.73-6.53-1.73-9.76-1.36l-.19-1a18.46,18.46,0,0,1,5.31.16c1.72.28,3.37.67,5,1a22.3,22.3,0,0,0,2.4.37,2.17,2.17,0,0,0,1.65-.34,5.23,5.23,0,0,0,.46-.82,2.7,2.7,0,0,1,1.15-1,12.54,12.54,0,0,0,2-.94Z"/></clipPath><linearGradient id="linear-gradient-21" x1="892.78" y1="231.11" x2="905.57" y2="231.11" xlink:href="#linear-gradient"/><clipPath id="clip-path-20"><path class="cls-21" d="M883.09,242.1a1.82,1.82,0,0,1,.61-1.32,3,3,0,0,1,1.1-.65,4.26,4.26,0,0,1,2.11-.14,12.2,12.2,0,0,0,1.62.36,1.26,1.26,0,0,0,.78-.54,6,6,0,0,0,.81-1.43c.48-1.1.84-2.33,1.36-3.58a10.41,10.41,0,0,1,2.4-3.57,5.37,5.37,0,0,0,1.86-2.95,15.13,15.13,0,0,1,.9-3.83,4.29,4.29,0,0,1,1.64-1.69,20,20,0,0,1,2.05-1,6.55,6.55,0,0,0,1.69-1.06,6,6,0,0,0,.65-.69,4.44,4.44,0,0,0,.27-.38l.12-.2.05-.1s0-.07.2-.06l.47.14c.14.08.12.12.1.16l-.06.12-.11.23a3.35,3.35,0,0,1-.27.45,6,6,0,0,1-.67.85,7.25,7.25,0,0,1-1.84,1.34c-1.36.7-2.53,1.29-2.9,2.32a15.33,15.33,0,0,0-.47,3.6,5.54,5.54,0,0,1-.65,2.06,11.25,11.25,0,0,1-1.28,1.73c-1.78,1.88-1.93,4.18-2.79,6.8a7.8,7.8,0,0,1-1,2,4.22,4.22,0,0,1-2.69,1.76,5,5,0,0,1-1.87,0c-.47-.09-.81-.18-1-.2s-.13,0-.14,0a.43.43,0,0,0,.17-.1.68.68,0,0,0,.21-.46Z"/></clipPath><linearGradient id="linear-gradient-22" x1="837.11" y1="218.09" x2="869.93" y2="218.09" xlink:href="#linear-gradient"/><clipPath id="clip-path-21"><path class="cls-22" d="M892.78,233.45l2.05-.51c.7-.18,1.31-.22,1.65-.37.67-.18,1-1.24,1.72-2.35a3.17,3.17,0,0,1,2-1.22,16.87,16.87,0,0,0,1.87-.36,6.8,6.8,0,0,0,3-1.72l.57.33a7.38,7.38,0,0,1-3.1,2.25c-.63.26-1.38.41-1.89.57a1.48,1.48,0,0,0-1,.77c-.22.4-.36.9-.59,1.46a3.25,3.25,0,0,1-1.48,1.7,14.52,14.52,0,0,1-2,.71l-1.65.59Z"/></clipPath><linearGradient id="linear-gradient-23" x1="864.1" y1="217.2" x2="919.72" y2="217.2" xlink:href="#linear-gradient"/><clipPath id="clip-path-22"><path class="cls-23" d="M837.37,220.51A2.55,2.55,0,0,1,839,219c-1.23-2.16.16-4.78,2.21-6.47a3.77,3.77,0,0,1,1.61-.87,1.69,1.69,0,0,1,1.71.49A11,11,0,0,1,847.1,208a3.67,3.67,0,0,1,1.55-1c1.56-.46,3.11.64,4.22,1.64.92.81,1.83,1.63,2.74,2.45a20.08,20.08,0,0,1,2.44-4.28,1.41,1.41,0,0,1,.79-.62,1.65,1.65,0,0,1,.9.14,4.76,4.76,0,0,1,3.15,3.87c-.06-.71.89-1.26,1.77-1.24a5,5,0,0,1,2.37.85,6.11,6.11,0,0,1,2.74,2.48,2,2,0,0,1-.88,2.55,1.17,1.17,0,0,1,.46,0,2.05,2.05,0,0,1-1.59,2.07,17.23,17.23,0,0,1-.7,2.5,3,3,0,0,1-1.68,2,3.31,3.31,0,0,1-3.14-.92c-.78-.74-1.28-1.66-2.12-2.34a7.43,7.43,0,0,1,.14,4.86,8.79,8.79,0,0,1-2.77-1.85,5.23,5.23,0,0,1-.77,2.32,2.5,2.5,0,0,1-1.63,1.24,1.43,1.43,0,0,1-1.38-.55,14.63,14.63,0,0,1,0,3.91,2.23,2.23,0,0,1-.59,1.42,2.51,2.51,0,0,1-2.26.37,5.49,5.49,0,0,1-2-1.15,17.37,17.37,0,0,1-2.71-2.86c-.72.7-.86,1.82-1.87,2.23a3.39,3.39,0,0,1-2.77-.52,10.61,10.61,0,0,1-3.57-3A4.35,4.35,0,0,1,837.37,220.51Z"/></clipPath><linearGradient id="linear-gradient-24" x1="537.66" y1="284.7" x2="628.29" y2="284.7" xlink:href="#linear-gradient"/><clipPath id="clip-path-23"><path class="cls-14" d="M1308.9,395.16a28.47,28.47,0,0,1-16.42-7.64c-4.27-3.94-7.28-8.66-10.18-13.36a73.09,73.09,0,0,0,11.62,5.56,19.23,19.23,0,0,0-3.91-6.37l11.64,3.23a66.51,66.51,0,0,1-14.17-9.13,36.77,36.77,0,0,0,20.6,3.75,45.8,45.8,0,0,1-13.94-6.91c-1.58-1.11-3.15-2.17-4.71-3.22a105.68,105.68,0,0,1-8.39-7.58,60.66,60.66,0,0,0,12-.58,71.33,71.33,0,0,1-9.72-2.48,31.14,31.14,0,0,1-11.52-7.17c-1.93-2.38-3-3.89-3-3.89,8.35,4.21,16.12,3.94,26.63,2.09a37.22,37.22,0,0,1-20.56-9.42,23.06,23.06,0,0,0,12.25,1.06,73,73,0,0,1-12.94-6.9,27.78,27.78,0,0,0,18.27,1.26c-8.36-2.67-14.44-8.1-19.41-14.36a23.75,23.75,0,0,0,10.07.46,30.07,30.07,0,0,1-16.52-9.75c-.5-.79-1-1.58-1.48-2.37,2.37,3.55,8,5.38,12.71,4.13l-5.22-3.22a10.05,10.05,0,0,0,6.52,1.13,29.24,29.24,0,0,1-9.69-8.42,42.82,42.82,0,0,0,20.07.28c-14.42-2.85-26.5-12.52-30.28-24.25-3.77,11.73-15.85,21.4-30.27,24.25a42.82,42.82,0,0,0,20.07-.28,29.24,29.24,0,0,1-9.69,8.42,10.05,10.05,0,0,0,6.52-1.13l-5.22,3.22c4.7,1.25,10.34-.58,12.71-4.13-.49.79-1,1.58-1.48,2.37a30.07,30.07,0,0,1-16.52,9.75,23.76,23.76,0,0,0,10.07-.46c-5,6.26-11.05,11.69-19.41,14.36a27.78,27.78,0,0,0,18.27-1.26,73,73,0,0,1-12.94,6.9,23.06,23.06,0,0,0,12.25-1.06,37.22,37.22,0,0,1-20.56,9.42c10.51,1.85,18.28,2.12,26.63-2.09,0,0-1.1,1.51-3,3.89a31.14,31.14,0,0,1-11.52,7.17,71.33,71.33,0,0,1-9.72,2.48,60.6,60.6,0,0,0,12,.58,103.77,103.77,0,0,1-8.38,7.58c-1.56,1.05-3.13,2.11-4.71,3.22a45.8,45.8,0,0,1-13.94,6.91,36.77,36.77,0,0,0,20.6-3.75,66.51,66.51,0,0,1-14.17,9.13l11.64-3.23a19.23,19.23,0,0,0-3.91,6.37,73.09,73.09,0,0,0,11.62-5.56c-2.9,4.7-5.91,9.42-10.18,13.36a28.47,28.47,0,0,1-16.42,7.64,45.91,45.91,0,0,0,24.85-3,16,16,0,0,1-8,6.79c1.56-.44,5.6-1.16,7.16-1.59-.42,2.18.26,3.9-3.77,6.84,1.4-.7,4.79-1.43,8.81-2.14a36.56,36.56,0,0,1-3.16,4.88c3.28.59,6.94-1.16,7.91-3.78l-.45,5.52,3.46-3.71a4.14,4.14,0,0,0,.54,2.58l2.21-3.08a30.69,30.69,0,0,0,3.15,6.6c-.13-3-.18-6.34,2-8.8a9.91,9.91,0,0,0,5.76,6.58L1259,403.5a15.6,15.6,0,0,0,3,3.81,31.87,31.87,0,0,0,.39-3.64,13.85,13.85,0,0,0,6.33,4.64,49.22,49.22,0,0,0,8.16,2.29,27.82,27.82,0,0,1-6.26-5.58,11.74,11.74,0,0,0,5.68,3.35,2.87,2.87,0,0,0-1.48-2.68,28.11,28.11,0,0,0,6.39,2.61q-1.85-1.47-3.54-3.05a33.64,33.64,0,0,0,6.24,2.2c1.81.55,6.1,2,7.57.95a27.19,27.19,0,0,1-6.36-5.29,17.32,17.32,0,0,1,3.51,1.08l-1.29-6.56,4.68,1.31a16,16,0,0,1-8-6.79A45.91,45.91,0,0,0,1308.9,395.16Z"/></clipPath><linearGradient id="linear-gradient-25" x1="848.91" y1="203.58" x2="905.27" y2="203.58" xlink:href="#linear-gradient"/><clipPath id="clip-path-24"><path class="cls-24" d="M864.85,208.3a12.66,12.66,0,0,1,1.87-2.37,2.89,2.89,0,0,1,1.7-1c.7-.08,1.52.44,1.32,1a40.32,40.32,0,0,1,4.08-3.34A4.08,4.08,0,0,1,875,202a2.91,2.91,0,0,1,2.86,1,5.39,5.39,0,0,1,1,2.59c1.39-2.29,5.09-3.43,8-2.47s4.56,3.9,3.59,6.33c1.57-1.89,4.48-2.72,7.25-3a4.58,4.58,0,0,1,2.12.12,2.38,2.38,0,0,1,1.22,3,24.2,24.2,0,0,0-1.2,3.26,5.72,5.72,0,0,1,2.94-2.53,6.53,6.53,0,0,1,4.13.56,22.81,22.81,0,0,1,5.68,3.31c.92.73,1.79,1.79,1.41,2.75a.91.91,0,0,1,.68.08c2.11,1.43,4,3.18,4.79,5.33a5,5,0,0,1-2.09,6.06,2.37,2.37,0,0,1-1.32.39c-.47,0-.94-.37-.89-.75a15.66,15.66,0,0,1-2.77,3.47,3.25,3.25,0,0,1-2.28,1.1,2.15,2.15,0,0,1-1.89-1.36,4.42,4.42,0,0,1-.11-2.17,5.73,5.73,0,0,1-3.52,2.17,5.64,5.64,0,0,1-3,.17c-1-.29-1.71-1.24-1.27-2-.5.86-1.76,1.21-2.91,1.38a4.54,4.54,0,0,1-2,0,2.29,2.29,0,0,1-1.57-2.23,6,6,0,0,1,1-2.61,9.46,9.46,0,0,1-3.15-.27c-1-.33-1.85-1.09-1.79-2a22.2,22.2,0,0,1-4.31,2.92,1.81,1.81,0,0,1-1,.27,1.21,1.21,0,0,1-.94-1,3.43,3.43,0,0,1,.24-2.29c-.8.41-.9,1.35-1.53,1.93a3,3,0,0,1-2.72.46,5.18,5.18,0,0,1-2.27-1.5c-2-2.17-2.8-5-3.31-7.67l-.21,1a2.32,2.32,0,0,1-1.84,1.09,7.29,7.29,0,0,1-2.37-.17,4.2,4.2,0,0,1-1.85-.67,1.94,1.94,0,0,1-.36-2.55,7.34,7.34,0,0,1,2.18-2.07c-2-.11-4.37-.44-5.13-2A3.25,3.25,0,0,1,864.85,208.3Z"/></clipPath><linearGradient id="linear-gradient-26" x1="0" y1="527.34" x2="1920.86" y2="527.34" xlink:href="#linear-gradient"/><clipPath id="clip-path-25"><path class="cls-26" d="M848.94,207.16a1.48,1.48,0,0,1,.53-1.33,9.05,9.05,0,0,1,5.84-2.65,1.45,1.45,0,0,1-1.32-2,4.37,4.37,0,0,1,2.25-1.78,29,29,0,0,1,3.41-1.31c1.19-.37,2.66-.64,3.65,0a3.61,3.61,0,0,1,2.88-3.06,5.12,5.12,0,0,1,4.66,1.08c-.33-.28.12-.69.53-.89a22.29,22.29,0,0,1,7.58-2,6.81,6.81,0,0,1,3.06.27c.93.37,1.62,1.22,1.32,2a6.31,6.31,0,0,1,1.53-1.7,3.18,3.18,0,0,1,2.46-.55,3.68,3.68,0,0,1,1.56.93,16.54,16.54,0,0,1,3.74,4.77c.65-.72,1.65-1.54,2.71-1.23a2.09,2.09,0,0,1,.81.5,3.82,3.82,0,0,1,1.23,2.14,2,2,0,0,1,1.93.79,3.39,3.39,0,0,1,.44,1.8c0,1.11.11,2.22.17,3.32a3.34,3.34,0,0,1,5.33,3.22,17.41,17.41,0,0,1-1,3.44l-45.07.84c-3.12-.27-6.57.75-9.25-.52a1.47,1.47,0,0,1-.7-.56,1.17,1.17,0,0,1,.21-1.09,12.42,12.42,0,0,1,2.38-2.89C850.84,208.16,849.22,208.07,848.94,207.16Z"/></clipPath><linearGradient id="linear-gradient-27" x1="1631.74" y1="282.61" x2="1726" y2="282.61" xlink:href="#linear-gradient"/><clipPath id="clip-path-26"><path class="cls-25" d="M616.92,344.44l11.37,2.65a155.89,155.89,0,0,1-26.54-23.79,40.17,40.17,0,0,0,3.94,1.26,70,70,0,0,0,8.33,1.75c-3.87-.83-7-3.12-9.69-5.54-.18-.15-.35-.31-.51-.46l2,.88a16.66,16.66,0,0,1-2.3-3.93l13,3.84a78.82,78.82,0,0,1-14-12.73l2,.28,9.13,1.23A45.28,45.28,0,0,1,599,303.72a53.51,53.51,0,0,1-5.39-9.57l6.35,3a4.53,4.53,0,0,0,.05-2.91,37,37,0,0,0,9.93,2.47,19.91,19.91,0,0,1-6-2.54l-1.54-.87a88.17,88.17,0,0,0,15.77.68c-8.92-4.78-16.17-10.67-21.22-17.16,3.94,1.07,8.12,1.91,12.21,1.33a25.57,25.57,0,0,1-14.16-8l1.68.43c.07-.82.13-1.64.2-2.46l.58.33a18.88,18.88,0,0,0,2.32,1.21,18.08,18.08,0,0,0,3,.9,59.29,59.29,0,0,0,8.53,1.28,31.52,31.52,0,0,1-7.68-3.4,13.39,13.39,0,0,1-1.52-1.14,31.35,31.35,0,0,0,13.6.11c-11-4-19.6-10.29-24.18-17.49l5.79,1.4c-.35-1.26-.69-2.52-1-3.78a29.71,29.71,0,0,0,8,2.35,12.38,12.38,0,0,1-6.22-5.05c-.29-.4-.56-.8-.82-1.21l9.3,1.49c-11.86-6.59-23.6-14.75-23.48-24.43h0c.13,9.68-11.61,17.84-23.48,24.43l10-1.59-1.67,3.27,2.35-.74-1.44,5.26,2.79-.67a18.84,18.84,0,0,1-1.46,1.51,16.13,16.13,0,0,1-9.26,4.17c1.36,1,3.32,1.15,5.14,1.24.57,0,1.16.06,1.73,0a57.51,57.51,0,0,1-17.34,9.79,30.75,30.75,0,0,0,16.27-.89l-2.49,3.76,5.06-2.64.24,2.94,2.61-.67a35.74,35.74,0,0,1-6.29,5,37.32,37.32,0,0,1-14.48,5.36,27,27,0,0,0,12.91-.57,24,24,0,0,0,3.89-1.53A67.89,67.89,0,0,1,547.88,294,87.11,87.11,0,0,0,561,293.6a44.2,44.2,0,0,1-9.54,4.35,41.46,41.46,0,0,0,6.6-.22,12.48,12.48,0,0,0,5.91-2.25,14.92,14.92,0,0,0,1.76-1.7l.85-.93h0a4.76,4.76,0,0,0-.61,4.3l6.36-3-.09.2c-.57.88-1.16,1.76-1.78,2.63a34.48,34.48,0,0,1-7.22,7.74A21.82,21.82,0,0,1,552.77,309a60.65,60.65,0,0,0,9.74-.77q.59-.11,1.17-.24a79.43,79.43,0,0,1-14.29,13.08l13.05-3.84a16.66,16.66,0,0,1-2.3,3.93l2.86-1.27a1.3,1.3,0,0,1-.45,1.72l4.65-1.9c-1.25,1.54-2.56,3.07-3.91,4.58-.78.43-1.59.83-2.41,1.22q-4.82,2.29-9.92,4.14a23.3,23.3,0,0,1-8,1.75,73.92,73.92,0,0,0,10.52,1c.63,0,1.25,0,1.88,0a165.83,165.83,0,0,1-17.73,14.62L549,344.44a6.32,6.32,0,0,1-.1,4.31l7.78-3.89a6.18,6.18,0,0,0,.73,3.24,38.67,38.67,0,0,1,8.32-2.94c7.17-1.25,11.73,1.11,17.22-4,5.49,5.1,10.06,2.74,17.23,4a38.67,38.67,0,0,1,8.32,2.94,6.17,6.17,0,0,0,.72-3.24l7.79,3.89A6.32,6.32,0,0,1,616.92,344.44Z"/></clipPath><linearGradient id="linear-gradient-28" x1="971.34" y1="291.14" x2="1065.6" y2="291.14" xlink:href="#linear-gradient"/><clipPath id="clip-path-27"><path class="cls-28" d="M1714.18,344.75l11.82,2.74a161.93,161.93,0,0,1-27.6-24.73c1.33.5,2.71.93,4.1,1.31a75.6,75.6,0,0,0,8.66,1.82c-4-.87-7.28-3.25-10.08-5.77-.18-.15-.36-.32-.53-.48l2.07.92a17.71,17.71,0,0,1-2.4-4.09l13.58,4a82.75,82.75,0,0,1-14.55-13.24l2.07.29,9.5,1.28a46.92,46.92,0,0,1-15.33-6.42,55.25,55.25,0,0,1-5.61-9.95l6.61,3.11a4.76,4.76,0,0,0,0-3,38.3,38.3,0,0,0,10.32,2.58,20.59,20.59,0,0,1-6.28-2.65c-.54-.29-1.07-.6-1.61-.9a90.56,90.56,0,0,0,16.4.7c-9.28-5-16.81-11.09-22.07-17.84,4.1,1.11,8.45,2,12.7,1.38a26.61,26.61,0,0,1-14.73-8.34l1.75.45.21-2.56.6.35a19.72,19.72,0,0,0,2.42,1.25,18.32,18.32,0,0,0,3.16.94,61,61,0,0,0,8.87,1.33,32.75,32.75,0,0,1-8-3.54,13.32,13.32,0,0,1-1.58-1.19,32.63,32.63,0,0,0,14.15.12c-11.41-4.2-20.4-10.7-25.15-18.19l6,1.45-1.07-3.93a30.8,30.8,0,0,0,8.29,2.45,12.92,12.92,0,0,1-6.48-5.26c-.29-.41-.57-.83-.85-1.25l9.68,1.55c-12.34-6.85-24.55-15.35-24.42-25.42h0c.13,10.07-12.08,18.57-24.42,25.42l10.35-1.66c-.58,1.14-1.16,2.27-1.73,3.41l2.44-.78-1.5,5.47,2.91-.7a19,19,0,0,1-1.53,1.58,16.77,16.77,0,0,1-9.63,4.34c1.42,1,3.46,1.19,5.35,1.29.6,0,1.2.06,1.8,0a59.81,59.81,0,0,1-18,10.18,32,32,0,0,0,16.92-.93l-2.59,3.92q2.63-1.38,5.26-2.75c.08,1,.16,2,.25,3.06l2.72-.69a38.24,38.24,0,0,1-6.54,5.22,39,39,0,0,1-15.07,5.57,28.24,28.24,0,0,0,13.43-.59,25.09,25.09,0,0,0,4-1.6,70.63,70.63,0,0,1-20.94,16.44,90.06,90.06,0,0,0,13.65-.38,45.77,45.77,0,0,1-9.91,4.53,42.42,42.42,0,0,0,6.86-.24,13,13,0,0,0,6.15-2.33,15.32,15.32,0,0,0,1.82-1.78l.89-1h.05a5,5,0,0,0-.63,4.47l6.61-3.11-.09.21c-.6.92-1.21,1.83-1.85,2.73a35.77,35.77,0,0,1-7.52,8.06,22.52,22.52,0,0,1-10.94,4.48,64.35,64.35,0,0,0,10.12-.8c.41-.07.81-.16,1.22-.25a82.31,82.31,0,0,1-14.86,13.61l13.57-4a17.31,17.31,0,0,1-2.39,4.09l3-1.32a1.35,1.35,0,0,1-.46,1.79l4.83-2c-1.3,1.6-2.66,3.19-4.06,4.76-.82.45-1.66.87-2.51,1.27q-5,2.39-10.31,4.31a24.47,24.47,0,0,1-8.3,1.82,78.38,78.38,0,0,0,10.94,1.06c.66,0,1.31,0,2,0a172.7,172.7,0,0,1-18.44,15.2l11.82-2.74a6.54,6.54,0,0,1-.11,4.47l8.1-4a6.28,6.28,0,0,0,.75,3.37,40.17,40.17,0,0,1,8.66-3.06c7.45-1.3,12.2,1.16,17.91-4.15,5.71,5.31,10.46,2.85,17.91,4.15a40.08,40.08,0,0,1,8.65,3.06,6.29,6.29,0,0,0,.76-3.37l8.1,4A6.54,6.54,0,0,1,1714.18,344.75Z"/></clipPath><linearGradient id="linear-gradient-29" x1="304.27" y1="349.99" x2="393.22" y2="349.99" xlink:href="#linear-gradient"/><clipPath id="clip-path-28"><path class="cls-29" d="M1053.78,353.28,1065.6,356a161.93,161.93,0,0,1-27.6-24.73c1.33.5,2.71.93,4.1,1.31a75.6,75.6,0,0,0,8.66,1.82c-4-.87-7.28-3.25-10.08-5.76l-.53-.49,2.07.92a17.5,17.5,0,0,1-2.4-4.09l13.58,4a82.37,82.37,0,0,1-14.55-13.24l2.07.29,9.5,1.28a46.92,46.92,0,0,1-15.33-6.42,55.25,55.25,0,0,1-5.61-10l6.61,3.11a4.73,4.73,0,0,0,.05-3,38.66,38.66,0,0,0,10.32,2.57,20.82,20.82,0,0,1-6.28-2.64l-1.61-.91a90.56,90.56,0,0,0,16.4.7c-9.28-5-16.81-11.09-22.07-17.84,4.1,1.11,8.45,2,12.7,1.38a26.61,26.61,0,0,1-14.73-8.34l1.75.45.21-2.56.6.35a19.72,19.72,0,0,0,2.42,1.25,18.32,18.32,0,0,0,3.16.94,61,61,0,0,0,8.87,1.33,32.75,32.75,0,0,1-8-3.54,13.32,13.32,0,0,1-1.58-1.19,32.48,32.48,0,0,0,14.15.12c-11.41-4.2-20.4-10.7-25.15-18.19l6,1.45c-.35-1.31-.71-2.62-1.07-3.93a30.8,30.8,0,0,0,8.29,2.45c-2.91-.89-4.91-3.07-6.48-5.26-.29-.41-.57-.83-.85-1.25l9.68,1.55c-12.34-6.85-24.55-15.35-24.42-25.41h0c.13,10.06-12.08,18.56-24.42,25.41l10.35-1.66c-.58,1.14-1.16,2.27-1.73,3.41l2.44-.77-1.5,5.46,2.91-.7a19,19,0,0,1-1.53,1.58,16.77,16.77,0,0,1-9.63,4.34c1.42,1,3.46,1.2,5.35,1.29.6,0,1.2.06,1.8.05a59.81,59.81,0,0,1-18,10.18,32,32,0,0,0,16.92-.93l-2.59,3.92q2.63-1.38,5.26-2.75l.24,3.06,2.73-.69a38.24,38.24,0,0,1-6.54,5.22,39,39,0,0,1-15.07,5.57,28.24,28.24,0,0,0,13.43-.59,25.09,25.09,0,0,0,4-1.6A70.63,70.63,0,0,1,982,300.77a91.38,91.38,0,0,0,13.65-.37,46.22,46.22,0,0,1-9.91,4.52,43.59,43.59,0,0,0,6.86-.23,13.09,13.09,0,0,0,6.15-2.34,16.05,16.05,0,0,0,1.82-1.77l.89-1h.05a5,5,0,0,0-.63,4.47l6.61-3.11-.09.21c-.6.92-1.21,1.83-1.85,2.74a35.94,35.94,0,0,1-7.52,8,22.52,22.52,0,0,1-10.94,4.48,64.34,64.34,0,0,0,10.12-.79l1.22-.26A82.31,82.31,0,0,1,983.54,329l13.57-4a17.11,17.11,0,0,1-2.39,4.09l3-1.32a1.35,1.35,0,0,1-.46,1.79l4.83-2c-1.3,1.6-2.66,3.19-4.06,4.76-.82.45-1.66.87-2.51,1.27q-5,2.38-10.31,4.31a24.23,24.23,0,0,1-8.3,1.82,76.9,76.9,0,0,0,10.94,1.06c.65,0,1.31,0,2,0A171.51,171.51,0,0,1,971.34,356l11.82-2.74a6.54,6.54,0,0,1-.11,4.47l8.1-4a6.28,6.28,0,0,0,.75,3.37,39.63,39.63,0,0,1,8.66-3.05c7.45-1.31,12.2,1.15,17.91-4.16,5.71,5.31,10.46,2.85,17.91,4.16a39.54,39.54,0,0,1,8.65,3.05,6.29,6.29,0,0,0,.76-3.37l8.1,4A6.54,6.54,0,0,1,1053.78,353.28Z"/></clipPath><linearGradient id="linear-gradient-30" x1="460.04" y1="345.3" x2="480.69" y2="345.3" xlink:href="#linear-gradient"/><clipPath id="clip-path-29"><path class="cls-30" d="M382.07,408.63l11.15,2.59a153.16,153.16,0,0,1-26-23.34c1.25.48,2.55.88,3.86,1.24a69.66,69.66,0,0,0,8.17,1.71c-3.79-.81-6.86-3.07-9.51-5.43l-.5-.46,2,.87a16.14,16.14,0,0,1-2.26-3.87l12.8,3.78A78.46,78.46,0,0,1,368,373.23l1.95.27,9,1.21a44.09,44.09,0,0,1-14.47-6.06,52.12,52.12,0,0,1-5.3-9.39l6.24,2.94a4.52,4.52,0,0,0,.05-2.86,36.43,36.43,0,0,0,9.74,2.43,19.36,19.36,0,0,1-5.93-2.5l-1.51-.85a85.75,85.75,0,0,0,15.47.66c-8.75-4.69-15.86-10.46-20.83-16.84,3.88,1.05,8,1.88,12,1.31a25.08,25.08,0,0,1-13.9-7.87l1.65.42c.07-.8.13-1.61.2-2.41l.56.32a19,19,0,0,0,2.28,1.19,18.75,18.75,0,0,0,3,.89,56.88,56.88,0,0,0,8.37,1.25A30.56,30.56,0,0,1,369,334a13.93,13.93,0,0,1-1.5-1.12,30.88,30.88,0,0,0,13.36.11c-10.76-4-19.24-10.1-23.73-17.16l5.67,1.36-1-3.71a29,29,0,0,0,7.82,2.32,12.2,12.2,0,0,1-6.11-5c-.28-.39-.54-.78-.8-1.18l9.13,1.46c-11.64-6.46-23.17-14.48-23-24h0c.12,9.5-11.41,17.52-23.05,24l9.77-1.56-1.64,3.22,2.31-.73-1.41,5.15,2.74-.65A20.12,20.12,0,0,1,336,318a15.84,15.84,0,0,1-9.09,4.09c1.34,1,3.26,1.13,5.05,1.22.56,0,1.13.05,1.7,0a56.44,56.44,0,0,1-17,9.61,30.25,30.25,0,0,0,16-.88l-2.45,3.7,5-2.6.24,2.89,2.57-.65a36.17,36.17,0,0,1-20.39,10.18,26.48,26.48,0,0,0,12.67-.55,24.48,24.48,0,0,0,3.82-1.51,66.48,66.48,0,0,1-19.76,15.51,86.57,86.57,0,0,0,12.89-.35,43.48,43.48,0,0,1-9.36,4.26,39.89,39.89,0,0,0,6.47-.21,12.31,12.31,0,0,0,5.81-2.21,15.1,15.1,0,0,0,1.72-1.67c.28-.31.56-.61.83-.92h.06a4.69,4.69,0,0,0-.6,4.22l6.24-2.94-.09.2c-.56.87-1.14,1.73-1.75,2.58a33.87,33.87,0,0,1-7.08,7.6,21.38,21.38,0,0,1-10.33,4.23,60.7,60.7,0,0,0,9.55-.75c.38-.07.77-.15,1.15-.24a78.22,78.22,0,0,1-14,12.84l12.8-3.78a16.43,16.43,0,0,1-2.25,3.87l2.8-1.25a1.27,1.27,0,0,1-.44,1.69l4.56-1.87q-1.85,2.26-3.83,4.49c-.77.43-1.57.82-2.37,1.2q-4.72,2.25-9.73,4.07a23,23,0,0,1-7.83,1.72,74.19,74.19,0,0,0,10.33,1c.61,0,1.23,0,1.85,0a162.79,162.79,0,0,1-17.41,14.35l11.16-2.59a6.19,6.19,0,0,1-.11,4.22L323,409a5.92,5.92,0,0,0,.72,3.17,37.9,37.9,0,0,1,8.16-2.87c7-1.24,11.52,1.08,16.91-3.92,5.39,5,9.86,2.68,16.9,3.92a37.9,37.9,0,0,1,8.16,2.87,5.92,5.92,0,0,0,.72-3.17l7.64,3.81A6.13,6.13,0,0,1,382.07,408.63Z"/></clipPath><linearGradient id="linear-gradient-31" x1="438.46" y1="312.5" x2="466.97" y2="312.5" xlink:href="#linear-gradient"/><clipPath id="clip-path-30"><path class="cls-31" d="M472.41,390.06a40.34,40.34,0,0,0,6.12-11.66,43.16,43.16,0,0,0,2.13-12.13,60.92,60.92,0,0,0-4.26-23.17c-1.33-3.66-3-7.25-4.5-10.61a39.43,39.43,0,0,1-3.24-9.95c-1-6.71.66-13.87,2.45-21l-4.62-.95c-1.31,3.52-2.63,7.09-3.61,10.82a39.56,39.56,0,0,0-1.51,11.6,43.15,43.15,0,0,0,2.33,11.57c1.17,3.66,2.31,7,3.15,10.53,1.71,6.92,2.45,13.89,1.45,20.48A32.93,32.93,0,0,1,460,383.22Z"/></clipPath><linearGradient id="linear-gradient-32" x1="465.68" y1="313.04" x2="492.49" y2="313.04" xlink:href="#linear-gradient"/><clipPath id="clip-path-31"><path class="cls-32" d="M467,320A24,24,0,0,0,463,317a12.66,12.66,0,0,0-2.77-1.26,10.56,10.56,0,0,0-3.4-.47,22,22,0,0,0-2.6.3,6.23,6.23,0,0,1-.73.07,1.68,1.68,0,0,1-.49,0,21,21,0,0,1-3.52-1.73c-2.51-1.41-4.77-2.93-6-5a26.2,26.2,0,0,1-1.55-3.53,10.66,10.66,0,0,0-2.29-3.7l-1.25.76c1.55,2,1.41,4.6,2.47,7.32a11.93,11.93,0,0,0,2.54,3.78,28.32,28.32,0,0,0,3.52,3l1.83,1.31a11,11,0,0,0,2.42,1.38,8,8,0,0,0,1.81.43,10.57,10.57,0,0,0,1.64.07,17.54,17.54,0,0,1,2.12,0,4.79,4.79,0,0,1,2.45,1.15,18,18,0,0,1,2.52,2.61Z"/></clipPath><clipPath id="clip-path-32" transform="translate(0 210.56)"><path class="cls-27" d="M1663.74,325.17c-36.69,11.16-71.34,27.33-108.9,35.83a17.53,17.53,0,0,0-7.57-6.6c-2.15-1-4.68-1.77-6-3.5a11.56,11.56,0,0,0-1.74-2.5c-1.77-1.45-4.77-.69-7.06.15a4.6,4.6,0,0,0-1.38.7c-1.09,1-.48,2.5-.34,3.81a5,5,0,0,1-1.23,3.68c-2.41-5.31-2.13-11.32-1.77-17.05a14.48,14.48,0,0,0-6.67,9.37,92.85,92.85,0,0,1-1.32-16.12,2.24,2.24,0,0,0-1.39,2.14,35.06,35.06,0,0,0,1.57,15.36c-2.44-5.93-8.54-10.28-14.38-14.32.07,6.8,8.3,11.87,9.7,18.58-.68-2.2-2.79-3.95-5.2-5.05a35.42,35.42,0,0,0-7.83-2.2,34.09,34.09,0,0,1,13.38,10.64,18.78,18.78,0,0,0-9.19.94,8.57,8.57,0,0,1-2.52.73c-2,.09-3.55-1.47-5.52-1.77a8.93,8.93,0,0,0-4.5.88,32.73,32.73,0,0,0-8.21,4.12,22.26,22.26,0,0,0-5.24,6.48,306.57,306.57,0,0,0-38.16,5c-36.18,7.52-70.92,25.31-107.9,21.1-21.92-2.49-41.56-12.58-63.25-16.18-39.05-6.49-78.57,8.62-118.41,8.83-67.57.36-123.71-41.09-168.27-82.59-11.77-11-24.07-22.55-40.55-27.91a3.23,3.23,0,0,1,.25-1.83,2.22,2.22,0,0,0,.41-1.2,1.83,1.83,0,0,0-.79-1,33,33,0,0,0-11.63-5.76c.7-1.85-.78-3.78-2.51-5.1a20.43,20.43,0,0,0-15.29-3.48,3.64,3.64,0,0,0-2.11-1.35c-6.81-2.23-15.51,1.09-17.79,6.79-2.65-1.26-6.42-2.39-8.4-.48a5,5,0,0,0-1.13,2q-.81,2.24-1.6,4.47a5.3,5.3,0,0,0-4.91-2.57,5,5,0,0,0-4.54,3c-.7-1.43-1.4-3.85-3.3-3.7-1.74.45-1.27,2.86-1.25,4.37-3.14-1.11-4.71-5-8.12-4.71-2.48.2-3.69,2.53-4.38,4.49a6.56,6.56,0,0,0-2.52-3.61,3.73,3.73,0,0,0-3.76.09,3.58,3.58,0,0,0-1.17-4.56,8.64,8.64,0,0,0-6.71-1.2c1.3-3.32-2.24-7.25-6.5-7.21s-7.71,4-6.33,7.31l0,0c-1.38-2-5-1.78-6,.33a13,13,0,0,0-1.26,4.65c-.35-1.2-2.53-1.47-3.71-.7a4,4,0,0,0-1.59,3.34,10.57,10.57,0,0,1-.43,3.67,11.21,11.21,0,0,1-2.2-2.26,3.1,3.1,0,0,0-3-1,2.5,2.5,0,0,0-1.38,2.61,18.15,18.15,0,0,0,.53,4l-24.1.73q-6.87.19-13.79.44a18.61,18.61,0,0,1,2.52-4.48,14.83,14.83,0,0,0-6.17,3.37,6.52,6.52,0,0,1,1.8-4.56,8.67,8.67,0,0,0-4.85,3.26,37.36,37.36,0,0,0,.34-9,66.46,66.46,0,0,1-3,8.15,10.71,10.71,0,0,0-2.53-6.6,13.83,13.83,0,0,1,.54,7.92,11.39,11.39,0,0,0-2.8-6.2,27.86,27.86,0,0,1-1.77,8.69h-.16a6.07,6.07,0,0,0-.31-.74,3.84,3.84,0,0,0-3.28-2.18,11.2,11.2,0,0,0-2.71.78,10.21,10.21,0,0,1-5.84-.58c-.31-.11-.64-.21-1-.3-.61-1.42-1.3-2.83-2-4.22a1.88,1.88,0,0,0-.56-.75,2.1,2.1,0,0,0-2.08.1c-.63.33-1.13.81-1.79,1.08-1.94.8-4.38-.43-6.4.2-2.31.71-2.7,3.28-4.5,4.66a6.26,6.26,0,0,1-1.61.82,7.44,7.44,0,0,0-1.74-3.18,4,4,0,0,0-3.92-.92c.15-3.46-4.4-6.49-8.52-5.67a7,7,0,0,0-1.64-4.65,5.72,5.72,0,0,0-5.25-1.73,3.32,3.32,0,0,0-2.6,2.51,3.84,3.84,0,0,0-3.27-1.52,6.88,6.88,0,0,0-4.65,2.48c-.58.64-1.28,1.43-2.25,1.37a5.84,5.84,0,0,1-1.47-.46,4.22,4.22,0,0,0-4.46,1.59,7.86,7.86,0,0,0-1.13,4.19c.07-1.53-1.54-2.87-3.35-3.28a11.43,11.43,0,0,0-5.53.39c-8.83,2.42-15.56,9.29-16.51,16.86l18.72-.59c-49.13,6.46-95.79,19-133.42,45-13.6,9.4-25.89,20.49-41.9,26.88-1.17.46-2.36.87-3.55,1.28-.15-2.57-1.31-5.1-2.47-7.53a7.06,7.06,0,0,1-2.75,7.18,34.26,34.26,0,0,1,1.86-4.7c-1.42,2.48-5.37,3.85-5.74,6.56a10.66,10.66,0,0,1,1.57-4.72,8,8,0,0,0-5.23,4.72,31.81,31.81,0,0,1,4-7.06c-3.47.73-5.85,3.35-7.31,6a15.32,15.32,0,0,1,4.84-9.54,7.93,7.93,0,0,0-3.5,3.27A32.06,32.06,0,0,0,478.67,363c-1.42.22-2.85.42-4.29.61a28.42,28.42,0,0,0-1.79-3.84,3.5,3.5,0,0,0-1.51-1.61c-1.43-.67-3.28.21-4.14,1.36a8.14,8.14,0,0,1-1.81,2.33,8,8,0,0,1-3.28.86c-1.14.16-2.4.51-2.9,1.36a2.28,2.28,0,0,0-.27,1.14c-13.51,1.13-27.17,2-40.1,5.09-23.79,5.71-44.23,18.84-68.23,23.89-29.39,6.19-60.2-.37-90.44-2.47C173.2,385.66,84.3,416.56,0,406.6V799.49H1920.86V305.86C1833.58,301,1745.1,300.4,1663.74,325.17Z"/></clipPath><linearGradient id="linear-gradient-65" x1="2.25" y1="459.48" x2="1920.61" y2="459.48" xlink:href="#linear-gradient"/></defs><g id="Layer_2" data-name="Layer 2"><g id="OBJECT"><path class="cls-1" d="M699.12,301.07a25.83,25.83,0,0,1-14.88-6.92c-3.88-3.57-6.6-7.86-9.23-12.12a67.18,67.18,0,0,0,10.53,5.05A17.46,17.46,0,0,0,682,281.3l10.55,2.93A60.3,60.3,0,0,1,679.7,276a33.27,33.27,0,0,0,18.68,3.4,41.31,41.31,0,0,1-12.64-6.27c-1.43-1-2.85-2-4.27-2.91a96.72,96.72,0,0,1-7.6-6.87,55.33,55.33,0,0,0,10.9-.53,64.2,64.2,0,0,1-8.81-2.24A28.42,28.42,0,0,1,665.51,254c-1.75-2.15-2.74-3.53-2.74-3.53,7.57,3.82,14.61,3.58,24.14,1.9a33.69,33.69,0,0,1-18.64-8.54,21,21,0,0,0,11.11,1,65.47,65.47,0,0,1-11.74-6.26,25.18,25.18,0,0,0,16.57,1.15c-7.58-2.42-13.09-7.35-17.6-13a21.47,21.47,0,0,0,9.13.42,27.31,27.31,0,0,1-15-8.84c-.45-.72-.9-1.43-1.34-2.15,2.15,3.22,7.27,4.88,11.53,3.74l-4.74-2.92a9,9,0,0,0,5.91,1,26.43,26.43,0,0,1-8.78-7.63,38.88,38.88,0,0,0,18.2.25c-13.08-2.58-24-11.35-27.45-22-3.42,10.63-14.37,19.4-27.45,22a38.84,38.84,0,0,0,18.19-.25,26.29,26.29,0,0,1-8.77,7.63,9,9,0,0,0,5.9-1q-2.36,1.47-4.73,2.92c4.26,1.14,9.38-.52,11.52-3.74-.44.72-.88,1.43-1.34,2.15a27.27,27.27,0,0,1-15,8.84,21.46,21.46,0,0,0,9.13-.42c-4.5,5.67-10,10.6-17.59,13a25.15,25.15,0,0,0,16.56-1.15,65.38,65.38,0,0,1-11.73,6.26,20.91,20.91,0,0,0,11.1-1,33.66,33.66,0,0,1-18.63,8.54c9.53,1.68,16.57,1.92,24.13-1.9,0,0-1,1.38-2.74,3.53a28.38,28.38,0,0,1-10.44,6.51,64.34,64.34,0,0,1-8.82,2.24,55.44,55.44,0,0,0,10.91.53,96.72,96.72,0,0,1-7.6,6.87c-1.42.95-2.84,1.91-4.27,2.91a41.31,41.31,0,0,1-12.64,6.27,33.25,33.25,0,0,0,18.67-3.4,60.23,60.23,0,0,1-12.84,8.28l10.55-2.93a17.65,17.65,0,0,0-3.55,5.78A66.87,66.87,0,0,0,633.17,282c-2.63,4.26-5.35,8.55-9.23,12.12a25.89,25.89,0,0,1-14.88,6.92,41.62,41.62,0,0,0,22.52-2.73,14.47,14.47,0,0,1-7.21,6.16c1.42-.4,5.09-1.05,6.5-1.45-.39,2,.23,3.54-3.42,6.2a39.86,39.86,0,0,1,8-1.94,31.8,31.8,0,0,1-2.86,4.43c3,.54,6.29-1.05,7.17-3.43-.14,1.67-.27,3.34-.41,5l3.14-3.37a3.72,3.72,0,0,0,.49,2.34l2-2.79a27.52,27.52,0,0,0,2.85,6c-.12-2.75-.16-5.74,1.83-8a9,9,0,0,0,5.22,6c-.34-1.61-.69-3.22-1-4.84a13.84,13.84,0,0,0,2.75,3.45,30.33,30.33,0,0,0,.35-3.29,12.62,12.62,0,0,0,5.74,4.21,46.49,46.49,0,0,0,7.4,2.07A25.19,25.19,0,0,1,664.4,310a10.64,10.64,0,0,0,5.15,3,2.6,2.6,0,0,0-1.34-2.42A25.68,25.68,0,0,0,674,313q-1.66-1.34-3.21-2.76a30.33,30.33,0,0,0,5.66,2c1.64.5,5.53,1.8,6.86.86a24.13,24.13,0,0,1-5.76-4.8,16.19,16.19,0,0,1,3.17,1q-.57-3-1.16-5.94l4.24,1.19a14.48,14.48,0,0,1-7.2-6.16A41.61,41.61,0,0,0,699.12,301.07Z" transform="translate(0 210.56)"/><path class="cls-33" d="M304.27,388.8a26.86,26.86,0,0,1-15.49-7.21c-4-3.71-6.87-8.17-9.61-12.61a70.15,70.15,0,0,0,11,5.26,18.31,18.31,0,0,0-3.69-6l11,3a62.62,62.62,0,0,1-13.37-8.62,34.6,34.6,0,0,0,19.44,3.54,43.2,43.2,0,0,1-13.16-6.52c-1.49-1.05-3-2.05-4.44-3a97.19,97.19,0,0,1-7.91-7.15,57.63,57.63,0,0,0,11.35-.54,69.72,69.72,0,0,1-9.18-2.34,29.5,29.5,0,0,1-10.87-6.78c-1.82-2.24-2.85-3.66-2.85-3.66,7.87,4,15.2,3.71,25.12,2a35.06,35.06,0,0,1-19.4-8.88,21.82,21.82,0,0,0,11.56,1,67.81,67.81,0,0,1-12.21-6.52,26.08,26.08,0,0,0,17.24,1.19c-7.89-2.51-13.63-7.64-18.31-13.54a22.38,22.38,0,0,0,9.5.43,28.47,28.47,0,0,1-15.6-9.2c-.47-.74-.93-1.49-1.39-2.23,2.23,3.35,7.56,5.07,12,3.89l-4.93-3a9.47,9.47,0,0,0,6.15,1.07,27.64,27.64,0,0,1-9.14-7.94,40.42,40.42,0,0,0,18.94.26c-13.61-2.69-25-11.82-28.57-22.88-3.56,11.06-15,20.19-28.57,22.88a40.38,40.38,0,0,0,18.93-.26,27.5,27.5,0,0,1-9.13,7.94,9.48,9.48,0,0,0,6.15-1.07l-4.93,3c4.43,1.18,9.76-.54,12-3.89-.45.74-.92,1.49-1.39,2.23a28.48,28.48,0,0,1-15.59,9.2,22.38,22.38,0,0,0,9.5-.43c-4.69,5.9-10.43,11-18.32,13.54a26.11,26.11,0,0,0,17.25-1.19,67.9,67.9,0,0,1-12.22,6.52,21.8,21.8,0,0,0,11.56-1,35,35,0,0,1-19.39,8.88c9.91,1.75,17.24,2,25.12-2,0,0-1,1.42-2.86,3.66a29.42,29.42,0,0,1-10.87,6.78,69.57,69.57,0,0,1-9.17,2.34,57.59,57.59,0,0,0,11.35.54,98.89,98.89,0,0,1-7.91,7.15c-1.48,1-3,2-4.45,3a43.15,43.15,0,0,1-13.15,6.52,34.57,34.57,0,0,0,19.43-3.54,62.8,62.8,0,0,1-13.36,8.62l11-3a18.14,18.14,0,0,0-3.69,6,70,70,0,0,0,11-5.26c-2.73,4.44-5.57,8.9-9.61,12.61a26.8,26.8,0,0,1-15.49,7.21A43.35,43.35,0,0,0,234,386a15.1,15.1,0,0,1-7.5,6.41c1.47-.41,5.29-1.09,6.76-1.5-.4,2.06.24,3.68-3.56,6.45a41.94,41.94,0,0,1,8.31-2,34.46,34.46,0,0,1-3,4.61c3.1.56,6.55-1.09,7.46-3.57l-.42,5.21c1.09-1.17,2.18-2.33,3.26-3.5a3.88,3.88,0,0,0,.52,2.43l2.08-2.91a28.25,28.25,0,0,0,3,6.23c-.13-2.86-.17-6,1.9-8.3a9.35,9.35,0,0,0,5.44,6.21l-1.08-5a14.31,14.31,0,0,0,2.86,3.59,28.08,28.08,0,0,0,.36-3.43,13.15,13.15,0,0,0,6,4.39,47.85,47.85,0,0,0,7.7,2.15,26.53,26.53,0,0,1-5.91-5.26,11,11,0,0,0,5.36,3.15,2.7,2.7,0,0,0-1.39-2.52,27.08,27.08,0,0,0,6,2.46c-1.15-.92-2.27-1.88-3.34-2.87a32.57,32.57,0,0,0,5.89,2.07c1.71.52,5.76,1.87,7.15.89a25,25,0,0,1-6-5,17.1,17.1,0,0,1,3.3,1c-.4-2.06-.81-4.13-1.21-6.19l4.42,1.24a15.06,15.06,0,0,1-7.5-6.41A43.31,43.31,0,0,0,304.27,388.8Z" transform="translate(0 210.56)"/><path class="cls-34" d="M1308.9,395.16a28.47,28.47,0,0,1-16.42-7.64c-4.27-3.94-7.28-8.66-10.18-13.36a73.09,73.09,0,0,0,11.62,5.56,19.23,19.23,0,0,0-3.91-6.37l11.64,3.23a66.51,66.51,0,0,1-14.17-9.13,36.77,36.77,0,0,0,20.6,3.75,45.8,45.8,0,0,1-13.94-6.91c-1.58-1.11-3.15-2.17-4.71-3.22a105.68,105.68,0,0,1-8.39-7.58,60.66,60.66,0,0,0,12-.58,71.33,71.33,0,0,1-9.72-2.48,31.14,31.14,0,0,1-11.52-7.17c-1.93-2.38-3-3.89-3-3.89,8.35,4.21,16.12,3.94,26.63,2.09a37.22,37.22,0,0,1-20.56-9.42,23.06,23.06,0,0,0,12.25,1.06,73,73,0,0,1-12.94-6.9,27.78,27.78,0,0,0,18.27,1.26c-8.36-2.67-14.44-8.1-19.41-14.36a23.75,23.75,0,0,0,10.07.46,30.07,30.07,0,0,1-16.52-9.75c-.5-.79-1-1.58-1.48-2.37,2.37,3.55,8,5.38,12.71,4.13l-5.22-3.22a10.05,10.05,0,0,0,6.52,1.13,29.24,29.24,0,0,1-9.69-8.42,42.82,42.82,0,0,0,20.07.28c-14.42-2.85-26.5-12.52-30.28-24.25-3.77,11.73-15.85,21.4-30.27,24.25a42.82,42.82,0,0,0,20.07-.28,29.24,29.24,0,0,1-9.69,8.42,10.05,10.05,0,0,0,6.52-1.13l-5.22,3.22c4.7,1.25,10.34-.58,12.71-4.13-.49.79-1,1.58-1.48,2.37a30.07,30.07,0,0,1-16.52,9.75,23.76,23.76,0,0,0,10.07-.46c-5,6.26-11.05,11.69-19.41,14.36a27.78,27.78,0,0,0,18.27-1.26,73,73,0,0,1-12.94,6.9,23.06,23.06,0,0,0,12.25-1.06,37.22,37.22,0,0,1-20.56,9.42c10.51,1.85,18.28,2.12,26.63-2.09,0,0-1.1,1.51-3,3.89a31.14,31.14,0,0,1-11.52,7.17,71.33,71.33,0,0,1-9.72,2.48,60.6,60.6,0,0,0,12,.58,103.77,103.77,0,0,1-8.38,7.58c-1.56,1.05-3.13,2.11-4.71,3.22a45.8,45.8,0,0,1-13.94,6.91,36.77,36.77,0,0,0,20.6-3.75,66.51,66.51,0,0,1-14.17,9.13l11.64-3.23a19.23,19.23,0,0,0-3.91,6.37,73.09,73.09,0,0,0,11.62-5.56c-2.9,4.7-5.91,9.42-10.18,13.36a28.47,28.47,0,0,1-16.42,7.64,45.91,45.91,0,0,0,24.85-3,16,16,0,0,1-8,6.79c1.56-.44,5.6-1.16,7.16-1.59-.42,2.18.26,3.9-3.77,6.84,1.4-.7,4.79-1.43,8.81-2.14a36.56,36.56,0,0,1-3.16,4.88c3.28.59,6.94-1.16,7.91-3.78l-.45,5.52,3.46-3.71a4.14,4.14,0,0,0,.54,2.58l2.21-3.08a30.69,30.69,0,0,0,3.15,6.6c-.13-3-.18-6.34,2-8.8a9.91,9.91,0,0,0,5.76,6.58L1259,403.5a15.6,15.6,0,0,0,3,3.81,31.87,31.87,0,0,0,.39-3.64,13.85,13.85,0,0,0,6.33,4.64,49.22,49.22,0,0,0,8.16,2.29,27.82,27.82,0,0,1-6.26-5.58,11.74,11.74,0,0,0,5.68,3.35,2.87,2.87,0,0,0-1.48-2.68,28.11,28.11,0,0,0,6.39,2.61q-1.85-1.47-3.54-3.05a33.64,33.64,0,0,0,6.24,2.2c1.81.55,6.1,2,7.57.95a27.19,27.19,0,0,1-6.36-5.29,17.32,17.32,0,0,1,3.51,1.08l-1.29-6.56,4.68,1.31a16,16,0,0,1-8-6.79A45.91,45.91,0,0,0,1308.9,395.16Z" transform="translate(0 210.56)"/><path class="cls-35" d="M616.92,344.44l11.37,2.65a155.89,155.89,0,0,1-26.54-23.79,40.17,40.17,0,0,0,3.94,1.26,70,70,0,0,0,8.33,1.75c-3.87-.83-7-3.12-9.69-5.54-.18-.15-.35-.31-.51-.46l2,.88a16.66,16.66,0,0,1-2.3-3.93l13,3.84a78.82,78.82,0,0,1-14-12.73l2,.28,9.13,1.23A45.28,45.28,0,0,1,599,303.72a53.51,53.51,0,0,1-5.39-9.57l6.35,3a4.53,4.53,0,0,0,.05-2.91,37,37,0,0,0,9.93,2.47,19.91,19.91,0,0,1-6-2.54l-1.54-.87a88.17,88.17,0,0,0,15.77.68c-8.92-4.78-16.17-10.67-21.22-17.16,3.94,1.07,8.12,1.91,12.21,1.33a25.57,25.57,0,0,1-14.16-8l1.68.43c.07-.82.13-1.64.2-2.46l.58.33a18.88,18.88,0,0,0,2.32,1.21,18.08,18.08,0,0,0,3,.9,59.29,59.29,0,0,0,8.53,1.28,31.52,31.52,0,0,1-7.68-3.4,13.39,13.39,0,0,1-1.52-1.14,31.35,31.35,0,0,0,13.6.11c-11-4-19.6-10.29-24.18-17.49l5.79,1.4c-.35-1.26-.69-2.52-1-3.78a29.71,29.71,0,0,0,8,2.35,12.38,12.38,0,0,1-6.22-5.05c-.29-.4-.56-.8-.82-1.21l9.3,1.49c-11.86-6.59-23.6-14.75-23.48-24.43h0c.13,9.68-11.61,17.84-23.48,24.43l10-1.59-1.67,3.27,2.35-.74-1.44,5.26,2.79-.67a18.84,18.84,0,0,1-1.46,1.51,16.13,16.13,0,0,1-9.26,4.17c1.36,1,3.32,1.15,5.14,1.24.57,0,1.16.06,1.73,0a57.51,57.51,0,0,1-17.34,9.79,30.75,30.75,0,0,0,16.27-.89l-2.49,3.76,5.06-2.64.24,2.94,2.61-.67a35.74,35.74,0,0,1-6.29,5,37.32,37.32,0,0,1-14.48,5.36,27,27,0,0,0,12.91-.57,24,24,0,0,0,3.89-1.53A67.89,67.89,0,0,1,547.88,294,87.11,87.11,0,0,0,561,293.6a44.2,44.2,0,0,1-9.54,4.35,41.46,41.46,0,0,0,6.6-.22,12.48,12.48,0,0,0,5.91-2.25,14.92,14.92,0,0,0,1.76-1.7l.85-.93h0a4.76,4.76,0,0,0-.61,4.3l6.36-3-.09.2c-.57.88-1.16,1.76-1.78,2.63a34.48,34.48,0,0,1-7.22,7.74A21.82,21.82,0,0,1,552.77,309a60.65,60.65,0,0,0,9.74-.77q.59-.11,1.17-.24a79.43,79.43,0,0,1-14.29,13.08l13.05-3.84a16.66,16.66,0,0,1-2.3,3.93l2.86-1.27a1.3,1.3,0,0,1-.45,1.72l4.65-1.9c-1.25,1.54-2.56,3.07-3.91,4.58-.78.43-1.59.83-2.41,1.22q-4.82,2.29-9.92,4.14a23.3,23.3,0,0,1-8,1.75,73.92,73.92,0,0,0,10.52,1c.63,0,1.25,0,1.88,0a165.83,165.83,0,0,1-17.73,14.62L549,344.44a6.32,6.32,0,0,1-.1,4.31l7.78-3.89a6.18,6.18,0,0,0,.73,3.24,38.67,38.67,0,0,1,8.32-2.94c7.17-1.25,11.73,1.11,17.22-4,5.49,5.1,10.06,2.74,17.23,4a38.67,38.67,0,0,1,8.32,2.94,6.17,6.17,0,0,0,.72-3.24l7.79,3.89A6.32,6.32,0,0,1,616.92,344.44Z" transform="translate(0 210.56)"/><path class="cls-36" d="M1714.18,344.75l11.82,2.74a161.93,161.93,0,0,1-27.6-24.73c1.33.5,2.71.93,4.1,1.31a75.6,75.6,0,0,0,8.66,1.82c-4-.87-7.28-3.25-10.08-5.77-.18-.15-.36-.32-.53-.48l2.07.92a17.71,17.71,0,0,1-2.4-4.09l13.58,4a82.75,82.75,0,0,1-14.55-13.24l2.07.29,9.5,1.28a46.92,46.92,0,0,1-15.33-6.42,55.25,55.25,0,0,1-5.61-9.95l6.61,3.11a4.76,4.76,0,0,0,0-3,38.3,38.3,0,0,0,10.32,2.58,20.59,20.59,0,0,1-6.28-2.65c-.54-.29-1.07-.6-1.61-.9a90.56,90.56,0,0,0,16.4.7c-9.28-5-16.81-11.09-22.07-17.84,4.1,1.11,8.45,2,12.7,1.38a26.61,26.61,0,0,1-14.73-8.34l1.75.45.21-2.56.6.35a19.72,19.72,0,0,0,2.42,1.25,18.32,18.32,0,0,0,3.16.94,61,61,0,0,0,8.87,1.33,32.75,32.75,0,0,1-8-3.54,13.32,13.32,0,0,1-1.58-1.19,32.63,32.63,0,0,0,14.15.12c-11.41-4.2-20.4-10.7-25.15-18.19l6,1.45-1.07-3.93a30.8,30.8,0,0,0,8.29,2.45,12.92,12.92,0,0,1-6.48-5.26c-.29-.41-.57-.83-.85-1.25l9.68,1.55c-12.34-6.85-24.55-15.35-24.42-25.42h0c.13,10.07-12.08,18.57-24.42,25.42l10.35-1.66c-.58,1.14-1.16,2.27-1.73,3.41l2.44-.78-1.5,5.47,2.91-.7a19,19,0,0,1-1.53,1.58,16.77,16.77,0,0,1-9.63,4.34c1.42,1,3.46,1.19,5.35,1.29.6,0,1.2.06,1.8,0a59.81,59.81,0,0,1-18,10.18,32,32,0,0,0,16.92-.93l-2.59,3.92q2.63-1.38,5.26-2.75c.08,1,.16,2,.25,3.06l2.72-.69a38.24,38.24,0,0,1-6.54,5.22,39,39,0,0,1-15.07,5.57,28.24,28.24,0,0,0,13.43-.59,25.09,25.09,0,0,0,4-1.6,70.63,70.63,0,0,1-20.94,16.44,90.06,90.06,0,0,0,13.65-.38,45.77,45.77,0,0,1-9.91,4.53,42.42,42.42,0,0,0,6.86-.24,13,13,0,0,0,6.15-2.33,15.32,15.32,0,0,0,1.82-1.78l.89-1h.05a5,5,0,0,0-.63,4.47l6.61-3.11-.09.21c-.6.92-1.21,1.83-1.85,2.73a35.77,35.77,0,0,1-7.52,8.06,22.52,22.52,0,0,1-10.94,4.48,64.35,64.35,0,0,0,10.12-.8c.41-.07.81-.16,1.22-.25a82.31,82.31,0,0,1-14.86,13.61l13.57-4a17.31,17.31,0,0,1-2.39,4.09l3-1.32a1.35,1.35,0,0,1-.46,1.79l4.83-2c-1.3,1.6-2.66,3.19-4.06,4.76-.82.45-1.66.87-2.51,1.27q-5,2.39-10.31,4.31a24.47,24.47,0,0,1-8.3,1.82,78.38,78.38,0,0,0,10.94,1.06c.66,0,1.31,0,2,0a172.7,172.7,0,0,1-18.44,15.2l11.82-2.74a6.54,6.54,0,0,1-.11,4.47l8.1-4a6.28,6.28,0,0,0,.75,3.37,40.17,40.17,0,0,1,8.66-3.06c7.45-1.3,12.2,1.16,17.91-4.15,5.71,5.31,10.46,2.85,17.91,4.15a40.08,40.08,0,0,1,8.65,3.06,6.29,6.29,0,0,0,.76-3.37l8.1,4A6.54,6.54,0,0,1,1714.18,344.75Z" transform="translate(0 210.56)"/><path class="cls-37" d="M1053.78,353.28,1065.6,356a161.93,161.93,0,0,1-27.6-24.73c1.33.5,2.71.93,4.1,1.31a75.6,75.6,0,0,0,8.66,1.82c-4-.87-7.28-3.25-10.08-5.76l-.53-.49,2.07.92a17.5,17.5,0,0,1-2.4-4.09l13.58,4a82.37,82.37,0,0,1-14.55-13.24l2.07.29,9.5,1.28a46.92,46.92,0,0,1-15.33-6.42,55.25,55.25,0,0,1-5.61-10l6.61,3.11a4.73,4.73,0,0,0,.05-3,38.66,38.66,0,0,0,10.32,2.57,20.82,20.82,0,0,1-6.28-2.64l-1.61-.91a90.56,90.56,0,0,0,16.4.7c-9.28-5-16.81-11.09-22.07-17.84,4.1,1.11,8.45,2,12.7,1.38a26.61,26.61,0,0,1-14.73-8.34l1.75.45.21-2.56.6.35a19.72,19.72,0,0,0,2.42,1.25,18.32,18.32,0,0,0,3.16.94,61,61,0,0,0,8.87,1.33,32.75,32.75,0,0,1-8-3.54,13.32,13.32,0,0,1-1.58-1.19,32.48,32.48,0,0,0,14.15.12c-11.41-4.2-20.4-10.7-25.15-18.19l6,1.45c-.35-1.31-.71-2.62-1.07-3.93a30.8,30.8,0,0,0,8.29,2.45c-2.91-.89-4.91-3.07-6.48-5.26-.29-.41-.57-.83-.85-1.25l9.68,1.55c-12.34-6.85-24.55-15.35-24.42-25.41h0c.13,10.06-12.08,18.56-24.42,25.41l10.35-1.66c-.58,1.14-1.16,2.27-1.73,3.41l2.44-.77-1.5,5.46,2.91-.7a19,19,0,0,1-1.53,1.58,16.77,16.77,0,0,1-9.63,4.34c1.42,1,3.46,1.2,5.35,1.29.6,0,1.2.06,1.8.05a59.81,59.81,0,0,1-18,10.18,32,32,0,0,0,16.92-.93l-2.59,3.92q2.63-1.38,5.26-2.75l.24,3.06,2.73-.69a38.24,38.24,0,0,1-6.54,5.22,39,39,0,0,1-15.07,5.57,28.24,28.24,0,0,0,13.43-.59,25.09,25.09,0,0,0,4-1.6A70.63,70.63,0,0,1,982,300.77a91.38,91.38,0,0,0,13.65-.37,46.22,46.22,0,0,1-9.91,4.52,43.59,43.59,0,0,0,6.86-.23,13.09,13.09,0,0,0,6.15-2.34,16.05,16.05,0,0,0,1.82-1.77l.89-1h.05a5,5,0,0,0-.63,4.47l6.61-3.11-.09.21c-.6.92-1.21,1.83-1.85,2.74a35.94,35.94,0,0,1-7.52,8,22.52,22.52,0,0,1-10.94,4.48,64.34,64.34,0,0,0,10.12-.79l1.22-.26A82.31,82.31,0,0,1,983.54,329l13.57-4a17.11,17.11,0,0,1-2.39,4.09l3-1.32a1.35,1.35,0,0,1-.46,1.79l4.83-2c-1.3,1.6-2.66,3.19-4.06,4.76-.82.45-1.66.87-2.51,1.27q-5,2.38-10.31,4.31a24.23,24.23,0,0,1-8.3,1.82,76.9,76.9,0,0,0,10.94,1.06c.65,0,1.31,0,2,0A171.51,171.51,0,0,1,971.34,356l11.82-2.74a6.54,6.54,0,0,1-.11,4.47l8.1-4a6.28,6.28,0,0,0,.75,3.37,39.63,39.63,0,0,1,8.66-3.05c7.45-1.31,12.2,1.15,17.91-4.16,5.71,5.31,10.46,2.85,17.91,4.16a39.54,39.54,0,0,1,8.65,3.05,6.29,6.29,0,0,0,.76-3.37l8.1,4A6.54,6.54,0,0,1,1053.78,353.28Z" transform="translate(0 210.56)"/><path class="cls-38" d="M382.07,408.63l11.15,2.59a153.16,153.16,0,0,1-26-23.34c1.25.48,2.55.88,3.86,1.24a69.66,69.66,0,0,0,8.17,1.71c-3.79-.81-6.86-3.07-9.51-5.43l-.5-.46,2,.87a16.14,16.14,0,0,1-2.26-3.87l12.8,3.78A78.46,78.46,0,0,1,368,373.23l1.95.27,9,1.21a44.09,44.09,0,0,1-14.47-6.06,52.12,52.12,0,0,1-5.3-9.39l6.24,2.94a4.52,4.52,0,0,0,.05-2.86,36.43,36.43,0,0,0,9.74,2.43,19.36,19.36,0,0,1-5.93-2.5l-1.51-.85a85.75,85.75,0,0,0,15.47.66c-8.75-4.69-15.86-10.46-20.83-16.84,3.88,1.05,8,1.88,12,1.31a25.08,25.08,0,0,1-13.9-7.87l1.65.42c.07-.8.13-1.61.2-2.41l.56.32a19,19,0,0,0,2.28,1.19,18.75,18.75,0,0,0,3,.89,56.88,56.88,0,0,0,8.37,1.25A30.56,30.56,0,0,1,369,334a13.93,13.93,0,0,1-1.5-1.12,30.88,30.88,0,0,0,13.36.11c-10.76-4-19.24-10.1-23.73-17.16l5.67,1.36-1-3.71a29,29,0,0,0,7.82,2.32,12.2,12.2,0,0,1-6.11-5c-.28-.39-.54-.78-.8-1.18l9.13,1.46c-11.64-6.46-23.17-14.48-23-24h0c.12,9.5-11.41,17.52-23.05,24l9.77-1.56-1.64,3.22,2.31-.73-1.41,5.15,2.74-.65A20.12,20.12,0,0,1,336,318a15.84,15.84,0,0,1-9.09,4.09c1.34,1,3.26,1.13,5.05,1.22.56,0,1.13.05,1.7,0a56.44,56.44,0,0,1-17,9.61,30.25,30.25,0,0,0,16-.88l-2.45,3.7,5-2.6.24,2.89,2.57-.65a36.17,36.17,0,0,1-20.39,10.18,26.48,26.48,0,0,0,12.67-.55,24.48,24.48,0,0,0,3.82-1.51,66.48,66.48,0,0,1-19.76,15.51,86.57,86.57,0,0,0,12.89-.35,43.48,43.48,0,0,1-9.36,4.26,39.89,39.89,0,0,0,6.47-.21,12.31,12.31,0,0,0,5.81-2.21,15.1,15.1,0,0,0,1.72-1.67c.28-.31.56-.61.83-.92h.06a4.69,4.69,0,0,0-.6,4.22l6.24-2.94-.09.2c-.56.87-1.14,1.73-1.75,2.58a33.87,33.87,0,0,1-7.08,7.6,21.38,21.38,0,0,1-10.33,4.23,60.7,60.7,0,0,0,9.55-.75c.38-.07.77-.15,1.15-.24a78.22,78.22,0,0,1-14,12.84l12.8-3.78a16.43,16.43,0,0,1-2.25,3.87l2.8-1.25a1.27,1.27,0,0,1-.44,1.69l4.56-1.87q-1.85,2.26-3.83,4.49c-.77.43-1.57.82-2.37,1.2q-4.72,2.25-9.73,4.07a23,23,0,0,1-7.83,1.72,74.19,74.19,0,0,0,10.33,1c.61,0,1.23,0,1.85,0a162.79,162.79,0,0,1-17.41,14.35l11.16-2.59a6.19,6.19,0,0,1-.11,4.22L323,409a5.92,5.92,0,0,0,.72,3.17,37.9,37.9,0,0,1,8.16-2.87c7-1.24,11.52,1.08,16.91-3.92,5.39,5,9.86,2.68,16.9,3.92a37.9,37.9,0,0,1,8.16,2.87,5.92,5.92,0,0,0,.72-3.17l7.64,3.81A6.13,6.13,0,0,1,382.07,408.63Z" transform="translate(0 210.56)"/><path class="cls-39" d="M472.41,390.06a40.34,40.34,0,0,0,6.12-11.66,43.16,43.16,0,0,0,2.13-12.13,60.92,60.92,0,0,0-4.26-23.17c-1.33-3.66-3-7.25-4.5-10.61a39.43,39.43,0,0,1-3.24-9.95c-1-6.71.66-13.87,2.45-21l-4.62-.95c-1.31,3.52-2.63,7.09-3.61,10.82a39.56,39.56,0,0,0-1.51,11.6,43.15,43.15,0,0,0,2.33,11.57c1.17,3.66,2.31,7,3.15,10.53,1.71,6.92,2.45,13.89,1.45,20.48A32.93,32.93,0,0,1,460,383.22Z" transform="translate(0 210.56)"/><path class="cls-40" d="M467,320A24,24,0,0,0,463,317a12.66,12.66,0,0,0-2.77-1.26,10.56,10.56,0,0,0-3.4-.47,22,22,0,0,0-2.6.3,6.23,6.23,0,0,1-.73.07,1.68,1.68,0,0,1-.49,0,21,21,0,0,1-3.52-1.73c-2.51-1.41-4.77-2.93-6-5a26.2,26.2,0,0,1-1.55-3.53,10.66,10.66,0,0,0-2.29-3.7l-1.25.76c1.55,2,1.41,4.6,2.47,7.32a11.93,11.93,0,0,0,2.54,3.78,28.32,28.32,0,0,0,3.52,3l1.83,1.31a11,11,0,0,0,2.42,1.38,8,8,0,0,0,1.81.43,10.57,10.57,0,0,0,1.64.07,17.54,17.54,0,0,1,2.12,0,4.79,4.79,0,0,1,2.45,1.15,18,18,0,0,1,2.52,2.61Z" transform="translate(0 210.56)"/><path class="cls-41" d="M465.68,312.15l6.23,3,1.55.75.78.37a4.84,4.84,0,0,0,1.32.47,3.45,3.45,0,0,0,1.74-.19c.39-.15.6-.26.88-.38l1.59-.72c2.11-1,4.19-2,6.22-3.08l1.52-.81a2.55,2.55,0,0,1,1.32-.42,20.32,20.32,0,0,0,3.66-.54l-.23-.78a20.21,20.21,0,0,1-3.48.2,4.76,4.76,0,0,0-1.08.09,5,5,0,0,0-1,.34l-1.6.66c-2.13.87-4.3,1.69-6.48,2.45l-1.65.57c-.26.08-.59.2-.75.24s-.13,0,0,0-.58-.36-1-.63l-1.44-.88L468,309.32Z" transform="translate(0 210.56)"/><path class="cls-42" d="M448.8,314.13a2.47,2.47,0,0,0-1.3-.87,3.9,3.9,0,0,0-1.31-.17,4.94,4.94,0,0,0-1.13.19c-.31.09-.57.19-.8.27a3.9,3.9,0,0,1-.94.29,2.12,2.12,0,0,1-.84-.12,19.09,19.09,0,0,1-2.36-1.18,11,11,0,0,0-3.08-1.08,9.2,9.2,0,0,0-1.68-.14,7.69,7.69,0,0,1-1.26-.08,4.48,4.48,0,0,1-2.07-1,7.69,7.69,0,0,1-2.23-4.06l-1.31.2a8.61,8.61,0,0,0,2.24,4.81,6.17,6.17,0,0,0,2.85,1.6,9.13,9.13,0,0,0,1.68.22,8.7,8.7,0,0,1,1.27.17,8.41,8.41,0,0,1,2.28,1,18.74,18.74,0,0,0,2.6,1.48,5.26,5.26,0,0,0,2,.4,6.61,6.61,0,0,0,1.89-.39c.24-.07.43-.13.59-.16a1.39,1.39,0,0,1,.33,0,.27.27,0,0,1,.15,0,.27.27,0,0,1-.18-.11Z" transform="translate(0 210.56)"/><path class="cls-43" d="M444.24,310.71c-.05.1-.17.14-.1.07a1.21,1.21,0,0,1,.43-.17c.39-.1,1.21,0,2.18-.25a3.11,3.11,0,0,0,2.19-1.62,8.52,8.52,0,0,0,.69-1.79,3.62,3.62,0,0,0,.14-1c0-.36-.07-.65-.08-.86a.68.68,0,0,1,.15-.51,3.39,3.39,0,0,1,.57-.57,9.22,9.22,0,0,1,3.36-1.72l-.15-.46a10.7,10.7,0,0,0-4,1.45,4.72,4.72,0,0,0-.87.67,1.79,1.79,0,0,0-.55,1.08c0,.36,0,.65-.07.85a2.81,2.81,0,0,1-.23.67,9,9,0,0,1-.8,1.41,1.6,1.6,0,0,1-.45.4,1,1,0,0,1-.45.12c-.4,0-1-.07-2,0a4.54,4.54,0,0,0-1.54.37,2.38,2.38,0,0,0-1.34,1.4Z" transform="translate(0 210.56)"/><path class="cls-44" d="M479.67,314.64a21.85,21.85,0,0,0,3.1,2,8.86,8.86,0,0,0,4,1,16.31,16.31,0,0,0,3.8-.77,3.54,3.54,0,0,1,3.09.44l.41-.23a2.84,2.84,0,0,0-1.67-1,6.3,6.3,0,0,0-2-.12,16.52,16.52,0,0,1-3.49.25,6.23,6.23,0,0,1-2.77-1.18,18.11,18.11,0,0,1-2.31-2.12Z" transform="translate(0 210.56)"/><path class="cls-45" d="M511.6,295.11a7.94,7.94,0,0,0-4.25-3.09c-1.85-.47-4.2.1-4.94,1.56a7.58,7.58,0,0,0,1.1-3.25,3.67,3.67,0,0,0-1.38-3.09,7.5,7.5,0,0,0-4.38-1.18,22.22,22.22,0,0,0-7.84,1.2,6.64,6.64,0,0,0-.29-2.62,3,3,0,0,0-2.11-1.85,5.46,5.46,0,0,0-3.95,1.11c-1.56,1-3.06,2-4.5,3.09a9.5,9.5,0,0,0-1.33-3.15,4.52,4.52,0,0,0-3.22-1.86,7.1,7.1,0,0,0-4.49,1.74c-1.08.77-2.22,1.7-2.25,2.87-.22-1.42-.75-3.14-2.45-3.48a3.35,3.35,0,0,0-2.73.79,6.87,6.87,0,0,0-1.53,2.12,2.87,2.87,0,0,0-.5,1.53,1.31,1.31,0,0,0,.11.42,2.43,2.43,0,0,0-.77.65,7.13,7.13,0,0,0-1.55,2.38,2.24,2.24,0,0,0,.77,2.51c.95.68,2.6.74,3.06,1.7a.91.91,0,0,0-.73.91l-.42-.77c.23,1.4-.34,2.88.27,4.2a4.89,4.89,0,0,0,4,2.28,12.56,12.56,0,0,0,5-.71,4,4,0,0,0,2.8,3.19,5.59,5.59,0,0,0,4.76-.57c-.24,1.14-.29,2.61,1,3.13a3.48,3.48,0,0,0,1.37.2,18.79,18.79,0,0,0,6.73-1.2,2.63,2.63,0,0,0,.13,2.89,2.41,2.41,0,0,0,3.16.31,3,3,0,0,0,.2,3.25,3.82,3.82,0,0,0,3.53,1.34c1.35-.21,2.46-1.3,2.33-2.42.41,1.23,1.12,2.69,2.67,2.86a4.13,4.13,0,0,0,2.09-.46,11.27,11.27,0,0,0,6.81-8.55,3.09,3.09,0,0,0,.09.53,2.4,2.4,0,0,0,2.1,1.46,3.2,3.2,0,0,0,2.68-1.72C514.65,302.16,513.89,298.16,511.6,295.11Z" transform="translate(0 210.56)"/><path class="cls-46" d="M417.62,291.22a25.76,25.76,0,0,0-3.52,11,5.73,5.73,0,0,0,.57,3.55c.93,1.52,2.92,2.36,4.78,3.11a8.1,8.1,0,0,0,4.36.82c1.48-.29,2.59-1.89,1.59-2.82a9.1,9.1,0,0,0-.7,3.39,1.38,1.38,0,0,0,.32,1.05c.52.51,1.53.35,2.3.11a26,26,0,0,0,7.06-3.43c.28,1.25,2.21,1.88,3.69,1.49a5.56,5.56,0,0,0,3.22-2.61,26.52,26.52,0,0,1,2.09-3.4c-.29.65.32,1.45,1.16,1.53s1.65-.6,1.54-1.28a8.87,8.87,0,0,0,1.64,3.52,4.48,4.48,0,0,0,4,1.49c2.31-.43,3.12-2.79,3.06-4.73.22,1.35,2,2.2,3.65,2.33,3.38.26,6.79-1.85,7.38-4.59,0,1.11,1.71,1.79,3,1.5a5.31,5.31,0,0,0,3-2.15c2.86-3.71,3.49-8.9.13-12.32a5.62,5.62,0,0,0-3.39-1.76c-1.36-.12-2.89.58-3.11,1.69a10.37,10.37,0,0,0,2.5-7,7.81,7.81,0,0,0-4.15-6.27,8.94,8.94,0,0,0-8.48.05c.7-2.43-2.18-4.81-5.21-5.05a13,13,0,0,0-8.28,2.7,7.15,7.15,0,0,0-2-3.51,5.1,5.1,0,0,0-4.32-1.19,6.74,6.74,0,0,0-2.49,1.3,45.33,45.33,0,0,0-6.59,5.88c-1.64-2-5.33-2.41-7.89-1.22a7.46,7.46,0,0,0-4.26,6,7.42,7.42,0,0,0-7.05-.94,5,5,0,0,0-3.38,5.14c.32,2.06,2.36,3.87,4.84,4.29.33-.63-.78-1.24-1.56-1a2.5,2.5,0,0,0-1.43,1.62,4.92,4.92,0,0,0-.23,3.61,3.47,3.47,0,0,0,3.32,2.06c-.3,1.2-.54,2.61.46,3.52,1.17,1.05,3.24.79,4.93.44.22,1.45-1.43,3.11-.28,4.23a3.48,3.48,0,0,0,2.09.67,30.9,30.9,0,0,0,7.32-.24" transform="translate(0 210.56)"/><path class="cls-47" d="M1405.05,433.51c.31-12.67-2.21-24.92-5.81-36.56s-8.29-22.81-12.74-33.85-8.6-22-11.29-33.21-3.85-22.64-2-34l-4.51-.65c-3.19,11.66-3.3,23.81-1.78,35.64s4.57,23.49,7.81,34.9,6.6,22.64,8.76,33.82,3.13,22.25,1.67,32.88Z" transform="translate(0 210.56)"/><path class="cls-48" d="M1371.26,318.85a3.5,3.5,0,0,1,1.61-1,4.64,4.64,0,0,1,1-.19,6.69,6.69,0,0,1,1.24.08,11.14,11.14,0,0,0,4.19,0,11.61,11.61,0,0,0,3.64-1.46,29.29,29.29,0,0,0,5-4.13,11.6,11.6,0,0,1,4.79-2.95,29.79,29.79,0,0,1,6.41-.5,21.68,21.68,0,0,0,3.56-.35,17.68,17.68,0,0,0,3.32-1.07,39,39,0,0,0,5.82-3,10.5,10.5,0,0,0,2.53-2,2.23,2.23,0,0,0,.24-2.86l-.37.19a1.87,1.87,0,0,1-.43,2.34,10.41,10.41,0,0,1-2.53,1.68,39.58,39.58,0,0,1-5.88,2.56,15.36,15.36,0,0,1-6.26.89,30.83,30.83,0,0,0-7.08.14,15,15,0,0,0-6.29,3.2,29.23,29.23,0,0,1-4.83,3.46,7.79,7.79,0,0,1-2.5.82,6.3,6.3,0,0,1-2.52-.19,10.83,10.83,0,0,0-2.11-.26,9.85,9.85,0,0,0-2.31.25,8.29,8.29,0,0,0-3.9,2.07Z" transform="translate(0 210.56)"/><path class="cls-49" d="M1391.37,308.9a14.86,14.86,0,0,0,3.21,1.46,1.49,1.49,0,0,1,.74.62,6.57,6.57,0,0,0,.92,1.39,3.75,3.75,0,0,0,2,1,7.77,7.77,0,0,0,2,.06c1.29-.14,2.33-.39,3.48-.62,4.42-1,8.72-2.31,13-1.82l.24-1.27a24.27,24.27,0,0,0-7.08.22c-2.29.37-4.49.9-6.67,1.32-1.07.2-2.23.42-3.2.5a2.87,2.87,0,0,1-2.21-.47,6.42,6.42,0,0,1-.61-1.08,3.55,3.55,0,0,0-1.54-1.4,17,17,0,0,1-2.72-1.24Z" transform="translate(0 210.56)"/><path class="cls-50" d="M1372.25,330.17a2.51,2.51,0,0,0-.81-1.76,4.09,4.09,0,0,0-1.47-.86,5.71,5.71,0,0,0-2.82-.19,19.2,19.2,0,0,1-2.16.49,1.76,1.76,0,0,1-1-.73,7.93,7.93,0,0,1-1.08-1.91c-.65-1.47-1.12-3.1-1.82-4.78a13.88,13.88,0,0,0-3.2-4.76c-1.35-1.34-2.21-2.37-2.49-3.94s-.31-3.31-1.2-5.1a5.72,5.72,0,0,0-2.18-2.27,26.1,26.1,0,0,0-2.74-1.32,8.35,8.35,0,0,1-2.25-1.41,6.91,6.91,0,0,1-.87-.93,5.74,5.74,0,0,1-.36-.5l-.16-.27-.07-.13c0-.05,0-.1-.27-.08l-.62.18c-.19.12-.16.17-.13.22l.07.16.15.31a6,6,0,0,0,.36.6,7.31,7.31,0,0,0,.9,1.13,9.49,9.49,0,0,0,2.44,1.79c1.83.93,3.39,1.72,3.88,3.1s.41,3,.63,4.8a7.31,7.31,0,0,0,.86,2.75,15.84,15.84,0,0,0,1.71,2.32c2.37,2.49,2.58,5.57,3.72,9.07a10.72,10.72,0,0,0,1.31,2.7,5.67,5.67,0,0,0,3.6,2.36,6.73,6.73,0,0,0,2.49-.06c.63-.12,1.08-.24,1.36-.27s.17,0,.19,0a.49.49,0,0,1-.23-.13.88.88,0,0,1-.28-.62Z" transform="translate(0 210.56)"/><path class="cls-51" d="M1359.31,318.64l-2.73-.69c-.94-.24-1.75-.29-2.2-.49-.9-.24-1.31-1.66-2.29-3.14a4.21,4.21,0,0,0-2.62-1.62c-1-.2-1.72-.25-2.49-.49a9.06,9.06,0,0,1-4-2.29l-.76.44a9.87,9.87,0,0,0,4.13,3,26.36,26.36,0,0,0,2.53.76,2,2,0,0,1,1.31,1c.29.53.47,1.2.79,2a4.28,4.28,0,0,0,2,2.27,19,19,0,0,0,2.73.94l2.2.79Z" transform="translate(0 210.56)"/><path class="cls-52" d="M1433.26,301.36a3.4,3.4,0,0,0-2.17-2.06c1.64-2.88-.21-6.37-2.95-8.63a5.12,5.12,0,0,0-2.14-1.16,2.3,2.3,0,0,0-2.29.65,14.76,14.76,0,0,0-3.43-5.44,5,5,0,0,0-2.07-1.39c-2.08-.61-4.14.86-5.64,2.19l-3.65,3.27a27.07,27.07,0,0,0-3.25-5.71,1.88,1.88,0,0,0-1.06-.83,2.13,2.13,0,0,0-1.19.19,6.32,6.32,0,0,0-4.21,5.16c.07-1-1.2-1.68-2.36-1.65a6.63,6.63,0,0,0-3.17,1.13c-1.51.87-3,1.88-3.66,3.31a2.72,2.72,0,0,0,1.18,3.41,1.45,1.45,0,0,0-.62.07,2.73,2.73,0,0,0,2.13,2.75,21.79,21.79,0,0,0,.93,3.34,3.94,3.94,0,0,0,2.24,2.66,4.41,4.41,0,0,0,4.19-1.23c1-1,1.72-2.21,2.84-3.13a9.83,9.83,0,0,0-.2,6.49,11.43,11.43,0,0,0,3.7-2.47,6.93,6.93,0,0,0,1,3.1,3.29,3.29,0,0,0,2.17,1.65,1.9,1.9,0,0,0,1.83-.73,20.27,20.27,0,0,0,0,5.22,2.94,2.94,0,0,0,.79,1.9,3.33,3.33,0,0,0,3,.48,7.08,7.08,0,0,0,2.62-1.53,23.61,23.61,0,0,0,3.62-3.81c1,.94,1.15,2.43,2.49,3,1.19.49,2.6-.07,3.69-.69a14.12,14.12,0,0,0,4.77-4A5.8,5.8,0,0,0,1433.26,301.36Z" transform="translate(0 210.56)"/><path class="cls-53" d="M1396.6,285.07a17.78,17.78,0,0,0-2.5-3.17,4,4,0,0,0-2.27-1.32c-.94-.11-2,.59-1.76,1.33a54.11,54.11,0,0,0-5.45-4.45,5.23,5.23,0,0,0-1.58-.85,3.87,3.87,0,0,0-3.81,1.33,7.31,7.31,0,0,0-1.29,3.45c-1.85-3.05-6.78-4.57-10.65-3.28s-6.08,5.19-4.78,8.44c-2.1-2.52-6-3.63-9.67-4.06a6,6,0,0,0-2.84.16,3.17,3.17,0,0,0-1.63,4c.43,1.48,1.4,2.84,1.6,4.35-1-1.37-2.09-2.85-3.93-3.38a8.74,8.74,0,0,0-5.49.75,30.59,30.59,0,0,0-7.59,4.42c-1.23,1-2.39,2.39-1.88,3.67a1.22,1.22,0,0,0-.91.11c-2.81,1.91-5.37,4.25-6.4,7.11a6.69,6.69,0,0,0,2.8,8.09,3.11,3.11,0,0,0,1.76.52c.63,0,1.25-.49,1.19-1a20.43,20.43,0,0,0,3.69,4.63,4.36,4.36,0,0,0,3,1.47,2.91,2.91,0,0,0,2.52-1.81,6.05,6.05,0,0,0,.15-2.9c.84,1.49,2.78,2.36,4.69,2.89a7.42,7.42,0,0,0,4.06.23c1.3-.39,2.27-1.66,1.69-2.68.67,1.14,2.35,1.61,3.88,1.84a6.1,6.1,0,0,0,2.69-.05,3,3,0,0,0,2.09-3,7.87,7.87,0,0,0-1.29-3.48,12.57,12.57,0,0,0,4.21-.36c1.32-.43,2.46-1.45,2.39-2.61a29.16,29.16,0,0,0,5.75,3.89,2.4,2.4,0,0,0,1.37.37,1.62,1.62,0,0,0,1.25-1.34,4.58,4.58,0,0,0-.32-3.06c1.07.56,1.21,1.81,2,2.58a4,4,0,0,0,3.64.61,6.89,6.89,0,0,0,3-2c2.73-2.89,3.75-6.61,4.43-10.23l.27,1.37a3.13,3.13,0,0,0,2.46,1.46,9.91,9.91,0,0,0,3.16-.23,5.76,5.76,0,0,0,2.48-.89,2.6,2.6,0,0,0,.47-3.41,9.49,9.49,0,0,0-2.91-2.75c2.65-.16,5.83-.6,6.85-2.61C1398,287.89,1397.38,286.36,1396.6,285.07Z" transform="translate(0 210.56)"/><path class="cls-54" d="M1417.82,283.55a2,2,0,0,0-.7-1.77,12.08,12.08,0,0,0-7.8-3.55,1.92,1.92,0,0,0,1.76-2.6,5.76,5.76,0,0,0-3-2.37,38.22,38.22,0,0,0-4.55-1.75c-1.58-.49-3.55-.85-4.87,0-.05-1.8-1.66-3.52-3.85-4.09a6.84,6.84,0,0,0-6.21,1.44c.43-.37-.16-.92-.71-1.18a29.75,29.75,0,0,0-10.12-2.67,9,9,0,0,0-4.08.36c-1.24.49-2.16,1.63-1.76,2.67a8.79,8.79,0,0,0-2-2.28,4.26,4.26,0,0,0-3.28-.73,4.84,4.84,0,0,0-2.09,1.24,22.1,22.1,0,0,0-5,6.37c-.87-1-2.21-2.05-3.61-1.63a2.62,2.62,0,0,0-1.09.66,5.15,5.15,0,0,0-1.64,2.85,2.61,2.61,0,0,0-2.57,1.06,4.53,4.53,0,0,0-.59,2.4c-.07,1.48-.15,3-.22,4.44-1.24-1.25-3.89-1.14-5.37-.07a4.57,4.57,0,0,0-1.75,4.35,22.9,22.9,0,0,0,1.39,4.6l60.15,1.12c4.16-.36,8.76,1,12.34-.69a2,2,0,0,0,.93-.75,1.54,1.54,0,0,0-.27-1.45,16.51,16.51,0,0,0-3.18-3.86C1415.29,284.88,1417.45,284.77,1417.82,283.55Z" transform="translate(0 210.56)"/><path class="cls-55" d="M858.52,319.53c-.24-9.5,1.65-18.68,4.35-27.4s6.21-17.09,9.54-25.36a179.77,179.77,0,0,0,8.46-24.88c2-8.38,2.89-17,1.53-25.46l3.39-.49c2.39,8.74,2.47,17.84,1.33,26.7a178.91,178.91,0,0,1-5.85,26.16c-2.43,8.54-4.94,17-6.57,25.33s-2.34,16.68-1.25,24.64Z" transform="translate(0 210.56)"/><path class="cls-56" d="M883.83,233.61a2.68,2.68,0,0,0-1.21-.76,2.9,2.9,0,0,0-.77-.14,4.22,4.22,0,0,0-.94.06,8.25,8.25,0,0,1-3.13,0,8.76,8.76,0,0,1-2.73-1.09,22.6,22.6,0,0,1-3.76-3.1,8.66,8.66,0,0,0-3.6-2.21,22.39,22.39,0,0,0-4.8-.37,16.21,16.21,0,0,1-2.66-.27,13.43,13.43,0,0,1-2.49-.79,30,30,0,0,1-4.36-2.27,8.24,8.24,0,0,1-1.9-1.48,1.68,1.68,0,0,1-.17-2.15l.27.15a1.4,1.4,0,0,0,.33,1.75,7.5,7.5,0,0,0,1.89,1.26,30.34,30.34,0,0,0,4.4,1.92,11.59,11.59,0,0,0,4.69.66,23.29,23.29,0,0,1,5.31.11,11.16,11.16,0,0,1,4.72,2.4,21.4,21.4,0,0,0,3.62,2.59,6.08,6.08,0,0,0,1.86.62,5,5,0,0,0,1.9-.15,7.5,7.5,0,0,1,1.58-.19,6.53,6.53,0,0,1,1.72.19,6.19,6.19,0,0,1,2.93,1.54Z" transform="translate(0 210.56)"/><path class="cls-57" d="M868.76,226.15a10.7,10.7,0,0,1-2.4,1.1,1.19,1.19,0,0,0-.56.46,5.17,5.17,0,0,1-.68,1,2.83,2.83,0,0,1-1.54.73,5.22,5.22,0,0,1-1.52,0,23.92,23.92,0,0,1-2.61-.46c-3.31-.73-6.53-1.73-9.76-1.36l-.19-1a18.46,18.46,0,0,1,5.31.16c1.72.28,3.37.67,5,1a22.3,22.3,0,0,0,2.4.37,2.17,2.17,0,0,0,1.65-.34,5.23,5.23,0,0,0,.46-.82,2.7,2.7,0,0,1,1.15-1,12.54,12.54,0,0,0,2-.94Z" transform="translate(0 210.56)"/><path class="cls-58" d="M883.09,242.1a1.82,1.82,0,0,1,.61-1.32,3,3,0,0,1,1.1-.65,4.26,4.26,0,0,1,2.11-.14,12.2,12.2,0,0,0,1.62.36,1.26,1.26,0,0,0,.78-.54,6,6,0,0,0,.81-1.43c.48-1.1.84-2.33,1.36-3.58a10.41,10.41,0,0,1,2.4-3.57,5.37,5.37,0,0,0,1.86-2.95,15.13,15.13,0,0,1,.9-3.83,4.29,4.29,0,0,1,1.64-1.69,20,20,0,0,1,2.05-1,6.55,6.55,0,0,0,1.69-1.06,6,6,0,0,0,.65-.69,4.44,4.44,0,0,0,.27-.38l.12-.2.05-.1s0-.07.2-.06l.47.14c.14.08.12.12.1.16l-.06.12-.11.23a3.35,3.35,0,0,1-.27.45,6,6,0,0,1-.67.85,7.25,7.25,0,0,1-1.84,1.34c-1.36.7-2.53,1.29-2.9,2.32a15.33,15.33,0,0,0-.47,3.6,5.54,5.54,0,0,1-.65,2.06,11.25,11.25,0,0,1-1.28,1.73c-1.78,1.88-1.93,4.18-2.79,6.8a7.8,7.8,0,0,1-1,2,4.22,4.22,0,0,1-2.69,1.76,5,5,0,0,1-1.87,0c-.47-.09-.81-.18-1-.2s-.13,0-.14,0a.43.43,0,0,0,.17-.1.68.68,0,0,0,.21-.46Z" transform="translate(0 210.56)"/><path class="cls-59" d="M892.78,233.45l2.05-.51c.7-.18,1.31-.22,1.65-.37.67-.18,1-1.24,1.72-2.35a3.17,3.17,0,0,1,2-1.22,16.87,16.87,0,0,0,1.87-.36,6.8,6.8,0,0,0,3-1.72l.57.33a7.38,7.38,0,0,1-3.1,2.25c-.63.26-1.38.41-1.89.57a1.48,1.48,0,0,0-1,.77c-.22.4-.36.9-.59,1.46a3.25,3.25,0,0,1-1.48,1.7,14.52,14.52,0,0,1-2,.71l-1.65.59Z" transform="translate(0 210.56)"/><path class="cls-60" d="M837.37,220.51A2.55,2.55,0,0,1,839,219c-1.23-2.16.16-4.78,2.21-6.47a3.77,3.77,0,0,1,1.61-.87,1.69,1.69,0,0,1,1.71.49A11,11,0,0,1,847.1,208a3.67,3.67,0,0,1,1.55-1c1.56-.46,3.11.64,4.22,1.64.92.81,1.83,1.63,2.74,2.45a20.08,20.08,0,0,1,2.44-4.28,1.41,1.41,0,0,1,.79-.62,1.65,1.65,0,0,1,.9.14,4.76,4.76,0,0,1,3.15,3.87c-.06-.71.89-1.26,1.77-1.24a5,5,0,0,1,2.37.85,6.11,6.11,0,0,1,2.74,2.48,2,2,0,0,1-.88,2.55,1.17,1.17,0,0,1,.46,0,2.05,2.05,0,0,1-1.59,2.07,17.23,17.23,0,0,1-.7,2.5,3,3,0,0,1-1.68,2,3.31,3.31,0,0,1-3.14-.92c-.78-.74-1.28-1.66-2.12-2.34a7.43,7.43,0,0,1,.14,4.86,8.79,8.79,0,0,1-2.77-1.85,5.23,5.23,0,0,1-.77,2.32,2.5,2.5,0,0,1-1.63,1.24,1.43,1.43,0,0,1-1.38-.55,14.63,14.63,0,0,1,0,3.91,2.23,2.23,0,0,1-.59,1.42,2.51,2.51,0,0,1-2.26.37,5.49,5.49,0,0,1-2-1.15,17.37,17.37,0,0,1-2.71-2.86c-.72.7-.86,1.82-1.87,2.23a3.39,3.39,0,0,1-2.77-.52,10.61,10.61,0,0,1-3.57-3A4.35,4.35,0,0,1,837.37,220.51Z" transform="translate(0 210.56)"/><path class="cls-61" d="M864.85,208.3a12.66,12.66,0,0,1,1.87-2.37,2.89,2.89,0,0,1,1.7-1c.7-.08,1.52.44,1.32,1a40.32,40.32,0,0,1,4.08-3.34A4.08,4.08,0,0,1,875,202a2.91,2.91,0,0,1,2.86,1,5.39,5.39,0,0,1,1,2.59c1.39-2.29,5.09-3.43,8-2.47s4.56,3.9,3.59,6.33c1.57-1.89,4.48-2.72,7.25-3a4.58,4.58,0,0,1,2.12.12,2.38,2.38,0,0,1,1.22,3,24.2,24.2,0,0,0-1.2,3.26,5.72,5.72,0,0,1,2.94-2.53,6.53,6.53,0,0,1,4.13.56,22.81,22.81,0,0,1,5.68,3.31c.92.73,1.79,1.79,1.41,2.75a.91.91,0,0,1,.68.08c2.11,1.43,4,3.18,4.79,5.33a5,5,0,0,1-2.09,6.06,2.37,2.37,0,0,1-1.32.39c-.47,0-.94-.37-.89-.75a15.66,15.66,0,0,1-2.77,3.47,3.25,3.25,0,0,1-2.28,1.1,2.15,2.15,0,0,1-1.89-1.36,4.42,4.42,0,0,1-.11-2.17,5.73,5.73,0,0,1-3.52,2.17,5.64,5.64,0,0,1-3,.17c-1-.29-1.71-1.24-1.27-2-.5.86-1.76,1.21-2.91,1.38a4.54,4.54,0,0,1-2,0,2.29,2.29,0,0,1-1.57-2.23,6,6,0,0,1,1-2.61,9.46,9.46,0,0,1-3.15-.27c-1-.33-1.85-1.09-1.79-2a22.2,22.2,0,0,1-4.31,2.92,1.81,1.81,0,0,1-1,.27,1.21,1.21,0,0,1-.94-1,3.43,3.43,0,0,1,.24-2.29c-.8.41-.9,1.35-1.53,1.93a3,3,0,0,1-2.72.46,5.18,5.18,0,0,1-2.27-1.5c-2-2.17-2.8-5-3.31-7.67l-.21,1a2.32,2.32,0,0,1-1.84,1.09,7.29,7.29,0,0,1-2.37-.17,4.2,4.2,0,0,1-1.85-.67,1.94,1.94,0,0,1-.36-2.55,7.34,7.34,0,0,1,2.18-2.07c-2-.11-4.37-.44-5.13-2A3.25,3.25,0,0,1,864.85,208.3Z" transform="translate(0 210.56)"/><path class="cls-62" d="M848.94,207.16a1.48,1.48,0,0,1,.53-1.33,9.05,9.05,0,0,1,5.84-2.65,1.45,1.45,0,0,1-1.32-2,4.37,4.37,0,0,1,2.25-1.78,29,29,0,0,1,3.41-1.31c1.19-.37,2.66-.64,3.65,0a3.61,3.61,0,0,1,2.88-3.06,5.12,5.12,0,0,1,4.66,1.08c-.33-.28.12-.69.53-.89a22.29,22.29,0,0,1,7.58-2,6.81,6.81,0,0,1,3.06.27c.93.37,1.62,1.22,1.32,2a6.31,6.31,0,0,1,1.53-1.7,3.18,3.18,0,0,1,2.46-.55,3.68,3.68,0,0,1,1.56.93,16.54,16.54,0,0,1,3.74,4.77c.65-.72,1.65-1.54,2.71-1.23a2.09,2.09,0,0,1,.81.5,3.82,3.82,0,0,1,1.23,2.14,2,2,0,0,1,1.93.79,3.39,3.39,0,0,1,.44,1.8c0,1.11.11,2.22.17,3.32a3.34,3.34,0,0,1,5.33,3.22,17.41,17.41,0,0,1-1,3.44l-45.07.84c-3.12-.27-6.57.75-9.25-.52a1.47,1.47,0,0,1-.7-.56,1.17,1.17,0,0,1,.21-1.09,12.42,12.42,0,0,1,2.38-2.89C850.84,208.16,849.22,208.07,848.94,207.16Z" transform="translate(0 210.56)"/><path class="cls-63" d="M1663.74,325.17c-36.69,11.16-71.34,27.33-108.9,35.83a17.53,17.53,0,0,0-7.57-6.6c-2.15-1-4.68-1.77-6-3.5a11.56,11.56,0,0,0-1.74-2.5c-1.77-1.45-4.77-.69-7.06.15a4.6,4.6,0,0,0-1.38.7c-1.09,1-.48,2.5-.34,3.81a5,5,0,0,1-1.23,3.68c-2.41-5.31-2.13-11.32-1.77-17.05a14.48,14.48,0,0,0-6.67,9.37,92.85,92.85,0,0,1-1.32-16.12,2.24,2.24,0,0,0-1.39,2.14,35.06,35.06,0,0,0,1.57,15.36c-2.44-5.93-8.54-10.28-14.38-14.32.07,6.8,8.3,11.87,9.7,18.58-.68-2.2-2.79-3.95-5.2-5.05a35.42,35.42,0,0,0-7.83-2.2,34.09,34.09,0,0,1,13.38,10.64,18.78,18.78,0,0,0-9.19.94,8.57,8.57,0,0,1-2.52.73c-2,.09-3.55-1.47-5.52-1.77a8.93,8.93,0,0,0-4.5.88,32.73,32.73,0,0,0-8.21,4.12,22.26,22.26,0,0,0-5.24,6.48,306.57,306.57,0,0,0-38.16,5c-36.18,7.52-70.92,25.31-107.9,21.1-21.92-2.49-41.56-12.58-63.25-16.18-39.05-6.49-78.57,8.62-118.41,8.83-67.57.36-123.71-41.09-168.27-82.59-11.77-11-24.07-22.55-40.55-27.91a3.23,3.23,0,0,1,.25-1.83,2.22,2.22,0,0,0,.41-1.2,1.83,1.83,0,0,0-.79-1,33,33,0,0,0-11.63-5.76c.7-1.85-.78-3.78-2.51-5.1a20.43,20.43,0,0,0-15.29-3.48,3.64,3.64,0,0,0-2.11-1.35c-6.81-2.23-15.51,1.09-17.79,6.79-2.65-1.26-6.42-2.39-8.4-.48a5,5,0,0,0-1.13,2q-.81,2.24-1.6,4.47a5.3,5.3,0,0,0-4.91-2.57,5,5,0,0,0-4.54,3c-.7-1.43-1.4-3.85-3.3-3.7-1.74.45-1.27,2.86-1.25,4.37-3.14-1.11-4.71-5-8.12-4.71-2.48.2-3.69,2.53-4.38,4.49a6.56,6.56,0,0,0-2.52-3.61,3.73,3.73,0,0,0-3.76.09,3.58,3.58,0,0,0-1.17-4.56,8.64,8.64,0,0,0-6.71-1.2c1.3-3.32-2.24-7.25-6.5-7.21s-7.71,4-6.33,7.31l0,0c-1.38-2-5-1.78-6,.33a13,13,0,0,0-1.26,4.65c-.35-1.2-2.53-1.47-3.71-.7a4,4,0,0,0-1.59,3.34,10.57,10.57,0,0,1-.43,3.67,11.21,11.21,0,0,1-2.2-2.26,3.1,3.1,0,0,0-3-1,2.5,2.5,0,0,0-1.38,2.61,18.15,18.15,0,0,0,.53,4l-24.1.73q-6.87.19-13.79.44a18.61,18.61,0,0,1,2.52-4.48,14.83,14.83,0,0,0-6.17,3.37,6.52,6.52,0,0,1,1.8-4.56,8.67,8.67,0,0,0-4.85,3.26,37.36,37.36,0,0,0,.34-9,66.46,66.46,0,0,1-3,8.15,10.71,10.71,0,0,0-2.53-6.6,13.83,13.83,0,0,1,.54,7.92,11.39,11.39,0,0,0-2.8-6.2,27.86,27.86,0,0,1-1.77,8.69h-.16a6.07,6.07,0,0,0-.31-.74,3.84,3.84,0,0,0-3.28-2.18,11.2,11.2,0,0,0-2.71.78,10.21,10.21,0,0,1-5.84-.58c-.31-.11-.64-.21-1-.3-.61-1.42-1.3-2.83-2-4.22a1.88,1.88,0,0,0-.56-.75,2.1,2.1,0,0,0-2.08.1c-.63.33-1.13.81-1.79,1.08-1.94.8-4.38-.43-6.4.2-2.31.71-2.7,3.28-4.5,4.66a6.26,6.26,0,0,1-1.61.82,7.44,7.44,0,0,0-1.74-3.18,4,4,0,0,0-3.92-.92c.15-3.46-4.4-6.49-8.52-5.67a7,7,0,0,0-1.64-4.65,5.72,5.72,0,0,0-5.25-1.73,3.32,3.32,0,0,0-2.6,2.51,3.84,3.84,0,0,0-3.27-1.52,6.88,6.88,0,0,0-4.65,2.48c-.58.64-1.28,1.43-2.25,1.37a5.84,5.84,0,0,1-1.47-.46,4.22,4.22,0,0,0-4.46,1.59,7.86,7.86,0,0,0-1.13,4.19c.07-1.53-1.54-2.87-3.35-3.28a11.43,11.43,0,0,0-5.53.39c-8.83,2.42-15.56,9.29-16.51,16.86l18.72-.59c-49.13,6.46-95.79,19-133.42,45-13.6,9.4-25.89,20.49-41.9,26.88-1.17.46-2.36.87-3.55,1.28-.15-2.57-1.31-5.1-2.47-7.53a7.06,7.06,0,0,1-2.75,7.18,34.26,34.26,0,0,1,1.86-4.7c-1.42,2.48-5.37,3.85-5.74,6.56a10.66,10.66,0,0,1,1.57-4.72,8,8,0,0,0-5.23,4.72,31.81,31.81,0,0,1,4-7.06c-3.47.73-5.85,3.35-7.31,6a15.32,15.32,0,0,1,4.84-9.54,7.93,7.93,0,0,0-3.5,3.27A32.06,32.06,0,0,0,478.67,363c-1.42.22-2.85.42-4.29.61a28.42,28.42,0,0,0-1.79-3.84,3.5,3.5,0,0,0-1.51-1.61c-1.43-.67-3.28.21-4.14,1.36a8.14,8.14,0,0,1-1.81,2.33,8,8,0,0,1-3.28.86c-1.14.16-2.4.51-2.9,1.36a2.28,2.28,0,0,0-.27,1.14c-13.51,1.13-27.17,2-40.1,5.09-23.79,5.71-44.23,18.84-68.23,23.89-29.39,6.19-60.2-.37-90.44-2.47C173.2,385.66,84.3,416.56,0,406.6V799.49H1920.86V305.86C1833.58,301,1745.1,300.4,1663.74,325.17Z" transform="translate(0 210.56)"/><g class="cls-64"><rect class="cls-65" x="2.25" width="1918.36" height="918.96"/></g><path class="cls-66" d="M1110.24,418.47c-6.82-.58-13.62-1.32-20.45-2,5.51-4.14,15.27-2.58,13.33-13.18-1.2-6.51-.5-12.65,7.7-16.39-11.06,2.92-7.23-8.3-13.08-10.9-5.51-2.44-15.92-2.44-12.75-13.93-3.92,1.27-7.23,3.69-10.77,1.75-13-7.1-28.69-5.09-41.7-12-2.69-1.42-6.47-2.13-7.37,1.5-2.39,9.43-8.14,6.63-13.48,3.66-14.19-7.89-28.54-8.39-43.41-2-2.82,1.2-5.78,2.92-8.87-.29-2.32-2.39-4.11.29-5.68,1.58-13.83,11.12-27.6,21.67-38.09,36.72-13.4,19.23-22.42,39-25.36,61.84-.64,5.09.43,6.31,5.13,7.58,3.47.91,9.35-.31,9.4,6,.12,16.79,2,33.68,1.59,50.21-.22,11.12.35,22.72-1.44,33.92-1.25,7.72-7.33,14.64-4.26,23.87a56.78,56.78,0,0,1-12.61-11.74c-3.11-4-5.16-11.46.57-12.11,10.84-1.24,8.6-7.44,8.12-13.23-.79-9.66-1.94-19.47-7.47-27.84-2.74-4.14-1.87-7.13,1.05-9.9,6.8-6.51,6.1-13.4,2.51-21.1-7.92-16.94-14-34.06-11.26-53.42,1.25-9,2.35-17.36,6.66-25.83,8.22-16.15,6.6-32.32-5.66-46.46a23.63,23.63,0,0,1-5.65-12.31c-3.34-19.17-3.12-38.42-3.54-57.75-.32-14.59-3.26-29.23-6.25-43.61-3.19-15.21-.73-32.1-13.75-44.78-3.09-3-.83-6,3.38-7.75,10.12-4.26,19.88-9.25,30.07-13.3,6-2.39,9.91-5.4,9.52-12.1-.2-3.45.44-6,5.33-5.57,18.78,1.81,37.76,1.77,56.29,5.66,1.72.36,3.07,2.25,5.21.94,9.24-5.74,20-4.38,29.72-3.76,14.15.91,28.07,4.93,42.12,7.49,4.14.74,8.37,2,12.53.53,3.61-1.3,6-3.93,5.8-7.83-.29-4.57-4.35-2.77-6.82-3q-20.9-1.94-41.85-3.39c-5.23-.36-8.34-2.64-9.44-7.59,3.34-2.58,6.9-1.36,10.34-.81,9.21,1.46,17.71-2.68,23-7.92,4.41-4.4,2.67-13.44-.1-20.07-6.22-15-1.81-26.17,13.33-32.67,13-5.58,26.13-11.1,39.09-16.89,2.41-1.08,6.55-1.17,6.12-6.58-19.55,8-38.41,15.67-57.39,23.39-2.27-7.55,2.32-10.5,7.12-13.92-7.07,2.78-11,.65-13.17-5.52-1.67-4.67-5.43-7.47-10-9.64-6.1-3-12-6.17-18-9.4-4.36-2.37-6.28-7.16-10-10-7.45-5.77,4.78-6.82,2.61-11.17-17,6.15-17,6.12-35.34-.12-8-2.7-16-5.26-23.92-8-2.79-1-5.45-1.89-8.52-1.41-11.6,1.84-22.46-.65-33.18-4.93C878.88,7.6,870.14,5.14,861.67,2c-3.74-1.36-5.58-.62-7.8,2.78-3.86,6-5.31,16-11.93,17s-14.5-4.19-21.8-6.7c-3.36-1.15-6.9-2-10-3.66q-39-20.88-79.81-3.69c-2.67,1.11-5.66,1.44-8.37,2.47-7.38,2.77-14.45,2.65-21.38-1.27C694.87,5.69,690.21,6.67,685,11c-17.88,15-36.09,29.71-54.45,44.21-7.62,6-15.44,11.46-14.77,22.44.2,3.3-2.57,5.66-4.38,8.2-15.95,22.08-31.89,44.21-48,66.17a35,35,0,0,0-6.1,13.56c-4.73,22-9.52,44-14.15,66-4.53,21.53-4.48,21.6,17.79,25.22,8.07,1.29,17.76.88,11.43,13.44-.62,1.24,0,3.09,0,4.64,1.07,34.3,3.24,68.51,7.32,102.6.63,5.38,2,11.1-1.42,16.43a30.24,30.24,0,0,0-3.13,27.17c5.65,15.27,2.06,30.26,1.59,45.41,0,2.32-1.69,3.61-2.67,5.35-4.83,8.62-13.2,18.21-9.86,27.15,4,10.7,2.14,19-1.59,28.33-2.94,7.32-5.76,15-5.21,22.75.8,10.93-4,18.3-12.26,24.66-3.31,2.53-6.62,5.4-5.53,10.19,2.42,10.67-2.51,16.19-13.22,18.11-1.6.28-3.89.59-4.41,2.89.47.38.92,1.08,1.37,1.08,32.58.09,65.34,2,97.7-.55,17.81-1.41,35.49-.84,53.2-1.92,1.9-.12,5.08-1.5,5.68,1.65.48,2.59-2.39,3.28-4.26,4.43-4.93,3-10.83,4.76-16.49,10.74,4.74,0,7.23.1,9.72,0,43.84-2,87.78,3.46,131.65-3,17.21-2.56,35.15-.4,52.73-.76,25-.53,50.12,1.41,75.06-2.52,7-1.1,14.39-.16,24-.16-3.63,3-5.13,4.23-7.39,6.1,34.3,1.65,67.43-1.44,100.56-.41,6.28.19,11,.57,6.37-8.16-2.16-4.06-3.76-8.37-6.92-12-1.87-2.08-4.68-4.73-2-7.32,5.26-5,3.29-10.07.87-15.16-1.54-3.26-2.84-6.17-.72-9.69a8.29,8.29,0,0,0,0-8.13c-5.66-11.61-5.73-23.25-1.15-35.26,2.07-5.39,1.35-11.08-1.34-16.39-4.66-9.18-4.44-19.14-5.48-29-1.5-14.09-.58-28.81-7.73-42-2.36-4.36,1.5-4.31,3.59-5.84,5-3.71,14.1-2.15,15.29-10.95.08-.43,2.92-.91,4.36-.7,17.57,2.54,35.65-1.29,53,4a42.47,42.47,0,0,0,5.73,1.17c2.62.45,4.54-.53,5-3.11C1115,419.06,1112.76,418.68,1110.24,418.47ZM588,533.17c-2.72-.34-6.45,1.12-5.95-3.66.32-3.33,1.29-6.08,5.63-5.79s6.42,2.72,6.5,6.5C594.31,535.15,590.05,532.26,588,533.17Zm82.55-60.24c-.87,6.41-6.23,13.21-9.39,19.88-2.57,5.41-3.81,10.81.7,15.77,3,3.22,1.57,6.36.57,9.61-5.33,17.32-10.41,34.73-16.14,51.93-2.42,7.23-3.24,14.62-4.71,21.94-.47,2.37-.17,5.52-4.33,4.26-3.07-.94-7.75.33-7.65-5.1.47-25.62-10.26-49.56-12.16-74.75-.84-11.15,2.62-23.13-4-33.06-8.72-13.13-4.26-26.67-4.14-40.21.08-8.16,5.58-14.5,6.9-22.27,1.45-8.52,1.87-16.75-.57-25.05-7.67-26-4.06-52.62-4.33-79-.05-3.23,2-4.16,4.6-5.07,7.92-2.75,16-5.28,23.59-8.63,4.86-2.13,7.15-1.27,8.55,3.42,1.84,6.27,4.93,11.43,12.58,12.32,4.41.5,3.41,3.82,3.53,6.5.4,9.36.6,18.73,1.18,28.11.67,11.39,9.41,21.58,5.38,30.79.74,11,.92,18.85-2,26.86a30,30,0,0,0,.37,22.15C675,446.45,672.37,460,670.58,472.93Zm17.06,62.22c-3.81-.33-8.79,2.11-11.35-2.77,1.54-4.67,2.61-8.81,8.69-8.85,6.53-.08,8.44,3.73,8.84,8.8S689.76,535.34,687.64,535.15Zm30-147.18c6.17,18.77,3.83,38,2.36,56.64-.69,8.64-8.91,17.65-14.35,26.55-.29-11.5-2.59-23.22,2.2-34.13,4.26-9.74,6.17-19.83,2.34-29.11-8.52-20.72-6.7-42.37-8.37-63.68-1-12.13.3-24.42-.7-36.53-.82-9.9,2.37-16.69,11-20.62,11,16.22,10.24,34.21,11.46,51.89a21,21,0,0,1-2.32,11.65C715.15,362.56,713.48,375.36,717.64,388Zm13.82,137.95c-1.89,0-3.78-.27-5.93-.41.78-8.06,3.19-14,13-14.26,10.11-.26,11.83,6.32,13.35,14.69C744.84,525.94,738.14,526,731.46,525.92Zm103-98.7a10.54,10.54,0,0,0-.22,2c3.16,19.45-9.32,34.23-16.24,50.69-1.27,3-4.11,5.93-1,9.45,5.6,6.36,3.88,12.32,1,19.73-5.51,14.05-9.84,28.49-3.51,44.11,2.24,5.55,2.29,14.21-2.44,18.83-8.85,8.66-10.59,18.71-10.62,29.8,0,2.23,1.17,5.46-3.18,5.41-3.92,0-3.42-2.77-3.64-5.31-.8-8.44-1.3-16.27-6.5-24.49-4.59-7.23-2.89-18.16-3.81-27.47-1.5-14.64-3.62-29.2-9.07-43-1.79-4.49.15-7.36,2.22-10.26,4.45-6.17,5.4-12.46,2.31-19.3-4.26-9.4-2.76-20.69-11.28-28.95-2.09-2-.28-7.79-.25-11.86.1-17.34-.75-34.37,7.05-51.29,6.35-13.75,3.74-28.92-4.81-42.22a23.29,23.29,0,0,1-3.59-11.45c-.79-12.8-1.27-25.62-2.69-38.37-1-8.54,5-15.94,3.32-24.52-.63-3.14,2.84-2.68,5-2.68,13,0,26.06.09,39.09-.1,4.31-.05,5.35,1.56,5.65,5.5,1,12.78,3.46,25.53,3.32,38.28,0,6.22,6.07,7.25,6.67,12.17,1.52,12.42,3.56,24.79,5.21,37.18a11,11,0,0,1-.95,5.38c-5.75,13.2-5.21,26.1,1.4,38.89C837,411.38,832.85,420,834.46,427.22ZM863,528.57c-3.86-.26-7.79,0-11.68,0-2.27,0-4.63.38-6.8-.08-2.57-.55-6.18,2.8-7.57-1.26-1.17-3.43.1-6.87,2.84-9.45,5.6-5.29,23-2.87,27,3.68C869.29,525.61,870.48,529.1,863,528.57Zm84.7,23.59c-4.86,11.34-2.15,23.92-7.35,35.14-3.46,7.49-6.7,15.12-7.67,23.54l-2.92-.65c-2.22-13.73-4-27.53-6.75-41.14-2.52-12.3-1.49-24.19-.55-36.6.87-11.63-1.22-24-1.44-36.05-.15-9.69,6.87-10.67,13.17-13.11,1.8-.72,9.67,8.71,9.65,12.18-.18,12.82,7.29,25.11,1.81,38.51C943.32,539.55,950.2,546.18,947.66,552.16Zm21.62-52.67c-5.06,13.63-.35,27-1.1,40.42-.25,4.4-.25,8.59-6.7,13,4.93-24.19-1-46.22-1.12-68.44,0-3.4,1-6,3.69-6.74,3.68-1.06,2.11,3.32,3.71,5C972.24,487.48,971.05,494.75,969.28,499.49Zm7.2,81.8c-2.49-.12-5.53-.09-5.18-3.75.27-2.85,2.71-2.87,5-3.16,3.47-.41,4.11,2.11,5.16,3.85C981.21,582,978.52,581.39,976.48,581.29Zm36.57-28c-3.14,3.4-5.44,7.25-2,11.7,2.21,2.87.45,5.19-.53,7.84-2.59,7-5.65,14-1.37,21.49a5,5,0,0,1-1,6.1c-4.26,3.54-5.23,8-5.1,13.34-6.41-12.77-7.13-26.36-9.87-39.54-1.17-5.69,4.06-11.19,1.15-17.15-6.7-13.73-6.45-27.39-.2-41.29,2.14-4.78.17-9.78-2.29-14.37-5.31-9.88-5.23-20.46-2.15-30.6,2.5-8.27,10.54-2.32,15.87-3.71,4.66-1.19,5.36,2.4,5,5.75-.79,8.63,4.31,16.19,5,24.27,1.4,16,.92,32.06,1.42,48.11C1017.16,548.83,1015.26,550.94,1013.05,553.33Zm13.67,22.25a3.88,3.88,0,0,1,4.91,4.21c-.35,4.18-4.44,0-5.56,2.05-2.84-.67-6.72,1-6.77-2.51C1019.2,574.74,1024,576.27,1026.72,575.58Z" transform="translate(0 210.56)"/></g></g></svg>